{
  "asset": {
    "generator": "glTF-Transform v4.5.0",
    "version": "2.0"
  },
  "accessors": [
    {
      "type": "VEC3",
      "componentType": 5126,
      "count": 660,
      "max": [
        0.18440620601177216,
        0.7492536902427673,
        0.16995054483413696
      ],
      "min": [
        -0.184407040476799,
        0.011909885331988335,
        -0.19007788598537445
      ],
      "bufferView": 0,
      "byteOffset": 0
    },
    {
      "type": "VEC3",
      "componentType": 5126,
      "count": 660,
      "bufferView": 0,
      "byteOffset": 12
    },
    {
      "type": "VEC2",
      "componentType": 5126,
      "count": 660,
      "bufferView": 0,
      "byteOffset": 24
    },
    {
      "type": "SCALAR",
      "componentType": 5123,
      "count": 1260,
      "bufferView": 1,
      "byteOffset": 0
    }
  ],
  "bufferViews": [
    {
      "buffer": 0,
      "byteOffset": 0,
      "byteLength": 21120,
      "byteStride": 32,
      "target": 34962
    },
    {
      "buffer": 0,
      "byteOffset": 21120,
      "byteLength": 2520,
      "target": 34963
    }
  ],
  "samplers": [
    {
      "wrapS": 10497,
      "wrapT": 10497
    }
  ],
  "textures": [
    {
      "source": 0,
      "sampler": 0
    },
    {
      "source": 1,
      "sampler": 0
    }
  ],
  "images": [
    {
      "name": "hydrant_0",
      "mimeType": "image/jpeg",
      "uri": "hydrant_0.jpg"
    },
    {
      "name": "hydrant_1",
      "mimeType": "image/jpeg",
      "uri": "hydrant_1.jpg"
    }
  ],
  "buffers": [
    {
      "name": "hydrant.bin",
      "uri": "hydrant.bin",
      "byteLength": 23640
    }
  ],
  "materials": [
    {
      "name": "Fire_Hydrant",
      "doubleSided": true,
      "pbrMetallicRoughness": {
        "roughnessFactor": 0.503705274714307,
        "metallicFactor": 0.1,
        "baseColorTexture": {
          "index": 0
        }
      },
      "normalTexture": {
        "index": 1
      }
    }
  ],
  "meshes": [
    {
      "name": "hydrant",
      "primitives": [
        {
          "attributes": {
            "POSITION": 0,
            "NORMAL": 1,
            "TEXCOORD_0": 2
          },
          "mode": 4,
          "material": 0,
          "indices": 3
        }
      ]
    }
  ],
  "nodes": [
    {
      "name": "hydrant",
      "mesh": 0
    }
  ],
  "scenes": [
    {
      "name": "Scene",
      "nodes": [
        0
      ]
    }
  ]
}