{
  "asset": {
    "generator": "glTF-Transform v4.5.0",
    "version": "2.0",
    "extras": {
      "author": "SDC PERFORMANCE™️ (https://sketchfab.com/Lambo_SC04)",
      "license": "CC-BY-4.0 (http://creativecommons.org/licenses/by/4.0/)",
      "source": "https://sketchfab.com/3d-models/lamborghini-aventador-svj-sdc-free-784e4656aca649cca55d6b18740a19b2",
      "title": "Lamborghini Aventador SVJ SDC ( FREE )"
    }
  },
  "accessors": [
    {
      "type": "VEC3",
      "componentType": 5126,
      "count": 6263,
      "max": [
        1.0438052415847778,
        1.153714656829834,
        2.2951607704162598
      ],
      "min": [
        -1.0477083921432495,
        0.11832423508167267,
        -2.5488932132720947
      ],
      "bufferView": 0,
      "byteOffset": 0
    },
    {
      "type": "VEC3",
      "componentType": 5126,
      "count": 6263,
      "bufferView": 0,
      "byteOffset": 12
    },
    {
      "type": "SCALAR",
      "componentType": 5123,
      "count": 28584,
      "bufferView": 1,
      "byteOffset": 0
    },
    {
      "type": "SCALAR",
      "componentType": 5123,
      "count": 111606,
      "bufferView": 1,
      "byteOffset": 57168
    },
    {
      "type": "SCALAR",
      "componentType": 5123,
      "count": 3,
      "bufferView": 1,
      "byteOffset": 280380
    },
    {
      "type": "SCALAR",
      "componentType": 5123,
      "count": 4812,
      "bufferView": 1,
      "byteOffset": 280388
    },
    {
      "type": "SCALAR",
      "componentType": 5123,
      "count": 33276,
      "bufferView": 1,
      "byteOffset": 290012
    },
    {
      "type": "SCALAR",
      "componentType": 5123,
      "count": 192,
      "bufferView": 1,
      "byteOffset": 356564
    },
    {
      "type": "SCALAR",
      "componentType": 5123,
      "count": 1113,
      "bufferView": 1,
      "byteOffset": 356948
    },
    {
      "type": "SCALAR",
      "componentType": 5123,
      "count": 1437,
      "bufferView": 1,
      "byteOffset": 359176
    },
    {
      "type": "SCALAR",
      "componentType": 5123,
      "count": 3816,
      "bufferView": 1,
      "byteOffset": 362052
    },
    {
      "type": "SCALAR",
      "componentType": 5123,
      "count": 1749,
      "bufferView": 1,
      "byteOffset": 369684
    },
    {
      "type": "SCALAR",
      "componentType": 5123,
      "count": 4674,
      "bufferView": 1,
      "byteOffset": 373184
    },
    {
      "type": "SCALAR",
      "componentType": 5123,
      "count": 57,
      "bufferView": 1,
      "byteOffset": 382532
    },
    {
      "type": "SCALAR",
      "componentType": 5123,
      "count": 105,
      "bufferView": 1,
      "byteOffset": 382648
    },
    {
      "type": "SCALAR",
      "componentType": 5123,
      "count": 10935,
      "bufferView": 1,
      "byteOffset": 382860
    },
    {
      "type": "SCALAR",
      "componentType": 5123,
      "count": 96,
      "bufferView": 1,
      "byteOffset": 404732
    },
    {
      "type": "SCALAR",
      "componentType": 5123,
      "count": 96,
      "bufferView": 1,
      "byteOffset": 404924
    },
    {
      "type": "SCALAR",
      "componentType": 5123,
      "count": 48,
      "bufferView": 1,
      "byteOffset": 405116
    },
    {
      "type": "SCALAR",
      "componentType": 5123,
      "count": 2802,
      "bufferView": 1,
      "byteOffset": 405212
    },
    {
      "type": "SCALAR",
      "componentType": 5123,
      "count": 1806,
      "bufferView": 1,
      "byteOffset": 410816
    },
    {
      "type": "SCALAR",
      "componentType": 5123,
      "count": 93,
      "bufferView": 1,
      "byteOffset": 414428
    },
    {
      "type": "SCALAR",
      "componentType": 5123,
      "count": 180,
      "bufferView": 1,
      "byteOffset": 414616
    },
    {
      "type": "SCALAR",
      "componentType": 5123,
      "count": 180,
      "bufferView": 1,
      "byteOffset": 414976
    },
    {
      "type": "SCALAR",
      "componentType": 5123,
      "count": 13188,
      "bufferView": 1,
      "byteOffset": 415336
    },
    {
      "type": "SCALAR",
      "componentType": 5123,
      "count": 1056,
      "bufferView": 1,
      "byteOffset": 441712
    },
    {
      "type": "SCALAR",
      "componentType": 5123,
      "count": 2838,
      "bufferView": 1,
      "byteOffset": 443824
    },
    {
      "type": "SCALAR",
      "componentType": 5123,
      "count": 1497,
      "bufferView": 1,
      "byteOffset": 449500
    },
    {
      "type": "SCALAR",
      "componentType": 5123,
      "count": 1494,
      "bufferView": 1,
      "byteOffset": 452496
    },
    {
      "type": "SCALAR",
      "componentType": 5123,
      "count": 12723,
      "bufferView": 1,
      "byteOffset": 455484
    },
    {
      "type": "SCALAR",
      "componentType": 5123,
      "count": 12723,
      "bufferView": 1,
      "byteOffset": 480932
    },
    {
      "type": "SCALAR",
      "componentType": 5123,
      "count": 1056,
      "bufferView": 1,
      "byteOffset": 506380
    },
    {
      "type": "SCALAR",
      "componentType": 5123,
      "count": 1056,
      "bufferView": 1,
      "byteOffset": 508492
    },
    {
      "type": "SCALAR",
      "componentType": 5123,
      "count": 465,
      "bufferView": 1,
      "byteOffset": 510604
    },
    {
      "type": "SCALAR",
      "componentType": 5123,
      "count": 465,
      "bufferView": 1,
      "byteOffset": 511536
    },
    {
      "type": "SCALAR",
      "componentType": 5123,
      "count": 72,
      "bufferView": 1,
      "byteOffset": 512468
    },
    {
      "type": "SCALAR",
      "componentType": 5123,
      "count": 72,
      "bufferView": 1,
      "byteOffset": 512612
    },
    {
      "type": "SCALAR",
      "componentType": 5123,
      "count": 2838,
      "bufferView": 1,
      "byteOffset": 512756
    },
    {
      "type": "SCALAR",
      "componentType": 5123,
      "count": 2832,
      "bufferView": 1,
      "byteOffset": 518432
    },
    {
      "type": "SCALAR",
      "componentType": 5123,
      "count": 1275,
      "bufferView": 1,
      "byteOffset": 524096
    },
    {
      "type": "SCALAR",
      "componentType": 5123,
      "count": 72,
      "bufferView": 1,
      "byteOffset": 526648
    },
    {
      "type": "SCALAR",
      "componentType": 5123,
      "count": 29751,
      "bufferView": 1,
      "byteOffset": 526792
    },
    {
      "type": "SCALAR",
      "componentType": 5123,
      "count": 789,
      "bufferView": 1,
      "byteOffset": 586296
    },
    {
      "type": "SCALAR",
      "componentType": 5123,
      "count": 19626,
      "bufferView": 1,
      "byteOffset": 587876
    },
    {
      "type": "SCALAR",
      "componentType": 5123,
      "count": 13191,
      "bufferView": 1,
      "byteOffset": 627128
    },
    {
      "type": "SCALAR",
      "componentType": 5123,
      "count": 1059,
      "bufferView": 1,
      "byteOffset": 653512
    },
    {
      "type": "SCALAR",
      "componentType": 5123,
      "count": 2835,
      "bufferView": 1,
      "byteOffset": 655632
    },
    {
      "type": "VEC3",
      "componentType": 5126,
      "count": 25533,
      "max": [
        1.135437250137329,
        1.1535290479660034,
        2.3539698123931885
      ],
      "min": [
        -1.139676809310913,
        0.1048136055469513,
        -2.5890300273895264
      ],
      "bufferView": 2,
      "byteOffset": 0
    },
    {
      "type": "VEC3",
      "componentType": 5126,
      "count": 25533,
      "bufferView": 2,
      "byteOffset": 12
    },
    {
      "type": "VEC2",
      "componentType": 5126,
      "count": 25533,
      "bufferView": 2,
      "byteOffset": 24
    },
    {
      "type": "VEC3",
      "componentType": 5126,
      "count": 3,
      "max": [
        -0.1404944211244583,
        -0.20565465092658997,
        -0.348127156496048
      ],
      "min": [
        -0.14236046373844147,
        -0.20569580793380737,
        -0.3481433689594269
      ],
      "bufferView": 3,
      "byteOffset": 0
    },
    {
      "type": "VEC3",
      "componentType": 5126,
      "count": 3,
      "bufferView": 3,
      "byteOffset": 12
    },
    {
      "type": "VEC2",
      "componentType": 5126,
      "count": 3,
      "bufferView": 3,
      "byteOffset": 24
    },
    {
      "type": "VEC3",
      "componentType": 5126,
      "count": 3,
      "max": [
        0.14282022416591644,
        -0.20565465092658997,
        -0.3485232889652252
      ],
      "min": [
        0.14095424115657806,
        -0.20569580793380737,
        -0.3485387861728668
      ],
      "bufferView": 4,
      "byteOffset": 0
    },
    {
      "type": "VEC3",
      "componentType": 5126,
      "count": 3,
      "bufferView": 4,
      "byteOffset": 12
    },
    {
      "type": "VEC2",
      "componentType": 5126,
      "count": 3,
      "bufferView": 4,
      "byteOffset": 24
    },
    {
      "type": "VEC3",
      "componentType": 5126,
      "count": 1306,
      "max": [
        1.0427708625793457,
        1.109121322631836,
        2.18300461769104
      ],
      "min": [
        -1.046697974205017,
        0.2386540174484253,
        -2.4501543045043945
      ],
      "bufferView": 5,
      "byteOffset": 0
    },
    {
      "type": "VEC3",
      "componentType": 5126,
      "count": 1306,
      "bufferView": 5,
      "byteOffset": 12
    },
    {
      "type": "VEC3",
      "componentType": 5126,
      "count": 6703,
      "max": [
        1.1238919496536255,
        0.8964211344718933,
        2.1545567512512207
      ],
      "min": [
        -1.1281315088272095,
        0.42830121517181396,
        -2.0574533939361572
      ],
      "bufferView": 6,
      "byteOffset": 0
    },
    {
      "type": "VEC3",
      "componentType": 5126,
      "count": 6703,
      "bufferView": 6,
      "byteOffset": 12
    },
    {
      "type": "VEC3",
      "componentType": 5126,
      "count": 50,
      "max": [
        0.8799408078193665,
        0.745936930179596,
        1.8592551946640015
      ],
      "min": [
        -0.8833935856819153,
        0.5344497561454773,
        1.8583502769470215
      ],
      "bufferView": 7,
      "byteOffset": 0
    },
    {
      "type": "VEC3",
      "componentType": 5126,
      "count": 50,
      "bufferView": 7,
      "byteOffset": 12
    },
    {
      "type": "VEC3",
      "componentType": 5126,
      "count": 306,
      "max": [
        0.8646254539489746,
        1.0807477235794067,
        2.264082908630371
      ],
      "min": [
        -0.868430495262146,
        0.5022265315055847,
        -2.2845191955566406
      ],
      "bufferView": 8,
      "byteOffset": 0
    },
    {
      "type": "VEC3",
      "componentType": 5126,
      "count": 306,
      "bufferView": 8,
      "byteOffset": 12
    },
    {
      "type": "VEC3",
      "componentType": 5126,
      "count": 324,
      "max": [
        1.0173653364181519,
        0.875640332698822,
        2.2067556381225586
      ],
      "min": [
        -1.020888090133667,
        0.42897331714630127,
        -2.2256009578704834
      ],
      "bufferView": 9,
      "byteOffset": 0
    },
    {
      "type": "VEC3",
      "componentType": 5126,
      "count": 324,
      "bufferView": 9,
      "byteOffset": 12
    },
    {
      "type": "VEC3",
      "componentType": 5126,
      "count": 817,
      "max": [
        1.0160393714904785,
        1.0881235599517822,
        2.2075467109680176
      ],
      "min": [
        -1.0201555490493774,
        0.10396510362625122,
        -2.4283831119537354
      ],
      "bufferView": 10,
      "byteOffset": 0
    },
    {
      "type": "VEC3",
      "componentType": 5126,
      "count": 817,
      "bufferView": 10,
      "byteOffset": 12
    },
    {
      "type": "VEC3",
      "componentType": 5126,
      "count": 322,
      "max": [
        0.5634243488311768,
        0.6995589733123779,
        -1.7093384265899658
      ],
      "min": [
        -0.5683859586715698,
        0.5088881254196167,
        -2.191659927368164
      ],
      "bufferView": 11,
      "byteOffset": 0
    },
    {
      "type": "VEC3",
      "componentType": 5126,
      "count": 322,
      "bufferView": 11,
      "byteOffset": 12
    },
    {
      "type": "VEC3",
      "componentType": 5126,
      "count": 943,
      "max": [
        0.028057141229510307,
        0.4661659300327301,
        -2.393771171569824
      ],
      "min": [
        -0.03328140452504158,
        0.4215393662452698,
        -2.4527742862701416
      ],
      "bufferView": 12,
      "byteOffset": 0
    },
    {
      "type": "VEC3",
      "componentType": 5126,
      "count": 943,
      "bufferView": 12,
      "byteOffset": 12
    },
    {
      "type": "VEC3",
      "componentType": 5126,
      "count": 16,
      "max": [
        0.5831863880157471,
        0.6427717208862305,
        -1.720751166343689
      ],
      "min": [
        -0.5881131291389465,
        0.37765440344810486,
        -2.200460910797119
      ],
      "bufferView": 13,
      "byteOffset": 0
    },
    {
      "type": "VEC3",
      "componentType": 5126,
      "count": 16,
      "bufferView": 13,
      "byteOffset": 12
    },
    {
      "type": "VEC3",
      "componentType": 5126,
      "count": 35,
      "max": [
        0.9110625386238098,
        0.32117077708244324,
        -0.12256661057472229
      ],
      "min": [
        -0.9153111577033997,
        0.26378577947616577,
        -0.7116743922233582
      ],
      "bufferView": 14,
      "byteOffset": 0
    },
    {
      "type": "VEC3",
      "componentType": 5126,
      "count": 35,
      "bufferView": 14,
      "byteOffset": 12
    },
    {
      "type": "VEC3",
      "componentType": 5126,
      "count": 2190,
      "max": [
        0.9036217331886292,
        1.055114984512329,
        2.2590579986572266
      ],
      "min": [
        -0.9070563316345215,
        0.5453960299491882,
        1.8828777074813843
      ],
      "bufferView": 15,
      "byteOffset": 0
    },
    {
      "type": "VEC3",
      "componentType": 5126,
      "count": 2190,
      "bufferView": 15,
      "byteOffset": 12
    },
    {
      "type": "VEC3",
      "componentType": 5126,
      "count": 30,
      "max": [
        1.0267822742462158,
        0.6587496995925903,
        0.9350931644439697
      ],
      "min": [
        -1.0306211709976196,
        0.632337749004364,
        0.8868138790130615
      ],
      "bufferView": 16,
      "byteOffset": 0
    },
    {
      "type": "VEC3",
      "componentType": 5126,
      "count": 30,
      "bufferView": 16,
      "byteOffset": 12
    },
    {
      "type": "VEC3",
      "componentType": 5126,
      "count": 30,
      "max": [
        1.0332896709442139,
        0.6568769216537476,
        0.8961724042892456
      ],
      "min": [
        -1.037160038948059,
        0.6254736185073853,
        0.809168815612793
      ],
      "bufferView": 17,
      "byteOffset": 0
    },
    {
      "type": "VEC3",
      "componentType": 5126,
      "count": 30,
      "bufferView": 17,
      "byteOffset": 12
    },
    {
      "type": "VEC3",
      "componentType": 5126,
      "count": 20,
      "max": [
        1.0348070859909058,
        0.651265025138855,
        0.8273791074752808
      ],
      "min": [
        -1.0386888980865479,
        0.6240447759628296,
        0.7808473110198975
      ],
      "bufferView": 18,
      "byteOffset": 0
    },
    {
      "type": "VEC3",
      "componentType": 5126,
      "count": 20,
      "bufferView": 18,
      "byteOffset": 12
    },
    {
      "type": "VEC3",
      "componentType": 5126,
      "count": 496,
      "max": [
        0.8624661564826965,
        1.089163064956665,
        2.1859724521636963
      ],
      "min": [
        -0.8667058348655701,
        0.7193734645843506,
        -1.5666321516036987
      ],
      "bufferView": 19,
      "byteOffset": 0
    },
    {
      "type": "VEC3",
      "componentType": 5126,
      "count": 496,
      "bufferView": 19,
      "byteOffset": 12
    },
    {
      "type": "VEC3",
      "componentType": 5126,
      "count": 449,
      "max": [
        0.6421957612037659,
        0.5779322981834412,
        -2.0725862979888916
      ],
      "min": [
        -0.6456400752067566,
        0.5083031058311462,
        -2.147594928741455
      ],
      "bufferView": 20,
      "byteOffset": 0
    },
    {
      "type": "VEC3",
      "componentType": 5126,
      "count": 449,
      "bufferView": 20,
      "byteOffset": 12
    },
    {
      "type": "VEC3",
      "componentType": 5126,
      "count": 33,
      "max": [
        0.8150779008865356,
        0.6282778382301331,
        -1.8800333738327026
      ],
      "min": [
        -0.8186082243919373,
        0.4873250722885132,
        -2.2033324241638184
      ],
      "bufferView": 21,
      "byteOffset": 0
    },
    {
      "type": "VEC3",
      "componentType": 5126,
      "count": 33,
      "bufferView": 21,
      "byteOffset": 12
    },
    {
      "type": "VEC3",
      "componentType": 5126,
      "count": 32,
      "max": [
        0.2665846347808838,
        0.31717753410339355,
        -0.22568193078041077
      ],
      "min": [
        0.24193750321865082,
        0.23811793327331543,
        -0.28988638520240784
      ],
      "bufferView": 22,
      "byteOffset": 0
    },
    {
      "type": "VEC3",
      "componentType": 5126,
      "count": 32,
      "bufferView": 22,
      "byteOffset": 12
    },
    {
      "type": "VEC2",
      "componentType": 5126,
      "count": 32,
      "bufferView": 22,
      "byteOffset": 24
    },
    {
      "type": "VEC3",
      "componentType": 5126,
      "count": 32,
      "max": [
        -0.3431234359741211,
        0.31717753410339355,
        -0.025083474814891815
      ],
      "min": [
        -0.3687928318977356,
        0.23811793327331543,
        -0.08961503952741623
      ],
      "bufferView": 23,
      "byteOffset": 0
    },
    {
      "type": "VEC3",
      "componentType": 5126,
      "count": 32,
      "bufferView": 23,
      "byteOffset": 12
    },
    {
      "type": "VEC2",
      "componentType": 5126,
      "count": 32,
      "bufferView": 23,
      "byteOffset": 24
    },
    {
      "type": "VEC3",
      "componentType": 5126,
      "count": 2810,
      "max": [
        0.15336941182613373,
        0.2769242525100708,
        0.27711722254753113
      ],
      "min": [
        -0.1576138287782669,
        -0.27388858795166016,
        -0.2745359241962433
      ],
      "bufferView": 24,
      "byteOffset": 0
    },
    {
      "type": "VEC3",
      "componentType": 5126,
      "count": 2810,
      "bufferView": 24,
      "byteOffset": 12
    },
    {
      "type": "VEC3",
      "componentType": 5126,
      "count": 246,
      "max": [
        0.16292421519756317,
        0.3293426036834717,
        0.328764408826828
      ],
      "min": [
        -0.16292424499988556,
        -0.32624149322509766,
        -0.32875993847846985
      ],
      "bufferView": 25,
      "byteOffset": 0
    },
    {
      "type": "VEC3",
      "componentType": 5126,
      "count": 246,
      "bufferView": 25,
      "byteOffset": 12
    },
    {
      "type": "VEC3",
      "componentType": 5126,
      "count": 19,
      "max": [
        -0.10360576212406158,
        0.031954288482666016,
        0.03190574795007706
      ],
      "min": [
        -0.10507334768772125,
        -0.02920842170715332,
        -0.029259346425533295
      ],
      "bufferView": 26,
      "byteOffset": 0
    },
    {
      "type": "VEC3",
      "componentType": 5126,
      "count": 19,
      "bufferView": 26,
      "byteOffset": 12
    },
    {
      "type": "VEC3",
      "componentType": 5126,
      "count": 524,
      "max": [
        -0.01314486563205719,
        0.20637184381484985,
        0.20716020464897156
      ],
      "min": [
        -0.04223527014255524,
        -0.20372767746448517,
        -0.20315364003181458
      ],
      "bufferView": 27,
      "byteOffset": 0
    },
    {
      "type": "VEC3",
      "componentType": 5126,
      "count": 524,
      "bufferView": 27,
      "byteOffset": 12
    },
    {
      "type": "VEC3",
      "componentType": 5126,
      "count": 305,
      "max": [
        -0.021621957421302795,
        0.13856276869773865,
        0.22617337107658386
      ],
      "min": [
        -0.10264255106449127,
        -0.20602521300315857,
        0.06527159363031387
      ],
      "bufferView": 28,
      "byteOffset": 0
    },
    {
      "type": "VEC3",
      "componentType": 5126,
      "count": 305,
      "bufferView": 28,
      "byteOffset": 12
    },
    {
      "type": "VEC3",
      "componentType": 5126,
      "count": 306,
      "max": [
        0.12068848311901093,
        0.138755202293396,
        0.22366446256637573
      ],
      "min": [
        0.014765724539756775,
        -0.20583319664001465,
        0.0643194392323494
      ],
      "bufferView": 29,
      "byteOffset": 0
    },
    {
      "type": "VEC3",
      "componentType": 5126,
      "count": 306,
      "bufferView": 29,
      "byteOffset": 12
    },
    {
      "type": "VEC3",
      "componentType": 5126,
      "count": 2704,
      "max": [
        0.16968391835689545,
        0.30628153681755066,
        0.3067391812801361
      ],
      "min": [
        -0.17437131702899933,
        -0.30236026644706726,
        -0.30362358689308167
      ],
      "bufferView": 30,
      "byteOffset": 0
    },
    {
      "type": "VEC3",
      "componentType": 5126,
      "count": 2704,
      "bufferView": 30,
      "byteOffset": 12
    },
    {
      "type": "VEC3",
      "componentType": 5126,
      "count": 2705,
      "max": [
        0.1743714064359665,
        0.30628153681755066,
        0.3067391812801361
      ],
      "min": [
        -0.16968394815921783,
        -0.3030371069908142,
        -0.30362358689308167
      ],
      "bufferView": 31,
      "byteOffset": 0
    },
    {
      "type": "VEC3",
      "componentType": 5126,
      "count": 2705,
      "bufferView": 31,
      "byteOffset": 12
    },
    {
      "type": "VEC3",
      "componentType": 5126,
      "count": 246,
      "max": [
        0.18026231229305267,
        0.3610402047634125,
        0.36406466364860535
      ],
      "min": [
        -0.18026228249073029,
        -0.3646823465824127,
        -0.3636590540409088
      ],
      "bufferView": 32,
      "byteOffset": 0
    },
    {
      "type": "VEC3",
      "componentType": 5126,
      "count": 246,
      "bufferView": 32,
      "byteOffset": 12
    },
    {
      "type": "VEC3",
      "componentType": 5126,
      "count": 246,
      "max": [
        0.18026237189769745,
        0.36260828375816345,
        0.3639295995235443
      ],
      "min": [
        -0.18026234209537506,
        -0.3610404431819916,
        -0.3636590540409088
      ],
      "bufferView": 33,
      "byteOffset": 0
    },
    {
      "type": "VEC3",
      "componentType": 5126,
      "count": 246,
      "bufferView": 33,
      "byteOffset": 12
    },
    {
      "type": "VEC3",
      "componentType": 5126,
      "count": 92,
      "max": [
        -0.026887968182563782,
        0.13509781658649445,
        0.13449284434318542
      ],
      "min": [
        -0.0785769373178482,
        -0.13043121993541718,
        -0.1308983862400055
      ],
      "bufferView": 34,
      "byteOffset": 0
    },
    {
      "type": "VEC3",
      "componentType": 5126,
      "count": 92,
      "bufferView": 34,
      "byteOffset": 12
    },
    {
      "type": "VEC3",
      "componentType": 5126,
      "count": 91,
      "max": [
        0.07857690751552582,
        0.13379086554050446,
        0.13449296355247498
      ],
      "min": [
        0.02691267430782318,
        -0.12895949184894562,
        -0.1308983862400055
      ],
      "bufferView": 35,
      "byteOffset": 0
    },
    {
      "type": "VEC3",
      "componentType": 5126,
      "count": 91,
      "bufferView": 35,
      "byteOffset": 12
    },
    {
      "type": "VEC3",
      "componentType": 5126,
      "count": 19,
      "max": [
        -0.11463083326816559,
        0.03535502031445503,
        0.035387493669986725
      ],
      "min": [
        -0.11625446379184723,
        -0.032316964119672775,
        -0.032286904752254486
      ],
      "bufferView": 36,
      "byteOffset": 0
    },
    {
      "type": "VEC3",
      "componentType": 5126,
      "count": 19,
      "bufferView": 36,
      "byteOffset": 12
    },
    {
      "type": "VEC3",
      "componentType": 5126,
      "count": 19,
      "max": [
        0.11625443398952484,
        0.03535502031445503,
        0.035387493669986725
      ],
      "min": [
        0.1146308034658432,
        -0.032316964119672775,
        -0.032286904752254486
      ],
      "bufferView": 37,
      "byteOffset": 0
    },
    {
      "type": "VEC3",
      "componentType": 5126,
      "count": 19,
      "bufferView": 37,
      "byteOffset": 12
    },
    {
      "type": "VEC3",
      "componentType": 5126,
      "count": 527,
      "max": [
        -0.006128445267677307,
        0.22298718988895416,
        0.22043177485466003
      ],
      "min": [
        -0.03744550049304962,
        -0.2186015248298645,
        -0.22115245461463928
      ],
      "bufferView": 38,
      "byteOffset": 0
    },
    {
      "type": "VEC3",
      "componentType": 5126,
      "count": 527,
      "bufferView": 38,
      "byteOffset": 12
    },
    {
      "type": "VEC3",
      "componentType": 5126,
      "count": 526,
      "max": [
        0.03745989501476288,
        0.22432829439640045,
        0.22092947363853455
      ],
      "min": [
        0.006142124533653259,
        -0.2186015248298645,
        -0.2206648886203766
      ],
      "bufferView": 39,
      "byteOffset": 0
    },
    {
      "type": "VEC3",
      "componentType": 5126,
      "count": 526,
      "bufferView": 39,
      "byteOffset": 12
    },
    {
      "type": "VEC3",
      "componentType": 5126,
      "count": 552,
      "max": [
        0.005166694521903992,
        0.22014285624027252,
        -0.09821107238531113
      ],
      "min": [
        -0.08016933500766754,
        -0.10650027543306351,
        -0.2659274637699127
      ],
      "bufferView": 40,
      "byteOffset": 0
    },
    {
      "type": "VEC3",
      "componentType": 5126,
      "count": 552,
      "bufferView": 40,
      "byteOffset": 12
    },
    {
      "type": "VEC3",
      "componentType": 5126,
      "count": 36,
      "max": [
        0.8691413998603821,
        0.799653947353363,
        2.1047818660736084
      ],
      "min": [
        -0.8733810782432556,
        0.7603010535240173,
        1.918652057647705
      ],
      "bufferView": 41,
      "byteOffset": 0
    },
    {
      "type": "VEC3",
      "componentType": 5126,
      "count": 36,
      "bufferView": 41,
      "byteOffset": 12
    },
    {
      "type": "VEC3",
      "componentType": 5126,
      "count": 5443,
      "max": [
        0.8691412806510925,
        0.8669370412826538,
        2.155993700027466
      ],
      "min": [
        -0.8733809590339661,
        0.7602400779724121,
        1.9419395923614502
      ],
      "bufferView": 42,
      "byteOffset": 0
    },
    {
      "type": "VEC3",
      "componentType": 5126,
      "count": 5443,
      "bufferView": 42,
      "byteOffset": 12
    },
    {
      "type": "VEC3",
      "componentType": 5126,
      "count": 248,
      "max": [
        0.8599265813827515,
        0.8637118339538574,
        2.1393697261810303
      ],
      "min": [
        -0.864166259765625,
        0.8015558123588562,
        1.9490978717803955
      ],
      "bufferView": 43,
      "byteOffset": 0
    },
    {
      "type": "VEC3",
      "componentType": 5126,
      "count": 248,
      "bufferView": 43,
      "byteOffset": 12
    },
    {
      "type": "VEC3",
      "componentType": 5126,
      "count": 6097,
      "max": [
        0.8590259552001953,
        0.8585898280143738,
        2.151782751083374
      ],
      "min": [
        -0.8631806969642639,
        0.7642467021942139,
        1.964226484298706
      ],
      "bufferView": 44,
      "byteOffset": 0
    },
    {
      "type": "VEC3",
      "componentType": 5126,
      "count": 6097,
      "bufferView": 44,
      "byteOffset": 12
    },
    {
      "type": "VEC3",
      "componentType": 5126,
      "count": 2807,
      "max": [
        0.1576053947210312,
        0.2769242525100708,
        0.2745395302772522
      ],
      "min": [
        -0.15337015688419342,
        -0.27388858795166016,
        -0.27711373567581177
      ],
      "bufferView": 45,
      "byteOffset": 0
    },
    {
      "type": "VEC3",
      "componentType": 5126,
      "count": 2807,
      "bufferView": 45,
      "byteOffset": 12
    },
    {
      "type": "VEC3",
      "componentType": 5126,
      "count": 247,
      "max": [
        0.16292546689510345,
        0.329414963722229,
        0.32876235246658325
      ],
      "min": [
        -0.16292555630207062,
        -0.3277299106121063,
        -0.32876700162887573
      ],
      "bufferView": 46,
      "byteOffset": 0
    },
    {
      "type": "VEC3",
      "componentType": 5126,
      "count": 247,
      "bufferView": 46,
      "byteOffset": 12
    },
    {
      "type": "VEC3",
      "componentType": 5126,
      "count": 19,
      "max": [
        0.10507331788539886,
        0.031954288482666016,
        0.02926165610551834
      ],
      "min": [
        0.10360585153102875,
        -0.02920842170715332,
        -0.03190343827009201
      ],
      "bufferView": 47,
      "byteOffset": 0
    },
    {
      "type": "VEC3",
      "componentType": 5126,
      "count": 19,
      "bufferView": 47,
      "byteOffset": 12
    },
    {
      "type": "VEC3",
      "componentType": 5126,
      "count": 525,
      "max": [
        0.042235299944877625,
        0.20512700080871582,
        0.20270198583602905
      ],
      "min": [
        0.013144358992576599,
        -0.20473816990852356,
        -0.20670682191848755
      ],
      "bufferView": 48,
      "byteOffset": 0
    },
    {
      "type": "VEC3",
      "componentType": 5126,
      "count": 525,
      "bufferView": 48,
      "byteOffset": 12
    }
  ],
  "bufferViews": [
    {
      "buffer": 0,
      "byteOffset": 0,
      "byteLength": 150312,
      "byteStride": 24,
      "target": 34962
    },
    {
      "buffer": 0,
      "byteOffset": 150312,
      "byteLength": 661304,
      "target": 34963
    },
    {
      "buffer": 0,
      "byteOffset": 811616,
      "byteLength": 817056,
      "byteStride": 32,
      "target": 34962
    },
    {
      "buffer": 0,
      "byteOffset": 1628672,
      "byteLength": 96,
      "byteStride": 32,
      "target": 34962
    },
    {
      "buffer": 0,
      "byteOffset": 1628768,
      "byteLength": 96,
      "byteStride": 32,
      "target": 34962
    },
    {
      "buffer": 0,
      "byteOffset": 1628864,
      "byteLength": 31344,
      "byteStride": 24,
      "target": 34962
    },
    {
      "buffer": 0,
      "byteOffset": 1660208,
      "byteLength": 160872,
      "byteStride": 24,
      "target": 34962
    },
    {
      "buffer": 0,
      "byteOffset": 1821080,
      "byteLength": 1200,
      "byteStride": 24,
      "target": 34962
    },
    {
      "buffer": 0,
      "byteOffset": 1822280,
      "byteLength": 7344,
      "byteStride": 24,
      "target": 34962
    },
    {
      "buffer": 0,
      "byteOffset": 1829624,
      "byteLength": 7776,
      "byteStride": 24,
      "target": 34962
    },
    {
      "buffer": 0,
      "byteOffset": 1837400,
      "byteLength": 19608,
      "byteStride": 24,
      "target": 34962
    },
    {
      "buffer": 0,
      "byteOffset": 1857008,
      "byteLength": 7728,
      "byteStride": 24,
      "target": 34962
    },
    {
      "buffer": 0,
      "byteOffset": 1864736,
      "byteLength": 22632,
      "byteStride": 24,
      "target": 34962
    },
    {
      "buffer": 0,
      "byteOffset": 1887368,
      "byteLength": 384,
      "byteStride": 24,
      "target": 34962
    },
    {
      "buffer": 0,
      "byteOffset": 1887752,
      "byteLength": 840,
      "byteStride": 24,
      "target": 34962
    },
    {
      "buffer": 0,
      "byteOffset": 1888592,
      "byteLength": 52560,
      "byteStride": 24,
      "target": 34962
    },
    {
      "buffer": 0,
      "byteOffset": 1941152,
      "byteLength": 720,
      "byteStride": 24,
      "target": 34962
    },
    {
      "buffer": 0,
      "byteOffset": 1941872,
      "byteLength": 720,
      "byteStride": 24,
      "target": 34962
    },
    {
      "buffer": 0,
      "byteOffset": 1942592,
      "byteLength": 480,
      "byteStride": 24,
      "target": 34962
    },
    {
      "buffer": 0,
      "byteOffset": 1943072,
      "byteLength": 11904,
      "byteStride": 24,
      "target": 34962
    },
    {
      "buffer": 0,
      "byteOffset": 1954976,
      "byteLength": 10776,
      "byteStride": 24,
      "target": 34962
    },
    {
      "buffer": 0,
      "byteOffset": 1965752,
      "byteLength": 792,
      "byteStride": 24,
      "target": 34962
    },
    {
      "buffer": 0,
      "byteOffset": 1966544,
      "byteLength": 1024,
      "byteStride": 32,
      "target": 34962
    },
    {
      "buffer": 0,
      "byteOffset": 1967568,
      "byteLength": 1024,
      "byteStride": 32,
      "target": 34962
    },
    {
      "buffer": 0,
      "byteOffset": 1968592,
      "byteLength": 67440,
      "byteStride": 24,
      "target": 34962
    },
    {
      "buffer": 0,
      "byteOffset": 2036032,
      "byteLength": 5904,
      "byteStride": 24,
      "target": 34962
    },
    {
      "buffer": 0,
      "byteOffset": 2041936,
      "byteLength": 456,
      "byteStride": 24,
      "target": 34962
    },
    {
      "buffer": 0,
      "byteOffset": 2042392,
      "byteLength": 12576,
      "byteStride": 24,
      "target": 34962
    },
    {
      "buffer": 0,
      "byteOffset": 2054968,
      "byteLength": 7320,
      "byteStride": 24,
      "target": 34962
    },
    {
      "buffer": 0,
      "byteOffset": 2062288,
      "byteLength": 7344,
      "byteStride": 24,
      "target": 34962
    },
    {
      "buffer": 0,
      "byteOffset": 2069632,
      "byteLength": 64896,
      "byteStride": 24,
      "target": 34962
    },
    {
      "buffer": 0,
      "byteOffset": 2134528,
      "byteLength": 64920,
      "byteStride": 24,
      "target": 34962
    },
    {
      "buffer": 0,
      "byteOffset": 2199448,
      "byteLength": 5904,
      "byteStride": 24,
      "target": 34962
    },
    {
      "buffer": 0,
      "byteOffset": 2205352,
      "byteLength": 5904,
      "byteStride": 24,
      "target": 34962
    },
    {
      "buffer": 0,
      "byteOffset": 2211256,
      "byteLength": 2208,
      "byteStride": 24,
      "target": 34962
    },
    {
      "buffer": 0,
      "byteOffset": 2213464,
      "byteLength": 2184,
      "byteStride": 24,
      "target": 34962
    },
    {
      "buffer": 0,
      "byteOffset": 2215648,
      "byteLength": 456,
      "byteStride": 24,
      "target": 34962
    },
    {
      "buffer": 0,
      "byteOffset": 2216104,
      "byteLength": 456,
      "byteStride": 24,
      "target": 34962
    },
    {
      "buffer": 0,
      "byteOffset": 2216560,
      "byteLength": 12648,
      "byteStride": 24,
      "target": 34962
    },
    {
      "buffer": 0,
      "byteOffset": 2229208,
      "byteLength": 12624,
      "byteStride": 24,
      "target": 34962
    },
    {
      "buffer": 0,
      "byteOffset": 2241832,
      "byteLength": 13248,
      "byteStride": 24,
      "target": 34962
    },
    {
      "buffer": 0,
      "byteOffset": 2255080,
      "byteLength": 864,
      "byteStride": 24,
      "target": 34962
    },
    {
      "buffer": 0,
      "byteOffset": 2255944,
      "byteLength": 130632,
      "byteStride": 24,
      "target": 34962
    },
    {
      "buffer": 0,
      "byteOffset": 2386576,
      "byteLength": 5952,
      "byteStride": 24,
      "target": 34962
    },
    {
      "buffer": 0,
      "byteOffset": 2392528,
      "byteLength": 146328,
      "byteStride": 24,
      "target": 34962
    },
    {
      "buffer": 0,
      "byteOffset": 2538856,
      "byteLength": 67368,
      "byteStride": 24,
      "target": 34962
    },
    {
      "buffer": 0,
      "byteOffset": 2606224,
      "byteLength": 5928,
      "byteStride": 24,
      "target": 34962
    },
    {
      "buffer": 0,
      "byteOffset": 2612152,
      "byteLength": 456,
      "byteStride": 24,
      "target": 34962
    },
    {
      "buffer": 0,
      "byteOffset": 2612608,
      "byteLength": 12600,
      "byteStride": 24,
      "target": 34962
    }
  ],
  "samplers": [
    {
      "magFilter": 9729,
      "minFilter": 9987,
      "wrapS": 10497,
      "wrapT": 10497
    }
  ],
  "textures": [
    {
      "source": 0,
      "sampler": 0
    }
  ],
  "images": [
    {
      "mimeType": "image/jpeg",
      "uri": "lambo_svj_0.jpg"
    }
  ],
  "buffers": [
    {
      "uri": "lambo_svj.bin",
      "byteLength": 2625208
    }
  ],
  "materials": [
    {
      "name": "other:material_0",
      "doubleSided": true,
      "pbrMetallicRoughness": {
        "baseColorFactor": [
          0.3471510850534481,
          0.3471510850534481,
          0.3471510850534481,
          1
        ],
        "roughnessFactor": 0.13257183259987076,
        "metallicFactor": 0.810373079425302
      },
      "extensions": {
        "KHR_materials_specular": {
          "specularFactor": 0.5002842480953857
        }
      }
    },
    {
      "name": "paint:CARROSSERIE",
      "doubleSided": true,
      "pbrMetallicRoughness": {
        "baseColorFactor": [
          0.22653400390734127,
          0,
          1,
          1
        ],
        "roughnessFactor": 0.43123940949153367,
        "metallicFactor": 0.7191704819753267
      }
    },
    {
      "name": "other:CARBONE",
      "doubleSided": true,
      "pbrMetallicRoughness": {
        "roughnessFactor": 0.28495324938133143,
        "baseColorTexture": {
          "index": 0
        }
      }
    },
    {
      "name": "other:MetalDark",
      "doubleSided": true,
      "pbrMetallicRoughness": {
        "baseColorFactor": [
          0.0470588,
          0.0470588,
          0.0470588,
          1
        ],
        "roughnessFactor": 0.675099
      }
    },
    {
      "name": "chrome:Chrome",
      "doubleSided": true,
      "pbrMetallicRoughness": {
        "baseColorFactor": [
          0.572549,
          0.572549,
          0.572549,
          1
        ],
        "roughnessFactor": 0.8
      }
    },
    {
      "name": "light_tail:ExteriorDetailTex",
      "doubleSided": true,
      "pbrMetallicRoughness": {
        "baseColorFactor": [
          0.20594136762876553,
          0.20594136762876553,
          0.20594136762876553,
          1
        ],
        "roughnessFactor": 0.2,
        "metallicFactor": 0.6766092698320049
      }
    },
    {
      "name": "glass:GLASS",
      "doubleSided": true,
      "pbrMetallicRoughness": {
        "baseColorFactor": [
          0.004623666654852894,
          0.004792514522847443,
          0.005097615027984815,
          1
        ],
        "roughnessFactor": 0.056431607172172264,
        "metallicFactor": 0.7299069863831965
      },
      "extensions": {
        "KHR_materials_specular": {
          "specularFactor": 0.6689544196706123
        }
      }
    },
    {
      "name": "other:MetalExhaustTextured",
      "doubleSided": true,
      "pbrMetallicRoughness": {
        "baseColorFactor": [
          0.22266936341347002,
          0.22266936341347002,
          0.22266936341347002,
          1
        ],
        "roughnessFactor": 0.831821
      }
    },
    {
      "name": "light_head:GlassLights",
      "alphaMode": "BLEND",
      "doubleSided": true,
      "pbrMetallicRoughness": {
        "baseColorFactor": [
          0.0156863,
          0.0156863,
          0.0156863,
          0.38476095799208365
        ],
        "roughnessFactor": 0
      }
    },
    {
      "name": "other:Undercarriage",
      "doubleSided": true,
      "pbrMetallicRoughness": {
        "baseColorFactor": [
          0,
          0,
          0,
          1
        ],
        "roughnessFactor": 0.858579
      }
    },
    {
      "name": "other:intPlasticDkPlain",
      "doubleSided": true,
      "pbrMetallicRoughness": {
        "baseColorFactor": [
          0.0980392,
          0.0980392,
          0.0980392,
          1
        ],
        "roughnessFactor": 0.8
      }
    },
    {
      "name": "other:MetalGoldenLogo",
      "doubleSided": true,
      "pbrMetallicRoughness": {
        "baseColorFactor": [
          0.627451,
          0.380392,
          0.0588235,
          1
        ],
        "roughnessFactor": 0.472197
      }
    },
    {
      "name": "interior:intAlcantara",
      "doubleSided": true,
      "pbrMetallicRoughness": {
        "roughnessFactor": 0.6
      }
    },
    {
      "name": "other:intTexButtonsGlossy",
      "doubleSided": true,
      "pbrMetallicRoughness": {
        "roughnessFactor": 0.831821
      }
    },
    {
      "name": "other:Aluminum",
      "doubleSided": true,
      "pbrMetallicRoughness": {
        "baseColorFactor": [
          0.45098,
          0.45098,
          0.45098,
          1
        ],
        "roughnessFactor": 0.2544769660250393,
        "metallicFactor": 0.7982127330986387
      }
    },
    {
      "name": "other:Material.001",
      "doubleSided": true,
      "pbrMetallicRoughness": {
        "baseColorFactor": [
          0,
          0.3417455923947124,
          0.021731203456797934,
          1
        ],
        "roughnessFactor": 0.320823,
        "metallicFactor": 0.300242
      }
    },
    {
      "name": "other:Material.002",
      "doubleSided": true,
      "pbrMetallicRoughness": {
        "roughnessFactor": 0.5,
        "metallicFactor": 0
      }
    },
    {
      "name": "other:Material.003",
      "doubleSided": true,
      "pbrMetallicRoughness": {
        "baseColorFactor": [
          1,
          0,
          0,
          1
        ],
        "roughnessFactor": 0.315981,
        "metallicFactor": 0.387409
      }
    },
    {
      "name": "light_head:HdLightsLens",
      "doubleSided": true,
      "pbrMetallicRoughness": {
        "baseColorFactor": [
          0.333333,
          0.32549,
          0.313726,
          1
        ],
        "roughnessFactor": 0.858579
      }
    },
    {
      "name": "light_head:LightEmissiveWhite",
      "doubleSided": true,
      "pbrMetallicRoughness": {
        "roughnessFactor": 0.858579
      },
      "emissiveFactor": [
        1,
        1,
        1
      ],
      "extensions": {
        "KHR_materials_emissive_strength": {
          "emissiveStrength": 10
        }
      }
    },
    {
      "name": "rim:WheelMetalBlack",
      "doubleSided": true,
      "pbrMetallicRoughness": {
        "baseColorFactor": [
          0.0470588,
          0.0470588,
          0.0470588,
          1
        ],
        "roughnessFactor": 0.5470492862454438
      }
    },
    {
      "name": "tyre:WheelTireBump",
      "doubleSided": true,
      "pbrMetallicRoughness": {
        "baseColorFactor": [
          0.0470588,
          0.0470588,
          0.0470588,
          1
        ],
        "roughnessFactor": 0.6887696161586683
      }
    },
    {
      "name": "other:Material.006",
      "doubleSided": true,
      "pbrMetallicRoughness": {
        "baseColorFactor": [
          0.021171,
          0.021171,
          0.021171,
          1
        ],
        "roughnessFactor": 0.5,
        "metallicFactor": 0
      }
    },
    {
      "name": "other:Material.005",
      "doubleSided": true,
      "pbrMetallicRoughness": {
        "baseColorFactor": [
          0.18272736393587025,
          0.18272736393587025,
          0.18272736393587025,
          1
        ],
        "roughnessFactor": 0.10209554924357864,
        "metallicFactor": 0.555005806565371
      }
    },
    {
      "name": "other:Material.004",
      "doubleSided": true,
      "pbrMetallicRoughness": {
        "baseColorFactor": [
          0.22879027863622634,
          0.0012304858879634737,
          0.783914465286133,
          1
        ],
        "roughnessFactor": 0.5,
        "metallicFactor": 0.358354
      }
    },
    {
      "name": "other:MetalRedEngine",
      "doubleSided": true,
      "pbrMetallicRoughness": {
        "baseColorFactor": [
          0.607843,
          0.0313726,
          0.0313726,
          1
        ],
        "roughnessFactor": 0.675099
      }
    },
    {
      "name": "other:GLS_MR",
      "doubleSided": true,
      "pbrMetallicRoughness": {
        "baseColorFactor": [
          0.0601815,
          0.364705,
          0.354528,
          1
        ],
        "roughnessFactor": 0.762159
      }
    },
    {
      "name": "light_tail:GlassRedLights",
      "doubleSided": true,
      "pbrMetallicRoughness": {
        "baseColorFactor": [
          1,
          0,
          0.07962776570187798,
          1
        ],
        "roughnessFactor": 0.434315
      },
      "emissiveFactor": [
        1,
        0,
        0
      ],
      "extensions": {
        "KHR_materials_emissive_strength": {
          "emissiveStrength": 5.428454602387076
        }
      }
    },
    {
      "name": "light_signal:GlassOrangeLights",
      "doubleSided": true,
      "pbrMetallicRoughness": {
        "baseColorFactor": [
          0.572549,
          0.227451,
          0,
          1
        ],
        "roughnessFactor": 0
      }
    },
    {
      "name": "light_head:GlassWhite",
      "doubleSided": true,
      "pbrMetallicRoughness": {
        "baseColorFactor": [
          0.909804,
          0.909804,
          0.909804,
          1
        ],
        "roughnessFactor": 0.858579
      }
    }
  ],
  "meshes": [
    {
      "name": "Body",
      "primitives": [
        {
          "attributes": {
            "POSITION": 0,
            "NORMAL": 1
          },
          "mode": 4,
          "material": 1,
          "indices": 2
        },
        {
          "attributes": {
            "POSITION": 47,
            "NORMAL": 48,
            "TEXCOORD_0": 49
          },
          "mode": 4,
          "material": 2,
          "indices": 3
        },
        {
          "attributes": {
            "POSITION": 56,
            "NORMAL": 57
          },
          "mode": 4,
          "material": 3,
          "indices": 5
        },
        {
          "attributes": {
            "POSITION": 58,
            "NORMAL": 59
          },
          "mode": 4,
          "material": 4,
          "indices": 6
        },
        {
          "attributes": {
            "POSITION": 60,
            "NORMAL": 61
          },
          "mode": 4,
          "material": 5,
          "indices": 7
        },
        {
          "attributes": {
            "POSITION": 62,
            "NORMAL": 63
          },
          "mode": 4,
          "material": 7,
          "indices": 8
        },
        {
          "attributes": {
            "POSITION": 64,
            "NORMAL": 65
          },
          "mode": 4,
          "material": 8,
          "indices": 9
        },
        {
          "attributes": {
            "POSITION": 66,
            "NORMAL": 67
          },
          "mode": 4,
          "material": 9,
          "indices": 10
        },
        {
          "attributes": {
            "POSITION": 68,
            "NORMAL": 69
          },
          "mode": 4,
          "material": 10,
          "indices": 11
        },
        {
          "attributes": {
            "POSITION": 70,
            "NORMAL": 71
          },
          "mode": 4,
          "material": 11,
          "indices": 12
        },
        {
          "attributes": {
            "POSITION": 72,
            "NORMAL": 73
          },
          "mode": 4,
          "material": 12,
          "indices": 13
        },
        {
          "attributes": {
            "POSITION": 74,
            "NORMAL": 75
          },
          "mode": 4,
          "material": 13,
          "indices": 14
        },
        {
          "attributes": {
            "POSITION": 76,
            "NORMAL": 77
          },
          "mode": 4,
          "material": 14,
          "indices": 15
        },
        {
          "attributes": {
            "POSITION": 78,
            "NORMAL": 79
          },
          "mode": 4,
          "material": 15,
          "indices": 16
        },
        {
          "attributes": {
            "POSITION": 80,
            "NORMAL": 81
          },
          "mode": 4,
          "material": 16,
          "indices": 17
        },
        {
          "attributes": {
            "POSITION": 82,
            "NORMAL": 83
          },
          "mode": 4,
          "material": 17,
          "indices": 18
        },
        {
          "attributes": {
            "POSITION": 84,
            "NORMAL": 85
          },
          "mode": 4,
          "material": 6,
          "indices": 19
        },
        {
          "attributes": {
            "POSITION": 86,
            "NORMAL": 87
          },
          "mode": 4,
          "material": 18,
          "indices": 20
        },
        {
          "attributes": {
            "POSITION": 88,
            "NORMAL": 89
          },
          "mode": 4,
          "material": 19,
          "indices": 21
        },
        {
          "attributes": {
            "POSITION": 130,
            "NORMAL": 131
          },
          "mode": 4,
          "material": 26,
          "indices": 40
        },
        {
          "attributes": {
            "POSITION": 132,
            "NORMAL": 133
          },
          "mode": 4,
          "material": 27,
          "indices": 41
        },
        {
          "attributes": {
            "POSITION": 134,
            "NORMAL": 135
          },
          "mode": 4,
          "material": 28,
          "indices": 42
        },
        {
          "attributes": {
            "POSITION": 136,
            "NORMAL": 137
          },
          "mode": 4,
          "material": 29,
          "indices": 43
        }
      ]
    },
    {
      "name": "Wheel_RL_Spin",
      "primitives": [
        {
          "attributes": {
            "POSITION": 50,
            "NORMAL": 51,
            "TEXCOORD_0": 52
          },
          "mode": 4,
          "material": 2,
          "indices": 4
        },
        {
          "attributes": {
            "POSITION": 108,
            "NORMAL": 109
          },
          "mode": 4,
          "material": 20,
          "indices": 29
        },
        {
          "attributes": {
            "POSITION": 112,
            "NORMAL": 113
          },
          "mode": 4,
          "material": 21,
          "indices": 31
        },
        {
          "attributes": {
            "POSITION": 116,
            "NORMAL": 117
          },
          "mode": 4,
          "material": 22,
          "indices": 33
        },
        {
          "attributes": {
            "POSITION": 120,
            "NORMAL": 121
          },
          "mode": 4,
          "material": 23,
          "indices": 35
        },
        {
          "attributes": {
            "POSITION": 124,
            "NORMAL": 125
          },
          "mode": 4,
          "material": 0,
          "indices": 37
        },
        {
          "attributes": {
            "POSITION": 128,
            "NORMAL": 129
          },
          "mode": 4,
          "material": 24,
          "indices": 39
        }
      ]
    },
    {
      "name": "Wheel_RR_Spin",
      "primitives": [
        {
          "attributes": {
            "POSITION": 53,
            "NORMAL": 54,
            "TEXCOORD_0": 55
          },
          "mode": 4,
          "material": 2,
          "indices": 4
        },
        {
          "attributes": {
            "POSITION": 110,
            "NORMAL": 111
          },
          "mode": 4,
          "material": 20,
          "indices": 30
        },
        {
          "attributes": {
            "POSITION": 114,
            "NORMAL": 115
          },
          "mode": 4,
          "material": 21,
          "indices": 32
        },
        {
          "attributes": {
            "POSITION": 118,
            "NORMAL": 119
          },
          "mode": 4,
          "material": 22,
          "indices": 34
        },
        {
          "attributes": {
            "POSITION": 122,
            "NORMAL": 123
          },
          "mode": 4,
          "material": 23,
          "indices": 36
        },
        {
          "attributes": {
            "POSITION": 126,
            "NORMAL": 127
          },
          "mode": 4,
          "material": 0,
          "indices": 38
        }
      ]
    },
    {
      "name": "Wheel_FL_Spin",
      "primitives": [
        {
          "attributes": {
            "POSITION": 90,
            "NORMAL": 91,
            "TEXCOORD_0": 92
          },
          "mode": 4,
          "material": 2,
          "indices": 22
        },
        {
          "attributes": {
            "POSITION": 96,
            "NORMAL": 97
          },
          "mode": 4,
          "material": 20,
          "indices": 24
        },
        {
          "attributes": {
            "POSITION": 98,
            "NORMAL": 99
          },
          "mode": 4,
          "material": 21,
          "indices": 25
        },
        {
          "attributes": {
            "POSITION": 100,
            "NORMAL": 101
          },
          "mode": 4,
          "material": 22,
          "indices": 35
        },
        {
          "attributes": {
            "POSITION": 102,
            "NORMAL": 103
          },
          "mode": 4,
          "material": 23,
          "indices": 26
        },
        {
          "attributes": {
            "POSITION": 104,
            "NORMAL": 105
          },
          "mode": 4,
          "material": 24,
          "indices": 27
        }
      ]
    },
    {
      "name": "Wheel_FR_Spin",
      "primitives": [
        {
          "attributes": {
            "POSITION": 93,
            "NORMAL": 94,
            "TEXCOORD_0": 95
          },
          "mode": 4,
          "material": 2,
          "indices": 23
        },
        {
          "attributes": {
            "POSITION": 106,
            "NORMAL": 107
          },
          "mode": 4,
          "material": 25,
          "indices": 28
        },
        {
          "attributes": {
            "POSITION": 138,
            "NORMAL": 139
          },
          "mode": 4,
          "material": 20,
          "indices": 44
        },
        {
          "attributes": {
            "POSITION": 140,
            "NORMAL": 141
          },
          "mode": 4,
          "material": 21,
          "indices": 45
        },
        {
          "attributes": {
            "POSITION": 142,
            "NORMAL": 143
          },
          "mode": 4,
          "material": 22,
          "indices": 35
        },
        {
          "attributes": {
            "POSITION": 144,
            "NORMAL": 145
          },
          "mode": 4,
          "material": 23,
          "indices": 46
        }
      ]
    }
  ],
  "nodes": [
    {
      "name": "Body",
      "mesh": 0
    },
    {
      "name": "Wheel_RL",
      "translation": [
        -0.853831335902214,
        0.37421230421750806,
        1.3602553829550743
      ],
      "children": [
        2
      ]
    },
    {
      "name": "Wheel_RL_Spin",
      "mesh": 1
    },
    {
      "name": "Wheel_RR",
      "translation": [
        0.8495916873216629,
        0.37421230421750806,
        1.3602553829550743
      ],
      "children": [
        4
      ]
    },
    {
      "name": "Wheel_RR_Spin",
      "mesh": 2
    },
    {
      "name": "Wheel_FL",
      "translation": [
        -0.8463377207517624,
        0.34048342777532525,
        -1.3502684608101845
      ],
      "children": [
        6
      ]
    },
    {
      "name": "Wheel_FL_Spin",
      "mesh": 3
    },
    {
      "name": "Wheel_FR",
      "translation": [
        0.8505773693323135,
        0.34048342777532525,
        -1.3702423050999641
      ],
      "children": [
        8
      ]
    },
    {
      "name": "Wheel_FR_Spin",
      "mesh": 4
    }
  ],
  "scenes": [
    {
      "name": "Sketchfab_Scene",
      "nodes": [
        0,
        1,
        3,
        5,
        7
      ]
    }
  ],
  "scene": 0,
  "extensionsUsed": [
    "KHR_materials_emissive_strength",
    "KHR_materials_specular"
  ]
}