{
  "asset": {
    "generator": "glTF-Transform v4.5.0",
    "version": "2.0"
  },
  "accessors": [
    {
      "type": "VEC3",
      "componentType": 5126,
      "count": 565,
      "max": [
        0.3603687584400177,
        7.5,
        3.496583938598633
      ],
      "min": [
        -0.35615769028663635,
        0,
        -0.3055584728717804
      ],
      "bufferView": 0,
      "byteOffset": 0
    },
    {
      "type": "VEC3",
      "componentType": 5126,
      "count": 565,
      "bufferView": 0,
      "byteOffset": 12
    },
    {
      "type": "VEC2",
      "componentType": 5126,
      "count": 565,
      "bufferView": 0,
      "byteOffset": 24
    },
    {
      "type": "SCALAR",
      "componentType": 5123,
      "count": 2160,
      "bufferView": 1,
      "byteOffset": 0
    }
  ],
  "bufferViews": [
    {
      "buffer": 0,
      "byteOffset": 0,
      "byteLength": 18080,
      "byteStride": 32,
      "target": 34962
    },
    {
      "buffer": 0,
      "byteOffset": 18080,
      "byteLength": 4320,
      "target": 34963
    }
  ],
  "samplers": [
    {
      "wrapS": 10497,
      "wrapT": 10497
    }
  ],
  "textures": [
    {
      "source": 0,
      "sampler": 0
    },
    {
      "source": 1,
      "sampler": 0
    }
  ],
  "images": [
    {
      "name": "street_lamp_0",
      "mimeType": "image/jpeg",
      "uri": "street_lamp_0.jpg"
    },
    {
      "name": "street_lamp_1",
      "mimeType": "image/jpeg",
      "uri": "street_lamp_1.jpg"
    }
  ],
  "buffers": [
    {
      "name": "street_lamp.bin",
      "uri": "street_lamp.bin",
      "byteLength": 22400
    }
  ],
  "materials": [
    {
      "name": "Street_Light",
      "doubleSided": true,
      "pbrMetallicRoughness": {
        "roughnessFactor": 0.6222241628823794,
        "baseColorTexture": {
          "index": 0
        }
      },
      "normalTexture": {
        "index": 1
      }
    }
  ],
  "meshes": [
    {
      "name": "street_lamp",
      "primitives": [
        {
          "attributes": {
            "POSITION": 0,
            "NORMAL": 1,
            "TEXCOORD_0": 2
          },
          "mode": 4,
          "material": 0,
          "indices": 3
        }
      ]
    }
  ],
  "nodes": [
    {
      "name": "street_lamp",
      "mesh": 0
    }
  ],
  "scenes": [
    {
      "name": "Scene",
      "nodes": [
        0
      ]
    }
  ]
}