{
  "asset": {
    "generator": "glTF-Transform v4.5.0",
    "version": "2.0",
    "extras": {
      "author": "Robert Doman (https://sketchfab.com/RDoman)",
      "license": "CC-BY-4.0 (http://creativecommons.org/licenses/by/4.0/)",
      "source": "https://sketchfab.com/3d-models/1980-audi-ur-quattro-b9ccdd8ddc154ee99ab153794042fd07",
      "title": "1980 Audi Ur Quattro"
    }
  },
  "accessors": [
    {
      "type": "VEC3",
      "componentType": 5126,
      "count": 385,
      "max": [
        0.7120329737663269,
        1.2615920305252075,
        1.727221965789795
      ],
      "min": [
        -0.7120329737663269,
        0.8924660086631775,
        -0.7719016075134277
      ],
      "bufferView": 0,
      "byteOffset": 0
    },
    {
      "type": "VEC3",
      "componentType": 5126,
      "count": 385,
      "bufferView": 0,
      "byteOffset": 12
    },
    {
      "type": "VEC2",
      "componentType": 5126,
      "count": 385,
      "bufferView": 0,
      "byteOffset": 24
    },
    {
      "type": "SCALAR",
      "componentType": 5123,
      "count": 1704,
      "bufferView": 1,
      "byteOffset": 0
    },
    {
      "type": "SCALAR",
      "componentType": 5123,
      "count": 7866,
      "bufferView": 1,
      "byteOffset": 3408
    },
    {
      "type": "SCALAR",
      "componentType": 5123,
      "count": 4614,
      "bufferView": 1,
      "byteOffset": 19140
    },
    {
      "type": "SCALAR",
      "componentType": 5123,
      "count": 2334,
      "bufferView": 1,
      "byteOffset": 28368
    },
    {
      "type": "SCALAR",
      "componentType": 5123,
      "count": 3009,
      "bufferView": 1,
      "byteOffset": 33036
    },
    {
      "type": "SCALAR",
      "componentType": 5123,
      "count": 9672,
      "bufferView": 1,
      "byteOffset": 39056
    },
    {
      "type": "SCALAR",
      "componentType": 5123,
      "count": 6624,
      "bufferView": 1,
      "byteOffset": 58400
    },
    {
      "type": "SCALAR",
      "componentType": 5123,
      "count": 1815,
      "bufferView": 1,
      "byteOffset": 71648
    },
    {
      "type": "SCALAR",
      "componentType": 5123,
      "count": 3507,
      "bufferView": 1,
      "byteOffset": 75280
    },
    {
      "type": "SCALAR",
      "componentType": 5123,
      "count": 11052,
      "bufferView": 1,
      "byteOffset": 82296
    },
    {
      "type": "SCALAR",
      "componentType": 5123,
      "count": 6234,
      "bufferView": 1,
      "byteOffset": 104400
    },
    {
      "type": "SCALAR",
      "componentType": 5123,
      "count": 31182,
      "bufferView": 1,
      "byteOffset": 116868
    },
    {
      "type": "SCALAR",
      "componentType": 5123,
      "count": 22962,
      "bufferView": 1,
      "byteOffset": 179232
    },
    {
      "type": "SCALAR",
      "componentType": 5123,
      "count": 149610,
      "bufferView": 1,
      "byteOffset": 225156
    },
    {
      "type": "SCALAR",
      "componentType": 5123,
      "count": 50853,
      "bufferView": 1,
      "byteOffset": 524376
    },
    {
      "type": "SCALAR",
      "componentType": 5123,
      "count": 1182,
      "bufferView": 1,
      "byteOffset": 626084
    },
    {
      "type": "SCALAR",
      "componentType": 5123,
      "count": 2586,
      "bufferView": 1,
      "byteOffset": 628448
    },
    {
      "type": "SCALAR",
      "componentType": 5123,
      "count": 2586,
      "bufferView": 1,
      "byteOffset": 633620
    },
    {
      "type": "SCALAR",
      "componentType": 5123,
      "count": 2586,
      "bufferView": 1,
      "byteOffset": 638792
    },
    {
      "type": "SCALAR",
      "componentType": 5123,
      "count": 2586,
      "bufferView": 1,
      "byteOffset": 643964
    },
    {
      "type": "SCALAR",
      "componentType": 5123,
      "count": 240,
      "bufferView": 1,
      "byteOffset": 649136
    },
    {
      "type": "SCALAR",
      "componentType": 5123,
      "count": 1323,
      "bufferView": 1,
      "byteOffset": 649616
    },
    {
      "type": "VEC3",
      "componentType": 5126,
      "count": 1840,
      "max": [
        0.566470742225647,
        1.1399073600769043,
        0.4099680781364441
      ],
      "min": [
        -0.566470742225647,
        0.39011403918266296,
        -0.19091849029064178
      ],
      "bufferView": 2,
      "byteOffset": 0
    },
    {
      "type": "VEC3",
      "componentType": 5126,
      "count": 1840,
      "bufferView": 2,
      "byteOffset": 12
    },
    {
      "type": "VEC2",
      "componentType": 5126,
      "count": 1840,
      "bufferView": 2,
      "byteOffset": 24
    },
    {
      "type": "VEC3",
      "componentType": 5126,
      "count": 1298,
      "max": [
        0.7094215750694275,
        1.265779733657837,
        1.9873074293136597
      ],
      "min": [
        -0.7094215750694275,
        0.34137552976608276,
        -0.7966654896736145
      ],
      "bufferView": 3,
      "byteOffset": 0
    },
    {
      "type": "VEC3",
      "componentType": 5126,
      "count": 1298,
      "bufferView": 3,
      "byteOffset": 12
    },
    {
      "type": "VEC2",
      "componentType": 5126,
      "count": 1298,
      "bufferView": 3,
      "byteOffset": 24
    },
    {
      "type": "VEC3",
      "componentType": 5126,
      "count": 518,
      "max": [
        -0.7692503929138184,
        0.5527611970901489,
        -1.7853320837020874
      ],
      "min": [
        -0.7877284288406372,
        0.5199432373046875,
        -1.833044171333313
      ],
      "bufferView": 4,
      "byteOffset": 0
    },
    {
      "type": "VEC3",
      "componentType": 5126,
      "count": 518,
      "bufferView": 4,
      "byteOffset": 12
    },
    {
      "type": "VEC2",
      "componentType": 5126,
      "count": 518,
      "bufferView": 4,
      "byteOffset": 24
    },
    {
      "type": "VEC3",
      "componentType": 5126,
      "count": 592,
      "max": [
        0.589552640914917,
        0.7477845549583435,
        2.119500160217285
      ],
      "min": [
        -0.589552640914917,
        0.6551347374916077,
        2.0623624324798584
      ],
      "bufferView": 5,
      "byteOffset": 0
    },
    {
      "type": "VEC3",
      "componentType": 5126,
      "count": 592,
      "bufferView": 5,
      "byteOffset": 12
    },
    {
      "type": "VEC2",
      "componentType": 5126,
      "count": 592,
      "bufferView": 5,
      "byteOffset": 24
    },
    {
      "type": "VEC3",
      "componentType": 5126,
      "count": 2113,
      "max": [
        0.747615396976471,
        0.8762432336807251,
        2.1193084716796875
      ],
      "min": [
        -0.7887289524078369,
        0.44189515709877014,
        -2.0552096366882324
      ],
      "bufferView": 6,
      "byteOffset": 0
    },
    {
      "type": "VEC3",
      "componentType": 5126,
      "count": 2113,
      "bufferView": 6,
      "byteOffset": 12
    },
    {
      "type": "VEC2",
      "componentType": 5126,
      "count": 2113,
      "bufferView": 6,
      "byteOffset": 24
    },
    {
      "type": "VEC3",
      "componentType": 5126,
      "count": 1428,
      "max": [
        0.7377930879592896,
        0.7950959205627441,
        2.1181631088256836
      ],
      "min": [
        -0.7377930879592896,
        0.44378846883773804,
        -2.0740931034088135
      ],
      "bufferView": 7,
      "byteOffset": 0
    },
    {
      "type": "VEC3",
      "componentType": 5126,
      "count": 1428,
      "bufferView": 7,
      "byteOffset": 12
    },
    {
      "type": "VEC2",
      "componentType": 5126,
      "count": 1428,
      "bufferView": 7,
      "byteOffset": 24
    },
    {
      "type": "VEC3",
      "componentType": 5126,
      "count": 641,
      "max": [
        0.1357785165309906,
        0.7055380344390869,
        -2.0602340698242188
      ],
      "min": [
        -0.13627664744853973,
        0.6168245077133179,
        -2.064175605773926
      ],
      "bufferView": 8,
      "byteOffset": 0
    },
    {
      "type": "VEC3",
      "componentType": 5126,
      "count": 641,
      "bufferView": 8,
      "byteOffset": 12
    },
    {
      "type": "VEC2",
      "componentType": 5126,
      "count": 641,
      "bufferView": 8,
      "byteOffset": 24
    },
    {
      "type": "VEC3",
      "componentType": 5126,
      "count": 845,
      "max": [
        0.7484412789344788,
        0.7524201273918152,
        2.1902856826782227
      ],
      "min": [
        -0.7484412789344788,
        0.5292007327079773,
        2.0111353397369385
      ],
      "bufferView": 9,
      "byteOffset": 0
    },
    {
      "type": "VEC3",
      "componentType": 5126,
      "count": 845,
      "bufferView": 9,
      "byteOffset": 12
    },
    {
      "type": "VEC2",
      "componentType": 5126,
      "count": 845,
      "bufferView": 9,
      "byteOffset": 24
    },
    {
      "type": "VEC3",
      "componentType": 5126,
      "count": 2368,
      "max": [
        -0.3291458189487457,
        0.37241241335868835,
        2.170309066772461
      ],
      "min": [
        -0.4505392909049988,
        0.31377387046813965,
        1.8857052326202393
      ],
      "bufferView": 10,
      "byteOffset": 0
    },
    {
      "type": "VEC3",
      "componentType": 5126,
      "count": 2368,
      "bufferView": 10,
      "byteOffset": 12
    },
    {
      "type": "VEC2",
      "componentType": 5126,
      "count": 2368,
      "bufferView": 10,
      "byteOffset": 24
    },
    {
      "type": "VEC3",
      "componentType": 5126,
      "count": 1171,
      "max": [
        0.4204081892967224,
        0.7708242535591125,
        -2.1536245346069336
      ],
      "min": [
        -0.41776663064956665,
        0.4092539846897125,
        -2.194143056869507
      ],
      "bufferView": 11,
      "byteOffset": 0
    },
    {
      "type": "VEC3",
      "componentType": 5126,
      "count": 1171,
      "bufferView": 11,
      "byteOffset": 12
    },
    {
      "type": "VEC2",
      "componentType": 5126,
      "count": 1171,
      "bufferView": 11,
      "byteOffset": 24
    },
    {
      "type": "VEC3",
      "componentType": 5126,
      "count": 6109,
      "max": [
        0.4323523938655853,
        0.7829296588897705,
        -2.076436996459961
      ],
      "min": [
        -0.42971083521842957,
        0.3971480429172516,
        -2.188946008682251
      ],
      "bufferView": 12,
      "byteOffset": 0
    },
    {
      "type": "VEC3",
      "componentType": 5126,
      "count": 6109,
      "bufferView": 12,
      "byteOffset": 12
    },
    {
      "type": "VEC2",
      "componentType": 5126,
      "count": 6109,
      "bufferView": 12,
      "byteOffset": 24
    },
    {
      "type": "VEC3",
      "componentType": 5126,
      "count": 5025,
      "max": [
        0.43471360206604004,
        0.7027709484100342,
        -2.0765857696533203
      ],
      "min": [
        -0.43471360206604004,
        0.49350598454475403,
        -2.1851725578308105
      ],
      "bufferView": 13,
      "byteOffset": 0
    },
    {
      "type": "VEC3",
      "componentType": 5126,
      "count": 5025,
      "bufferView": 13,
      "byteOffset": 12
    },
    {
      "type": "VEC2",
      "componentType": 5126,
      "count": 5025,
      "bufferView": 13,
      "byteOffset": 24
    },
    {
      "type": "VEC3",
      "componentType": 5126,
      "count": 32950,
      "max": [
        0.9227977395057678,
        1.2747652530670166,
        2.183173894882202
      ],
      "min": [
        -0.9227977395057678,
        0.5500894784927368,
        -2.088381290435791
      ],
      "bufferView": 14,
      "byteOffset": 0
    },
    {
      "type": "VEC3",
      "componentType": 5126,
      "count": 32950,
      "bufferView": 14,
      "byteOffset": 12
    },
    {
      "type": "VEC2",
      "componentType": 5126,
      "count": 32950,
      "bufferView": 14,
      "byteOffset": 24
    },
    {
      "type": "VEC3",
      "componentType": 5126,
      "count": 12613,
      "max": [
        0.8370686173439026,
        1.3088685274124146,
        2.2098569869995117
      ],
      "min": [
        -0.8370686173439026,
        0.2724682688713074,
        -2.1029067039489746
      ],
      "bufferView": 15,
      "byteOffset": 0
    },
    {
      "type": "VEC3",
      "componentType": 5126,
      "count": 12613,
      "bufferView": 15,
      "byteOffset": 12
    },
    {
      "type": "VEC2",
      "componentType": 5126,
      "count": 12613,
      "bufferView": 15,
      "byteOffset": 24
    },
    {
      "type": "VEC3",
      "componentType": 5126,
      "count": 371,
      "max": [
        0.11710554361343384,
        0.3154260516166687,
        0.31542688608169556
      ],
      "min": [
        -0.11710554361343384,
        -0.3154260516166687,
        -0.31542688608169556
      ],
      "bufferView": 16,
      "byteOffset": 0
    },
    {
      "type": "VEC3",
      "componentType": 5126,
      "count": 371,
      "bufferView": 16,
      "byteOffset": 12
    },
    {
      "type": "VEC2",
      "componentType": 5126,
      "count": 371,
      "bufferView": 16,
      "byteOffset": 24
    },
    {
      "type": "VEC3",
      "componentType": 5126,
      "count": 371,
      "max": [
        0.11710554361343384,
        0.3154260516166687,
        0.3154268264770508
      ],
      "min": [
        -0.11710554361343384,
        -0.3154260516166687,
        -0.31542688608169556
      ],
      "bufferView": 17,
      "byteOffset": 0
    },
    {
      "type": "VEC3",
      "componentType": 5126,
      "count": 371,
      "bufferView": 17,
      "byteOffset": 12
    },
    {
      "type": "VEC3",
      "componentType": 5126,
      "count": 371,
      "max": [
        0.11710554361343384,
        0.3154260516166687,
        0.3154268264770508
      ],
      "min": [
        -0.11710554361343384,
        -0.3154260516166687,
        -0.31542688608169556
      ],
      "bufferView": 18,
      "byteOffset": 0
    },
    {
      "type": "VEC3",
      "componentType": 5126,
      "count": 371,
      "bufferView": 18,
      "byteOffset": 12
    },
    {
      "type": "VEC3",
      "componentType": 5126,
      "count": 371,
      "max": [
        0.11710554361343384,
        0.3154260516166687,
        0.31542688608169556
      ],
      "min": [
        -0.11710554361343384,
        -0.3154260516166687,
        -0.31542688608169556
      ],
      "bufferView": 19,
      "byteOffset": 0
    },
    {
      "type": "VEC3",
      "componentType": 5126,
      "count": 371,
      "bufferView": 19,
      "byteOffset": 12
    },
    {
      "type": "VEC3",
      "componentType": 5126,
      "count": 1019,
      "max": [
        0.1036648154258728,
        0.2282194048166275,
        0.22822074592113495
      ],
      "min": [
        -0.10366696119308472,
        -0.22821974754333496,
        -0.22821839153766632
      ],
      "bufferView": 20,
      "byteOffset": 0
    },
    {
      "type": "VEC3",
      "componentType": 5126,
      "count": 1019,
      "bufferView": 20,
      "byteOffset": 12
    },
    {
      "type": "VEC2",
      "componentType": 5126,
      "count": 1019,
      "bufferView": 20,
      "byteOffset": 24
    },
    {
      "type": "VEC3",
      "componentType": 5126,
      "count": 1019,
      "max": [
        0.1036648154258728,
        0.2282194048166275,
        0.22822065651416779
      ],
      "min": [
        -0.10366696119308472,
        -0.22821974754333496,
        -0.22821848094463348
      ],
      "bufferView": 21,
      "byteOffset": 0
    },
    {
      "type": "VEC3",
      "componentType": 5126,
      "count": 1019,
      "bufferView": 21,
      "byteOffset": 12
    },
    {
      "type": "VEC2",
      "componentType": 5126,
      "count": 1019,
      "bufferView": 21,
      "byteOffset": 24
    },
    {
      "type": "VEC3",
      "componentType": 5126,
      "count": 1019,
      "max": [
        0.10366696119308472,
        0.2282194048166275,
        0.22821839153766632
      ],
      "min": [
        -0.1036648154258728,
        -0.22821974754333496,
        -0.22821848094463348
      ],
      "bufferView": 22,
      "byteOffset": 0
    },
    {
      "type": "VEC3",
      "componentType": 5126,
      "count": 1019,
      "bufferView": 22,
      "byteOffset": 12
    },
    {
      "type": "VEC2",
      "componentType": 5126,
      "count": 1019,
      "bufferView": 22,
      "byteOffset": 24
    },
    {
      "type": "VEC3",
      "componentType": 5126,
      "count": 1019,
      "max": [
        0.10366696119308472,
        0.2282194048166275,
        0.22821848094463348
      ],
      "min": [
        -0.1036648154258728,
        -0.22821974754333496,
        -0.22821839153766632
      ],
      "bufferView": 23,
      "byteOffset": 0
    },
    {
      "type": "VEC3",
      "componentType": 5126,
      "count": 1019,
      "bufferView": 23,
      "byteOffset": 12
    },
    {
      "type": "VEC2",
      "componentType": 5126,
      "count": 1019,
      "bufferView": 23,
      "byteOffset": 24
    },
    {
      "type": "VEC3",
      "componentType": 5126,
      "count": 84,
      "max": [
        0.005529999732971191,
        0.17078198492527008,
        0.17078106105327606
      ],
      "min": [
        -0.09929174184799194,
        -0.1707824319601059,
        -0.17078323662281036
      ],
      "bufferView": 24,
      "byteOffset": 0
    },
    {
      "type": "VEC3",
      "componentType": 5126,
      "count": 84,
      "bufferView": 24,
      "byteOffset": 12
    },
    {
      "type": "VEC2",
      "componentType": 5126,
      "count": 84,
      "bufferView": 24,
      "byteOffset": 24
    },
    {
      "type": "VEC3",
      "componentType": 5126,
      "count": 84,
      "max": [
        0.005529999732971191,
        0.17078198492527008,
        0.1651269942522049
      ],
      "min": [
        -0.09929174184799194,
        -0.1707824319601059,
        -0.17643730342388153
      ],
      "bufferView": 25,
      "byteOffset": 0
    },
    {
      "type": "VEC3",
      "componentType": 5126,
      "count": 84,
      "bufferView": 25,
      "byteOffset": 12
    },
    {
      "type": "VEC3",
      "componentType": 5126,
      "count": 84,
      "max": [
        0.09928947687149048,
        0.17078198492527008,
        0.1651269942522049
      ],
      "min": [
        -0.005532205104827881,
        -0.1707824319601059,
        -0.17643730342388153
      ],
      "bufferView": 26,
      "byteOffset": 0
    },
    {
      "type": "VEC3",
      "componentType": 5126,
      "count": 84,
      "bufferView": 26,
      "byteOffset": 12
    },
    {
      "type": "VEC3",
      "componentType": 5126,
      "count": 84,
      "max": [
        0.09928947687149048,
        0.17078198492527008,
        0.17078106105327606
      ],
      "min": [
        -0.005532205104827881,
        -0.1707824319601059,
        -0.17078323662281036
      ],
      "bufferView": 27,
      "byteOffset": 0
    },
    {
      "type": "VEC3",
      "componentType": 5126,
      "count": 84,
      "bufferView": 27,
      "byteOffset": 12
    },
    {
      "type": "VEC3",
      "componentType": 5126,
      "count": 445,
      "max": [
        0.7527907490730286,
        0.7792625427246094,
        2.0556130409240723
      ],
      "min": [
        -0.7527907490730286,
        0.24510377645492554,
        -2.003441333770752
      ],
      "bufferView": 28,
      "byteOffset": 0
    },
    {
      "type": "VEC3",
      "componentType": 5126,
      "count": 445,
      "bufferView": 28,
      "byteOffset": 12
    },
    {
      "type": "VEC2",
      "componentType": 5126,
      "count": 445,
      "bufferView": 28,
      "byteOffset": 24
    }
  ],
  "bufferViews": [
    {
      "buffer": 0,
      "byteOffset": 0,
      "byteLength": 12320,
      "byteStride": 32,
      "target": 34962
    },
    {
      "buffer": 0,
      "byteOffset": 12320,
      "byteLength": 652264,
      "target": 34963
    },
    {
      "buffer": 0,
      "byteOffset": 664584,
      "byteLength": 58880,
      "byteStride": 32,
      "target": 34962
    },
    {
      "buffer": 0,
      "byteOffset": 723464,
      "byteLength": 41536,
      "byteStride": 32,
      "target": 34962
    },
    {
      "buffer": 0,
      "byteOffset": 765000,
      "byteLength": 16576,
      "byteStride": 32,
      "target": 34962
    },
    {
      "buffer": 0,
      "byteOffset": 781576,
      "byteLength": 18944,
      "byteStride": 32,
      "target": 34962
    },
    {
      "buffer": 0,
      "byteOffset": 800520,
      "byteLength": 67616,
      "byteStride": 32,
      "target": 34962
    },
    {
      "buffer": 0,
      "byteOffset": 868136,
      "byteLength": 45696,
      "byteStride": 32,
      "target": 34962
    },
    {
      "buffer": 0,
      "byteOffset": 913832,
      "byteLength": 20512,
      "byteStride": 32,
      "target": 34962
    },
    {
      "buffer": 0,
      "byteOffset": 934344,
      "byteLength": 27040,
      "byteStride": 32,
      "target": 34962
    },
    {
      "buffer": 0,
      "byteOffset": 961384,
      "byteLength": 75776,
      "byteStride": 32,
      "target": 34962
    },
    {
      "buffer": 0,
      "byteOffset": 1037160,
      "byteLength": 37472,
      "byteStride": 32,
      "target": 34962
    },
    {
      "buffer": 0,
      "byteOffset": 1074632,
      "byteLength": 195488,
      "byteStride": 32,
      "target": 34962
    },
    {
      "buffer": 0,
      "byteOffset": 1270120,
      "byteLength": 160800,
      "byteStride": 32,
      "target": 34962
    },
    {
      "buffer": 0,
      "byteOffset": 1430920,
      "byteLength": 1054400,
      "byteStride": 32,
      "target": 34962
    },
    {
      "buffer": 0,
      "byteOffset": 2485320,
      "byteLength": 403616,
      "byteStride": 32,
      "target": 34962
    },
    {
      "buffer": 0,
      "byteOffset": 2888936,
      "byteLength": 11872,
      "byteStride": 32,
      "target": 34962
    },
    {
      "buffer": 0,
      "byteOffset": 2900808,
      "byteLength": 8904,
      "byteStride": 24,
      "target": 34962
    },
    {
      "buffer": 0,
      "byteOffset": 2909712,
      "byteLength": 8904,
      "byteStride": 24,
      "target": 34962
    },
    {
      "buffer": 0,
      "byteOffset": 2918616,
      "byteLength": 8904,
      "byteStride": 24,
      "target": 34962
    },
    {
      "buffer": 0,
      "byteOffset": 2927520,
      "byteLength": 32608,
      "byteStride": 32,
      "target": 34962
    },
    {
      "buffer": 0,
      "byteOffset": 2960128,
      "byteLength": 32608,
      "byteStride": 32,
      "target": 34962
    },
    {
      "buffer": 0,
      "byteOffset": 2992736,
      "byteLength": 32608,
      "byteStride": 32,
      "target": 34962
    },
    {
      "buffer": 0,
      "byteOffset": 3025344,
      "byteLength": 32608,
      "byteStride": 32,
      "target": 34962
    },
    {
      "buffer": 0,
      "byteOffset": 3057952,
      "byteLength": 2688,
      "byteStride": 32,
      "target": 34962
    },
    {
      "buffer": 0,
      "byteOffset": 3060640,
      "byteLength": 2016,
      "byteStride": 24,
      "target": 34962
    },
    {
      "buffer": 0,
      "byteOffset": 3062656,
      "byteLength": 2016,
      "byteStride": 24,
      "target": 34962
    },
    {
      "buffer": 0,
      "byteOffset": 3064672,
      "byteLength": 2016,
      "byteStride": 24,
      "target": 34962
    },
    {
      "buffer": 0,
      "byteOffset": 3066688,
      "byteLength": 14240,
      "byteStride": 32,
      "target": 34962
    }
  ],
  "samplers": [
    {
      "magFilter": 9729,
      "minFilter": 9987,
      "wrapS": 10497,
      "wrapT": 10497
    }
  ],
  "textures": [
    {
      "source": 1,
      "sampler": 0
    },
    {
      "source": 0,
      "sampler": 0
    },
    {
      "source": 2,
      "sampler": 0
    },
    {
      "source": 4,
      "sampler": 0
    },
    {
      "source": 3,
      "sampler": 0
    }
  ],
  "images": [
    {
      "mimeType": "image/jpeg",
      "uri": "audi_quattro_0.jpg"
    },
    {
      "mimeType": "image/jpeg",
      "uri": "audi_quattro_1.jpg"
    },
    {
      "mimeType": "image/jpeg",
      "uri": "audi_quattro_2.jpg"
    },
    {
      "mimeType": "image/jpeg",
      "uri": "audi_quattro_3.jpg"
    },
    {
      "mimeType": "image/jpeg",
      "uri": "audi_quattro_4.jpg"
    }
  ],
  "buffers": [
    {
      "uri": "audi_quattro.bin",
      "byteLength": 3080928
    }
  ],
  "materials": [
    {
      "name": "other:Under",
      "doubleSided": true,
      "pbrMetallicRoughness": {
        "baseColorFactor": [
          0,
          0,
          0,
          1
        ],
        "metallicFactor": 0
      }
    },
    {
      "name": "rim:Rims",
      "doubleSided": true,
      "pbrMetallicRoughness": {
        "roughnessFactor": 0.44313725490196076,
        "metallicFactor": 0.7764705882352941
      },
      "extensions": {
        "KHR_materials_clearcoat": {
          "clearcoatFactor": 1,
          "clearcoatRoughnessFactor": 0.04
        }
      }
    },
    {
      "name": "tyre:Rubber",
      "doubleSided": true,
      "pbrMetallicRoughness": {
        "baseColorFactor": [
          0.004776953478513362,
          0.004776953478513362,
          0.004776953478513362,
          1
        ],
        "metallicRoughnessTexture": {
          "index": 1
        }
      },
      "normalTexture": {
        "index": 0
      },
      "occlusionTexture": {
        "index": 1
      }
    },
    {
      "name": "other:Metal",
      "doubleSided": true,
      "pbrMetallicRoughness": {
        "baseColorTexture": {
          "index": 2
        },
        "metallicRoughnessTexture": {
          "index": 4
        }
      },
      "normalTexture": {
        "index": 3
      },
      "occlusionTexture": {
        "index": 4
      },
      "extensions": {
        "KHR_materials_clearcoat": {
          "clearcoatFactor": 1,
          "clearcoatRoughnessFactor": 0.04
        }
      }
    },
    {
      "name": "other:Plastic",
      "doubleSided": true,
      "pbrMetallicRoughness": {
        "baseColorFactor": [
          0.014443843592229466,
          0.014443843592229466,
          0.014443843592229466,
          1
        ],
        "roughnessFactor": 0.2980392156862745,
        "metallicFactor": 0
      }
    },
    {
      "name": "paint:SilverPaint",
      "doubleSided": true,
      "pbrMetallicRoughness": {
        "baseColorFactor": [
          0.2917706498067337,
          0.2917706498067337,
          0.2917706498067337,
          1
        ],
        "roughnessFactor": 0.26666666666666666,
        "metallicFactor": 0.8901960784313725
      }
    },
    {
      "name": "paint:RedPaint",
      "doubleSided": true,
      "pbrMetallicRoughness": {
        "roughnessFactor": 0.27058823529411763,
        "metallicFactor": 0.8549019607843137
      }
    },
    {
      "name": "paint:BlackPaint",
      "doubleSided": true,
      "pbrMetallicRoughness": {
        "roughnessFactor": 0.5882352941176471,
        "metallicFactor": 0.3764705882352941
      }
    },
    {
      "name": "other:Exhaust",
      "doubleSided": true,
      "pbrMetallicRoughness": {
        "baseColorFactor": [
          0.06662593863608139,
          0.06662593863608139,
          0.06662593863608139,
          1
        ],
        "roughnessFactor": 0.6509803921568628
      }
    },
    {
      "name": "other:material",
      "doubleSided": true,
      "pbrMetallicRoughness": {
        "baseColorFactor": [
          0.9911020971136257,
          0,
          0,
          1
        ],
        "roughnessFactor": 0.2980392156862745,
        "metallicFactor": 0.8549019607843137
      },
      "emissiveFactor": [
        0.9911020971136257,
        0,
        0
      ]
    },
    {
      "name": "other:AudiLogo",
      "doubleSided": true,
      "pbrMetallicRoughness": {
        "baseColorFactor": [
          0.407240211891531,
          0.407240211891531,
          0.407240211891531,
          1
        ],
        "roughnessFactor": 0.42745098039215684
      }
    },
    {
      "name": "light_signal:lambert4",
      "doubleSided": true,
      "pbrMetallicRoughness": {
        "roughnessFactor": 0.2980392156862745,
        "metallicFactor": 0
      },
      "emissiveFactor": [
        1,
        1,
        1
      ]
    },
    {
      "name": "light_signal:Orange",
      "doubleSided": true,
      "pbrMetallicRoughness": {
        "baseColorFactor": [
          1,
          0.3005437944049895,
          0.00030352698352941176,
          1
        ],
        "roughnessFactor": 0.2980392156862745,
        "metallicFactor": 0
      },
      "emissiveFactor": [
        1,
        0.3005437944049895,
        0.00030352698352941176
      ]
    },
    {
      "name": "light_signal:lambert5",
      "doubleSided": true,
      "pbrMetallicRoughness": {
        "baseColorFactor": [
          0.9911020971136257,
          0,
          0,
          1
        ],
        "roughnessFactor": 0.2980392156862745,
        "metallicFactor": 0.22352941176470587
      }
    },
    {
      "name": "light_signal:lambert1",
      "doubleSided": true,
      "pbrMetallicRoughness": {
        "baseColorFactor": [
          0.0722718506743852,
          0.0722718506743852,
          0.0722718506743852,
          1
        ],
        "roughnessFactor": 0.5725490196078431,
        "metallicFactor": 0.42745098039215684
      }
    },
    {
      "name": "other:Inside_Metal",
      "doubleSided": true,
      "pbrMetallicRoughness": {
        "baseColorFactor": [
          0,
          0,
          0,
          1
        ],
        "roughnessFactor": 0.2980392156862745,
        "metallicFactor": 0
      }
    },
    {
      "name": "other:Chair",
      "doubleSided": true,
      "pbrMetallicRoughness": {
        "baseColorFactor": [
          0.012286488353353374,
          0.012286488353353374,
          0.012286488353353374,
          1
        ],
        "metallicFactor": 0
      }
    },
    {
      "name": "glass:Glass",
      "alphaMode": "BLEND",
      "doubleSided": true,
      "pbrMetallicRoughness": {
        "baseColorFactor": [
          0.5028864580233624,
          0.5028864580233624,
          0.5028864580233624,
          0.10980392156862745
        ],
        "roughnessFactor": 0.6235294117647059
      }
    }
  ],
  "meshes": [
    {
      "name": "Body",
      "primitives": [
        {
          "attributes": {
            "POSITION": 0,
            "NORMAL": 1,
            "TEXCOORD_0": 2
          },
          "mode": 4,
          "material": 17,
          "indices": 3
        },
        {
          "attributes": {
            "POSITION": 25,
            "NORMAL": 26,
            "TEXCOORD_0": 27
          },
          "mode": 4,
          "material": 16,
          "indices": 4
        },
        {
          "attributes": {
            "POSITION": 28,
            "NORMAL": 29,
            "TEXCOORD_0": 30
          },
          "mode": 4,
          "material": 15,
          "indices": 5
        },
        {
          "attributes": {
            "POSITION": 31,
            "NORMAL": 32,
            "TEXCOORD_0": 33
          },
          "mode": 4,
          "material": 14,
          "indices": 6
        },
        {
          "attributes": {
            "POSITION": 34,
            "NORMAL": 35,
            "TEXCOORD_0": 36
          },
          "mode": 4,
          "material": 13,
          "indices": 7
        },
        {
          "attributes": {
            "POSITION": 37,
            "NORMAL": 38,
            "TEXCOORD_0": 39
          },
          "mode": 4,
          "material": 12,
          "indices": 8
        },
        {
          "attributes": {
            "POSITION": 40,
            "NORMAL": 41,
            "TEXCOORD_0": 42
          },
          "mode": 4,
          "material": 11,
          "indices": 9
        },
        {
          "attributes": {
            "POSITION": 43,
            "NORMAL": 44,
            "TEXCOORD_0": 45
          },
          "mode": 4,
          "material": 10,
          "indices": 10
        },
        {
          "attributes": {
            "POSITION": 46,
            "NORMAL": 47,
            "TEXCOORD_0": 48
          },
          "mode": 4,
          "material": 9,
          "indices": 11
        },
        {
          "attributes": {
            "POSITION": 49,
            "NORMAL": 50,
            "TEXCOORD_0": 51
          },
          "mode": 4,
          "material": 8,
          "indices": 12
        },
        {
          "attributes": {
            "POSITION": 52,
            "NORMAL": 53,
            "TEXCOORD_0": 54
          },
          "mode": 4,
          "material": 7,
          "indices": 13
        },
        {
          "attributes": {
            "POSITION": 55,
            "NORMAL": 56,
            "TEXCOORD_0": 57
          },
          "mode": 4,
          "material": 6,
          "indices": 14
        },
        {
          "attributes": {
            "POSITION": 58,
            "NORMAL": 59,
            "TEXCOORD_0": 60
          },
          "mode": 4,
          "material": 5,
          "indices": 15
        },
        {
          "attributes": {
            "POSITION": 61,
            "NORMAL": 62,
            "TEXCOORD_0": 63
          },
          "mode": 4,
          "material": 4,
          "indices": 16
        },
        {
          "attributes": {
            "POSITION": 64,
            "NORMAL": 65,
            "TEXCOORD_0": 66
          },
          "mode": 4,
          "material": 3,
          "indices": 17
        },
        {
          "attributes": {
            "POSITION": 97,
            "NORMAL": 98,
            "TEXCOORD_0": 99
          },
          "mode": 4,
          "material": 0,
          "indices": 24
        }
      ]
    },
    {
      "name": "Wheel_RR_Spin",
      "primitives": [
        {
          "attributes": {
            "POSITION": 67,
            "NORMAL": 68,
            "TEXCOORD_0": 69
          },
          "mode": 4,
          "material": 2,
          "indices": 18
        },
        {
          "attributes": {
            "POSITION": 76,
            "NORMAL": 77,
            "TEXCOORD_0": 78
          },
          "mode": 4,
          "material": 1,
          "indices": 19
        },
        {
          "attributes": {
            "POSITION": 88,
            "NORMAL": 89,
            "TEXCOORD_0": 90
          },
          "mode": 4,
          "material": 0,
          "indices": 23
        }
      ]
    },
    {
      "name": "Wheel_FR_Spin",
      "primitives": [
        {
          "attributes": {
            "POSITION": 70,
            "NORMAL": 71,
            "TEXCOORD_0": 69
          },
          "mode": 4,
          "material": 2,
          "indices": 18
        },
        {
          "attributes": {
            "POSITION": 79,
            "NORMAL": 80,
            "TEXCOORD_0": 81
          },
          "mode": 4,
          "material": 1,
          "indices": 20
        },
        {
          "attributes": {
            "POSITION": 91,
            "NORMAL": 92,
            "TEXCOORD_0": 90
          },
          "mode": 4,
          "material": 0,
          "indices": 23
        }
      ]
    },
    {
      "name": "Wheel_FL_Spin",
      "primitives": [
        {
          "attributes": {
            "POSITION": 72,
            "NORMAL": 73,
            "TEXCOORD_0": 69
          },
          "mode": 4,
          "material": 2,
          "indices": 18
        },
        {
          "attributes": {
            "POSITION": 82,
            "NORMAL": 83,
            "TEXCOORD_0": 84
          },
          "mode": 4,
          "material": 1,
          "indices": 21
        },
        {
          "attributes": {
            "POSITION": 93,
            "NORMAL": 94,
            "TEXCOORD_0": 90
          },
          "mode": 4,
          "material": 0,
          "indices": 23
        }
      ]
    },
    {
      "name": "Wheel_RL_Spin",
      "primitives": [
        {
          "attributes": {
            "POSITION": 74,
            "NORMAL": 75,
            "TEXCOORD_0": 69
          },
          "mode": 4,
          "material": 2,
          "indices": 18
        },
        {
          "attributes": {
            "POSITION": 85,
            "NORMAL": 86,
            "TEXCOORD_0": 87
          },
          "mode": 4,
          "material": 1,
          "indices": 22
        },
        {
          "attributes": {
            "POSITION": 95,
            "NORMAL": 96,
            "TEXCOORD_0": 90
          },
          "mode": 4,
          "material": 0,
          "indices": 23
        }
      ]
    }
  ],
  "nodes": [
    {
      "name": "Body",
      "mesh": 0
    },
    {
      "name": "Wheel_RR",
      "translation": [
        0.6899958252906799,
        0.31542693078517914,
        1.2567770034074783
      ],
      "children": [
        2
      ]
    },
    {
      "name": "Wheel_RR_Spin",
      "mesh": 1
    },
    {
      "name": "Wheel_FR",
      "translation": [
        0.6899958252906799,
        0.3154268115758896,
        -1.2567770034074783
      ],
      "children": [
        4
      ]
    },
    {
      "name": "Wheel_FR_Spin",
      "mesh": 2
    },
    {
      "name": "Wheel_FL",
      "translation": [
        -0.6899958252906799,
        0.3154268115758896,
        -1.2567770034074783
      ],
      "children": [
        6
      ]
    },
    {
      "name": "Wheel_FL_Spin",
      "mesh": 3
    },
    {
      "name": "Wheel_RL",
      "translation": [
        -0.6899958252906799,
        0.31542693078517914,
        1.2567770034074783
      ],
      "children": [
        8
      ]
    },
    {
      "name": "Wheel_RL_Spin",
      "mesh": 4
    }
  ],
  "scenes": [
    {
      "name": "Sketchfab_Scene",
      "nodes": [
        0,
        1,
        3,
        5,
        7
      ]
    }
  ],
  "scene": 0,
  "extensionsUsed": [
    "KHR_materials_clearcoat"
  ]
}