{
  "asset": {
    "generator": "glTF-Transform v4.5.0",
    "version": "2.0"
  },
  "accessors": [
    {
      "type": "VEC3",
      "componentType": 5126,
      "count": 129,
      "max": [
        3.0441219806671143,
        4.821104049682617,
        -0.28957653045654297
      ],
      "min": [
        -2.0881235599517822,
        2.113992929458618,
        -2.792956590652466
      ],
      "bufferView": 0,
      "byteOffset": 0
    },
    {
      "type": "VEC3",
      "componentType": 5126,
      "count": 129,
      "bufferView": 0,
      "byteOffset": 12
    },
    {
      "type": "VEC2",
      "componentType": 5126,
      "count": 129,
      "bufferView": 0,
      "byteOffset": 24
    },
    {
      "type": "SCALAR",
      "componentType": 5123,
      "count": 474,
      "bufferView": 1,
      "byteOffset": 0
    },
    {
      "type": "SCALAR",
      "componentType": 5123,
      "count": 165,
      "bufferView": 1,
      "byteOffset": 948
    },
    {
      "type": "VEC3",
      "componentType": 5126,
      "count": 68,
      "max": [
        2.663024663925171,
        5.216425895690918,
        2.9410529136657715
      ],
      "min": [
        -2.5976078510284424,
        0.011865880340337753,
        -2.962599992752075
      ],
      "bufferView": 2,
      "byteOffset": 0
    },
    {
      "type": "VEC3",
      "componentType": 5126,
      "count": 68,
      "bufferView": 2,
      "byteOffset": 12
    },
    {
      "type": "VEC2",
      "componentType": 5126,
      "count": 68,
      "bufferView": 2,
      "byteOffset": 24
    }
  ],
  "bufferViews": [
    {
      "buffer": 0,
      "byteOffset": 0,
      "byteLength": 4128,
      "byteStride": 32,
      "target": 34962
    },
    {
      "buffer": 0,
      "byteOffset": 4128,
      "byteLength": 1280,
      "target": 34963
    },
    {
      "buffer": 0,
      "byteOffset": 5408,
      "byteLength": 2176,
      "byteStride": 32,
      "target": 34962
    }
  ],
  "samplers": [
    {
      "wrapS": 10497,
      "wrapT": 10497
    }
  ],
  "textures": [
    {
      "source": 0,
      "sampler": 0
    },
    {
      "source": 1,
      "sampler": 0
    },
    {
      "source": 2,
      "sampler": 0
    },
    {
      "source": 3,
      "sampler": 0
    }
  ],
  "images": [
    {
      "name": "tree_olive_far_0",
      "mimeType": "image/png",
      "uri": "tree_olive_far_0.png"
    },
    {
      "name": "tree_olive_far_1",
      "mimeType": "image/jpeg",
      "uri": "tree_olive_far_1.jpg"
    },
    {
      "name": "tree_olive_far_2",
      "mimeType": "image/jpeg",
      "uri": "tree_olive_far_2.jpg"
    },
    {
      "name": "tree_olive_far_3",
      "mimeType": "image/jpeg",
      "uri": "tree_olive_far_3.jpg"
    }
  ],
  "buffers": [
    {
      "name": "tree_olive_far.bin",
      "uri": "tree_olive_far.bin",
      "byteLength": 7584
    }
  ],
  "materials": [
    {
      "name": "olive-leaves",
      "alphaMode": "MASK",
      "alphaCutoff": 0.4,
      "doubleSided": true,
      "pbrMetallicRoughness": {
        "roughnessFactor": 0.8011823178082373,
        "metallicFactor": 0,
        "baseColorTexture": {
          "index": 0
        }
      },
      "normalTexture": {
        "index": 1
      }
    },
    {
      "name": "olive-tree-bark",
      "doubleSided": true,
      "pbrMetallicRoughness": {
        "roughnessFactor": 0.9781426498102782,
        "metallicFactor": 0,
        "baseColorTexture": {
          "index": 2
        }
      },
      "normalTexture": {
        "index": 3
      }
    }
  ],
  "meshes": [
    {
      "name": "tree_olive_far",
      "primitives": [
        {
          "attributes": {
            "POSITION": 0,
            "NORMAL": 1,
            "TEXCOORD_0": 2
          },
          "mode": 4,
          "material": 0,
          "indices": 3
        },
        {
          "attributes": {
            "POSITION": 5,
            "NORMAL": 6,
            "TEXCOORD_0": 7
          },
          "mode": 4,
          "material": 1,
          "indices": 4
        }
      ]
    }
  ],
  "nodes": [
    {
      "name": "tree_olive_far",
      "mesh": 0
    }
  ],
  "scenes": [
    {
      "name": "Scene",
      "nodes": [
        0
      ]
    }
  ]
}