{
  "asset": {
    "generator": "glTF-Transform v4.5.0",
    "version": "2.0",
    "extras": {
      "author": "Black Snow (https://sketchfab.com/BlackSnow02)",
      "license": "CC-BY-4.0 (http://creativecommons.org/licenses/by/4.0/)",
      "source": "https://sketchfab.com/3d-models/porsche-918-free-ec8eebcdbf534bbba151375b9992f6d7",
      "title": "Porsche 918 Free"
    }
  },
  "accessors": [
    {
      "type": "VEC3",
      "componentType": 5126,
      "count": 760,
      "max": [
        0.11889900267124176,
        0.30235394835472107,
        0.30356356501579285
      ],
      "min": [
        -0.1275707334280014,
        -0.30235394835472107,
        -0.30356350541114807
      ],
      "bufferView": 0,
      "byteOffset": 0
    },
    {
      "type": "VEC3",
      "componentType": 5126,
      "count": 760,
      "bufferView": 0,
      "byteOffset": 12
    },
    {
      "type": "SCALAR",
      "componentType": 5123,
      "count": 1788,
      "bufferView": 1,
      "byteOffset": 0
    },
    {
      "type": "SCALAR",
      "componentType": 5123,
      "count": 82914,
      "bufferView": 1,
      "byteOffset": 3576
    },
    {
      "type": "SCALAR",
      "componentType": 5123,
      "count": 42282,
      "bufferView": 1,
      "byteOffset": 169404
    },
    {
      "type": "SCALAR",
      "componentType": 5123,
      "count": 18507,
      "bufferView": 1,
      "byteOffset": 253968
    },
    {
      "type": "SCALAR",
      "componentType": 5123,
      "count": 42822,
      "bufferView": 1,
      "byteOffset": 290984
    },
    {
      "type": "SCALAR",
      "componentType": 5123,
      "count": 110112,
      "bufferView": 1,
      "byteOffset": 376628
    },
    {
      "type": "SCALAR",
      "componentType": 5123,
      "count": 444,
      "bufferView": 1,
      "byteOffset": 596852
    },
    {
      "type": "SCALAR",
      "componentType": 5123,
      "count": 255,
      "bufferView": 1,
      "byteOffset": 597740
    },
    {
      "type": "SCALAR",
      "componentType": 5123,
      "count": 240,
      "bufferView": 1,
      "byteOffset": 598252
    },
    {
      "type": "SCALAR",
      "componentType": 5123,
      "count": 5394,
      "bufferView": 1,
      "byteOffset": 598732
    },
    {
      "type": "SCALAR",
      "componentType": 5123,
      "count": 96,
      "bufferView": 1,
      "byteOffset": 609520
    },
    {
      "type": "SCALAR",
      "componentType": 5123,
      "count": 4773,
      "bufferView": 1,
      "byteOffset": 609712
    },
    {
      "type": "SCALAR",
      "componentType": 5123,
      "count": 1416,
      "bufferView": 1,
      "byteOffset": 619260
    },
    {
      "type": "SCALAR",
      "componentType": 5123,
      "count": 4146,
      "bufferView": 1,
      "byteOffset": 622092
    },
    {
      "type": "SCALAR",
      "componentType": 5123,
      "count": 6552,
      "bufferView": 1,
      "byteOffset": 630384
    },
    {
      "type": "SCALAR",
      "componentType": 5123,
      "count": 2874,
      "bufferView": 1,
      "byteOffset": 643488
    },
    {
      "type": "SCALAR",
      "componentType": 5123,
      "count": 22740,
      "bufferView": 1,
      "byteOffset": 649236
    },
    {
      "type": "SCALAR",
      "componentType": 5123,
      "count": 1260,
      "bufferView": 1,
      "byteOffset": 694716
    },
    {
      "type": "SCALAR",
      "componentType": 5123,
      "count": 270,
      "bufferView": 1,
      "byteOffset": 697236
    },
    {
      "type": "SCALAR",
      "componentType": 5123,
      "count": 3438,
      "bufferView": 1,
      "byteOffset": 697776
    },
    {
      "type": "SCALAR",
      "componentType": 5123,
      "count": 5766,
      "bufferView": 1,
      "byteOffset": 704652
    },
    {
      "type": "SCALAR",
      "componentType": 5123,
      "count": 10614,
      "bufferView": 1,
      "byteOffset": 716184
    },
    {
      "type": "SCALAR",
      "componentType": 5123,
      "count": 73662,
      "bufferView": 1,
      "byteOffset": 737412
    },
    {
      "type": "SCALAR",
      "componentType": 5123,
      "count": 4782,
      "bufferView": 1,
      "byteOffset": 884736
    },
    {
      "type": "SCALAR",
      "componentType": 5123,
      "count": 3,
      "bufferView": 1,
      "byteOffset": 894300
    },
    {
      "type": "SCALAR",
      "componentType": 5123,
      "count": 1686,
      "bufferView": 1,
      "byteOffset": 894308
    },
    {
      "type": "SCALAR",
      "componentType": 5123,
      "count": 1116,
      "bufferView": 1,
      "byteOffset": 897680
    },
    {
      "type": "SCALAR",
      "componentType": 5123,
      "count": 8544,
      "bufferView": 1,
      "byteOffset": 899912
    },
    {
      "type": "SCALAR",
      "componentType": 5123,
      "count": 5337,
      "bufferView": 1,
      "byteOffset": 917000
    },
    {
      "type": "SCALAR",
      "componentType": 5123,
      "count": 5469,
      "bufferView": 1,
      "byteOffset": 927676
    },
    {
      "type": "SCALAR",
      "componentType": 5123,
      "count": 789,
      "bufferView": 1,
      "byteOffset": 938616
    },
    {
      "type": "SCALAR",
      "componentType": 5123,
      "count": 13398,
      "bufferView": 1,
      "byteOffset": 940196
    },
    {
      "type": "SCALAR",
      "componentType": 5123,
      "count": 5304,
      "bufferView": 1,
      "byteOffset": 966992
    },
    {
      "type": "SCALAR",
      "componentType": 5123,
      "count": 60,
      "bufferView": 1,
      "byteOffset": 977600
    },
    {
      "type": "SCALAR",
      "componentType": 5123,
      "count": 1797,
      "bufferView": 1,
      "byteOffset": 977720
    },
    {
      "type": "SCALAR",
      "componentType": 5123,
      "count": 9081,
      "bufferView": 1,
      "byteOffset": 981316
    },
    {
      "type": "SCALAR",
      "componentType": 5123,
      "count": 26046,
      "bufferView": 1,
      "byteOffset": 999480
    },
    {
      "type": "SCALAR",
      "componentType": 5123,
      "count": 13887,
      "bufferView": 1,
      "byteOffset": 1051572
    },
    {
      "type": "SCALAR",
      "componentType": 5123,
      "count": 375,
      "bufferView": 1,
      "byteOffset": 1079348
    },
    {
      "type": "SCALAR",
      "componentType": 5123,
      "count": 6,
      "bufferView": 1,
      "byteOffset": 1080100
    },
    {
      "type": "SCALAR",
      "componentType": 5123,
      "count": 96,
      "bufferView": 1,
      "byteOffset": 1080112
    },
    {
      "type": "SCALAR",
      "componentType": 5123,
      "count": 240,
      "bufferView": 1,
      "byteOffset": 1080304
    },
    {
      "type": "SCALAR",
      "componentType": 5123,
      "count": 6009,
      "bufferView": 1,
      "byteOffset": 1080784
    },
    {
      "type": "SCALAR",
      "componentType": 5123,
      "count": 1980,
      "bufferView": 1,
      "byteOffset": 1092804
    },
    {
      "type": "SCALAR",
      "componentType": 5123,
      "count": 60,
      "bufferView": 1,
      "byteOffset": 1096764
    },
    {
      "type": "SCALAR",
      "componentType": 5123,
      "count": 888,
      "bufferView": 1,
      "byteOffset": 1096884
    },
    {
      "type": "SCALAR",
      "componentType": 5123,
      "count": 534,
      "bufferView": 1,
      "byteOffset": 1098660
    },
    {
      "type": "SCALAR",
      "componentType": 5123,
      "count": 67377,
      "bufferView": 1,
      "byteOffset": 1099728
    },
    {
      "type": "SCALAR",
      "componentType": 5123,
      "count": 1791,
      "bufferView": 1,
      "byteOffset": 1234484
    },
    {
      "type": "SCALAR",
      "componentType": 5123,
      "count": 1788,
      "bufferView": 1,
      "byteOffset": 1238068
    },
    {
      "type": "SCALAR",
      "componentType": 5123,
      "count": 1791,
      "bufferView": 1,
      "byteOffset": 1241644
    },
    {
      "type": "SCALAR",
      "componentType": 5123,
      "count": 375,
      "bufferView": 1,
      "byteOffset": 1245228
    },
    {
      "type": "SCALAR",
      "componentType": 5123,
      "count": 1539,
      "bufferView": 1,
      "byteOffset": 1245980
    },
    {
      "type": "SCALAR",
      "componentType": 5123,
      "count": 369,
      "bufferView": 1,
      "byteOffset": 1249060
    },
    {
      "type": "SCALAR",
      "componentType": 5123,
      "count": 4440,
      "bufferView": 1,
      "byteOffset": 1249800
    },
    {
      "type": "SCALAR",
      "componentType": 5123,
      "count": 1545,
      "bufferView": 1,
      "byteOffset": 1258680
    },
    {
      "type": "SCALAR",
      "componentType": 5123,
      "count": 4437,
      "bufferView": 1,
      "byteOffset": 1261772
    },
    {
      "type": "SCALAR",
      "componentType": 5123,
      "count": 381,
      "bufferView": 1,
      "byteOffset": 1270648
    },
    {
      "type": "SCALAR",
      "componentType": 5123,
      "count": 1539,
      "bufferView": 1,
      "byteOffset": 1271412
    },
    {
      "type": "SCALAR",
      "componentType": 5123,
      "count": 369,
      "bufferView": 1,
      "byteOffset": 1274492
    },
    {
      "type": "SCALAR",
      "componentType": 5123,
      "count": 6,
      "bufferView": 1,
      "byteOffset": 1275232
    },
    {
      "type": "SCALAR",
      "componentType": 5123,
      "count": 4437,
      "bufferView": 1,
      "byteOffset": 1275244
    },
    {
      "type": "SCALAR",
      "componentType": 5123,
      "count": 369,
      "bufferView": 1,
      "byteOffset": 1284120
    },
    {
      "type": "SCALAR",
      "componentType": 5123,
      "count": 1542,
      "bufferView": 1,
      "byteOffset": 1284860
    },
    {
      "type": "SCALAR",
      "componentType": 5123,
      "count": 4440,
      "bufferView": 1,
      "byteOffset": 1287944
    },
    {
      "type": "VEC3",
      "componentType": 5126,
      "count": 40034,
      "max": [
        1.068854808807373,
        1.099077820777893,
        2.1926684379577637
      ],
      "min": [
        -1.07184898853302,
        0.023574475198984146,
        -2.356053352355957
      ],
      "bufferView": 2,
      "byteOffset": 0
    },
    {
      "type": "VEC3",
      "componentType": 5126,
      "count": 40034,
      "bufferView": 2,
      "byteOffset": 12
    },
    {
      "type": "VEC3",
      "componentType": 5126,
      "count": 25717,
      "max": [
        0.8688487410545349,
        1.0561619997024536,
        1.9673792123794556
      ],
      "min": [
        -0.8694332838058472,
        0.13524670898914337,
        -1.003072738647461
      ],
      "bufferView": 3,
      "byteOffset": 0
    },
    {
      "type": "VEC3",
      "componentType": 5126,
      "count": 25717,
      "bufferView": 3,
      "byteOffset": 12
    },
    {
      "type": "VEC3",
      "componentType": 5126,
      "count": 10654,
      "max": [
        1.0717254877090454,
        0.7469922304153442,
        2.22495698928833
      ],
      "min": [
        -1.0745512247085571,
        0.02585943415760994,
        -2.414165496826172
      ],
      "bufferView": 4,
      "byteOffset": 0
    },
    {
      "type": "VEC3",
      "componentType": 5126,
      "count": 10654,
      "bufferView": 4,
      "byteOffset": 12
    },
    {
      "type": "VEC3",
      "componentType": 5126,
      "count": 20626,
      "max": [
        0.9340096116065979,
        1.0615758895874023,
        2.0711069107055664
      ],
      "min": [
        -0.9345942735671997,
        0.06350012868642807,
        -2.2269389629364014
      ],
      "bufferView": 5,
      "byteOffset": 0
    },
    {
      "type": "VEC3",
      "componentType": 5126,
      "count": 20626,
      "bufferView": 5,
      "byteOffset": 12
    },
    {
      "type": "VEC3",
      "componentType": 5126,
      "count": 61578,
      "max": [
        0.9093038439750671,
        1.0634461641311646,
        1.962735652923584
      ],
      "min": [
        -0.9098880887031555,
        0.06664132326841354,
        -2.209517478942871
      ],
      "bufferView": 6,
      "byteOffset": 0
    },
    {
      "type": "VEC3",
      "componentType": 5126,
      "count": 61578,
      "bufferView": 6,
      "byteOffset": 12
    },
    {
      "type": "VEC3",
      "componentType": 5126,
      "count": 285,
      "max": [
        0.9343050122261047,
        0.9087130427360535,
        2.0965020656585693
      ],
      "min": [
        -0.934889554977417,
        0.4801473319530487,
        -2.112187623977661
      ],
      "bufferView": 7,
      "byteOffset": 0
    },
    {
      "type": "VEC3",
      "componentType": 5126,
      "count": 285,
      "bufferView": 7,
      "byteOffset": 12
    },
    {
      "type": "VEC3",
      "componentType": 5126,
      "count": 129,
      "max": [
        -0.5551444888114929,
        0.6766136884689331,
        1.9072210788726807
      ],
      "min": [
        -0.9363662004470825,
        0.4487484097480774,
        -1.956273078918457
      ],
      "bufferView": 8,
      "byteOffset": 0
    },
    {
      "type": "VEC3",
      "componentType": 5126,
      "count": 129,
      "bufferView": 8,
      "byteOffset": 12
    },
    {
      "type": "VEC3",
      "componentType": 5126,
      "count": 116,
      "max": [
        0.9357823133468628,
        0.6766136884689331,
        1.9072210788726807
      ],
      "min": [
        0.5545605421066284,
        0.4487484097480774,
        -1.956273078918457
      ],
      "bufferView": 9,
      "byteOffset": 0
    },
    {
      "type": "VEC3",
      "componentType": 5126,
      "count": 116,
      "bufferView": 9,
      "byteOffset": 12
    },
    {
      "type": "VEC3",
      "componentType": 5126,
      "count": 3381,
      "max": [
        0.941588819026947,
        0.7595912218093872,
        -0.2171054482460022
      ],
      "min": [
        -0.9421735405921936,
        0.38840991258621216,
        -1.8391412496566772
      ],
      "bufferView": 10,
      "byteOffset": 0
    },
    {
      "type": "VEC3",
      "componentType": 5126,
      "count": 3381,
      "bufferView": 10,
      "byteOffset": 12
    },
    {
      "type": "VEC3",
      "componentType": 5126,
      "count": 70,
      "max": [
        0.025496408343315125,
        0.5354453325271606,
        -2.0506675243377686
      ],
      "min": [
        -0.026081126183271408,
        0.5038490891456604,
        -2.111891984939575
      ],
      "bufferView": 11,
      "byteOffset": 0
    },
    {
      "type": "VEC3",
      "componentType": 5126,
      "count": 70,
      "bufferView": 11,
      "byteOffset": 12
    },
    {
      "type": "VEC2",
      "componentType": 5126,
      "count": 70,
      "bufferView": 11,
      "byteOffset": 24
    },
    {
      "type": "VEC3",
      "componentType": 5126,
      "count": 3644,
      "max": [
        0.8404026031494141,
        0.7074222564697266,
        2.0152976512908936
      ],
      "min": [
        -0.8409865498542786,
        0.5274915099143982,
        1.7431374788284302
      ],
      "bufferView": 12,
      "byteOffset": 0
    },
    {
      "type": "VEC3",
      "componentType": 5126,
      "count": 3644,
      "bufferView": 12,
      "byteOffset": 12
    },
    {
      "type": "VEC3",
      "componentType": 5126,
      "count": 870,
      "max": [
        0.8489658236503601,
        0.6859652996063232,
        2.178593397140503
      ],
      "min": [
        -0.8480738401412964,
        0.3199023902416229,
        -1.7940607070922852
      ],
      "bufferView": 13,
      "byteOffset": 0
    },
    {
      "type": "VEC3",
      "componentType": 5126,
      "count": 870,
      "bufferView": 13,
      "byteOffset": 12
    },
    {
      "type": "VEC3",
      "componentType": 5126,
      "count": 2012,
      "max": [
        0.8404026031494141,
        0.7074222564697266,
        2.0233683586120605
      ],
      "min": [
        -0.8409865498542786,
        0.4261094331741333,
        -2.1252784729003906
      ],
      "bufferView": 14,
      "byteOffset": 0
    },
    {
      "type": "VEC3",
      "componentType": 5126,
      "count": 2012,
      "bufferView": 14,
      "byteOffset": 12
    },
    {
      "type": "VEC3",
      "componentType": 5126,
      "count": 3691,
      "max": [
        0.8210117816925049,
        0.9562556147575378,
        1.9739563465118408
      ],
      "min": [
        -0.8215957880020142,
        0.3985476493835449,
        0.5691571235656738
      ],
      "bufferView": 15,
      "byteOffset": 0
    },
    {
      "type": "VEC3",
      "componentType": 5126,
      "count": 3691,
      "bufferView": 15,
      "byteOffset": 12
    },
    {
      "type": "VEC3",
      "componentType": 5126,
      "count": 1405,
      "max": [
        0.7202187180519104,
        0.8356452584266663,
        0.19502295553684235
      ],
      "min": [
        -0.7208032608032227,
        0.5030736327171326,
        -0.934269905090332
      ],
      "bufferView": 16,
      "byteOffset": 0
    },
    {
      "type": "VEC3",
      "componentType": 5126,
      "count": 1405,
      "bufferView": 16,
      "byteOffset": 12
    },
    {
      "type": "VEC3",
      "componentType": 5126,
      "count": 10113,
      "max": [
        0.7196281552314758,
        0.7191365361213684,
        0.1935463845729828
      ],
      "min": [
        -0.7202126979827881,
        0.07087331265211105,
        -1.3413784503936768
      ],
      "bufferView": 17,
      "byteOffset": 0
    },
    {
      "type": "VEC3",
      "componentType": 5126,
      "count": 10113,
      "bufferView": 17,
      "byteOffset": 12
    },
    {
      "type": "VEC3",
      "componentType": 5126,
      "count": 872,
      "max": [
        0.7025012969970703,
        1.0474016666412354,
        0.3114662766456604
      ],
      "min": [
        -0.7030856609344482,
        0.7191363573074341,
        -1.0655760765075684
      ],
      "bufferView": 18,
      "byteOffset": 0
    },
    {
      "type": "VEC3",
      "componentType": 5126,
      "count": 872,
      "bufferView": 18,
      "byteOffset": 12
    },
    {
      "type": "VEC3",
      "componentType": 5126,
      "count": 137,
      "max": [
        0.7049620151519775,
        0.8758376836776733,
        -0.4945807158946991
      ],
      "min": [
        -0.705546498298645,
        0.71638023853302,
        -0.6752009391784668
      ],
      "bufferView": 19,
      "byteOffset": 0
    },
    {
      "type": "VEC3",
      "componentType": 5126,
      "count": 137,
      "bufferView": 19,
      "byteOffset": 12
    },
    {
      "type": "VEC3",
      "componentType": 5126,
      "count": 2316,
      "max": [
        0.9973989129066467,
        0.9853906631469727,
        -0.46800461411476135
      ],
      "min": [
        -0.997983455657959,
        0.49117180705070496,
        -1.8391412496566772
      ],
      "bufferView": 20,
      "byteOffset": 0
    },
    {
      "type": "VEC3",
      "componentType": 5126,
      "count": 2316,
      "bufferView": 20,
      "byteOffset": 12
    },
    {
      "type": "VEC3",
      "componentType": 5126,
      "count": 2708,
      "max": [
        0.7065370082855225,
        0.7580165266990662,
        -0.3925085961818695
      ],
      "min": [
        -0.7071213722229004,
        0.2795461118221283,
        -1.050516128540039
      ],
      "bufferView": 21,
      "byteOffset": 0
    },
    {
      "type": "VEC3",
      "componentType": 5126,
      "count": 2708,
      "bufferView": 21,
      "byteOffset": 12
    },
    {
      "type": "VEC3",
      "componentType": 5126,
      "count": 6406,
      "max": [
        0.6800591945648193,
        0.8494579195976257,
        0.34414514899253845
      ],
      "min": [
        -0.6806435585021973,
        0.06880609691143036,
        -0.4392630457878113
      ],
      "bufferView": 22,
      "byteOffset": 0
    },
    {
      "type": "VEC3",
      "componentType": 5126,
      "count": 6406,
      "bufferView": 22,
      "byteOffset": 12
    },
    {
      "type": "VEC3",
      "componentType": 5126,
      "count": 35174,
      "max": [
        0.9590112566947937,
        1.0941559076309204,
        1.5706875324249268
      ],
      "min": [
        -0.9595954418182373,
        0.06240811571478844,
        -1.6433627605438232
      ],
      "bufferView": 23,
      "byteOffset": 0
    },
    {
      "type": "VEC3",
      "componentType": 5126,
      "count": 35174,
      "bufferView": 23,
      "byteOffset": 12
    },
    {
      "type": "VEC3",
      "componentType": 5126,
      "count": 3142,
      "max": [
        0.7538820505142212,
        0.7018126249313354,
        0.25506526231765747
      ],
      "min": [
        -0.7544664144515991,
        0.09843405336141586,
        -1.132016897201538
      ],
      "bufferView": 24,
      "byteOffset": 0
    },
    {
      "type": "VEC3",
      "componentType": 5126,
      "count": 3142,
      "bufferView": 24,
      "byteOffset": 12
    },
    {
      "type": "VEC3",
      "componentType": 5126,
      "count": 3,
      "max": [
        -1.3591784238815308,
        0.3012826144695282,
        -1.3507248163223267
      ],
      "min": [
        -1.3591848611831665,
        0.30124908685684204,
        -1.3507786989212036
      ],
      "bufferView": 25,
      "byteOffset": 0
    },
    {
      "type": "VEC3",
      "componentType": 5126,
      "count": 3,
      "bufferView": 25,
      "byteOffset": 12
    },
    {
      "type": "VEC3",
      "componentType": 5126,
      "count": 3,
      "max": [
        -0.11898984014987946,
        -0.0024685757234692574,
        0.006361812353134155
      ],
      "min": [
        -0.11899687349796295,
        -0.0025021033361554146,
        0.006306737661361694
      ],
      "bufferView": 26,
      "byteOffset": 0
    },
    {
      "type": "VEC3",
      "componentType": 5126,
      "count": 3,
      "bufferView": 26,
      "byteOffset": 12
    },
    {
      "type": "VEC3",
      "componentType": 5126,
      "count": 625,
      "max": [
        0.935978353023529,
        0.7098897099494934,
        -0.6954586505889893
      ],
      "min": [
        -0.9365628361701965,
        0.3741007447242737,
        -2.181187152862549
      ],
      "bufferView": 27,
      "byteOffset": 0
    },
    {
      "type": "VEC3",
      "componentType": 5126,
      "count": 625,
      "bufferView": 27,
      "byteOffset": 12
    },
    {
      "type": "VEC3",
      "componentType": 5126,
      "count": 488,
      "max": [
        0.5190269351005554,
        1.0132462978363037,
        0.3442435562610626
      ],
      "min": [
        -0.5196112990379333,
        0.15036821365356445,
        -2.00529146194458
      ],
      "bufferView": 28,
      "byteOffset": 0
    },
    {
      "type": "VEC3",
      "componentType": 5126,
      "count": 488,
      "bufferView": 28,
      "byteOffset": 12
    },
    {
      "type": "VEC3",
      "componentType": 5126,
      "count": 5644,
      "max": [
        0.7998490333557129,
        0.6225764155387878,
        -1.7302765846252441
      ],
      "min": [
        -0.8004335761070251,
        0.44746875762939453,
        -1.9122748374938965
      ],
      "bufferView": 29,
      "byteOffset": 0
    },
    {
      "type": "VEC3",
      "componentType": 5126,
      "count": 5644,
      "bufferView": 29,
      "byteOffset": 12
    },
    {
      "type": "VEC3",
      "componentType": 5126,
      "count": 3699,
      "max": [
        0.8257361650466919,
        0.6437389850616455,
        -1.7203357219696045
      ],
      "min": [
        -0.8263207674026489,
        0.4261094331741333,
        -2.1252784729003906
      ],
      "bufferView": 30,
      "byteOffset": 0
    },
    {
      "type": "VEC3",
      "componentType": 5126,
      "count": 3699,
      "bufferView": 30,
      "byteOffset": 12
    },
    {
      "type": "VEC3",
      "componentType": 5126,
      "count": 2474,
      "max": [
        0.9121583104133606,
        0.9024133682250977,
        1.8771015405654907
      ],
      "min": [
        -0.9127424955368042,
        0.06664132326841354,
        -2.089351177215576
      ],
      "bufferView": 31,
      "byteOffset": 0
    },
    {
      "type": "VEC3",
      "componentType": 5126,
      "count": 2474,
      "bufferView": 31,
      "byteOffset": 12
    },
    {
      "type": "VEC3",
      "componentType": 5126,
      "count": 225,
      "max": [
        0.29805058240890503,
        0.791285514831543,
        1.3181145191192627
      ],
      "min": [
        -0.29863476753234863,
        0.5583987236022949,
        0.9752811193466187
      ],
      "bufferView": 32,
      "byteOffset": 0
    },
    {
      "type": "VEC3",
      "componentType": 5126,
      "count": 225,
      "bufferView": 32,
      "byteOffset": 12
    },
    {
      "type": "VEC3",
      "componentType": 5126,
      "count": 7859,
      "max": [
        0.8094950914382935,
        0.9493646025657654,
        1.8037705421447754
      ],
      "min": [
        -0.81007981300354,
        0.4722732603549957,
        -1.9304851293563843
      ],
      "bufferView": 33,
      "byteOffset": 0
    },
    {
      "type": "VEC3",
      "componentType": 5126,
      "count": 7859,
      "bufferView": 33,
      "byteOffset": 12
    },
    {
      "type": "VEC3",
      "componentType": 5126,
      "count": 3119,
      "max": [
        0.9474948048591614,
        0.9224932193756104,
        1.9982692003250122
      ],
      "min": [
        -0.9480789303779602,
        0.05423905327916145,
        -2.2128822803497314
      ],
      "bufferView": 34,
      "byteOffset": 0
    },
    {
      "type": "VEC3",
      "componentType": 5126,
      "count": 3119,
      "bufferView": 34,
      "byteOffset": 12
    },
    {
      "type": "VEC3",
      "componentType": 5126,
      "count": 56,
      "max": [
        0.14144766330718994,
        1.0207269191741943,
        0.41225895285606384
      ],
      "min": [
        -0.14203205704689026,
        0.8694391846656799,
        0.32751044631004333
      ],
      "bufferView": 35,
      "byteOffset": 0
    },
    {
      "type": "VEC3",
      "componentType": 5126,
      "count": 56,
      "bufferView": 35,
      "byteOffset": 12
    },
    {
      "type": "VEC3",
      "componentType": 5126,
      "count": 1389,
      "max": [
        -0.1641789972782135,
        0.7487640976905823,
        -0.6805160045623779
      ],
      "min": [
        -0.49667710065841675,
        0.6237571835517883,
        -0.7527639865875244
      ],
      "bufferView": 36,
      "byteOffset": 0
    },
    {
      "type": "VEC3",
      "componentType": 5126,
      "count": 1389,
      "bufferView": 36,
      "byteOffset": 12
    },
    {
      "type": "VEC3",
      "componentType": 5126,
      "count": 4556,
      "max": [
        0.6226742267608643,
        0.7472875714302063,
        0.12769636511802673
      ],
      "min": [
        -0.6215854287147522,
        0.23141328990459442,
        -1.0028759241104126
      ],
      "bufferView": 37,
      "byteOffset": 0
    },
    {
      "type": "VEC3",
      "componentType": 5126,
      "count": 4556,
      "bufferView": 37,
      "byteOffset": 12
    },
    {
      "type": "VEC3",
      "componentType": 5126,
      "count": 10144,
      "max": [
        0.5937356948852539,
        0.9822407960891724,
        0.2523095905780792
      ],
      "min": [
        -0.5943200588226318,
        0.12363182753324509,
        -0.48089930415153503
      ],
      "bufferView": 38,
      "byteOffset": 0
    },
    {
      "type": "VEC3",
      "componentType": 5126,
      "count": 10144,
      "bufferView": 38,
      "byteOffset": 12
    },
    {
      "type": "VEC3",
      "componentType": 5126,
      "count": 6216,
      "max": [
        0.5712935328483582,
        1.0075373649597168,
        0.29168155789375305
      ],
      "min": [
        -0.7606675028800964,
        0.10237099975347519,
        -1.0770925283432007
      ],
      "bufferView": 39,
      "byteOffset": 0
    },
    {
      "type": "VEC3",
      "componentType": 5126,
      "count": 6216,
      "bufferView": 39,
      "byteOffset": 12
    },
    {
      "type": "VEC3",
      "componentType": 5126,
      "count": 343,
      "max": [
        0.08042071759700775,
        0.6907883286476135,
        -0.4730246961116791
      ],
      "min": [
        -0.4734475016593933,
        0.5498358607292175,
        -0.8554270267486572
      ],
      "bufferView": 40,
      "byteOffset": 0
    },
    {
      "type": "VEC3",
      "componentType": 5126,
      "count": 343,
      "bufferView": 40,
      "byteOffset": 12
    },
    {
      "type": "VEC3",
      "componentType": 5126,
      "count": 4,
      "max": [
        -0.31594300270080566,
        0.6686592102050781,
        -0.7285618782043457
      ],
      "min": [
        -0.32731860876083374,
        0.6630536913871765,
        -0.730204701423645
      ],
      "bufferView": 41,
      "byteOffset": 0
    },
    {
      "type": "VEC3",
      "componentType": 5126,
      "count": 4,
      "bufferView": 41,
      "byteOffset": 12
    },
    {
      "type": "VEC3",
      "componentType": 5126,
      "count": 83,
      "max": [
        0.4233526587486267,
        0.8401072025299072,
        0.20466908812522888
      ],
      "min": [
        -0.41704678535461426,
        0.810577929019928,
        0.2019129991531372
      ],
      "bufferView": 42,
      "byteOffset": 0
    },
    {
      "type": "VEC3",
      "componentType": 5126,
      "count": 83,
      "bufferView": 42,
      "byteOffset": 12
    },
    {
      "type": "VEC3",
      "componentType": 5126,
      "count": 109,
      "max": [
        0.577591061592102,
        0.6956215500831604,
        -0.8237749338150024
      ],
      "min": [
        -0.5781755447387695,
        0.40027695894241333,
        -1.1451973915100098
      ],
      "bufferView": 43,
      "byteOffset": 0
    },
    {
      "type": "VEC3",
      "componentType": 5126,
      "count": 109,
      "bufferView": 43,
      "byteOffset": 12
    },
    {
      "type": "VEC3",
      "componentType": 5126,
      "count": 2015,
      "max": [
        -0.1463630348443985,
        0.8356452584266663,
        -0.41027823090553284
      ],
      "min": [
        -0.513016402721405,
        0.4848392903804779,
        -0.5259716510772705
      ],
      "bufferView": 44,
      "byteOffset": 0
    },
    {
      "type": "VEC3",
      "componentType": 5126,
      "count": 2015,
      "bufferView": 44,
      "byteOffset": 12
    },
    {
      "type": "VEC3",
      "componentType": 5126,
      "count": 1146,
      "max": [
        -0.20483072102069855,
        0.6798545122146606,
        -0.4572463929653168
      ],
      "min": [
        -0.4546471834182739,
        0.5712828636169434,
        -0.4810035824775696
      ],
      "bufferView": 45,
      "byteOffset": 0
    },
    {
      "type": "VEC3",
      "componentType": 5126,
      "count": 1146,
      "bufferView": 45,
      "byteOffset": 12
    },
    {
      "type": "VEC3",
      "componentType": 5126,
      "count": 56,
      "max": [
        -0.3161555528640747,
        0.6634185910224915,
        -0.4595673978328705
      ],
      "min": [
        -0.343814492225647,
        0.6271264553070068,
        -0.46924906969070435
      ],
      "bufferView": 46,
      "byteOffset": 0
    },
    {
      "type": "VEC3",
      "componentType": 5126,
      "count": 56,
      "bufferView": 46,
      "byteOffset": 12
    },
    {
      "type": "VEC2",
      "componentType": 5126,
      "count": 56,
      "bufferView": 46,
      "byteOffset": 24
    },
    {
      "type": "VEC3",
      "componentType": 5126,
      "count": 439,
      "max": [
        -0.18327449262142181,
        0.8082364201545715,
        -0.4270685613155365
      ],
      "min": [
        -0.47453010082244873,
        0.5179020762443542,
        -0.5139257907867432
      ],
      "bufferView": 47,
      "byteOffset": 0
    },
    {
      "type": "VEC3",
      "componentType": 5126,
      "count": 439,
      "bufferView": 47,
      "byteOffset": 12
    },
    {
      "type": "VEC3",
      "componentType": 5126,
      "count": 254,
      "max": [
        -0.21890628337860107,
        0.6825387477874756,
        -0.45584768056869507
      ],
      "min": [
        -0.44057154655456543,
        0.5867590308189392,
        -0.4725572168827057
      ],
      "bufferView": 48,
      "byteOffset": 0
    },
    {
      "type": "VEC3",
      "componentType": 5126,
      "count": 254,
      "bufferView": 48,
      "byteOffset": 12
    },
    {
      "type": "VEC3",
      "componentType": 5126,
      "count": 12021,
      "max": [
        1.0638909339904785,
        0.672473669052124,
        1.7222049236297607
      ],
      "min": [
        -1.063890814781189,
        -0.06534670293331146,
        -1.7297245264053345
      ],
      "bufferView": 49,
      "byteOffset": 0
    },
    {
      "type": "VEC3",
      "componentType": 5126,
      "count": 12021,
      "bufferView": 49,
      "byteOffset": 12
    },
    {
      "type": "VEC3",
      "componentType": 5126,
      "count": 761,
      "max": [
        0.1275707334280014,
        0.30235394835472107,
        0.30356356501579285
      ],
      "min": [
        -0.11889906227588654,
        -0.30235397815704346,
        -0.30356350541114807
      ],
      "bufferView": 50,
      "byteOffset": 0
    },
    {
      "type": "VEC3",
      "componentType": 5126,
      "count": 761,
      "bufferView": 50,
      "byteOffset": 12
    },
    {
      "type": "VEC3",
      "componentType": 5126,
      "count": 760,
      "max": [
        0.11889900267124176,
        0.30235394835472107,
        0.30356350541114807
      ],
      "min": [
        -0.1275707334280014,
        -0.30235394835472107,
        -0.3035634458065033
      ],
      "bufferView": 51,
      "byteOffset": 0
    },
    {
      "type": "VEC3",
      "componentType": 5126,
      "count": 760,
      "bufferView": 51,
      "byteOffset": 12
    },
    {
      "type": "VEC3",
      "componentType": 5126,
      "count": 761,
      "max": [
        0.1275707334280014,
        0.30235394835472107,
        0.30356350541114807
      ],
      "min": [
        -0.11889906227588654,
        -0.30235397815704346,
        -0.3035634458065033
      ],
      "bufferView": 52,
      "byteOffset": 0
    },
    {
      "type": "VEC3",
      "componentType": 5126,
      "count": 761,
      "bufferView": 52,
      "byteOffset": 12
    },
    {
      "type": "VEC3",
      "componentType": 5126,
      "count": 147,
      "max": [
        0.005777344107627869,
        0.19565238058567047,
        0.19206055998802185
      ],
      "min": [
        -0.021508172154426575,
        -0.19533823430538177,
        -0.20134952664375305
      ],
      "bufferView": 53,
      "byteOffset": 0
    },
    {
      "type": "VEC3",
      "componentType": 5126,
      "count": 147,
      "bufferView": 53,
      "byteOffset": 12
    },
    {
      "type": "VEC3",
      "componentType": 5126,
      "count": 827,
      "max": [
        0.06167380511760712,
        0.12656988203525543,
        0.11446961760520935
      ],
      "min": [
        -0.054039135575294495,
        -0.12134953588247299,
        -0.22096696496009827
      ],
      "bufferView": 54,
      "byteOffset": 0
    },
    {
      "type": "VEC3",
      "componentType": 5126,
      "count": 827,
      "bufferView": 54,
      "byteOffset": 12
    },
    {
      "type": "VEC3",
      "componentType": 5126,
      "count": 125,
      "max": [
        0.007778987288475037,
        0.12197581678628922,
        0.11838361620903015
      ],
      "min": [
        0.005777105689048767,
        -0.12408094853162766,
        -0.12767305970191956
      ],
      "bufferView": 55,
      "byteOffset": 0
    },
    {
      "type": "VEC3",
      "componentType": 5126,
      "count": 125,
      "bufferView": 55,
      "byteOffset": 12
    },
    {
      "type": "VEC3",
      "componentType": 5126,
      "count": 4,
      "max": [
        0.0702805370092392,
        0.061001162976026535,
        -0.16276231408119202
      ],
      "min": [
        0.07028035819530487,
        -0.05074392631649971,
        -0.18910351395606995
      ],
      "bufferView": 56,
      "byteOffset": 0
    },
    {
      "type": "VEC3",
      "componentType": 5126,
      "count": 4,
      "bufferView": 56,
      "byteOffset": 12
    },
    {
      "type": "VEC3",
      "componentType": 5126,
      "count": 1272,
      "max": [
        0.06948475539684296,
        0.16403044760227203,
        -0.13814929127693176
      ],
      "min": [
        -0.07378704845905304,
        -0.1713653802871704,
        -0.2210024893283844
      ],
      "bufferView": 57,
      "byteOffset": 0
    },
    {
      "type": "VEC3",
      "componentType": 5126,
      "count": 1272,
      "bufferView": 57,
      "byteOffset": 12
    },
    {
      "type": "VEC3",
      "componentType": 5126,
      "count": 147,
      "max": [
        0.005777344107627869,
        0.19565309584140778,
        0.19338074326515198
      ],
      "min": [
        -0.021508172154426575,
        -0.19533751904964447,
        -0.20002958178520203
      ],
      "bufferView": 58,
      "byteOffset": 0
    },
    {
      "type": "VEC3",
      "componentType": 5126,
      "count": 827,
      "max": [
        0.06167380511760712,
        0.12657056748867035,
        0.11578980088233948
      ],
      "min": [
        -0.054039135575294495,
        -0.12134885042905807,
        -0.21964678168296814
      ],
      "bufferView": 59,
      "byteOffset": 0
    },
    {
      "type": "VEC3",
      "componentType": 5126,
      "count": 827,
      "bufferView": 59,
      "byteOffset": 12
    },
    {
      "type": "VEC3",
      "componentType": 5126,
      "count": 125,
      "max": [
        0.007778987288475037,
        0.12197650223970413,
        0.11970379948616028
      ],
      "min": [
        0.005777105689048767,
        -0.12408026307821274,
        -0.12635287642478943
      ],
      "bufferView": 60,
      "byteOffset": 0
    },
    {
      "type": "VEC3",
      "componentType": 5126,
      "count": 4,
      "max": [
        0.0702805370092392,
        0.06100187823176384,
        -0.161442369222641
      ],
      "min": [
        0.07028035819530487,
        -0.050743211060762405,
        -0.18778344988822937
      ],
      "bufferView": 61,
      "byteOffset": 0
    },
    {
      "type": "VEC3",
      "componentType": 5126,
      "count": 1270,
      "max": [
        0.06948475539684296,
        0.16403116285800934,
        -0.13682910799980164
      ],
      "min": [
        -0.07378704845905304,
        -0.1713646799325943,
        -0.21968230605125427
      ],
      "bufferView": 62,
      "byteOffset": 0
    },
    {
      "type": "VEC3",
      "componentType": 5126,
      "count": 1270,
      "bufferView": 62,
      "byteOffset": 12
    },
    {
      "type": "VEC3",
      "componentType": 5126,
      "count": 149,
      "max": [
        0.009238556027412415,
        0.19428835809230804,
        0.19206055998802185
      ],
      "min": [
        -0.018046900629997253,
        -0.19670219719409943,
        -0.20134952664375305
      ],
      "bufferView": 63,
      "byteOffset": 0
    },
    {
      "type": "VEC3",
      "componentType": 5126,
      "count": 149,
      "bufferView": 63,
      "byteOffset": 12
    },
    {
      "type": "VEC3",
      "componentType": 5126,
      "count": 828,
      "max": [
        0.041769519448280334,
        0.12029971927404404,
        0.11446961760520935
      ],
      "min": [
        -0.07394342124462128,
        -0.12761980295181274,
        -0.22096696496009827
      ],
      "bufferView": 64,
      "byteOffset": 0
    },
    {
      "type": "VEC3",
      "componentType": 5126,
      "count": 828,
      "bufferView": 64,
      "byteOffset": 12
    },
    {
      "type": "VEC3",
      "componentType": 5126,
      "count": 125,
      "max": [
        -0.018046721816062927,
        0.12303110212087631,
        0.11838361620903015
      ],
      "min": [
        -0.02004854381084442,
        -0.12302563339471817,
        -0.12767305970191956
      ],
      "bufferView": 65,
      "byteOffset": 0
    },
    {
      "type": "VEC3",
      "componentType": 5126,
      "count": 125,
      "bufferView": 65,
      "byteOffset": 12
    },
    {
      "type": "VEC3",
      "componentType": 5126,
      "count": 4,
      "max": [
        -0.0825500339269638,
        0.049693990498781204,
        -0.16276231408119202
      ],
      "min": [
        -0.08255015313625336,
        -0.06205108389258385,
        -0.18910351395606995
      ],
      "bufferView": 66,
      "byteOffset": 0
    },
    {
      "type": "VEC3",
      "componentType": 5126,
      "count": 4,
      "bufferView": 66,
      "byteOffset": 12
    },
    {
      "type": "VEC3",
      "componentType": 5126,
      "count": 1272,
      "max": [
        0.061517491936683655,
        0.1703154295682907,
        -0.13814929127693176
      ],
      "min": [
        -0.08175431191921234,
        -0.16508039832115173,
        -0.2210024893283844
      ],
      "bufferView": 67,
      "byteOffset": 0
    },
    {
      "type": "VEC3",
      "componentType": 5126,
      "count": 1272,
      "bufferView": 67,
      "byteOffset": 12
    },
    {
      "type": "VEC3",
      "componentType": 5126,
      "count": 145,
      "max": [
        0.009238556027412415,
        0.19428835809230804,
        0.19338074326515198
      ],
      "min": [
        -0.018046900629997253,
        -0.19670219719409943,
        -0.20002958178520203
      ],
      "bufferView": 68,
      "byteOffset": 0
    },
    {
      "type": "VEC3",
      "componentType": 5126,
      "count": 145,
      "bufferView": 68,
      "byteOffset": 12
    },
    {
      "type": "VEC3",
      "componentType": 5126,
      "count": 828,
      "max": [
        0.041769519448280334,
        0.12029971927404404,
        0.11578980088233948
      ],
      "min": [
        -0.07394342124462128,
        -0.12761980295181274,
        -0.21964678168296814
      ],
      "bufferView": 69,
      "byteOffset": 0
    },
    {
      "type": "VEC3",
      "componentType": 5126,
      "count": 828,
      "bufferView": 69,
      "byteOffset": 12
    },
    {
      "type": "VEC3",
      "componentType": 5126,
      "count": 125,
      "max": [
        -0.018046721816062927,
        0.12303110212087631,
        0.11970379948616028
      ],
      "min": [
        -0.02004854381084442,
        -0.12302563339471817,
        -0.12635287642478943
      ],
      "bufferView": 70,
      "byteOffset": 0
    },
    {
      "type": "VEC3",
      "componentType": 5126,
      "count": 4,
      "max": [
        -0.0825500339269638,
        0.049693990498781204,
        -0.161442369222641
      ],
      "min": [
        -0.08255015313625336,
        -0.06205108389258385,
        -0.18778333067893982
      ],
      "bufferView": 71,
      "byteOffset": 0
    },
    {
      "type": "VEC3",
      "componentType": 5126,
      "count": 1271,
      "max": [
        0.061517491936683655,
        0.1703154295682907,
        -0.1368292272090912
      ],
      "min": [
        -0.08175431191921234,
        -0.16508039832115173,
        -0.21968230605125427
      ],
      "bufferView": 72,
      "byteOffset": 0
    },
    {
      "type": "VEC3",
      "componentType": 5126,
      "count": 1271,
      "bufferView": 72,
      "byteOffset": 12
    }
  ],
  "bufferViews": [
    {
      "buffer": 0,
      "byteOffset": 0,
      "byteLength": 18240,
      "byteStride": 24,
      "target": 34962
    },
    {
      "buffer": 0,
      "byteOffset": 18240,
      "byteLength": 1296824,
      "target": 34963
    },
    {
      "buffer": 0,
      "byteOffset": 1315064,
      "byteLength": 960816,
      "byteStride": 24,
      "target": 34962
    },
    {
      "buffer": 0,
      "byteOffset": 2275880,
      "byteLength": 617208,
      "byteStride": 24,
      "target": 34962
    },
    {
      "buffer": 0,
      "byteOffset": 2893088,
      "byteLength": 255696,
      "byteStride": 24,
      "target": 34962
    },
    {
      "buffer": 0,
      "byteOffset": 3148784,
      "byteLength": 495024,
      "byteStride": 24,
      "target": 34962
    },
    {
      "buffer": 0,
      "byteOffset": 3643808,
      "byteLength": 1477872,
      "byteStride": 24,
      "target": 34962
    },
    {
      "buffer": 0,
      "byteOffset": 5121680,
      "byteLength": 6840,
      "byteStride": 24,
      "target": 34962
    },
    {
      "buffer": 0,
      "byteOffset": 5128520,
      "byteLength": 3096,
      "byteStride": 24,
      "target": 34962
    },
    {
      "buffer": 0,
      "byteOffset": 5131616,
      "byteLength": 2784,
      "byteStride": 24,
      "target": 34962
    },
    {
      "buffer": 0,
      "byteOffset": 5134400,
      "byteLength": 81144,
      "byteStride": 24,
      "target": 34962
    },
    {
      "buffer": 0,
      "byteOffset": 5215544,
      "byteLength": 2240,
      "byteStride": 32,
      "target": 34962
    },
    {
      "buffer": 0,
      "byteOffset": 5217784,
      "byteLength": 87456,
      "byteStride": 24,
      "target": 34962
    },
    {
      "buffer": 0,
      "byteOffset": 5305240,
      "byteLength": 20880,
      "byteStride": 24,
      "target": 34962
    },
    {
      "buffer": 0,
      "byteOffset": 5326120,
      "byteLength": 48288,
      "byteStride": 24,
      "target": 34962
    },
    {
      "buffer": 0,
      "byteOffset": 5374408,
      "byteLength": 88584,
      "byteStride": 24,
      "target": 34962
    },
    {
      "buffer": 0,
      "byteOffset": 5462992,
      "byteLength": 33720,
      "byteStride": 24,
      "target": 34962
    },
    {
      "buffer": 0,
      "byteOffset": 5496712,
      "byteLength": 242712,
      "byteStride": 24,
      "target": 34962
    },
    {
      "buffer": 0,
      "byteOffset": 5739424,
      "byteLength": 20928,
      "byteStride": 24,
      "target": 34962
    },
    {
      "buffer": 0,
      "byteOffset": 5760352,
      "byteLength": 3288,
      "byteStride": 24,
      "target": 34962
    },
    {
      "buffer": 0,
      "byteOffset": 5763640,
      "byteLength": 55584,
      "byteStride": 24,
      "target": 34962
    },
    {
      "buffer": 0,
      "byteOffset": 5819224,
      "byteLength": 64992,
      "byteStride": 24,
      "target": 34962
    },
    {
      "buffer": 0,
      "byteOffset": 5884216,
      "byteLength": 153744,
      "byteStride": 24,
      "target": 34962
    },
    {
      "buffer": 0,
      "byteOffset": 6037960,
      "byteLength": 844176,
      "byteStride": 24,
      "target": 34962
    },
    {
      "buffer": 0,
      "byteOffset": 6882136,
      "byteLength": 75408,
      "byteStride": 24,
      "target": 34962
    },
    {
      "buffer": 0,
      "byteOffset": 6957544,
      "byteLength": 72,
      "byteStride": 24,
      "target": 34962
    },
    {
      "buffer": 0,
      "byteOffset": 6957616,
      "byteLength": 72,
      "byteStride": 24,
      "target": 34962
    },
    {
      "buffer": 0,
      "byteOffset": 6957688,
      "byteLength": 15000,
      "byteStride": 24,
      "target": 34962
    },
    {
      "buffer": 0,
      "byteOffset": 6972688,
      "byteLength": 11712,
      "byteStride": 24,
      "target": 34962
    },
    {
      "buffer": 0,
      "byteOffset": 6984400,
      "byteLength": 135456,
      "byteStride": 24,
      "target": 34962
    },
    {
      "buffer": 0,
      "byteOffset": 7119856,
      "byteLength": 88776,
      "byteStride": 24,
      "target": 34962
    },
    {
      "buffer": 0,
      "byteOffset": 7208632,
      "byteLength": 59376,
      "byteStride": 24,
      "target": 34962
    },
    {
      "buffer": 0,
      "byteOffset": 7268008,
      "byteLength": 5400,
      "byteStride": 24,
      "target": 34962
    },
    {
      "buffer": 0,
      "byteOffset": 7273408,
      "byteLength": 188616,
      "byteStride": 24,
      "target": 34962
    },
    {
      "buffer": 0,
      "byteOffset": 7462024,
      "byteLength": 74856,
      "byteStride": 24,
      "target": 34962
    },
    {
      "buffer": 0,
      "byteOffset": 7536880,
      "byteLength": 1344,
      "byteStride": 24,
      "target": 34962
    },
    {
      "buffer": 0,
      "byteOffset": 7538224,
      "byteLength": 33336,
      "byteStride": 24,
      "target": 34962
    },
    {
      "buffer": 0,
      "byteOffset": 7571560,
      "byteLength": 109344,
      "byteStride": 24,
      "target": 34962
    },
    {
      "buffer": 0,
      "byteOffset": 7680904,
      "byteLength": 243456,
      "byteStride": 24,
      "target": 34962
    },
    {
      "buffer": 0,
      "byteOffset": 7924360,
      "byteLength": 149184,
      "byteStride": 24,
      "target": 34962
    },
    {
      "buffer": 0,
      "byteOffset": 8073544,
      "byteLength": 8232,
      "byteStride": 24,
      "target": 34962
    },
    {
      "buffer": 0,
      "byteOffset": 8081776,
      "byteLength": 96,
      "byteStride": 24,
      "target": 34962
    },
    {
      "buffer": 0,
      "byteOffset": 8081872,
      "byteLength": 1992,
      "byteStride": 24,
      "target": 34962
    },
    {
      "buffer": 0,
      "byteOffset": 8083864,
      "byteLength": 2616,
      "byteStride": 24,
      "target": 34962
    },
    {
      "buffer": 0,
      "byteOffset": 8086480,
      "byteLength": 48360,
      "byteStride": 24,
      "target": 34962
    },
    {
      "buffer": 0,
      "byteOffset": 8134840,
      "byteLength": 27504,
      "byteStride": 24,
      "target": 34962
    },
    {
      "buffer": 0,
      "byteOffset": 8162344,
      "byteLength": 1792,
      "byteStride": 32,
      "target": 34962
    },
    {
      "buffer": 0,
      "byteOffset": 8164136,
      "byteLength": 10536,
      "byteStride": 24,
      "target": 34962
    },
    {
      "buffer": 0,
      "byteOffset": 8174672,
      "byteLength": 6096,
      "byteStride": 24,
      "target": 34962
    },
    {
      "buffer": 0,
      "byteOffset": 8180768,
      "byteLength": 288504,
      "byteStride": 24,
      "target": 34962
    },
    {
      "buffer": 0,
      "byteOffset": 8469272,
      "byteLength": 18264,
      "byteStride": 24,
      "target": 34962
    },
    {
      "buffer": 0,
      "byteOffset": 8487536,
      "byteLength": 18240,
      "byteStride": 24,
      "target": 34962
    },
    {
      "buffer": 0,
      "byteOffset": 8505776,
      "byteLength": 18264,
      "byteStride": 24,
      "target": 34962
    },
    {
      "buffer": 0,
      "byteOffset": 8524040,
      "byteLength": 3528,
      "byteStride": 24,
      "target": 34962
    },
    {
      "buffer": 0,
      "byteOffset": 8527568,
      "byteLength": 19848,
      "byteStride": 24,
      "target": 34962
    },
    {
      "buffer": 0,
      "byteOffset": 8547416,
      "byteLength": 3000,
      "byteStride": 24,
      "target": 34962
    },
    {
      "buffer": 0,
      "byteOffset": 8550416,
      "byteLength": 96,
      "byteStride": 24,
      "target": 34962
    },
    {
      "buffer": 0,
      "byteOffset": 8550512,
      "byteLength": 30528,
      "byteStride": 24,
      "target": 34962
    },
    {
      "buffer": 0,
      "byteOffset": 8581040,
      "byteLength": 1764,
      "byteStride": 12,
      "target": 34962
    },
    {
      "buffer": 0,
      "byteOffset": 8582804,
      "byteLength": 19848,
      "byteStride": 24,
      "target": 34962
    },
    {
      "buffer": 0,
      "byteOffset": 8602652,
      "byteLength": 1500,
      "byteStride": 12,
      "target": 34962
    },
    {
      "buffer": 0,
      "byteOffset": 8604152,
      "byteLength": 48,
      "byteStride": 12,
      "target": 34962
    },
    {
      "buffer": 0,
      "byteOffset": 8604200,
      "byteLength": 30480,
      "byteStride": 24,
      "target": 34962
    },
    {
      "buffer": 0,
      "byteOffset": 8634680,
      "byteLength": 3576,
      "byteStride": 24,
      "target": 34962
    },
    {
      "buffer": 0,
      "byteOffset": 8638256,
      "byteLength": 19872,
      "byteStride": 24,
      "target": 34962
    },
    {
      "buffer": 0,
      "byteOffset": 8658128,
      "byteLength": 3000,
      "byteStride": 24,
      "target": 34962
    },
    {
      "buffer": 0,
      "byteOffset": 8661128,
      "byteLength": 96,
      "byteStride": 24,
      "target": 34962
    },
    {
      "buffer": 0,
      "byteOffset": 8661224,
      "byteLength": 30528,
      "byteStride": 24,
      "target": 34962
    },
    {
      "buffer": 0,
      "byteOffset": 8691752,
      "byteLength": 3480,
      "byteStride": 24,
      "target": 34962
    },
    {
      "buffer": 0,
      "byteOffset": 8695232,
      "byteLength": 19872,
      "byteStride": 24,
      "target": 34962
    },
    {
      "buffer": 0,
      "byteOffset": 8715104,
      "byteLength": 1500,
      "byteStride": 12,
      "target": 34962
    },
    {
      "buffer": 0,
      "byteOffset": 8716604,
      "byteLength": 48,
      "byteStride": 12,
      "target": 34962
    },
    {
      "buffer": 0,
      "byteOffset": 8716652,
      "byteLength": 30504,
      "byteStride": 24,
      "target": 34962
    }
  ],
  "samplers": [
    {
      "magFilter": 9729,
      "minFilter": 9987,
      "wrapS": 10497,
      "wrapT": 10497
    }
  ],
  "textures": [
    {
      "source": 0,
      "sampler": 0
    }
  ],
  "images": [
    {
      "mimeType": "image/jpeg",
      "uri": "porsche_918_0.jpg"
    }
  ],
  "buffers": [
    {
      "uri": "porsche_918.bin",
      "byteLength": 8747156
    }
  ],
  "materials": [
    {
      "name": "rim:918weissach_wheel",
      "doubleSided": true,
      "pbrMetallicRoughness": {
        "baseColorFactor": [
          0.23456427645927957,
          0.23456427645927957,
          0.23456427645927957,
          1
        ],
        "roughnessFactor": 0,
        "metallicFactor": 0.8032621362450824
      }
    },
    {
      "name": "paint:P918_paint",
      "doubleSided": true,
      "pbrMetallicRoughness": {
        "baseColorFactor": [
          0.15711411784845955,
          0,
          0,
          1
        ],
        "roughnessFactor": 0,
        "metallicFactor": 0
      },
      "extensions": {
        "KHR_materials_specular": {}
      }
    },
    {
      "name": "other:P918_besi.0",
      "doubleSided": true,
      "pbrMetallicRoughness": {
        "baseColorFactor": [
          0.717366,
          0.717366,
          0.717366,
          1
        ],
        "roughnessFactor": 0
      }
    },
    {
      "name": "other:P918_black.0",
      "doubleSided": true,
      "pbrMetallicRoughness": {
        "baseColorFactor": [
          0.007726100576177697,
          0.007726100576177697,
          0.007726100576177697,
          1
        ],
        "roughnessFactor": 0
      }
    },
    {
      "name": "interior:P918_movsteer_1.0.0",
      "doubleSided": true,
      "pbrMetallicRoughness": {
        "baseColorFactor": [
          0.2019596836332689,
          0.2019596836332689,
          0.2019596836332689,
          1
        ],
        "roughnessFactor": 0.1725689068766686
      }
    },
    {
      "name": "other:P918_dvorright.0",
      "doubleSided": true,
      "pbrMetallicRoughness": {
        "baseColorFactor": [
          0.010299700791112492,
          0.010299700791112492,
          0.010299700791112492,
          1
        ],
        "roughnessFactor": 0,
        "metallicFactor": 0.5958113396155111
      }
    },
    {
      "name": "light_tail:p918_ext_details_rim",
      "doubleSided": true,
      "pbrMetallicRoughness": {
        "roughnessFactor": 0
      }
    },
    {
      "name": "light_signal:p918_signal_L",
      "doubleSided": true,
      "pbrMetallicRoughness": {
        "roughnessFactor": 0.08114005680779224
      }
    },
    {
      "name": "light_signal:p918_signal_R",
      "doubleSided": true,
      "pbrMetallicRoughness": {
        "baseColorFactor": [
          0.8,
          0.8,
          0.8,
          1
        ],
        "roughnessFactor": 0.09942582682156753
      }
    },
    {
      "name": "glass:P918_glass.0",
      "alphaMode": "BLEND",
      "doubleSided": true,
      "pbrMetallicRoughness": {
        "baseColorFactor": [
          0.8,
          0.8,
          0.8,
          0.38857261279272465
        ],
        "roughnessFactor": 0
      }
    },
    {
      "name": "other:material",
      "doubleSided": true,
      "pbrMetallicRoughness": {
        "roughnessFactor": 0,
        "metallicFactor": 0.8030500664382977,
        "baseColorTexture": {
          "index": 0
        }
      }
    },
    {
      "name": "light_tail:p918_taillight",
      "doubleSided": true,
      "pbrMetallicRoughness": {
        "baseColorFactor": [
          1,
          0.007502950610625654,
          0,
          1
        ],
        "roughnessFactor": 0
      },
      "emissiveFactor": [
        0.28952469188477525,
        0,
        0
      ]
    },
    {
      "name": "light_head:p918_headlight",
      "doubleSided": true,
      "pbrMetallicRoughness": {
        "baseColorFactor": [
          0.749726,
          0.749726,
          0.749726,
          1
        ],
        "roughnessFactor": 0
      }
    },
    {
      "name": "other:P918_bump_rear_ok.001",
      "alphaMode": "BLEND",
      "doubleSided": true,
      "pbrMetallicRoughness": {
        "baseColorFactor": [
          0.23509307101688112,
          0.23509307101688112,
          0.23509307101688112,
          0.1386670892711292
        ],
        "roughnessFactor": 0
      }
    },
    {
      "name": "other:P918_gril.0",
      "doubleSided": true,
      "pbrMetallicRoughness": {
        "baseColorFactor": [
          0.00866838,
          0.00866838,
          0.00866838,
          1
        ],
        "roughnessFactor": 0
      }
    },
    {
      "name": "interior:P918_movsteer_1.0.5",
      "doubleSided": true,
      "pbrMetallicRoughness": {
        "baseColorFactor": [
          0.800228,
          0,
          0,
          1
        ],
        "roughnessFactor": 0.9619581169910976,
        "metallicFactor": 0
      }
    },
    {
      "name": "interior:P918_dash_leather.0",
      "doubleSided": true,
      "pbrMetallicRoughness": {
        "baseColorFactor": [
          0,
          0,
          0,
          1
        ],
        "roughnessFactor": 0.9405712474552304,
        "metallicFactor": 0.17523862929867975
      }
    },
    {
      "name": "glass:P918_glasses_r.0",
      "alphaMode": "BLEND",
      "doubleSided": true,
      "pbrMetallicRoughness": {
        "baseColorFactor": [
          0.156264,
          0.156264,
          0.156264,
          0.5775255696017358
        ],
        "roughnessFactor": 0
      }
    },
    {
      "name": "other:P918_chassis.0",
      "doubleSided": true,
      "pbrMetallicRoughness": {
        "baseColorFactor": [
          0.018704943955272953,
          0.018704943955272953,
          0.018704943955272953,
          1
        ],
        "roughnessFactor": 0,
        "metallicFactor": 0.693335446355646
      }
    },
    {
      "name": "other:P918_sepion_tengah.0",
      "doubleSided": true,
      "pbrMetallicRoughness": {
        "baseColorFactor": [
          0.8,
          0.8,
          0.8,
          1
        ],
        "roughnessFactor": 0
      }
    },
    {
      "name": "other:P918_int_s.0",
      "doubleSided": true,
      "pbrMetallicRoughness": {
        "baseColorFactor": [
          0.0217567,
          0.0217567,
          0.0217567,
          1
        ],
        "roughnessFactor": 0.9951350539833931,
        "metallicFactor": 0
      }
    },
    {
      "name": "interior:P918_interior.0",
      "doubleSided": true,
      "pbrMetallicRoughness": {
        "baseColorFactor": [
          0.0402315,
          0.0402315,
          0.0402315,
          1
        ],
        "roughnessFactor": 0.2518072436030282,
        "metallicFactor": 0.8030500664382977
      }
    },
    {
      "name": "interior:P918_movsteer_1.0.4",
      "doubleSided": true,
      "pbrMetallicRoughness": {
        "baseColorFactor": [
          0.0178283,
          0.0178283,
          0.0178283,
          1
        ],
        "roughnessFactor": 0,
        "metallicFactor": 0.6689544196706123
      }
    },
    {
      "name": "other:P918_tahook.0",
      "doubleSided": true,
      "pbrMetallicRoughness": {
        "baseColorFactor": [
          0.04167169351225247,
          0.04167169351225247,
          0.04167169351225247,
          1
        ],
        "roughnessFactor": 0.17866416354792702
      }
    },
    {
      "name": "rim:diff_wheel.0",
      "doubleSided": true,
      "pbrMetallicRoughness": {
        "baseColorFactor": [
          0.8,
          0.8,
          0.8,
          1
        ],
        "roughnessFactor": 0.8211145618000169,
        "metallicFactor": 0
      }
    },
    {
      "name": "other:P918_storege.0",
      "doubleSided": true,
      "pbrMetallicRoughness": {
        "baseColorFactor": [
          0,
          0,
          0,
          1
        ],
        "metallicFactor": 0
      }
    },
    {
      "name": "interior:P918_leather_dark.0",
      "doubleSided": true,
      "pbrMetallicRoughness": {
        "baseColorFactor": [
          0.0327485,
          0.0327485,
          0.0327485,
          1
        ],
        "roughnessFactor": 0.9896440150045975,
        "metallicFactor": 0
      }
    },
    {
      "name": "light_misc:P918_basic_light_front.0",
      "doubleSided": true,
      "pbrMetallicRoughness": {
        "baseColorFactor": [
          0.12856811131236873,
          0.12856811131236873,
          0.12856811131236873,
          1
        ],
        "roughnessFactor": 0
      }
    },
    {
      "name": "other:P918_hub_lf.2",
      "doubleSided": true,
      "pbrMetallicRoughness": {
        "baseColorFactor": [
          0.027606939338488443,
          0.027606939338488443,
          0.027606939338488443,
          1
        ],
        "roughnessFactor": 0
      }
    },
    {
      "name": "other:P918_engines.0",
      "doubleSided": true,
      "pbrMetallicRoughness": {
        "baseColorFactor": [
          1,
          0.0023973259541357336,
          0.0023973259541357336,
          1
        ],
        "roughnessFactor": 0
      }
    },
    {
      "name": "other:P918_carbon.0",
      "doubleSided": true,
      "pbrMetallicRoughness": {
        "baseColorFactor": [
          0,
          0,
          0,
          1
        ]
      }
    },
    {
      "name": "glass:P918_windscreen_ok.2",
      "alphaMode": "BLEND",
      "doubleSided": true,
      "pbrMetallicRoughness": {
        "baseColorFactor": [
          0.183826,
          0.183826,
          0.183826,
          0.9249551998634662
        ],
        "roughnessFactor": 0
      }
    },
    {
      "name": "other:P918_panel.0",
      "doubleSided": true,
      "pbrMetallicRoughness": {
        "baseColorFactor": [
          0.8,
          0.8,
          0.8,
          1
        ],
        "roughnessFactor": 0.14818788019163498
      }
    },
    {
      "name": "other:P918_tombol.0",
      "doubleSided": true,
      "pbrMetallicRoughness": {
        "baseColorFactor": [
          0.0363792,
          0.0363792,
          0.0363792,
          1
        ],
        "roughnessFactor": 0
      }
    },
    {
      "name": "interior:P918_seat.0",
      "doubleSided": true,
      "pbrMetallicRoughness": {
        "baseColorFactor": [
          0.290387141204943,
          0,
          0.0022188831025484676,
          1
        ],
        "roughnessFactor": 0.6723799539198596,
        "metallicFactor": 0.26666747936755614
      }
    },
    {
      "name": "interior:P918_movsteer_1.0.2",
      "doubleSided": true,
      "pbrMetallicRoughness": {
        "baseColorFactor": [
          1,
          0,
          0.0010786699999999988,
          1
        ],
        "roughnessFactor": 0.06894954346527538,
        "metallicFactor": 0.5470492862454438
      }
    },
    {
      "name": "other:P918_lcd.0",
      "doubleSided": true,
      "pbrMetallicRoughness": {
        "baseColorFactor": [
          0.049638729467570926,
          0.06725368186183119,
          0.055215666944846364,
          1
        ],
        "roughnessFactor": 0,
        "metallicFactor": 0.38857261279272465
      }
    },
    {
      "name": "interior:movsteer_1.0.3",
      "doubleSided": true,
      "pbrMetallicRoughness": {
        "baseColorFactor": [
          0.036379,
          0.036379,
          0.036379,
          1
        ],
        "roughnessFactor": 0.4712364837683315,
        "metallicFactor": 0.30933427606636515
      }
    },
    {
      "name": "interior:movsteer_1.0.7",
      "doubleSided": true,
      "pbrMetallicRoughness": {
        "baseColorFactor": [
          1,
          0,
          0,
          1
        ],
        "roughnessFactor": 0.4163791737270057,
        "metallicFactor": 0.7177164730406796
      }
    },
    {
      "name": "light_head:left_front_light",
      "doubleSided": true,
      "pbrMetallicRoughness": {
        "baseColorFactor": [
          0.241275,
          0.241275,
          0.241275,
          1
        ],
        "roughnessFactor": 0.9237021457542874,
        "metallicFactor": 0
      }
    },
    {
      "name": "other:Scene_-_Root",
      "doubleSided": true,
      "pbrMetallicRoughness": {
        "baseColorFactor": [
          0,
          0,
          0,
          1
        ],
        "metallicFactor": 0.48000146286160106
      }
    },
    {
      "name": "disc:amdb11_brake",
      "doubleSided": true,
      "pbrMetallicRoughness": {
        "baseColorFactor": [
          0.043265861743718964,
          0.043265861743718964,
          0.043265861743718964,
          1
        ],
        "roughnessFactor": 0.11771159683534282,
        "metallicFactor": 0.7177164730406796
      }
    },
    {
      "name": "disc:amdb11_misc_chrome",
      "doubleSided": true,
      "pbrMetallicRoughness": {
        "baseColorFactor": [
          0.0486285,
          0.0486285,
          0.0486285,
          1
        ],
        "roughnessFactor": 0.9846223180802502,
        "metallicFactor": 0
      }
    },
    {
      "name": "disc:amdb11_misc",
      "doubleSided": true,
      "pbrMetallicRoughness": {
        "baseColorFactor": [
          0.018704943955272953,
          0.018704943955272953,
          0.018704943955272953,
          1
        ],
        "roughnessFactor": 0
      }
    },
    {
      "name": "disc:amdb11_badging",
      "doubleSided": true,
      "pbrMetallicRoughness": {
        "baseColorFactor": [
          1,
          0,
          0,
          1
        ],
        "roughnessFactor": 0.19694993356170232
      }
    },
    {
      "name": "caliper:amdb11_caliper",
      "doubleSided": true,
      "pbrMetallicRoughness": {
        "baseColorFactor": [
          1,
          0,
          0,
          1
        ],
        "roughnessFactor": 0.18475942021918546,
        "metallicFactor": 0.9066694298496909
      }
    }
  ],
  "meshes": [
    {
      "name": "Wheel_FL_Spin",
      "primitives": [
        {
          "attributes": {
            "POSITION": 0,
            "NORMAL": 1
          },
          "mode": 4,
          "material": 0,
          "indices": 2
        },
        {
          "attributes": {
            "POSITION": 188,
            "NORMAL": 189
          },
          "mode": 4,
          "material": 41,
          "indices": 59
        },
        {
          "attributes": {
            "POSITION": 190,
            "NORMAL": 191
          },
          "mode": 4,
          "material": 42,
          "indices": 60
        },
        {
          "attributes": {
            "POSITION": 192,
            "NORMAL": 193
          },
          "mode": 4,
          "material": 43,
          "indices": 61
        },
        {
          "attributes": {
            "POSITION": 194,
            "NORMAL": 195
          },
          "mode": 4,
          "material": 44,
          "indices": 62
        }
      ]
    },
    {
      "name": "Body",
      "primitives": [
        {
          "attributes": {
            "POSITION": 67,
            "NORMAL": 68
          },
          "mode": 4,
          "material": 1,
          "indices": 3
        },
        {
          "attributes": {
            "POSITION": 69,
            "NORMAL": 70
          },
          "mode": 4,
          "material": 2,
          "indices": 4
        },
        {
          "attributes": {
            "POSITION": 71,
            "NORMAL": 72
          },
          "mode": 4,
          "material": 3,
          "indices": 5
        },
        {
          "attributes": {
            "POSITION": 73,
            "NORMAL": 74
          },
          "mode": 4,
          "material": 4,
          "indices": 6
        },
        {
          "attributes": {
            "POSITION": 75,
            "NORMAL": 76
          },
          "mode": 4,
          "material": 5,
          "indices": 7
        },
        {
          "attributes": {
            "POSITION": 77,
            "NORMAL": 78
          },
          "mode": 4,
          "material": 6,
          "indices": 8
        },
        {
          "attributes": {
            "POSITION": 79,
            "NORMAL": 80
          },
          "mode": 4,
          "material": 7,
          "indices": 9
        },
        {
          "attributes": {
            "POSITION": 81,
            "NORMAL": 82
          },
          "mode": 4,
          "material": 8,
          "indices": 10
        },
        {
          "attributes": {
            "POSITION": 83,
            "NORMAL": 84
          },
          "mode": 4,
          "material": 9,
          "indices": 11
        },
        {
          "attributes": {
            "POSITION": 85,
            "NORMAL": 86,
            "TEXCOORD_0": 87
          },
          "mode": 4,
          "material": 10,
          "indices": 12
        },
        {
          "attributes": {
            "POSITION": 88,
            "NORMAL": 89
          },
          "mode": 4,
          "material": 11,
          "indices": 13
        },
        {
          "attributes": {
            "POSITION": 90,
            "NORMAL": 91
          },
          "mode": 4,
          "material": 12,
          "indices": 14
        },
        {
          "attributes": {
            "POSITION": 92,
            "NORMAL": 93
          },
          "mode": 4,
          "material": 13,
          "indices": 15
        },
        {
          "attributes": {
            "POSITION": 94,
            "NORMAL": 95
          },
          "mode": 4,
          "material": 14,
          "indices": 16
        },
        {
          "attributes": {
            "POSITION": 96,
            "NORMAL": 97
          },
          "mode": 4,
          "material": 15,
          "indices": 17
        },
        {
          "attributes": {
            "POSITION": 98,
            "NORMAL": 99
          },
          "mode": 4,
          "material": 16,
          "indices": 18
        },
        {
          "attributes": {
            "POSITION": 100,
            "NORMAL": 101
          },
          "mode": 4,
          "material": 17,
          "indices": 19
        },
        {
          "attributes": {
            "POSITION": 102,
            "NORMAL": 103
          },
          "mode": 4,
          "material": 18,
          "indices": 20
        },
        {
          "attributes": {
            "POSITION": 104,
            "NORMAL": 105
          },
          "mode": 4,
          "material": 19,
          "indices": 21
        },
        {
          "attributes": {
            "POSITION": 106,
            "NORMAL": 107
          },
          "mode": 4,
          "material": 20,
          "indices": 22
        },
        {
          "attributes": {
            "POSITION": 108,
            "NORMAL": 109
          },
          "mode": 4,
          "material": 21,
          "indices": 23
        },
        {
          "attributes": {
            "POSITION": 110,
            "NORMAL": 111
          },
          "mode": 4,
          "material": 22,
          "indices": 24
        },
        {
          "attributes": {
            "POSITION": 112,
            "NORMAL": 113
          },
          "mode": 4,
          "material": 23,
          "indices": 25
        },
        {
          "attributes": {
            "POSITION": 114,
            "NORMAL": 115
          },
          "mode": 4,
          "material": 24,
          "indices": 26
        },
        {
          "attributes": {
            "POSITION": 118,
            "NORMAL": 119
          },
          "mode": 4,
          "material": 25,
          "indices": 27
        },
        {
          "attributes": {
            "POSITION": 120,
            "NORMAL": 121
          },
          "mode": 4,
          "material": 26,
          "indices": 28
        },
        {
          "attributes": {
            "POSITION": 122,
            "NORMAL": 123
          },
          "mode": 4,
          "material": 19,
          "indices": 29
        },
        {
          "attributes": {
            "POSITION": 124,
            "NORMAL": 125
          },
          "mode": 4,
          "material": 27,
          "indices": 30
        },
        {
          "attributes": {
            "POSITION": 126,
            "NORMAL": 127
          },
          "mode": 4,
          "material": 28,
          "indices": 31
        },
        {
          "attributes": {
            "POSITION": 128,
            "NORMAL": 129
          },
          "mode": 4,
          "material": 29,
          "indices": 32
        },
        {
          "attributes": {
            "POSITION": 130,
            "NORMAL": 131
          },
          "mode": 4,
          "material": 19,
          "indices": 33
        },
        {
          "attributes": {
            "POSITION": 132,
            "NORMAL": 133
          },
          "mode": 4,
          "material": 30,
          "indices": 34
        },
        {
          "attributes": {
            "POSITION": 134,
            "NORMAL": 135
          },
          "mode": 4,
          "material": 31,
          "indices": 35
        },
        {
          "attributes": {
            "POSITION": 136,
            "NORMAL": 137
          },
          "mode": 4,
          "material": 32,
          "indices": 36
        },
        {
          "attributes": {
            "POSITION": 138,
            "NORMAL": 139
          },
          "mode": 4,
          "material": 33,
          "indices": 37
        },
        {
          "attributes": {
            "POSITION": 140,
            "NORMAL": 141
          },
          "mode": 4,
          "material": 34,
          "indices": 38
        },
        {
          "attributes": {
            "POSITION": 142,
            "NORMAL": 143
          },
          "mode": 4,
          "material": 35,
          "indices": 39
        },
        {
          "attributes": {
            "POSITION": 144,
            "NORMAL": 145
          },
          "mode": 4,
          "material": 36,
          "indices": 40
        },
        {
          "attributes": {
            "POSITION": 146,
            "NORMAL": 147
          },
          "mode": 4,
          "material": 24,
          "indices": 41
        },
        {
          "attributes": {
            "POSITION": 148,
            "NORMAL": 149
          },
          "mode": 4,
          "material": 25,
          "indices": 42
        },
        {
          "attributes": {
            "POSITION": 150,
            "NORMAL": 151
          },
          "mode": 4,
          "material": 24,
          "indices": 43
        },
        {
          "attributes": {
            "POSITION": 152,
            "NORMAL": 153
          },
          "mode": 4,
          "material": 37,
          "indices": 44
        },
        {
          "attributes": {
            "POSITION": 154,
            "NORMAL": 155
          },
          "mode": 4,
          "material": 23,
          "indices": 45
        },
        {
          "attributes": {
            "POSITION": 156,
            "NORMAL": 157,
            "TEXCOORD_0": 158
          },
          "mode": 4,
          "material": 10,
          "indices": 46
        },
        {
          "attributes": {
            "POSITION": 159,
            "NORMAL": 160
          },
          "mode": 4,
          "material": 38,
          "indices": 47
        },
        {
          "attributes": {
            "POSITION": 161,
            "NORMAL": 162
          },
          "mode": 4,
          "material": 39,
          "indices": 48
        },
        {
          "attributes": {
            "POSITION": 163,
            "NORMAL": 164
          },
          "mode": 4,
          "material": 40,
          "indices": 49
        }
      ]
    },
    {
      "name": "Wheel_FR_Spin",
      "primitives": [
        {
          "attributes": {
            "POSITION": 116,
            "NORMAL": 117
          },
          "mode": 4,
          "material": 24,
          "indices": 26
        },
        {
          "attributes": {
            "POSITION": 165,
            "NORMAL": 166
          },
          "mode": 4,
          "material": 0,
          "indices": 50
        },
        {
          "attributes": {
            "POSITION": 171,
            "NORMAL": 172
          },
          "mode": 4,
          "material": 41,
          "indices": 53
        },
        {
          "attributes": {
            "POSITION": 173,
            "NORMAL": 174
          },
          "mode": 4,
          "material": 42,
          "indices": 54
        },
        {
          "attributes": {
            "POSITION": 175,
            "NORMAL": 176
          },
          "mode": 4,
          "material": 43,
          "indices": 55
        },
        {
          "attributes": {
            "POSITION": 177,
            "NORMAL": 178
          },
          "mode": 4,
          "material": 44,
          "indices": 62
        }
      ]
    },
    {
      "name": "Wheel_RL_Spin",
      "primitives": [
        {
          "attributes": {
            "POSITION": 167,
            "NORMAL": 168
          },
          "mode": 4,
          "material": 0,
          "indices": 51
        },
        {
          "attributes": {
            "POSITION": 198,
            "NORMAL": 199
          },
          "mode": 4,
          "material": 41,
          "indices": 64
        },
        {
          "attributes": {
            "POSITION": 200,
            "NORMAL": 201
          },
          "mode": 4,
          "material": 42,
          "indices": 65
        },
        {
          "attributes": {
            "POSITION": 202,
            "NORMAL": 193
          },
          "mode": 4,
          "material": 43,
          "indices": 61
        },
        {
          "attributes": {
            "POSITION": 203,
            "NORMAL": 195
          },
          "mode": 4,
          "material": 44,
          "indices": 62
        }
      ]
    },
    {
      "name": "Wheel_RR_Spin",
      "primitives": [
        {
          "attributes": {
            "POSITION": 169,
            "NORMAL": 170
          },
          "mode": 4,
          "material": 0,
          "indices": 52
        },
        {
          "attributes": {
            "POSITION": 181,
            "NORMAL": 172
          },
          "mode": 4,
          "material": 41,
          "indices": 53
        },
        {
          "attributes": {
            "POSITION": 182,
            "NORMAL": 183
          },
          "mode": 4,
          "material": 42,
          "indices": 57
        },
        {
          "attributes": {
            "POSITION": 184,
            "NORMAL": 176
          },
          "mode": 4,
          "material": 43,
          "indices": 55
        },
        {
          "attributes": {
            "POSITION": 185,
            "NORMAL": 178
          },
          "mode": 4,
          "material": 44,
          "indices": 62
        }
      ]
    },
    {
      "name": "Wheel_FR_Caliper",
      "primitives": [
        {
          "attributes": {
            "POSITION": 179,
            "NORMAL": 180
          },
          "mode": 4,
          "material": 45,
          "indices": 56
        }
      ]
    },
    {
      "name": "Wheel_RR_Caliper",
      "primitives": [
        {
          "attributes": {
            "POSITION": 186,
            "NORMAL": 187
          },
          "mode": 4,
          "material": 45,
          "indices": 58
        }
      ]
    },
    {
      "name": "Wheel_FL_Caliper",
      "primitives": [
        {
          "attributes": {
            "POSITION": 196,
            "NORMAL": 197
          },
          "mode": 4,
          "material": 45,
          "indices": 63
        }
      ]
    },
    {
      "name": "Wheel_RL_Caliper",
      "primitives": [
        {
          "attributes": {
            "POSITION": 204,
            "NORMAL": 205
          },
          "mode": 4,
          "material": 45,
          "indices": 66
        }
      ]
    }
  ],
  "nodes": [
    {
      "name": "Wheel_FL",
      "translation": [
        -0.9233902841806412,
        0.3033758206292987,
        -1.3570866286754608
      ],
      "children": [
        1,
        11
      ]
    },
    {
      "name": "Wheel_FL_Spin",
      "mesh": 0
    },
    {
      "name": "Body",
      "mesh": 1
    },
    {
      "name": "Wheel_FR",
      "translation": [
        0.9233902841806412,
        0.30375119019299746,
        -1.3570866286754608
      ],
      "children": [
        4,
        9
      ]
    },
    {
      "name": "Wheel_FR_Spin",
      "mesh": 2
    },
    {
      "name": "Wheel_RL",
      "translation": [
        -0.9233902841806412,
        0.3033758206292987,
        1.3570866286754608
      ],
      "children": [
        6,
        12
      ]
    },
    {
      "name": "Wheel_RL_Spin",
      "mesh": 3
    },
    {
      "name": "Wheel_RR",
      "translation": [
        0.9233902841806412,
        0.30375119019299746,
        1.3570866286754608
      ],
      "children": [
        8,
        10
      ]
    },
    {
      "name": "Wheel_RR_Spin",
      "mesh": 4
    },
    {
      "name": "Wheel_FR_Caliper",
      "mesh": 5
    },
    {
      "name": "Wheel_RR_Caliper",
      "mesh": 6
    },
    {
      "name": "Wheel_FL_Caliper",
      "mesh": 7
    },
    {
      "name": "Wheel_RL_Caliper",
      "mesh": 8
    }
  ],
  "scenes": [
    {
      "name": "Sketchfab_Scene",
      "nodes": [
        0,
        2,
        3,
        5,
        7
      ]
    }
  ],
  "scene": 0,
  "extensionsUsed": [
    "KHR_materials_specular"
  ]
}