{
  "asset": {
    "generator": "glTF-Transform v4.5.0",
    "version": "2.0",
    "extras": {
      "author": "kekis69 (https://sketchfab.com/kekis69)",
      "license": "CC-BY-4.0 (http://creativecommons.org/licenses/by/4.0/)",
      "source": "https://sketchfab.com/3d-models/ferrari-testarossa-84-low-poly-1786b089bfbb40ea9ecd9dc4f4e73127",
      "title": "Ferrari Testarossa 84 Low Poly"
    }
  },
  "accessors": [
    {
      "type": "SCALAR",
      "componentType": 5126,
      "count": 63,
      "max": [
        7.083333492279053
      ],
      "min": [
        0.0416666679084301
      ],
      "bufferView": 0,
      "byteOffset": 0
    },
    {
      "type": "VEC4",
      "componentType": 5126,
      "count": 63,
      "bufferView": 0,
      "byteOffset": 252
    },
    {
      "type": "VEC3",
      "componentType": 5126,
      "count": 14543,
      "max": [
        0.9507110118865967,
        1.1079108715057373,
        2.115232229232788
      ],
      "min": [
        -0.9596338272094727,
        0.13503588736057281,
        -2.3688151836395264
      ],
      "bufferView": 1,
      "byteOffset": 0
    },
    {
      "type": "VEC3",
      "componentType": 5126,
      "count": 14543,
      "bufferView": 1,
      "byteOffset": 12
    },
    {
      "type": "SCALAR",
      "componentType": 5123,
      "count": 38910,
      "bufferView": 2,
      "byteOffset": 0
    },
    {
      "type": "SCALAR",
      "componentType": 5123,
      "count": 402,
      "bufferView": 2,
      "byteOffset": 77820
    },
    {
      "type": "SCALAR",
      "componentType": 5123,
      "count": 13761,
      "bufferView": 2,
      "byteOffset": 78624
    },
    {
      "type": "SCALAR",
      "componentType": 5123,
      "count": 1734,
      "bufferView": 2,
      "byteOffset": 106148
    },
    {
      "type": "SCALAR",
      "componentType": 5123,
      "count": 4347,
      "bufferView": 2,
      "byteOffset": 109616
    },
    {
      "type": "SCALAR",
      "componentType": 5123,
      "count": 1194,
      "bufferView": 2,
      "byteOffset": 118312
    },
    {
      "type": "SCALAR",
      "componentType": 5123,
      "count": 72,
      "bufferView": 2,
      "byteOffset": 120700
    },
    {
      "type": "SCALAR",
      "componentType": 5123,
      "count": 3270,
      "bufferView": 2,
      "byteOffset": 120844
    },
    {
      "type": "SCALAR",
      "componentType": 5123,
      "count": 60,
      "bufferView": 2,
      "byteOffset": 127384
    },
    {
      "type": "SCALAR",
      "componentType": 5123,
      "count": 90,
      "bufferView": 2,
      "byteOffset": 127504
    },
    {
      "type": "SCALAR",
      "componentType": 5123,
      "count": 1536,
      "bufferView": 2,
      "byteOffset": 127684
    },
    {
      "type": "SCALAR",
      "componentType": 5123,
      "count": 2415,
      "bufferView": 2,
      "byteOffset": 130756
    },
    {
      "type": "SCALAR",
      "componentType": 5123,
      "count": 1266,
      "bufferView": 2,
      "byteOffset": 135588
    },
    {
      "type": "SCALAR",
      "componentType": 5123,
      "count": 2415,
      "bufferView": 2,
      "byteOffset": 138120
    },
    {
      "type": "SCALAR",
      "componentType": 5123,
      "count": 1266,
      "bufferView": 2,
      "byteOffset": 142952
    },
    {
      "type": "SCALAR",
      "componentType": 5123,
      "count": 156,
      "bufferView": 2,
      "byteOffset": 145484
    },
    {
      "type": "SCALAR",
      "componentType": 5123,
      "count": 264,
      "bufferView": 2,
      "byteOffset": 145796
    },
    {
      "type": "SCALAR",
      "componentType": 5123,
      "count": 2415,
      "bufferView": 2,
      "byteOffset": 146324
    },
    {
      "type": "SCALAR",
      "componentType": 5123,
      "count": 1266,
      "bufferView": 2,
      "byteOffset": 151156
    },
    {
      "type": "SCALAR",
      "componentType": 5123,
      "count": 2415,
      "bufferView": 2,
      "byteOffset": 153688
    },
    {
      "type": "VEC3",
      "componentType": 5126,
      "count": 127,
      "max": [
        0.7246009707450867,
        1.0908716917037964,
        0.8991855382919312
      ],
      "min": [
        -0.7335237264633179,
        0.7354249954223633,
        -1.1462438106536865
      ],
      "bufferView": 3,
      "byteOffset": 0
    },
    {
      "type": "VEC3",
      "componentType": 5126,
      "count": 127,
      "bufferView": 3,
      "byteOffset": 12
    },
    {
      "type": "VEC3",
      "componentType": 5126,
      "count": 4486,
      "max": [
        0.9689175486564636,
        1.1292006969451904,
        2.104729175567627
      ],
      "min": [
        -0.9784336686134338,
        0.1829606294631958,
        -2.369767904281616
      ],
      "bufferView": 4,
      "byteOffset": 0
    },
    {
      "type": "VEC3",
      "componentType": 5126,
      "count": 4486,
      "bufferView": 4,
      "byteOffset": 12
    },
    {
      "type": "VEC3",
      "componentType": 5126,
      "count": 433,
      "max": [
        0.8513723611831665,
        1.1077940464019775,
        0.902285099029541
      ],
      "min": [
        -0.8602966070175171,
        0.14214320480823517,
        -0.886664867401123
      ],
      "bufferView": 5,
      "byteOffset": 0
    },
    {
      "type": "VEC3",
      "componentType": 5126,
      "count": 433,
      "bufferView": 5,
      "byteOffset": 12
    },
    {
      "type": "VEC3",
      "componentType": 5126,
      "count": 2075,
      "max": [
        0.9523088335990906,
        0.9450578093528748,
        2.030491590499878
      ],
      "min": [
        -0.9612331390380859,
        0.3793714940547943,
        0.1596195101737976
      ],
      "bufferView": 6,
      "byteOffset": 0
    },
    {
      "type": "VEC3",
      "componentType": 5126,
      "count": 2075,
      "bufferView": 6,
      "byteOffset": 12
    },
    {
      "type": "VEC3",
      "componentType": 5126,
      "count": 322,
      "max": [
        0.9130462408065796,
        0.7195853590965271,
        1.9957797527313232
      ],
      "min": [
        -0.9219689965248108,
        0.33580678701400757,
        -2.3325588703155518
      ],
      "bufferView": 7,
      "byteOffset": 0
    },
    {
      "type": "VEC3",
      "componentType": 5126,
      "count": 322,
      "bufferView": 7,
      "byteOffset": 12
    },
    {
      "type": "VEC3",
      "componentType": 5126,
      "count": 26,
      "max": [
        -0.37479841709136963,
        0.6371558904647827,
        0.7158563137054443
      ],
      "min": [
        -0.9298473000526428,
        0.14865610003471375,
        -2.2705371379852295
      ],
      "bufferView": 8,
      "byteOffset": 0
    },
    {
      "type": "VEC3",
      "componentType": 5126,
      "count": 26,
      "bufferView": 8,
      "byteOffset": 12
    },
    {
      "type": "VEC3",
      "componentType": 5126,
      "count": 726,
      "max": [
        0.7130240201950073,
        0.7195853590965271,
        1.9957797527313232
      ],
      "min": [
        -0.7219467759132385,
        0.2717568278312683,
        -2.332200765609741
      ],
      "bufferView": 9,
      "byteOffset": 0
    },
    {
      "type": "VEC3",
      "componentType": 5126,
      "count": 726,
      "bufferView": 9,
      "byteOffset": 12
    },
    {
      "type": "VEC3",
      "componentType": 5126,
      "count": 32,
      "max": [
        0.021649347618222237,
        0.6579116582870483,
        -0.5641130805015564
      ],
      "min": [
        -0.4647601246833801,
        0.5214794278144836,
        -2.2011256217956543
      ],
      "bufferView": 10,
      "byteOffset": 0
    },
    {
      "type": "VEC3",
      "componentType": 5126,
      "count": 32,
      "bufferView": 10,
      "byteOffset": 12
    },
    {
      "type": "VEC3",
      "componentType": 5126,
      "count": 36,
      "max": [
        0.9593926668167114,
        1.009007215499878,
        -0.3604556918144226
      ],
      "min": [
        -0.9689101576805115,
        0.813737154006958,
        -0.5610533952713013
      ],
      "bufferView": 11,
      "byteOffset": 0
    },
    {
      "type": "VEC3",
      "componentType": 5126,
      "count": 36,
      "bufferView": 11,
      "byteOffset": 12
    },
    {
      "type": "VEC3",
      "componentType": 5126,
      "count": 322,
      "max": [
        0.1195891797542572,
        0.29717347025871277,
        0.2971734404563904
      ],
      "min": [
        -0.1195891797542572,
        -0.29717347025871277,
        -0.2971734404563904
      ],
      "bufferView": 12,
      "byteOffset": 0
    },
    {
      "type": "VEC3",
      "componentType": 5126,
      "count": 322,
      "bufferView": 12,
      "byteOffset": 12
    },
    {
      "type": "VEC3",
      "componentType": 5126,
      "count": 322,
      "max": [
        0.11958912014961243,
        0.29717347025871277,
        0.2971726655960083
      ],
      "min": [
        -0.11958912014961243,
        -0.29717347025871277,
        -0.2971726655960083
      ],
      "bufferView": 13,
      "byteOffset": 0
    },
    {
      "type": "VEC3",
      "componentType": 5126,
      "count": 322,
      "bufferView": 13,
      "byteOffset": 12
    },
    {
      "type": "VEC3",
      "componentType": 5126,
      "count": 900,
      "max": [
        -0.005359441041946411,
        0.22267839312553406,
        0.2222241759300232
      ],
      "min": [
        -0.10029223561286926,
        -0.22233064472675323,
        -0.22313851118087769
      ],
      "bufferView": 14,
      "byteOffset": 0
    },
    {
      "type": "VEC3",
      "componentType": 5126,
      "count": 900,
      "bufferView": 14,
      "byteOffset": 12
    },
    {
      "type": "VEC3",
      "componentType": 5126,
      "count": 439,
      "max": [
        -0.09925660490989685,
        0.04570656642317772,
        0.04546826332807541
      ],
      "min": [
        -0.11016181111335754,
        -0.04599500074982643,
        -0.04630715399980545
      ],
      "bufferView": 15,
      "byteOffset": 0
    },
    {
      "type": "VEC3",
      "componentType": 5126,
      "count": 439,
      "bufferView": 15,
      "byteOffset": 12
    },
    {
      "type": "VEC3",
      "componentType": 5126,
      "count": 897,
      "max": [
        0.015490978956222534,
        0.22267840802669525,
        0.22222483158111572
      ],
      "min": [
        -0.10029366612434387,
        -0.22233065962791443,
        -0.22313928604125977
      ],
      "bufferView": 16,
      "byteOffset": 0
    },
    {
      "type": "VEC3",
      "componentType": 5126,
      "count": 897,
      "bufferView": 16,
      "byteOffset": 12
    },
    {
      "type": "VEC3",
      "componentType": 5126,
      "count": 439,
      "max": [
        -0.09930244088172913,
        0.045706551522016525,
        0.04546903818845749
      ],
      "min": [
        -0.1102077066898346,
        -0.045995015650987625,
        -0.04630649834871292
      ],
      "bufferView": 17,
      "byteOffset": 0
    },
    {
      "type": "VEC3",
      "componentType": 5126,
      "count": 439,
      "bufferView": 17,
      "byteOffset": 12
    },
    {
      "type": "VEC3",
      "componentType": 5126,
      "count": 42,
      "max": [
        0.3897191286087036,
        0.7130770683288574,
        1.987342357635498
      ],
      "min": [
        -0.3916616439819336,
        0.5408706665039062,
        1.8939452171325684
      ],
      "bufferView": 18,
      "byteOffset": 0
    },
    {
      "type": "VEC3",
      "componentType": 5126,
      "count": 42,
      "bufferView": 18,
      "byteOffset": 12
    },
    {
      "type": "VEC3",
      "componentType": 5126,
      "count": 100,
      "max": [
        0.9130462408065796,
        0.8714266419410706,
        1.9957797527313232
      ],
      "min": [
        -0.9219689965248108,
        0.5489487051963806,
        1.4675053358078003
      ],
      "bufferView": 19,
      "byteOffset": 0
    },
    {
      "type": "VEC3",
      "componentType": 5126,
      "count": 100,
      "bufferView": 19,
      "byteOffset": 12
    },
    {
      "type": "VEC3",
      "componentType": 5126,
      "count": 322,
      "max": [
        0.11958912014961243,
        0.29717347025871277,
        0.2971726953983307
      ],
      "min": [
        -0.11958912014961243,
        -0.29717347025871277,
        -0.2971726953983307
      ],
      "bufferView": 20,
      "byteOffset": 0
    },
    {
      "type": "VEC3",
      "componentType": 5126,
      "count": 322,
      "bufferView": 20,
      "byteOffset": 12
    },
    {
      "type": "VEC3",
      "componentType": 5126,
      "count": 322,
      "max": [
        0.11958912014961243,
        0.29717347025871277,
        0.2971727252006531
      ],
      "min": [
        -0.11958912014961243,
        -0.29717347025871277,
        -0.2971727252006531
      ],
      "bufferView": 21,
      "byteOffset": 0
    },
    {
      "type": "VEC3",
      "componentType": 5126,
      "count": 322,
      "bufferView": 21,
      "byteOffset": 12
    },
    {
      "type": "VEC3",
      "componentType": 5126,
      "count": 898,
      "max": [
        0.10029223561286926,
        0.22267839312553406,
        0.2231391966342926
      ],
      "min": [
        0.04139384627342224,
        -0.22233064472675323,
        -0.22222480177879333
      ],
      "bufferView": 22,
      "byteOffset": 0
    },
    {
      "type": "VEC3",
      "componentType": 5126,
      "count": 898,
      "bufferView": 22,
      "byteOffset": 12
    },
    {
      "type": "VEC3",
      "componentType": 5126,
      "count": 439,
      "max": [
        0.11033198237419128,
        0.04570656642317772,
        0.046306513249874115
      ],
      "min": [
        0.09942665696144104,
        -0.04599500074982643,
        -0.045469023287296295
      ],
      "bufferView": 23,
      "byteOffset": 0
    },
    {
      "type": "VEC3",
      "componentType": 5126,
      "count": 439,
      "bufferView": 23,
      "byteOffset": 12
    },
    {
      "type": "VEC3",
      "componentType": 5126,
      "count": 899,
      "max": [
        0.10029217600822449,
        0.22267840802669525,
        0.223139226436615
      ],
      "min": [
        0.030194133520126343,
        -0.22233065962791443,
        -0.2222248911857605
      ],
      "bufferView": 24,
      "byteOffset": 0
    },
    {
      "type": "VEC3",
      "componentType": 5126,
      "count": 899,
      "bufferView": 24,
      "byteOffset": 12
    },
    {
      "type": "VEC3",
      "componentType": 5126,
      "count": 439,
      "max": [
        0.11022546887397766,
        0.045706551522016525,
        0.04630642384290695
      ],
      "min": [
        0.09932026267051697,
        -0.045995015650987625,
        -0.04546768218278885
      ],
      "bufferView": 25,
      "byteOffset": 0
    },
    {
      "type": "VEC3",
      "componentType": 5126,
      "count": 439,
      "bufferView": 25,
      "byteOffset": 12
    }
  ],
  "bufferViews": [
    {
      "buffer": 0,
      "byteOffset": 0,
      "byteLength": 1260
    },
    {
      "buffer": 0,
      "byteOffset": 1260,
      "byteLength": 349032,
      "byteStride": 24,
      "target": 34962
    },
    {
      "buffer": 0,
      "byteOffset": 350292,
      "byteLength": 158520,
      "target": 34963
    },
    {
      "buffer": 0,
      "byteOffset": 508812,
      "byteLength": 3048,
      "byteStride": 24,
      "target": 34962
    },
    {
      "buffer": 0,
      "byteOffset": 511860,
      "byteLength": 107664,
      "byteStride": 24,
      "target": 34962
    },
    {
      "buffer": 0,
      "byteOffset": 619524,
      "byteLength": 10392,
      "byteStride": 24,
      "target": 34962
    },
    {
      "buffer": 0,
      "byteOffset": 629916,
      "byteLength": 49800,
      "byteStride": 24,
      "target": 34962
    },
    {
      "buffer": 0,
      "byteOffset": 679716,
      "byteLength": 7728,
      "byteStride": 24,
      "target": 34962
    },
    {
      "buffer": 0,
      "byteOffset": 687444,
      "byteLength": 624,
      "byteStride": 24,
      "target": 34962
    },
    {
      "buffer": 0,
      "byteOffset": 688068,
      "byteLength": 17424,
      "byteStride": 24,
      "target": 34962
    },
    {
      "buffer": 0,
      "byteOffset": 705492,
      "byteLength": 768,
      "byteStride": 24,
      "target": 34962
    },
    {
      "buffer": 0,
      "byteOffset": 706260,
      "byteLength": 864,
      "byteStride": 24,
      "target": 34962
    },
    {
      "buffer": 0,
      "byteOffset": 707124,
      "byteLength": 7728,
      "byteStride": 24,
      "target": 34962
    },
    {
      "buffer": 0,
      "byteOffset": 714852,
      "byteLength": 7728,
      "byteStride": 24,
      "target": 34962
    },
    {
      "buffer": 0,
      "byteOffset": 722580,
      "byteLength": 21600,
      "byteStride": 24,
      "target": 34962
    },
    {
      "buffer": 0,
      "byteOffset": 744180,
      "byteLength": 10536,
      "byteStride": 24,
      "target": 34962
    },
    {
      "buffer": 0,
      "byteOffset": 754716,
      "byteLength": 21528,
      "byteStride": 24,
      "target": 34962
    },
    {
      "buffer": 0,
      "byteOffset": 776244,
      "byteLength": 10536,
      "byteStride": 24,
      "target": 34962
    },
    {
      "buffer": 0,
      "byteOffset": 786780,
      "byteLength": 1008,
      "byteStride": 24,
      "target": 34962
    },
    {
      "buffer": 0,
      "byteOffset": 787788,
      "byteLength": 2400,
      "byteStride": 24,
      "target": 34962
    },
    {
      "buffer": 0,
      "byteOffset": 790188,
      "byteLength": 7728,
      "byteStride": 24,
      "target": 34962
    },
    {
      "buffer": 0,
      "byteOffset": 797916,
      "byteLength": 7728,
      "byteStride": 24,
      "target": 34962
    },
    {
      "buffer": 0,
      "byteOffset": 805644,
      "byteLength": 21552,
      "byteStride": 24,
      "target": 34962
    },
    {
      "buffer": 0,
      "byteOffset": 827196,
      "byteLength": 10536,
      "byteStride": 24,
      "target": 34962
    },
    {
      "buffer": 0,
      "byteOffset": 837732,
      "byteLength": 21576,
      "byteStride": 24,
      "target": 34962
    },
    {
      "buffer": 0,
      "byteOffset": 859308,
      "byteLength": 10536,
      "byteStride": 24,
      "target": 34962
    }
  ],
  "buffers": [
    {
      "uri": "ferrari_testarossa.bin",
      "byteLength": 869844
    }
  ],
  "materials": [
    {
      "name": "paint:Black_main",
      "doubleSided": true,
      "pbrMetallicRoughness": {
        "baseColorFactor": [
          0.005774,
          0.005774,
          0.005774,
          1
        ],
        "roughnessFactor": 0.418,
        "metallicFactor": 0
      }
    },
    {
      "name": "glass:Glass",
      "alphaMode": "BLEND",
      "doubleSided": true,
      "pbrMetallicRoughness": {
        "baseColorFactor": [
          0.8,
          0.8,
          0.8,
          0.059
        ],
        "roughnessFactor": 0.2,
        "metallicFactor": 0
      }
    },
    {
      "name": "other:material",
      "doubleSided": true,
      "pbrMetallicRoughness": {
        "baseColorFactor": [
          0.6154439999999999,
          0,
          0.0005729999999999848,
          1
        ],
        "roughnessFactor": 0.590674,
        "metallicFactor": 0.378238
      }
    },
    {
      "name": "interior:White_interior",
      "doubleSided": true,
      "pbrMetallicRoughness": {
        "baseColorFactor": [
          0.7991027380144088,
          0.6514056374198239,
          0.3712376804741491,
          1
        ],
        "roughnessFactor": 0.9554314832197583,
        "metallicFactor": 0
      }
    },
    {
      "name": "other:metal",
      "doubleSided": true,
      "pbrMetallicRoughness": {
        "baseColorFactor": [
          0.470967,
          0.470967,
          0.470967,
          1
        ],
        "roughnessFactor": 0.24228645268252244
      }
    },
    {
      "name": "light_signal:Orange_lights",
      "doubleSided": true,
      "pbrMetallicRoughness": {
        "baseColorFactor": [
          0.9213560469775339,
          0.13428182470305172,
          0.0282032511437141,
          1
        ],
        "roughnessFactor": 0.255,
        "metallicFactor": 0.778669039753264
      },
      "extensions": {
        "KHR_materials_specular": {
          "specularFactor": 0.49828723287537635
        }
      }
    },
    {
      "name": "other:Blackest_black",
      "doubleSided": true,
      "pbrMetallicRoughness": {
        "baseColorFactor": [
          0,
          0,
          0,
          1
        ],
        "metallicFactor": 0.3702868427789494
      }
    },
    {
      "name": "light_misc:Lights",
      "doubleSided": true,
      "pbrMetallicRoughness": {
        "baseColorFactor": [
          0.8,
          0.8,
          0.8,
          1
        ],
        "roughnessFactor": 0.1299021101778597
      },
      "emissiveFactor": [
        0.228572125172191,
        0.228572125172191,
        0.228572125172191
      ]
    },
    {
      "name": "other:Yellow",
      "doubleSided": true,
      "pbrMetallicRoughness": {
        "baseColorFactor": [
          1,
          0.5449199999999998,
          0,
          1
        ],
        "roughnessFactor": 0.7542880130682302,
        "metallicFactor": 0.6872401896843876
      }
    },
    {
      "name": "other:mirror",
      "doubleSided": true,
      "pbrMetallicRoughness": {
        "baseColorFactor": [
          0.8,
          0.8,
          0.8,
          1
        ],
        "roughnessFactor": 0
      }
    },
    {
      "name": "tyre:Tires",
      "doubleSided": true,
      "pbrMetallicRoughness": {
        "baseColorFactor": [
          0,
          0,
          0,
          1
        ],
        "roughnessFactor": 0.588,
        "metallicFactor": 0
      }
    },
    {
      "name": "rim:rims",
      "doubleSided": true,
      "pbrMetallicRoughness": {
        "baseColorFactor": [
          0.39192,
          0.39192,
          0.39192,
          1
        ],
        "roughnessFactor": 0.5,
        "metallicFactor": 0.694611
      }
    },
    {
      "name": "light_tail:Red_light",
      "doubleSided": true,
      "pbrMetallicRoughness": {
        "baseColorFactor": [
          1,
          0,
          0.011063310275084833,
          1
        ],
        "roughnessFactor": 0.325,
        "metallicFactor": 0.8761931464933987
      },
      "extensions": {
        "KHR_materials_specular": {
          "specularFactor": 0.5897160829442527
        }
      }
    }
  ],
  "meshes": [
    {
      "name": "Body",
      "primitives": [
        {
          "attributes": {
            "POSITION": 2,
            "NORMAL": 3
          },
          "mode": 4,
          "material": 0,
          "indices": 4
        },
        {
          "attributes": {
            "POSITION": 24,
            "NORMAL": 25
          },
          "mode": 4,
          "material": 1,
          "indices": 5
        },
        {
          "attributes": {
            "POSITION": 26,
            "NORMAL": 27
          },
          "mode": 4,
          "material": 2,
          "indices": 6
        },
        {
          "attributes": {
            "POSITION": 28,
            "NORMAL": 29
          },
          "mode": 4,
          "material": 3,
          "indices": 7
        },
        {
          "attributes": {
            "POSITION": 30,
            "NORMAL": 31
          },
          "mode": 4,
          "material": 4,
          "indices": 8
        },
        {
          "attributes": {
            "POSITION": 32,
            "NORMAL": 33
          },
          "mode": 4,
          "material": 5,
          "indices": 9
        },
        {
          "attributes": {
            "POSITION": 34,
            "NORMAL": 35
          },
          "mode": 4,
          "material": 6,
          "indices": 10
        },
        {
          "attributes": {
            "POSITION": 36,
            "NORMAL": 37
          },
          "mode": 4,
          "material": 7,
          "indices": 11
        },
        {
          "attributes": {
            "POSITION": 38,
            "NORMAL": 39
          },
          "mode": 4,
          "material": 8,
          "indices": 12
        },
        {
          "attributes": {
            "POSITION": 40,
            "NORMAL": 41
          },
          "mode": 4,
          "material": 9,
          "indices": 13
        },
        {
          "attributes": {
            "POSITION": 54,
            "NORMAL": 55
          },
          "mode": 4,
          "material": 10,
          "indices": 19
        },
        {
          "attributes": {
            "POSITION": 56,
            "NORMAL": 57
          },
          "mode": 4,
          "material": 12,
          "indices": 20
        }
      ]
    },
    {
      "name": "Wheel_RL_Spin",
      "primitives": [
        {
          "attributes": {
            "POSITION": 42,
            "NORMAL": 43
          },
          "mode": 4,
          "material": 10,
          "indices": 14
        },
        {
          "attributes": {
            "POSITION": 46,
            "NORMAL": 47
          },
          "mode": 4,
          "material": 11,
          "indices": 15
        },
        {
          "attributes": {
            "POSITION": 48,
            "NORMAL": 49
          },
          "mode": 4,
          "material": 4,
          "indices": 16
        }
      ]
    },
    {
      "name": "Wheel_FL_Spin",
      "primitives": [
        {
          "attributes": {
            "POSITION": 44,
            "NORMAL": 45
          },
          "mode": 4,
          "material": 10,
          "indices": 14
        },
        {
          "attributes": {
            "POSITION": 50,
            "NORMAL": 51
          },
          "mode": 4,
          "material": 11,
          "indices": 17
        },
        {
          "attributes": {
            "POSITION": 52,
            "NORMAL": 53
          },
          "mode": 4,
          "material": 4,
          "indices": 18
        }
      ]
    },
    {
      "name": "Wheel_RR_Spin",
      "primitives": [
        {
          "attributes": {
            "POSITION": 58,
            "NORMAL": 59
          },
          "mode": 4,
          "material": 10,
          "indices": 14
        },
        {
          "attributes": {
            "POSITION": 62,
            "NORMAL": 63
          },
          "mode": 4,
          "material": 11,
          "indices": 21
        },
        {
          "attributes": {
            "POSITION": 64,
            "NORMAL": 65
          },
          "mode": 4,
          "material": 4,
          "indices": 22
        }
      ]
    },
    {
      "name": "Wheel_FR_Spin",
      "primitives": [
        {
          "attributes": {
            "POSITION": 60,
            "NORMAL": 61
          },
          "mode": 4,
          "material": 10,
          "indices": 14
        },
        {
          "attributes": {
            "POSITION": 66,
            "NORMAL": 67
          },
          "mode": 4,
          "material": 11,
          "indices": 23
        },
        {
          "attributes": {
            "POSITION": 68,
            "NORMAL": 69
          },
          "mode": 4,
          "material": 4,
          "indices": 22
        }
      ]
    }
  ],
  "nodes": [
    {
      "name": "Body",
      "mesh": 0
    },
    {
      "name": "Wheel_RL",
      "translation": [
        -0.8192770779132843,
        0.29717335425084457,
        1.2573064044117928
      ],
      "children": [
        2
      ]
    },
    {
      "name": "Wheel_RL_Spin",
      "mesh": 1
    },
    {
      "name": "Wheel_FL",
      "translation": [
        -0.7886516749858856,
        0.2971735793398693,
        -1.2552554532885551
      ],
      "children": [
        4
      ]
    },
    {
      "name": "Wheel_FL_Spin",
      "mesh": 2
    },
    {
      "name": "Wheel_RR",
      "translation": [
        0.8260457217693329,
        0.29717335425084457,
        1.2581356540322304
      ],
      "children": [
        6
      ]
    },
    {
      "name": "Wheel_RR_Spin",
      "mesh": 3
    },
    {
      "name": "Wheel_FR",
      "translation": [
        0.781883031129837,
        0.29717357957269996,
        -1.260186605155468
      ],
      "children": [
        8
      ]
    },
    {
      "name": "Wheel_FR_Spin",
      "mesh": 4
    }
  ],
  "scenes": [
    {
      "name": "Sketchfab_Scene",
      "nodes": [
        0,
        1,
        3,
        5,
        7
      ]
    }
  ],
  "scene": 0,
  "extensionsUsed": [
    "KHR_materials_specular"
  ]
}