{
  "asset": {
    "generator": "glTF-Transform v4.5.0",
    "version": "2.0",
    "extras": {
      "author": "M17pro (https://sketchfab.com/m17pro)",
      "license": "CC-BY-4.0 (http://creativecommons.org/licenses/by/4.0/)",
      "source": "https://sketchfab.com/3d-models/jaguar-e-type-lightweight-gt-8c53321301234400b70975fa6abb5e5d",
      "title": "Jaguar E-Type Lightweight GT"
    }
  },
  "accessors": [
    {
      "type": "VEC3",
      "componentType": 5126,
      "count": 43553,
      "max": [
        0.9272171854972839,
        1.2492507696151733,
        2.290506601333618
      ],
      "min": [
        -0.9092625379562378,
        -1.1583324521780014e-7,
        -2.1624934673309326
      ],
      "bufferView": 0,
      "byteOffset": 0
    },
    {
      "type": "VEC3",
      "componentType": 5126,
      "count": 43553,
      "bufferView": 0,
      "byteOffset": 12
    },
    {
      "type": "VEC2",
      "componentType": 5126,
      "count": 43553,
      "bufferView": 0,
      "byteOffset": 24
    },
    {
      "type": "SCALAR",
      "componentType": 5123,
      "count": 151362,
      "bufferView": 1,
      "byteOffset": 0
    },
    {
      "type": "SCALAR",
      "componentType": 5123,
      "count": 52167,
      "bufferView": 1,
      "byteOffset": 302724
    },
    {
      "type": "SCALAR",
      "componentType": 5123,
      "count": 2778,
      "bufferView": 1,
      "byteOffset": 407060
    },
    {
      "type": "SCALAR",
      "componentType": 5123,
      "count": 2304,
      "bufferView": 1,
      "byteOffset": 412616
    },
    {
      "type": "SCALAR",
      "componentType": 5123,
      "count": 96,
      "bufferView": 1,
      "byteOffset": 417224
    },
    {
      "type": "SCALAR",
      "componentType": 5123,
      "count": 6,
      "bufferView": 1,
      "byteOffset": 417416
    },
    {
      "type": "SCALAR",
      "componentType": 5123,
      "count": 12,
      "bufferView": 1,
      "byteOffset": 417428
    },
    {
      "type": "SCALAR",
      "componentType": 5123,
      "count": 36,
      "bufferView": 1,
      "byteOffset": 417452
    },
    {
      "type": "VEC3",
      "componentType": 5126,
      "count": 13915,
      "max": [
        0.8680116534233093,
        1.2429076433181763,
        1.3696386814117432
      ],
      "min": [
        -0.843273401260376,
        0.22333009541034698,
        -0.3847568929195404
      ],
      "bufferView": 2,
      "byteOffset": 0
    },
    {
      "type": "VEC3",
      "componentType": 5126,
      "count": 13915,
      "bufferView": 2,
      "byteOffset": 12
    },
    {
      "type": "VEC2",
      "componentType": 5126,
      "count": 13915,
      "bufferView": 2,
      "byteOffset": 24
    },
    {
      "type": "VEC3",
      "componentType": 5126,
      "count": 612,
      "max": [
        0.7174569964408875,
        1.1509273052215576,
        1.3314274549484253
      ],
      "min": [
        -0.694543182849884,
        0.8244648575782776,
        -0.22492623329162598
      ],
      "bufferView": 3,
      "byteOffset": 0
    },
    {
      "type": "VEC3",
      "componentType": 5126,
      "count": 612,
      "bufferView": 3,
      "byteOffset": 12
    },
    {
      "type": "VEC2",
      "componentType": 5126,
      "count": 612,
      "bufferView": 3,
      "byteOffset": 24
    },
    {
      "type": "VEC3",
      "componentType": 5126,
      "count": 476,
      "max": [
        0.8112577199935913,
        0.7494032979011536,
        2.2892472743988037
      ],
      "min": [
        -0.7933035492897034,
        0.5184493064880371,
        -2.0543253421783447
      ],
      "bufferView": 4,
      "byteOffset": 0
    },
    {
      "type": "VEC3",
      "componentType": 5126,
      "count": 476,
      "bufferView": 4,
      "byteOffset": 12
    },
    {
      "type": "VEC2",
      "componentType": 5126,
      "count": 476,
      "bufferView": 4,
      "byteOffset": 24
    },
    {
      "type": "VEC3",
      "componentType": 5126,
      "count": 34,
      "max": [
        0.7797235250473022,
        0.725514829158783,
        -1.7496713399887085
      ],
      "min": [
        -0.7587474584579468,
        0.5479862093925476,
        -1.7696213722229004
      ],
      "bufferView": 5,
      "byteOffset": 0
    },
    {
      "type": "VEC3",
      "componentType": 5126,
      "count": 34,
      "bufferView": 5,
      "byteOffset": 12
    },
    {
      "type": "VEC2",
      "componentType": 5126,
      "count": 34,
      "bufferView": 5,
      "byteOffset": 24
    },
    {
      "type": "VEC3",
      "componentType": 5126,
      "count": 4,
      "max": [
        -0.5803661346435547,
        0.6339024305343628,
        2.209350824356079
      ],
      "min": [
        -0.630561888217926,
        0.6053817868232727,
        2.173846960067749
      ],
      "bufferView": 6,
      "byteOffset": 0
    },
    {
      "type": "VEC3",
      "componentType": 5126,
      "count": 4,
      "bufferView": 6,
      "byteOffset": 12
    },
    {
      "type": "VEC2",
      "componentType": 5126,
      "count": 4,
      "bufferView": 6,
      "byteOffset": 24
    },
    {
      "type": "VEC3",
      "componentType": 5126,
      "count": 8,
      "max": [
        0.5754886865615845,
        0.6408570408821106,
        2.269747018814087
      ],
      "min": [
        -0.5507667660713196,
        0.5952794551849365,
        2.226381301879883
      ],
      "bufferView": 7,
      "byteOffset": 0
    },
    {
      "type": "VEC3",
      "componentType": 5126,
      "count": 8,
      "bufferView": 7,
      "byteOffset": 12
    },
    {
      "type": "VEC2",
      "componentType": 5126,
      "count": 8,
      "bufferView": 7,
      "byteOffset": 24
    },
    {
      "type": "VEC3",
      "componentType": 5126,
      "count": 4,
      "max": [
        0.6434264183044434,
        0.6349063515663147,
        2.216864585876465
      ],
      "min": [
        0.5948709845542908,
        0.6063857674598694,
        2.1791486740112305
      ],
      "bufferView": 8,
      "byteOffset": 0
    },
    {
      "type": "VEC3",
      "componentType": 5126,
      "count": 4,
      "bufferView": 8,
      "byteOffset": 12
    },
    {
      "type": "VEC2",
      "componentType": 5126,
      "count": 4,
      "bufferView": 8,
      "byteOffset": 24
    },
    {
      "type": "VEC3",
      "componentType": 5126,
      "count": 16,
      "max": [
        0.4739648997783661,
        0.6431007385253906,
        2.2826006412506104
      ],
      "min": [
        -0.4522966146469116,
        0.5903759002685547,
        2.273515462875366
      ],
      "bufferView": 9,
      "byteOffset": 0
    },
    {
      "type": "VEC3",
      "componentType": 5126,
      "count": 16,
      "bufferView": 9,
      "byteOffset": 12
    },
    {
      "type": "VEC2",
      "componentType": 5126,
      "count": 16,
      "bufferView": 9,
      "byteOffset": 24
    }
  ],
  "bufferViews": [
    {
      "buffer": 0,
      "byteOffset": 0,
      "byteLength": 1393696,
      "byteStride": 32,
      "target": 34962
    },
    {
      "buffer": 0,
      "byteOffset": 1393696,
      "byteLength": 417524,
      "target": 34963
    },
    {
      "buffer": 0,
      "byteOffset": 1811220,
      "byteLength": 445280,
      "byteStride": 32,
      "target": 34962
    },
    {
      "buffer": 0,
      "byteOffset": 2256500,
      "byteLength": 19584,
      "byteStride": 32,
      "target": 34962
    },
    {
      "buffer": 0,
      "byteOffset": 2276084,
      "byteLength": 15232,
      "byteStride": 32,
      "target": 34962
    },
    {
      "buffer": 0,
      "byteOffset": 2291316,
      "byteLength": 1088,
      "byteStride": 32,
      "target": 34962
    },
    {
      "buffer": 0,
      "byteOffset": 2292404,
      "byteLength": 128,
      "byteStride": 32,
      "target": 34962
    },
    {
      "buffer": 0,
      "byteOffset": 2292532,
      "byteLength": 256,
      "byteStride": 32,
      "target": 34962
    },
    {
      "buffer": 0,
      "byteOffset": 2292788,
      "byteLength": 128,
      "byteStride": 32,
      "target": 34962
    },
    {
      "buffer": 0,
      "byteOffset": 2292916,
      "byteLength": 512,
      "byteStride": 32,
      "target": 34962
    }
  ],
  "samplers": [
    {
      "magFilter": 9729,
      "minFilter": 9987,
      "wrapS": 10497,
      "wrapT": 10497
    }
  ],
  "textures": [
    {
      "source": 0,
      "sampler": 0
    },
    {
      "source": 2,
      "sampler": 0
    },
    {
      "source": 1,
      "sampler": 0
    },
    {
      "source": 3,
      "sampler": 0
    },
    {
      "source": 5,
      "sampler": 0
    },
    {
      "source": 4,
      "sampler": 0
    },
    {
      "source": 6,
      "sampler": 0
    },
    {
      "source": 7,
      "sampler": 0
    },
    {
      "source": 8,
      "sampler": 0
    },
    {
      "source": 9,
      "sampler": 0
    },
    {
      "source": 10,
      "sampler": 0
    }
  ],
  "images": [
    {
      "mimeType": "image/jpeg",
      "uri": "jaguar_etype_0.jpg"
    },
    {
      "mimeType": "image/jpeg",
      "uri": "jaguar_etype_1.jpg"
    },
    {
      "mimeType": "image/jpeg",
      "uri": "jaguar_etype_2.jpg"
    },
    {
      "mimeType": "image/jpeg",
      "uri": "jaguar_etype_3.jpg"
    },
    {
      "mimeType": "image/jpeg",
      "uri": "jaguar_etype_4.jpg"
    },
    {
      "mimeType": "image/jpeg",
      "uri": "jaguar_etype_5.jpg"
    },
    {
      "mimeType": "image/jpeg",
      "uri": "jaguar_etype_6.jpg"
    },
    {
      "mimeType": "image/jpeg",
      "uri": "jaguar_etype_7.jpg"
    },
    {
      "mimeType": "image/jpeg",
      "uri": "jaguar_etype_8.jpg"
    },
    {
      "mimeType": "image/jpeg",
      "uri": "jaguar_etype_9.jpg"
    },
    {
      "mimeType": "image/jpeg",
      "uri": "jaguar_etype_10.jpg"
    }
  ],
  "buffers": [
    {
      "uri": "jaguar_etype.bin",
      "byteLength": 2293428
    }
  ],
  "materials": [
    {
      "name": "paint:body",
      "doubleSided": true,
      "pbrMetallicRoughness": {
        "baseColorTexture": {
          "index": 0
        },
        "metallicRoughnessTexture": {
          "index": 2
        }
      },
      "normalTexture": {
        "index": 1
      }
    },
    {
      "name": "interior:Interior",
      "doubleSided": true,
      "pbrMetallicRoughness": {
        "baseColorTexture": {
          "index": 3
        },
        "metallicRoughnessTexture": {
          "index": 5
        }
      },
      "normalTexture": {
        "index": 4
      }
    },
    {
      "name": "glass:Window_Glass",
      "alphaMode": "BLEND",
      "pbrMetallicRoughness": {
        "baseColorFactor": [
          1,
          1,
          1,
          0.08380977922980336
        ],
        "roughnessFactor": 0.5,
        "baseColorTexture": {
          "index": 6
        },
        "metallicRoughnessTexture": {
          "index": 7
        }
      },
      "extensions": {
        "KHR_materials_specular": {
          "specularFactor": 0
        }
      }
    },
    {
      "name": "glass:Glass",
      "alphaMode": "BLEND",
      "doubleSided": true,
      "pbrMetallicRoughness": {
        "baseColorFactor": [
          0.3276200460801404,
          0.3276200460801404,
          0.3276200460801404,
          0.9676219965622752
        ],
        "roughnessFactor": 0,
        "baseColorTexture": {
          "index": 6
        },
        "metallicRoughnessTexture": {
          "index": 7
        }
      },
      "extensions": {
        "KHR_materials_specular": {
          "specularFactor": 0.30933427606636515
        }
      }
    },
    {
      "name": "light_misc:Lights",
      "doubleSided": true,
      "pbrMetallicRoughness": {
        "roughnessFactor": 0.5,
        "metallicFactor": 0,
        "baseColorTexture": {
          "index": 8
        }
      },
      "emissiveFactor": [
        1,
        1,
        1
      ],
      "emissiveTexture": {
        "index": 9
      },
      "normalTexture": {
        "index": 10
      },
      "extensions": {
        "KHR_materials_emissive_strength": {
          "emissiveStrength": 10
        }
      }
    },
    {
      "name": "light_signal:Left_Indicator",
      "doubleSided": true,
      "pbrMetallicRoughness": {
        "roughnessFactor": 0.5,
        "metallicFactor": 0,
        "baseColorTexture": {
          "index": 8
        }
      }
    },
    {
      "name": "light_tail:Rear_Light",
      "doubleSided": true,
      "pbrMetallicRoughness": {
        "roughnessFactor": 0.5,
        "metallicFactor": 0,
        "baseColorTexture": {
          "index": 8
        }
      },
      "emissiveFactor": [
        1,
        1,
        1
      ],
      "emissiveTexture": {
        "index": 9
      },
      "extensions": {
        "KHR_materials_emissive_strength": {
          "emissiveStrength": 3.702868427789494
        }
      }
    }
  ],
  "meshes": [
    {
      "name": "Body",
      "primitives": [
        {
          "attributes": {
            "POSITION": 0,
            "NORMAL": 1,
            "TEXCOORD_0": 2
          },
          "mode": 4,
          "material": 0,
          "indices": 3
        },
        {
          "attributes": {
            "POSITION": 11,
            "NORMAL": 12,
            "TEXCOORD_0": 13
          },
          "mode": 4,
          "material": 1,
          "indices": 4
        },
        {
          "attributes": {
            "POSITION": 14,
            "NORMAL": 15,
            "TEXCOORD_0": 16
          },
          "mode": 4,
          "material": 2,
          "indices": 5
        },
        {
          "attributes": {
            "POSITION": 17,
            "NORMAL": 18,
            "TEXCOORD_0": 19
          },
          "mode": 4,
          "material": 3,
          "indices": 6
        },
        {
          "attributes": {
            "POSITION": 20,
            "NORMAL": 21,
            "TEXCOORD_0": 22
          },
          "mode": 4,
          "material": 4,
          "indices": 7
        },
        {
          "attributes": {
            "POSITION": 23,
            "NORMAL": 24,
            "TEXCOORD_0": 25
          },
          "mode": 4,
          "material": 5,
          "indices": 8
        },
        {
          "attributes": {
            "POSITION": 26,
            "NORMAL": 27,
            "TEXCOORD_0": 28
          },
          "mode": 4,
          "material": 5,
          "indices": 9
        },
        {
          "attributes": {
            "POSITION": 29,
            "NORMAL": 30,
            "TEXCOORD_0": 31
          },
          "mode": 4,
          "material": 5,
          "indices": 8
        },
        {
          "attributes": {
            "POSITION": 32,
            "NORMAL": 33,
            "TEXCOORD_0": 34
          },
          "mode": 4,
          "material": 6,
          "indices": 10
        }
      ]
    }
  ],
  "nodes": [
    {
      "name": "Body",
      "mesh": 0
    }
  ],
  "scenes": [
    {
      "name": "Sketchfab_Scene",
      "nodes": [
        0
      ]
    }
  ],
  "scene": 0,
  "extensionsUsed": [
    "KHR_materials_emissive_strength",
    "KHR_materials_specular"
  ]
}