{
  "asset": {
    "generator": "glTF-Transform v4.5.0",
    "version": "2.0"
  },
  "accessors": [
    {
      "type": "VEC3",
      "componentType": 5126,
      "count": 1700,
      "max": [
        1.0132510662078857,
        2.46976637840271,
        3.2305586338043213
      ],
      "min": [
        -1.0132513046264648,
        0.2597455382347107,
        -2.8326256275177
      ],
      "bufferView": 0,
      "byteOffset": 0
    },
    {
      "type": "VEC3",
      "componentType": 5126,
      "count": 1700,
      "bufferView": 0,
      "byteOffset": 12
    },
    {
      "type": "VEC4",
      "componentType": 5126,
      "count": 1700,
      "bufferView": 0,
      "byteOffset": 24
    },
    {
      "type": "VEC2",
      "componentType": 5126,
      "count": 1700,
      "bufferView": 0,
      "byteOffset": 40
    },
    {
      "type": "SCALAR",
      "componentType": 5123,
      "count": 3981,
      "bufferView": 1,
      "byteOffset": 0
    },
    {
      "type": "SCALAR",
      "componentType": 5123,
      "count": 4095,
      "bufferView": 1,
      "byteOffset": 7964
    },
    {
      "type": "SCALAR",
      "componentType": 5123,
      "count": 69,
      "bufferView": 1,
      "byteOffset": 16156
    },
    {
      "type": "SCALAR",
      "componentType": 5123,
      "count": 282,
      "bufferView": 1,
      "byteOffset": 16296
    },
    {
      "type": "VEC3",
      "componentType": 5126,
      "count": 1774,
      "max": [
        0.9971678853034973,
        2.588010549545288,
        3.063838243484497
      ],
      "min": [
        -0.9990509152412415,
        0.2870427966117859,
        -2.7758235931396484
      ],
      "bufferView": 2,
      "byteOffset": 0
    },
    {
      "type": "VEC3",
      "componentType": 5126,
      "count": 1774,
      "bufferView": 2,
      "byteOffset": 12
    },
    {
      "type": "VEC4",
      "componentType": 5126,
      "count": 1774,
      "bufferView": 2,
      "byteOffset": 24
    },
    {
      "type": "VEC2",
      "componentType": 5126,
      "count": 1774,
      "bufferView": 2,
      "byteOffset": 40
    },
    {
      "type": "VEC3",
      "componentType": 5126,
      "count": 39,
      "max": [
        1.1480597257614136,
        2.061657428741455,
        -0.5663613080978394
      ],
      "min": [
        -0.9264122247695923,
        0.813541829586029,
        -2.7311222553253174
      ],
      "bufferView": 3,
      "byteOffset": 0
    },
    {
      "type": "VEC3",
      "componentType": 5126,
      "count": 39,
      "bufferView": 3,
      "byteOffset": 12
    },
    {
      "type": "VEC4",
      "componentType": 5126,
      "count": 39,
      "bufferView": 3,
      "byteOffset": 24
    },
    {
      "type": "VEC2",
      "componentType": 5126,
      "count": 39,
      "bufferView": 3,
      "byteOffset": 40
    },
    {
      "type": "VEC3",
      "componentType": 5126,
      "count": 128,
      "max": [
        0.9199802875518799,
        1.1073698997497559,
        -2.2839832305908203
      ],
      "min": [
        -0.9199805855751038,
        0.8077884316444397,
        -2.6953866481781006
      ],
      "bufferView": 4,
      "byteOffset": 0
    },
    {
      "type": "VEC3",
      "componentType": 5126,
      "count": 128,
      "bufferView": 4,
      "byteOffset": 12
    },
    {
      "type": "VEC4",
      "componentType": 5126,
      "count": 128,
      "bufferView": 4,
      "byteOffset": 24
    },
    {
      "type": "VEC2",
      "componentType": 5126,
      "count": 128,
      "bufferView": 4,
      "byteOffset": 40
    }
  ],
  "bufferViews": [
    {
      "buffer": 0,
      "byteOffset": 0,
      "byteLength": 81600,
      "byteStride": 48,
      "target": 34962
    },
    {
      "buffer": 0,
      "byteOffset": 81600,
      "byteLength": 16860,
      "target": 34963
    },
    {
      "buffer": 0,
      "byteOffset": 98460,
      "byteLength": 85152,
      "byteStride": 48,
      "target": 34962
    },
    {
      "buffer": 0,
      "byteOffset": 183612,
      "byteLength": 1872,
      "byteStride": 48,
      "target": 34962
    },
    {
      "buffer": 0,
      "byteOffset": 185484,
      "byteLength": 6144,
      "byteStride": 48,
      "target": 34962
    }
  ],
  "buffers": [
    {
      "uri": "mb_sprinter_lod1.bin",
      "byteLength": 191628
    }
  ],
  "materials": [
    {
      "name": "body:lite",
      "pbrMetallicRoughness": {
        "roughnessFactor": 0.5,
        "metallicFactor": 0
      }
    },
    {
      "name": "paint:lite",
      "pbrMetallicRoughness": {
        "roughnessFactor": 0.5,
        "metallicFactor": 0
      }
    },
    {
      "name": "glass:lite",
      "pbrMetallicRoughness": {
        "roughnessFactor": 0.05,
        "metallicFactor": 0
      }
    },
    {
      "name": "light_head:lite",
      "pbrMetallicRoughness": {
        "roughnessFactor": 0.5,
        "metallicFactor": 0
      }
    }
  ],
  "meshes": [
    {
      "name": "Body",
      "primitives": [
        {
          "attributes": {
            "POSITION": 0,
            "NORMAL": 1,
            "COLOR_0": 2,
            "TEXCOORD_1": 3
          },
          "mode": 4,
          "material": 0,
          "indices": 4
        },
        {
          "attributes": {
            "POSITION": 8,
            "NORMAL": 9,
            "COLOR_0": 10,
            "TEXCOORD_1": 11
          },
          "mode": 4,
          "material": 1,
          "indices": 5
        },
        {
          "attributes": {
            "POSITION": 12,
            "NORMAL": 13,
            "COLOR_0": 14,
            "TEXCOORD_1": 15
          },
          "mode": 4,
          "material": 2,
          "indices": 6
        },
        {
          "attributes": {
            "POSITION": 16,
            "NORMAL": 17,
            "COLOR_0": 18,
            "TEXCOORD_1": 19
          },
          "mode": 4,
          "material": 3,
          "indices": 7
        }
      ]
    }
  ],
  "nodes": [
    {
      "name": "Body",
      "mesh": 0
    }
  ],
  "scenes": [
    {
      "name": "Scene",
      "nodes": [
        0
      ]
    }
  ]
}