{
  "asset": {
    "generator": "glTF-Transform v4.5.0",
    "version": "2.0"
  },
  "accessors": [
    {
      "type": "VEC3",
      "componentType": 5126,
      "count": 4415,
      "max": [
        3.0572004318237305,
        6.5,
        3.1311752796173096
      ],
      "min": [
        -3.028548002243042,
        1.5992647409439087,
        -3.0721452236175537
      ],
      "bufferView": 0,
      "byteOffset": 0
    },
    {
      "type": "VEC3",
      "componentType": 5126,
      "count": 4415,
      "bufferView": 0,
      "byteOffset": 12
    },
    {
      "type": "VEC2",
      "componentType": 5126,
      "count": 4415,
      "bufferView": 0,
      "byteOffset": 24
    },
    {
      "type": "SCALAR",
      "componentType": 5123,
      "count": 5163,
      "bufferView": 1,
      "byteOffset": 0
    },
    {
      "type": "SCALAR",
      "componentType": 5123,
      "count": 1431,
      "bufferView": 1,
      "byteOffset": 10328
    },
    {
      "type": "VEC3",
      "componentType": 5126,
      "count": 607,
      "max": [
        2.505892753601074,
        6.2248969078063965,
        2.3427178859710693
      ],
      "min": [
        -2.20383882522583,
        0.003958848770707846,
        -2.0740907192230225
      ],
      "bufferView": 2,
      "byteOffset": 0
    },
    {
      "type": "VEC3",
      "componentType": 5126,
      "count": 607,
      "bufferView": 2,
      "byteOffset": 12
    },
    {
      "type": "VEC2",
      "componentType": 5126,
      "count": 607,
      "bufferView": 2,
      "byteOffset": 24
    }
  ],
  "bufferViews": [
    {
      "buffer": 0,
      "byteOffset": 0,
      "byteLength": 141280,
      "byteStride": 32,
      "target": 34962
    },
    {
      "buffer": 0,
      "byteOffset": 141280,
      "byteLength": 13192,
      "target": 34963
    },
    {
      "buffer": 0,
      "byteOffset": 154472,
      "byteLength": 19424,
      "byteStride": 32,
      "target": 34962
    }
  ],
  "samplers": [
    {
      "wrapS": 10497,
      "wrapT": 10497
    }
  ],
  "textures": [
    {
      "source": 0,
      "sampler": 0
    },
    {
      "source": 1,
      "sampler": 0
    },
    {
      "source": 2,
      "sampler": 0
    },
    {
      "source": 3,
      "sampler": 0
    }
  ],
  "images": [
    {
      "name": "tree_olive_0",
      "mimeType": "image/png",
      "uri": "tree_olive_0.png"
    },
    {
      "name": "tree_olive_1",
      "mimeType": "image/jpeg",
      "uri": "tree_olive_1.jpg"
    },
    {
      "name": "tree_olive_2",
      "mimeType": "image/jpeg",
      "uri": "tree_olive_2.jpg"
    },
    {
      "name": "tree_olive_3",
      "mimeType": "image/jpeg",
      "uri": "tree_olive_3.jpg"
    }
  ],
  "buffers": [
    {
      "name": "tree_olive.bin",
      "uri": "tree_olive.bin",
      "byteLength": 173896
    }
  ],
  "materials": [
    {
      "name": "M_Branch.004",
      "alphaMode": "MASK",
      "alphaCutoff": 0.4,
      "doubleSided": true,
      "pbrMetallicRoughness": {
        "metallicFactor": 0,
        "baseColorTexture": {
          "index": 0
        }
      },
      "normalTexture": {
        "index": 1
      }
    },
    {
      "name": "M_Bark.004",
      "doubleSided": true,
      "pbrMetallicRoughness": {
        "metallicFactor": 0,
        "baseColorTexture": {
          "index": 2
        }
      },
      "normalTexture": {
        "index": 3
      }
    }
  ],
  "meshes": [
    {
      "name": "tree_olive",
      "primitives": [
        {
          "attributes": {
            "POSITION": 0,
            "NORMAL": 1,
            "TEXCOORD_0": 2
          },
          "mode": 4,
          "material": 0,
          "indices": 3
        },
        {
          "attributes": {
            "POSITION": 5,
            "NORMAL": 6,
            "TEXCOORD_0": 7
          },
          "mode": 4,
          "material": 1,
          "indices": 4
        }
      ]
    }
  ],
  "nodes": [
    {
      "name": "tree_olive",
      "mesh": 0
    }
  ],
  "scenes": [
    {
      "name": "Scene",
      "nodes": [
        0
      ]
    }
  ]
}