{
  "asset": {
    "generator": "glTF-Transform v4.5.0",
    "version": "2.0"
  },
  "accessors": [
    {
      "type": "VEC3",
      "componentType": 5126,
      "count": 163,
      "max": [
        3.051565170288086,
        3.358212471008301,
        14.960927963256836
      ],
      "min": [
        -3.051565408706665,
        -0.1812138557434082,
        -14.571176528930664
      ],
      "bufferView": 0,
      "byteOffset": 0
    },
    {
      "type": "VEC3",
      "componentType": 5126,
      "count": 163,
      "bufferView": 0,
      "byteOffset": 12
    },
    {
      "type": "VEC2",
      "componentType": 5126,
      "count": 163,
      "bufferView": 0,
      "byteOffset": 24
    },
    {
      "type": "SCALAR",
      "componentType": 5123,
      "count": 570,
      "bufferView": 1,
      "byteOffset": 0
    }
  ],
  "bufferViews": [
    {
      "buffer": 0,
      "byteOffset": 0,
      "byteLength": 5216,
      "byteStride": 32,
      "target": 34962
    },
    {
      "buffer": 0,
      "byteOffset": 5216,
      "byteLength": 1140,
      "target": 34963
    }
  ],
  "samplers": [
    {
      "wrapS": 10497,
      "wrapT": 10497
    }
  ],
  "textures": [
    {
      "source": 0,
      "sampler": 0
    },
    {
      "source": 1,
      "sampler": 0
    }
  ],
  "images": [
    {
      "name": "yacht_far_0",
      "mimeType": "image/jpeg",
      "uri": "yacht_far_0.jpg"
    },
    {
      "name": "yacht_far_1",
      "mimeType": "image/jpeg",
      "uri": "yacht_far_1.jpg"
    }
  ],
  "buffers": [
    {
      "name": "yacht_far.bin",
      "uri": "yacht_far.bin",
      "byteLength": 6356
    }
  ],
  "materials": [
    {
      "name": "01_-_Default",
      "doubleSided": true,
      "pbrMetallicRoughness": {
        "metallicFactor": 0.5,
        "baseColorTexture": {
          "index": 0
        }
      },
      "normalTexture": {
        "index": 1
      }
    }
  ],
  "meshes": [
    {
      "name": "yacht_far",
      "primitives": [
        {
          "attributes": {
            "POSITION": 0,
            "NORMAL": 1,
            "TEXCOORD_0": 2
          },
          "mode": 4,
          "material": 0,
          "indices": 3
        }
      ]
    }
  ],
  "nodes": [
    {
      "name": "yacht_far",
      "mesh": 0
    }
  ],
  "scenes": [
    {
      "name": "Scene",
      "nodes": [
        0
      ]
    }
  ]
}