{
  "asset": {
    "generator": "glTF-Transform v4.5.0",
    "version": "2.0",
    "extras": {
      "author": "Luquita (https://sketchfab.com/speedmodel)",
      "license": "CC-BY-4.0 (http://creativecommons.org/licenses/by/4.0/)",
      "source": "https://sketchfab.com/3d-models/fiat-abarth-500-b59a403dfa1d40318c1126e658f87c19",
      "title": "Fiat Abarth 500"
    }
  },
  "accessors": [
    {
      "type": "VEC3",
      "componentType": 5126,
      "count": 760,
      "max": [
        0.6650145053863525,
        1.3306366205215454,
        1.5863020420074463
      ],
      "min": [
        -0.6650145053863525,
        0.6821197867393494,
        1.100301742553711
      ],
      "bufferView": 0,
      "byteOffset": 0
    },
    {
      "type": "VEC3",
      "componentType": 5126,
      "count": 760,
      "bufferView": 0,
      "byteOffset": 12
    },
    {
      "type": "VEC2",
      "componentType": 5126,
      "count": 760,
      "bufferView": 0,
      "byteOffset": 24
    },
    {
      "type": "SCALAR",
      "componentType": 5123,
      "count": 2388,
      "bufferView": 1,
      "byteOffset": 0
    },
    {
      "type": "SCALAR",
      "componentType": 5123,
      "count": 1386,
      "bufferView": 1,
      "byteOffset": 4776
    },
    {
      "type": "SCALAR",
      "componentType": 5123,
      "count": 5838,
      "bufferView": 1,
      "byteOffset": 7548
    },
    {
      "type": "SCALAR",
      "componentType": 5123,
      "count": 17556,
      "bufferView": 1,
      "byteOffset": 19224
    },
    {
      "type": "SCALAR",
      "componentType": 5123,
      "count": 288,
      "bufferView": 1,
      "byteOffset": 54336
    },
    {
      "type": "SCALAR",
      "componentType": 5123,
      "count": 576,
      "bufferView": 1,
      "byteOffset": 54912
    },
    {
      "type": "SCALAR",
      "componentType": 5123,
      "count": 41337,
      "bufferView": 1,
      "byteOffset": 56064
    },
    {
      "type": "SCALAR",
      "componentType": 5123,
      "count": 4641,
      "bufferView": 1,
      "byteOffset": 138740
    },
    {
      "type": "SCALAR",
      "componentType": 5123,
      "count": 771,
      "bufferView": 1,
      "byteOffset": 148024
    },
    {
      "type": "SCALAR",
      "componentType": 5123,
      "count": 4248,
      "bufferView": 1,
      "byteOffset": 149568
    },
    {
      "type": "SCALAR",
      "componentType": 5123,
      "count": 1812,
      "bufferView": 1,
      "byteOffset": 158064
    },
    {
      "type": "SCALAR",
      "componentType": 5123,
      "count": 2616,
      "bufferView": 1,
      "byteOffset": 161688
    },
    {
      "type": "SCALAR",
      "componentType": 5123,
      "count": 72,
      "bufferView": 1,
      "byteOffset": 166920
    },
    {
      "type": "SCALAR",
      "componentType": 5123,
      "count": 72,
      "bufferView": 1,
      "byteOffset": 167064
    },
    {
      "type": "SCALAR",
      "componentType": 5123,
      "count": 1386,
      "bufferView": 1,
      "byteOffset": 167208
    },
    {
      "type": "SCALAR",
      "componentType": 5123,
      "count": 408,
      "bufferView": 1,
      "byteOffset": 169980
    },
    {
      "type": "SCALAR",
      "componentType": 5123,
      "count": 288,
      "bufferView": 1,
      "byteOffset": 170796
    },
    {
      "type": "SCALAR",
      "componentType": 5123,
      "count": 29985,
      "bufferView": 1,
      "byteOffset": 171372
    },
    {
      "type": "SCALAR",
      "componentType": 5123,
      "count": 255,
      "bufferView": 1,
      "byteOffset": 231344
    },
    {
      "type": "SCALAR",
      "componentType": 5123,
      "count": 432,
      "bufferView": 1,
      "byteOffset": 231856
    },
    {
      "type": "SCALAR",
      "componentType": 5123,
      "count": 4839,
      "bufferView": 1,
      "byteOffset": 232720
    },
    {
      "type": "SCALAR",
      "componentType": 5123,
      "count": 786,
      "bufferView": 1,
      "byteOffset": 242400
    },
    {
      "type": "SCALAR",
      "componentType": 5123,
      "count": 84,
      "bufferView": 1,
      "byteOffset": 243972
    },
    {
      "type": "SCALAR",
      "componentType": 5123,
      "count": 21309,
      "bufferView": 1,
      "byteOffset": 244140
    },
    {
      "type": "SCALAR",
      "componentType": 5123,
      "count": 1272,
      "bufferView": 1,
      "byteOffset": 286760
    },
    {
      "type": "SCALAR",
      "componentType": 5123,
      "count": 192,
      "bufferView": 1,
      "byteOffset": 289304
    },
    {
      "type": "SCALAR",
      "componentType": 5123,
      "count": 1533,
      "bufferView": 1,
      "byteOffset": 289688
    },
    {
      "type": "SCALAR",
      "componentType": 5123,
      "count": 216,
      "bufferView": 1,
      "byteOffset": 292756
    },
    {
      "type": "SCALAR",
      "componentType": 5123,
      "count": 288,
      "bufferView": 1,
      "byteOffset": 293188
    },
    {
      "type": "SCALAR",
      "componentType": 5123,
      "count": 6072,
      "bufferView": 1,
      "byteOffset": 293764
    },
    {
      "type": "SCALAR",
      "componentType": 5123,
      "count": 441,
      "bufferView": 1,
      "byteOffset": 305908
    },
    {
      "type": "SCALAR",
      "componentType": 5123,
      "count": 6330,
      "bufferView": 1,
      "byteOffset": 306792
    },
    {
      "type": "SCALAR",
      "componentType": 5123,
      "count": 558,
      "bufferView": 1,
      "byteOffset": 319452
    },
    {
      "type": "SCALAR",
      "componentType": 5123,
      "count": 96,
      "bufferView": 1,
      "byteOffset": 320568
    },
    {
      "type": "SCALAR",
      "componentType": 5123,
      "count": 384,
      "bufferView": 1,
      "byteOffset": 320760
    },
    {
      "type": "SCALAR",
      "componentType": 5123,
      "count": 216,
      "bufferView": 1,
      "byteOffset": 321528
    },
    {
      "type": "SCALAR",
      "componentType": 5123,
      "count": 1128,
      "bufferView": 1,
      "byteOffset": 321960
    },
    {
      "type": "SCALAR",
      "componentType": 5123,
      "count": 1062,
      "bufferView": 1,
      "byteOffset": 324216
    },
    {
      "type": "SCALAR",
      "componentType": 5123,
      "count": 66,
      "bufferView": 1,
      "byteOffset": 326340
    },
    {
      "type": "SCALAR",
      "componentType": 5123,
      "count": 60,
      "bufferView": 1,
      "byteOffset": 326472
    },
    {
      "type": "SCALAR",
      "componentType": 5123,
      "count": 540,
      "bufferView": 1,
      "byteOffset": 326592
    },
    {
      "type": "SCALAR",
      "componentType": 5123,
      "count": 234,
      "bufferView": 1,
      "byteOffset": 327672
    },
    {
      "type": "SCALAR",
      "componentType": 5123,
      "count": 48,
      "bufferView": 1,
      "byteOffset": 328140
    },
    {
      "type": "SCALAR",
      "componentType": 5123,
      "count": 288,
      "bufferView": 1,
      "byteOffset": 328236
    },
    {
      "type": "SCALAR",
      "componentType": 5123,
      "count": 582,
      "bufferView": 1,
      "byteOffset": 328812
    },
    {
      "type": "SCALAR",
      "componentType": 5123,
      "count": 324,
      "bufferView": 1,
      "byteOffset": 329976
    },
    {
      "type": "SCALAR",
      "componentType": 5123,
      "count": 1836,
      "bufferView": 1,
      "byteOffset": 330624
    },
    {
      "type": "SCALAR",
      "componentType": 5123,
      "count": 666,
      "bufferView": 1,
      "byteOffset": 334296
    },
    {
      "type": "SCALAR",
      "componentType": 5123,
      "count": 198,
      "bufferView": 1,
      "byteOffset": 335628
    },
    {
      "type": "SCALAR",
      "componentType": 5123,
      "count": 1329,
      "bufferView": 1,
      "byteOffset": 336024
    },
    {
      "type": "SCALAR",
      "componentType": 5123,
      "count": 279,
      "bufferView": 1,
      "byteOffset": 338684
    },
    {
      "type": "SCALAR",
      "componentType": 5123,
      "count": 600,
      "bufferView": 1,
      "byteOffset": 339244
    },
    {
      "type": "SCALAR",
      "componentType": 5123,
      "count": 228,
      "bufferView": 1,
      "byteOffset": 340444
    },
    {
      "type": "SCALAR",
      "componentType": 5123,
      "count": 174,
      "bufferView": 1,
      "byteOffset": 340900
    },
    {
      "type": "SCALAR",
      "componentType": 5123,
      "count": 24,
      "bufferView": 1,
      "byteOffset": 341248
    },
    {
      "type": "SCALAR",
      "componentType": 5123,
      "count": 576,
      "bufferView": 1,
      "byteOffset": 341296
    },
    {
      "type": "SCALAR",
      "componentType": 5123,
      "count": 1386,
      "bufferView": 1,
      "byteOffset": 342448
    },
    {
      "type": "SCALAR",
      "componentType": 5123,
      "count": 5838,
      "bufferView": 1,
      "byteOffset": 345220
    },
    {
      "type": "SCALAR",
      "componentType": 5123,
      "count": 1110,
      "bufferView": 1,
      "byteOffset": 356896
    },
    {
      "type": "SCALAR",
      "componentType": 5123,
      "count": 1386,
      "bufferView": 1,
      "byteOffset": 359116
    },
    {
      "type": "SCALAR",
      "componentType": 5123,
      "count": 276,
      "bufferView": 1,
      "byteOffset": 361888
    },
    {
      "type": "SCALAR",
      "componentType": 5123,
      "count": 408,
      "bufferView": 1,
      "byteOffset": 362440
    },
    {
      "type": "SCALAR",
      "componentType": 5123,
      "count": 876,
      "bufferView": 1,
      "byteOffset": 363256
    },
    {
      "type": "SCALAR",
      "componentType": 5123,
      "count": 804,
      "bufferView": 1,
      "byteOffset": 365008
    },
    {
      "type": "SCALAR",
      "componentType": 5123,
      "count": 192,
      "bufferView": 1,
      "byteOffset": 366616
    },
    {
      "type": "VEC3",
      "componentType": 5126,
      "count": 382,
      "max": [
        0.10324713587760925,
        0.2967522144317627,
        0.2967522442340851
      ],
      "min": [
        -0.10324713587760925,
        -0.2967522442340851,
        -0.29675230383872986
      ],
      "bufferView": 2,
      "byteOffset": 0
    },
    {
      "type": "VEC3",
      "componentType": 5126,
      "count": 382,
      "bufferView": 2,
      "byteOffset": 12
    },
    {
      "type": "VEC2",
      "componentType": 5126,
      "count": 382,
      "bufferView": 2,
      "byteOffset": 24
    },
    {
      "type": "VEC3",
      "componentType": 5126,
      "count": 1470,
      "max": [
        0.1093389093875885,
        0.24043291807174683,
        0.23994198441505432
      ],
      "min": [
        -0.10324713587760925,
        -0.2411138415336609,
        -0.2392636239528656
      ],
      "bufferView": 3,
      "byteOffset": 0
    },
    {
      "type": "VEC3",
      "componentType": 5126,
      "count": 1470,
      "bufferView": 3,
      "byteOffset": 12
    },
    {
      "type": "VEC2",
      "componentType": 5126,
      "count": 1470,
      "bufferView": 3,
      "byteOffset": 24
    },
    {
      "type": "VEC3",
      "componentType": 5126,
      "count": 4171,
      "max": [
        0.9425122141838074,
        1.842790961265564,
        1.7265127897262573
      ],
      "min": [
        -0.9426195621490479,
        0.17163950204849243,
        -1.9302924871444702
      ],
      "bufferView": 4,
      "byteOffset": 0
    },
    {
      "type": "VEC3",
      "componentType": 5126,
      "count": 4171,
      "bufferView": 4,
      "byteOffset": 12
    },
    {
      "type": "VEC2",
      "componentType": 5126,
      "count": 4171,
      "bufferView": 4,
      "byteOffset": 24
    },
    {
      "type": "VEC3",
      "componentType": 5126,
      "count": 78,
      "max": [
        0.08807054162025452,
        0.12718535959720612,
        -0.08285387605428696
      ],
      "min": [
        -0.04133012890815735,
        -0.12479790300130844,
        -0.16372188925743103
      ],
      "bufferView": 5,
      "byteOffset": 0
    },
    {
      "type": "VEC3",
      "componentType": 5126,
      "count": 78,
      "bufferView": 5,
      "byteOffset": 12
    },
    {
      "type": "VEC2",
      "componentType": 5126,
      "count": 78,
      "bufferView": 5,
      "byteOffset": 24
    },
    {
      "type": "VEC3",
      "componentType": 5126,
      "count": 280,
      "max": [
        0.18071308732032776,
        0.1598927229642868,
        0.1318240463733673
      ],
      "min": [
        0.019463032484054565,
        -0.10931315273046494,
        -0.10560151189565659
      ],
      "bufferView": 6,
      "byteOffset": 0
    },
    {
      "type": "VEC3",
      "componentType": 5126,
      "count": 280,
      "bufferView": 6,
      "byteOffset": 12
    },
    {
      "type": "VEC2",
      "componentType": 5126,
      "count": 280,
      "bufferView": 6,
      "byteOffset": 24
    },
    {
      "type": "VEC3",
      "componentType": 5126,
      "count": 138,
      "max": [
        -0.008580893278121948,
        0.15659137070178986,
        0.15546640753746033
      ],
      "min": [
        -0.0174618661403656,
        -0.1556548774242401,
        -0.1554703414440155
      ],
      "bufferView": 7,
      "byteOffset": 0
    },
    {
      "type": "VEC3",
      "componentType": 5126,
      "count": 8702,
      "max": [
        0.9425122141838074,
        1.4838966131210327,
        1.7267075777053833
      ],
      "min": [
        -0.9425122141838074,
        0.1565258502960205,
        -1.9046540260314941
      ],
      "bufferView": 8,
      "byteOffset": 0
    },
    {
      "type": "VEC3",
      "componentType": 5126,
      "count": 8702,
      "bufferView": 8,
      "byteOffset": 12
    },
    {
      "type": "VEC2",
      "componentType": 5126,
      "count": 8702,
      "bufferView": 8,
      "byteOffset": 24
    },
    {
      "type": "VEC3",
      "componentType": 5126,
      "count": 1720,
      "max": [
        0.8012712597846985,
        0.9552288055419922,
        1.6825944185256958
      ],
      "min": [
        -0.8012712597846985,
        0.1565258502960205,
        -1.9214709997177124
      ],
      "bufferView": 9,
      "byteOffset": 0
    },
    {
      "type": "VEC3",
      "componentType": 5126,
      "count": 1720,
      "bufferView": 9,
      "byteOffset": 12
    },
    {
      "type": "VEC2",
      "componentType": 5126,
      "count": 1720,
      "bufferView": 9,
      "byteOffset": 24
    },
    {
      "type": "VEC3",
      "componentType": 5126,
      "count": 269,
      "max": [
        0.7417767643928528,
        0.43479466438293457,
        1.717297911643982
      ],
      "min": [
        -0.7417767643928528,
        0.24497252702713013,
        -1.8772920370101929
      ],
      "bufferView": 10,
      "byteOffset": 0
    },
    {
      "type": "VEC3",
      "componentType": 5126,
      "count": 269,
      "bufferView": 10,
      "byteOffset": 12
    },
    {
      "type": "VEC2",
      "componentType": 5126,
      "count": 269,
      "bufferView": 10,
      "byteOffset": 24
    },
    {
      "type": "VEC3",
      "componentType": 5126,
      "count": 1132,
      "max": [
        0.6859053373336792,
        0.8113600015640259,
        -1.3775358200073242
      ],
      "min": [
        -0.6859053373336792,
        0.3209454119205475,
        -1.8692187070846558
      ],
      "bufferView": 11,
      "byteOffset": 0
    },
    {
      "type": "VEC3",
      "componentType": 5126,
      "count": 1132,
      "bufferView": 11,
      "byteOffset": 12
    },
    {
      "type": "VEC2",
      "componentType": 5126,
      "count": 1132,
      "bufferView": 11,
      "byteOffset": 24
    },
    {
      "type": "VEC3",
      "componentType": 5126,
      "count": 376,
      "max": [
        0.6859053373336792,
        0.8113600015640259,
        -1.5132604837417603
      ],
      "min": [
        -0.6859053373336792,
        0.499858558177948,
        -1.7357231378555298
      ],
      "bufferView": 12,
      "byteOffset": 0
    },
    {
      "type": "VEC3",
      "componentType": 5126,
      "count": 376,
      "bufferView": 12,
      "byteOffset": 12
    },
    {
      "type": "VEC2",
      "componentType": 5126,
      "count": 376,
      "bufferView": 12,
      "byteOffset": 24
    },
    {
      "type": "VEC3",
      "componentType": 5126,
      "count": 650,
      "max": [
        0.8117740750312805,
        1.0306414365768433,
        1.6075091361999512
      ],
      "min": [
        -0.8117740750312805,
        0.5772060751914978,
        -1.851477861404419
      ],
      "bufferView": 13,
      "byteOffset": 0
    },
    {
      "type": "VEC3",
      "componentType": 5126,
      "count": 650,
      "bufferView": 13,
      "byteOffset": 12
    },
    {
      "type": "VEC2",
      "componentType": 5126,
      "count": 650,
      "bufferView": 13,
      "byteOffset": 24
    },
    {
      "type": "VEC3",
      "componentType": 5126,
      "count": 25,
      "max": [
        -0.1490732729434967,
        0.2581084072589874,
        0.027175866067409515
      ],
      "min": [
        -0.1931268274784088,
        -0.07816256582736969,
        -0.2766748368740082
      ],
      "bufferView": 14,
      "byteOffset": 0
    },
    {
      "type": "VEC3",
      "componentType": 5126,
      "count": 25,
      "bufferView": 14,
      "byteOffset": 12
    },
    {
      "type": "VEC2",
      "componentType": 5126,
      "count": 25,
      "bufferView": 14,
      "byteOffset": 24
    },
    {
      "type": "VEC3",
      "componentType": 5126,
      "count": 25,
      "max": [
        0.19377079606056213,
        0.2581084072589874,
        0.027175866067409515
      ],
      "min": [
        0.14971724152565002,
        -0.07816256582736969,
        -0.2766748368740082
      ],
      "bufferView": 15,
      "byteOffset": 0
    },
    {
      "type": "VEC3",
      "componentType": 5126,
      "count": 25,
      "bufferView": 15,
      "byteOffset": 12
    },
    {
      "type": "VEC2",
      "componentType": 5126,
      "count": 25,
      "bufferView": 15,
      "byteOffset": 24
    },
    {
      "type": "VEC3",
      "componentType": 5126,
      "count": 78,
      "max": [
        0.08807054162025452,
        0.12721817195415497,
        -0.10724488645792007
      ],
      "min": [
        -0.04133012890815735,
        -0.12476508319377899,
        -0.18811294436454773
      ],
      "bufferView": 16,
      "byteOffset": 0
    },
    {
      "type": "VEC3",
      "componentType": 5126,
      "count": 382,
      "max": [
        0.10324713587760925,
        0.2967527210712433,
        0.2967526614665985
      ],
      "min": [
        -0.10324713587760925,
        -0.2967527210712433,
        -0.2967526614665985
      ],
      "bufferView": 17,
      "byteOffset": 0
    },
    {
      "type": "VEC3",
      "componentType": 5126,
      "count": 382,
      "bufferView": 17,
      "byteOffset": 12
    },
    {
      "type": "VEC2",
      "componentType": 5126,
      "count": 382,
      "bufferView": 17,
      "byteOffset": 24
    },
    {
      "type": "VEC3",
      "componentType": 5126,
      "count": 1470,
      "max": [
        0.1093389093875885,
        0.24046994745731354,
        0.24000033736228943
      ],
      "min": [
        -0.10324713587760925,
        -0.24107681214809418,
        -0.23920509219169617
      ],
      "bufferView": 18,
      "byteOffset": 0
    },
    {
      "type": "VEC3",
      "componentType": 5126,
      "count": 138,
      "max": [
        0.0174618661403656,
        0.15655435621738434,
        0.15540841221809387
      ],
      "min": [
        0.008580893278121948,
        -0.15569189190864563,
        -0.15552839636802673
      ],
      "bufferView": 19,
      "byteOffset": 0
    },
    {
      "type": "VEC3",
      "componentType": 5126,
      "count": 138,
      "bufferView": 19,
      "byteOffset": 12
    },
    {
      "type": "VEC2",
      "componentType": 5126,
      "count": 138,
      "bufferView": 19,
      "byteOffset": 24
    },
    {
      "type": "VEC3",
      "componentType": 5126,
      "count": 78,
      "max": [
        0.04133006930351257,
        0.12721817195415497,
        -0.10724488645792007
      ],
      "min": [
        -0.08807060122489929,
        -0.12476508319377899,
        -0.18811294436454773
      ],
      "bufferView": 20,
      "byteOffset": 0
    },
    {
      "type": "VEC3",
      "componentType": 5126,
      "count": 78,
      "bufferView": 20,
      "byteOffset": 12
    },
    {
      "type": "VEC2",
      "componentType": 5126,
      "count": 78,
      "bufferView": 20,
      "byteOffset": 24
    },
    {
      "type": "VEC3",
      "componentType": 5126,
      "count": 7370,
      "max": [
        0.6776151657104492,
        1.4183542728424072,
        1.300895094871521
      ],
      "min": [
        -0.6776151657104492,
        0.3239184021949768,
        -1.0074208974838257
      ],
      "bufferView": 21,
      "byteOffset": 0
    },
    {
      "type": "VEC3",
      "componentType": 5126,
      "count": 7370,
      "bufferView": 21,
      "byteOffset": 12
    },
    {
      "type": "VEC2",
      "componentType": 5126,
      "count": 7370,
      "bufferView": 21,
      "byteOffset": 24
    },
    {
      "type": "VEC3",
      "componentType": 5126,
      "count": 58,
      "max": [
        -0.14868848025798798,
        0.48998016119003296,
        -0.5802765488624573
      ],
      "min": [
        -0.5825137495994568,
        0.29540854692459106,
        -0.8004537224769592
      ],
      "bufferView": 22,
      "byteOffset": 0
    },
    {
      "type": "VEC3",
      "componentType": 5126,
      "count": 58,
      "bufferView": 22,
      "byteOffset": 12
    },
    {
      "type": "VEC2",
      "componentType": 5126,
      "count": 58,
      "bufferView": 22,
      "byteOffset": 24
    },
    {
      "type": "VEC3",
      "componentType": 5126,
      "count": 108,
      "max": [
        -0.2674098014831543,
        1.012579083442688,
        -0.2495937943458557
      ],
      "min": [
        -0.39386075735092163,
        0.804396390914917,
        -0.32683229446411133
      ],
      "bufferView": 23,
      "byteOffset": 0
    },
    {
      "type": "VEC3",
      "componentType": 5126,
      "count": 108,
      "bufferView": 23,
      "byteOffset": 12
    },
    {
      "type": "VEC2",
      "componentType": 5126,
      "count": 108,
      "bufferView": 23,
      "byteOffset": 24
    },
    {
      "type": "VEC3",
      "componentType": 5126,
      "count": 1185,
      "max": [
        0.7139764428138733,
        1.1560999155044556,
        1.158339500427246
      ],
      "min": [
        -0.7139764428138733,
        0.48739033937454224,
        -0.6277843117713928
      ],
      "bufferView": 24,
      "byteOffset": 0
    },
    {
      "type": "VEC3",
      "componentType": 5126,
      "count": 1185,
      "bufferView": 24,
      "byteOffset": 12
    },
    {
      "type": "VEC3",
      "componentType": 5126,
      "count": 159,
      "max": [
        -0.1799379140138626,
        0.9929776787757874,
        -0.2949840724468231
      ],
      "min": [
        -0.48133260011672974,
        0.9042806625366211,
        -0.3381330668926239
      ],
      "bufferView": 25,
      "byteOffset": 0
    },
    {
      "type": "VEC3",
      "componentType": 5126,
      "count": 159,
      "bufferView": 25,
      "byteOffset": 12
    },
    {
      "type": "VEC3",
      "componentType": 5126,
      "count": 29,
      "max": [
        -0.23052184283733368,
        0.9724216461181641,
        -0.2679077088832855
      ],
      "min": [
        -0.43074870109558105,
        0.8744360208511353,
        -0.314790815114975
      ],
      "bufferView": 26,
      "byteOffset": 0
    },
    {
      "type": "VEC3",
      "componentType": 5126,
      "count": 29,
      "bufferView": 26,
      "byteOffset": 12
    },
    {
      "type": "VEC2",
      "componentType": 5126,
      "count": 29,
      "bufferView": 26,
      "byteOffset": 24
    },
    {
      "type": "VEC3",
      "componentType": 5126,
      "count": 4584,
      "max": [
        0.6950799822807312,
        1.3845458030700684,
        1.3567057847976685
      ],
      "min": [
        -0.6950799822807312,
        0.29966604709625244,
        -1.0440685749053955
      ],
      "bufferView": 27,
      "byteOffset": 0
    },
    {
      "type": "VEC3",
      "componentType": 5126,
      "count": 4584,
      "bufferView": 27,
      "byteOffset": 12
    },
    {
      "type": "VEC2",
      "componentType": 5126,
      "count": 4584,
      "bufferView": 27,
      "byteOffset": 24
    },
    {
      "type": "VEC3",
      "componentType": 5126,
      "count": 266,
      "max": [
        -0.14788095653057098,
        1.051632285118103,
        -0.2642497718334198
      ],
      "min": [
        -0.5133895874023438,
        0.8162497282028198,
        -0.3983488976955414
      ],
      "bufferView": 28,
      "byteOffset": 0
    },
    {
      "type": "VEC3",
      "componentType": 5126,
      "count": 266,
      "bufferView": 28,
      "byteOffset": 12
    },
    {
      "type": "VEC2",
      "componentType": 5126,
      "count": 266,
      "bufferView": 28,
      "byteOffset": 24
    },
    {
      "type": "VEC3",
      "componentType": 5126,
      "count": 38,
      "max": [
        -0.3046412765979767,
        0.9758954644203186,
        -0.2940465807914734
      ],
      "min": [
        -0.35662925243377686,
        0.9291577339172363,
        -0.31860947608947754
      ],
      "bufferView": 29,
      "byteOffset": 0
    },
    {
      "type": "VEC3",
      "componentType": 5126,
      "count": 38,
      "bufferView": 29,
      "byteOffset": 12
    },
    {
      "type": "VEC2",
      "componentType": 5126,
      "count": 38,
      "bufferView": 29,
      "byteOffset": 24
    },
    {
      "type": "VEC3",
      "componentType": 5126,
      "count": 556,
      "max": [
        0.5955819487571716,
        1.1302999258041382,
        0.3914249837398529
      ],
      "min": [
        -0.5955819487571716,
        0.49427738785743713,
        -0.6069932579994202
      ],
      "bufferView": 30,
      "byteOffset": 0
    },
    {
      "type": "VEC3",
      "componentType": 5126,
      "count": 556,
      "bufferView": 30,
      "byteOffset": 12
    },
    {
      "type": "VEC2",
      "componentType": 5126,
      "count": 556,
      "bufferView": 30,
      "byteOffset": 24
    },
    {
      "type": "VEC3",
      "componentType": 5126,
      "count": 60,
      "max": [
        0.6951650381088257,
        1.368050456047058,
        0.35726842284202576
      ],
      "min": [
        -0.6951650381088257,
        0.9826305508613586,
        -0.6109288334846497
      ],
      "bufferView": 31,
      "byteOffset": 0
    },
    {
      "type": "VEC3",
      "componentType": 5126,
      "count": 60,
      "bufferView": 31,
      "byteOffset": 12
    },
    {
      "type": "VEC2",
      "componentType": 5126,
      "count": 60,
      "bufferView": 31,
      "byteOffset": 24
    },
    {
      "type": "VEC3",
      "componentType": 5126,
      "count": 100,
      "max": [
        0.6090008020401001,
        1.1146384477615356,
        -0.40500831604003906
      ],
      "min": [
        -0.6090008020401001,
        0.3967859447002411,
        -0.7221618890762329
      ],
      "bufferView": 32,
      "byteOffset": 0
    },
    {
      "type": "VEC3",
      "componentType": 5126,
      "count": 100,
      "bufferView": 32,
      "byteOffset": 12
    },
    {
      "type": "VEC2",
      "componentType": 5126,
      "count": 100,
      "bufferView": 32,
      "byteOffset": 24
    },
    {
      "type": "VEC3",
      "componentType": 5126,
      "count": 1278,
      "max": [
        0.690620481967926,
        1.3948261737823486,
        0.43643835186958313
      ],
      "min": [
        -0.690620481967926,
        0.3044440746307373,
        -0.6759341359138489
      ],
      "bufferView": 33,
      "byteOffset": 0
    },
    {
      "type": "VEC3",
      "componentType": 5126,
      "count": 1278,
      "bufferView": 33,
      "byteOffset": 12
    },
    {
      "type": "VEC2",
      "componentType": 5126,
      "count": 1278,
      "bufferView": 33,
      "byteOffset": 24
    },
    {
      "type": "VEC3",
      "componentType": 5126,
      "count": 175,
      "max": [
        0.596461832523346,
        0.8913489580154419,
        0.9100998044013977
      ],
      "min": [
        -0.596461832523346,
        0.48899033665657043,
        -0.6932848691940308
      ],
      "bufferView": 34,
      "byteOffset": 0
    },
    {
      "type": "VEC3",
      "componentType": 5126,
      "count": 175,
      "bufferView": 34,
      "byteOffset": 12
    },
    {
      "type": "VEC2",
      "componentType": 5126,
      "count": 175,
      "bufferView": 34,
      "byteOffset": 24
    },
    {
      "type": "VEC3",
      "componentType": 5126,
      "count": 1466,
      "max": [
        0.6713520884513855,
        1.0986714363098145,
        0.39719006419181824
      ],
      "min": [
        -0.6713520884513855,
        0.4898773729801178,
        -0.4477807283401489
      ],
      "bufferView": 35,
      "byteOffset": 0
    },
    {
      "type": "VEC3",
      "componentType": 5126,
      "count": 1466,
      "bufferView": 35,
      "byteOffset": 12
    },
    {
      "type": "VEC2",
      "componentType": 5126,
      "count": 1466,
      "bufferView": 35,
      "byteOffset": 24
    },
    {
      "type": "VEC3",
      "componentType": 5126,
      "count": 222,
      "max": [
        0.07671353965997696,
        1.3777307271957397,
        -0.26831191778182983
      ],
      "min": [
        -0.4898777902126312,
        0.9251578450202942,
        -0.6485446691513062
      ],
      "bufferView": 36,
      "byteOffset": 0
    },
    {
      "type": "VEC3",
      "componentType": 5126,
      "count": 222,
      "bufferView": 36,
      "byteOffset": 12
    },
    {
      "type": "VEC2",
      "componentType": 5126,
      "count": 222,
      "bufferView": 36,
      "byteOffset": 24
    },
    {
      "type": "VEC3",
      "componentType": 5126,
      "count": 25,
      "max": [
        0.020000141113996506,
        0.8764358162879944,
        -0.2603589594364166
      ],
      "min": [
        -0.014643162488937378,
        0.8615104556083679,
        -0.29162755608558655
      ],
      "bufferView": 37,
      "byteOffset": 0
    },
    {
      "type": "VEC3",
      "componentType": 5126,
      "count": 25,
      "bufferView": 37,
      "byteOffset": 12
    },
    {
      "type": "VEC2",
      "componentType": 5126,
      "count": 25,
      "bufferView": 37,
      "byteOffset": 24
    },
    {
      "type": "VEC3",
      "componentType": 5126,
      "count": 76,
      "max": [
        0.07036294043064117,
        0.7832223176956177,
        -0.28986966609954834
      ],
      "min": [
        -0.07036294043064117,
        0.6966618895530701,
        -0.4332890510559082
      ],
      "bufferView": 38,
      "byteOffset": 0
    },
    {
      "type": "VEC3",
      "componentType": 5126,
      "count": 76,
      "bufferView": 38,
      "byteOffset": 12
    },
    {
      "type": "VEC2",
      "componentType": 5126,
      "count": 76,
      "bufferView": 38,
      "byteOffset": 24
    },
    {
      "type": "VEC3",
      "componentType": 5126,
      "count": 70,
      "max": [
        0.06913779675960541,
        0.7835654616355896,
        -0.29663777351379395
      ],
      "min": [
        -0.06913779675960541,
        0.7143034338951111,
        -0.4332890510559082
      ],
      "bufferView": 39,
      "byteOffset": 0
    },
    {
      "type": "VEC3",
      "componentType": 5126,
      "count": 70,
      "bufferView": 39,
      "byteOffset": 12
    },
    {
      "type": "VEC2",
      "componentType": 5126,
      "count": 70,
      "bufferView": 39,
      "byteOffset": 24
    },
    {
      "type": "VEC3",
      "componentType": 5126,
      "count": 267,
      "max": [
        0.6287070512771606,
        1.1553548574447632,
        1.1163727045059204
      ],
      "min": [
        -0.6287070512771606,
        0.4071362316608429,
        0.04891184717416763
      ],
      "bufferView": 40,
      "byteOffset": 0
    },
    {
      "type": "VEC3",
      "componentType": 5126,
      "count": 267,
      "bufferView": 40,
      "byteOffset": 12
    },
    {
      "type": "VEC2",
      "componentType": 5126,
      "count": 267,
      "bufferView": 40,
      "byteOffset": 24
    },
    {
      "type": "VEC3",
      "componentType": 5126,
      "count": 336,
      "max": [
        0.6646531224250793,
        1.4081926345825195,
        -0.3156353831291199
      ],
      "min": [
        -0.6646531224250793,
        0.9716044068336487,
        -1.098349928855896
      ],
      "bufferView": 41,
      "byteOffset": 0
    },
    {
      "type": "VEC3",
      "componentType": 5126,
      "count": 336,
      "bufferView": 41,
      "byteOffset": 12
    },
    {
      "type": "VEC3",
      "componentType": 5126,
      "count": 24,
      "max": [
        0.07156439870595932,
        0.9850565791130066,
        -0.536489725112915
      ],
      "min": [
        -0.07156439870595932,
        0.9638829231262207,
        -0.5490327477455139
      ],
      "bufferView": 42,
      "byteOffset": 0
    },
    {
      "type": "VEC3",
      "componentType": 5126,
      "count": 24,
      "bufferView": 42,
      "byteOffset": 12
    },
    {
      "type": "VEC2",
      "componentType": 5126,
      "count": 24,
      "bufferView": 42,
      "byteOffset": 24
    },
    {
      "type": "VEC3",
      "componentType": 5126,
      "count": 22,
      "max": [
        -0.23340734839439392,
        1.0881541967391968,
        -0.5173264741897583
      ],
      "min": [
        -0.4926740229129791,
        0.9250910878181458,
        -0.6080682277679443
      ],
      "bufferView": 43,
      "byteOffset": 0
    },
    {
      "type": "VEC3",
      "componentType": 5126,
      "count": 22,
      "bufferView": 43,
      "byteOffset": 12
    },
    {
      "type": "VEC2",
      "componentType": 5126,
      "count": 22,
      "bufferView": 43,
      "byteOffset": 24
    },
    {
      "type": "VEC3",
      "componentType": 5126,
      "count": 133,
      "max": [
        0.7476738095283508,
        0.7212507128715515,
        0.44787123799324036
      ],
      "min": [
        -0.7476738095283508,
        0.6724869608879089,
        0.4066722095012665
      ],
      "bufferView": 44,
      "byteOffset": 0
    },
    {
      "type": "VEC3",
      "componentType": 5126,
      "count": 133,
      "bufferView": 44,
      "byteOffset": 12
    },
    {
      "type": "VEC2",
      "componentType": 5126,
      "count": 133,
      "bufferView": 44,
      "byteOffset": 24
    },
    {
      "type": "VEC3",
      "componentType": 5126,
      "count": 84,
      "max": [
        0.9343507885932922,
        1.347668170928955,
        -0.36062219738960266
      ],
      "min": [
        -0.9355597496032715,
        0.9931681752204895,
        -0.5160118937492371
      ],
      "bufferView": 45,
      "byteOffset": 0
    },
    {
      "type": "VEC3",
      "componentType": 5126,
      "count": 84,
      "bufferView": 45,
      "byteOffset": 12
    },
    {
      "type": "VEC2",
      "componentType": 5126,
      "count": 84,
      "bufferView": 45,
      "byteOffset": 24
    },
    {
      "type": "VEC3",
      "componentType": 5126,
      "count": 20,
      "max": [
        0.6489496231079102,
        0.33662477135658264,
        0.10599640756845474
      ],
      "min": [
        -0.6489496231079102,
        0.3313988745212555,
        -0.44605588912963867
      ],
      "bufferView": 46,
      "byteOffset": 0
    },
    {
      "type": "VEC3",
      "componentType": 5126,
      "count": 20,
      "bufferView": 46,
      "byteOffset": 12
    },
    {
      "type": "VEC2",
      "componentType": 5126,
      "count": 20,
      "bufferView": 46,
      "byteOffset": 24
    },
    {
      "type": "VEC3",
      "componentType": 5126,
      "count": 78,
      "max": [
        -0.12598702311515808,
        0.9758498668670654,
        -0.4369008541107178
      ],
      "min": [
        -0.5277859568595886,
        0.9294374585151672,
        -0.47484874725341797
      ],
      "bufferView": 47,
      "byteOffset": 0
    },
    {
      "type": "VEC3",
      "componentType": 5126,
      "count": 78,
      "bufferView": 47,
      "byteOffset": 12
    },
    {
      "type": "VEC2",
      "componentType": 5126,
      "count": 78,
      "bufferView": 47,
      "byteOffset": 24
    },
    {
      "type": "VEC3",
      "componentType": 5126,
      "count": 158,
      "max": [
        0.3652636706829071,
        1.0119415521621704,
        0.3756389915943146
      ],
      "min": [
        -0.3652636706829071,
        0.5222587585449219,
        -0.13000023365020752
      ],
      "bufferView": 48,
      "byteOffset": 0
    },
    {
      "type": "VEC3",
      "componentType": 5126,
      "count": 158,
      "bufferView": 48,
      "byteOffset": 12
    },
    {
      "type": "VEC2",
      "componentType": 5126,
      "count": 158,
      "bufferView": 48,
      "byteOffset": 24
    },
    {
      "type": "VEC3",
      "componentType": 5126,
      "count": 66,
      "max": [
        -0.19251589477062225,
        0.31710752844810486,
        -0.40306419134140015
      ],
      "min": [
        -0.49366360902786255,
        0.29811719059944153,
        -0.6174439191818237
      ],
      "bufferView": 49,
      "byteOffset": 0
    },
    {
      "type": "VEC3",
      "componentType": 5126,
      "count": 66,
      "bufferView": 49,
      "byteOffset": 12
    },
    {
      "type": "VEC2",
      "componentType": 5126,
      "count": 66,
      "bufferView": 49,
      "byteOffset": 24
    },
    {
      "type": "VEC3",
      "componentType": 5126,
      "count": 354,
      "max": [
        0.6021995544433594,
        1.0052402019500732,
        -0.4832441806793213
      ],
      "min": [
        -0.6021995544433594,
        0.8175516724586487,
        -0.6927274465560913
      ],
      "bufferView": 50,
      "byteOffset": 0
    },
    {
      "type": "VEC3",
      "componentType": 5126,
      "count": 354,
      "bufferView": 50,
      "byteOffset": 12
    },
    {
      "type": "VEC2",
      "componentType": 5126,
      "count": 354,
      "bufferView": 50,
      "byteOffset": 24
    },
    {
      "type": "VEC3",
      "componentType": 5126,
      "count": 172,
      "max": [
        0.5484579801559448,
        0.4062536954879761,
        0.24888572096824646
      ],
      "min": [
        -0.5484579801559448,
        0.29229703545570374,
        -0.22194838523864746
      ],
      "bufferView": 51,
      "byteOffset": 0
    },
    {
      "type": "VEC3",
      "componentType": 5126,
      "count": 172,
      "bufferView": 51,
      "byteOffset": 12
    },
    {
      "type": "VEC2",
      "componentType": 5126,
      "count": 172,
      "bufferView": 51,
      "byteOffset": 24
    },
    {
      "type": "VEC3",
      "componentType": 5126,
      "count": 51,
      "max": [
        0.1001039370894432,
        0.9436041712760925,
        -0.4832121431827545
      ],
      "min": [
        -0.1001039370894432,
        0.9200224280357361,
        -0.5004778504371643
      ],
      "bufferView": 52,
      "byteOffset": 0
    },
    {
      "type": "VEC3",
      "componentType": 5126,
      "count": 51,
      "bufferView": 52,
      "byteOffset": 12
    },
    {
      "type": "VEC2",
      "componentType": 5126,
      "count": 51,
      "bufferView": 52,
      "byteOffset": 24
    },
    {
      "type": "VEC3",
      "componentType": 5126,
      "count": 287,
      "max": [
        0.6399614810943604,
        1.4637227058410645,
        1.249281883239746
      ],
      "min": [
        -0.6399614810943604,
        1.0019255876541138,
        -0.3730480670928955
      ],
      "bufferView": 53,
      "byteOffset": 0
    },
    {
      "type": "VEC3",
      "componentType": 5126,
      "count": 287,
      "bufferView": 53,
      "byteOffset": 12
    },
    {
      "type": "VEC2",
      "componentType": 5126,
      "count": 287,
      "bufferView": 53,
      "byteOffset": 24
    },
    {
      "type": "VEC3",
      "componentType": 5126,
      "count": 159,
      "max": [
        -0.042379073798656464,
        0.6179463267326355,
        -0.5734685063362122
      ],
      "min": [
        -0.13073158264160156,
        0.37823137640953064,
        -0.8357789516448975
      ],
      "bufferView": 54,
      "byteOffset": 0
    },
    {
      "type": "VEC3",
      "componentType": 5126,
      "count": 159,
      "bufferView": 54,
      "byteOffset": 12
    },
    {
      "type": "VEC2",
      "componentType": 5126,
      "count": 159,
      "bufferView": 54,
      "byteOffset": 24
    },
    {
      "type": "VEC3",
      "componentType": 5126,
      "count": 127,
      "max": [
        0.10331442207098007,
        0.9441318511962891,
        -0.4876667857170105
      ],
      "min": [
        -0.10331442207098007,
        0.9185614585876465,
        -0.5014696717262268
      ],
      "bufferView": 55,
      "byteOffset": 0
    },
    {
      "type": "VEC3",
      "componentType": 5126,
      "count": 127,
      "bufferView": 55,
      "byteOffset": 12
    },
    {
      "type": "VEC2",
      "componentType": 5126,
      "count": 127,
      "bufferView": 55,
      "byteOffset": 24
    },
    {
      "type": "VEC3",
      "componentType": 5126,
      "count": 100,
      "max": [
        0.5836370587348938,
        1.1504085063934326,
        1.1152760982513428
      ],
      "min": [
        -0.5836370587348938,
        0.42780303955078125,
        -0.959580659866333
      ],
      "bufferView": 56,
      "byteOffset": 0
    },
    {
      "type": "VEC3",
      "componentType": 5126,
      "count": 100,
      "bufferView": 56,
      "byteOffset": 12
    },
    {
      "type": "VEC2",
      "componentType": 5126,
      "count": 100,
      "bufferView": 56,
      "byteOffset": 24
    },
    {
      "type": "VEC3",
      "componentType": 5126,
      "count": 55,
      "max": [
        0.6343755125999451,
        0.6302812099456787,
        0.5814581513404846
      ],
      "min": [
        -0.6343755125999451,
        0.29966604709625244,
        -0.8861355781555176
      ],
      "bufferView": 57,
      "byteOffset": 0
    },
    {
      "type": "VEC3",
      "componentType": 5126,
      "count": 55,
      "bufferView": 57,
      "byteOffset": 12
    },
    {
      "type": "VEC2",
      "componentType": 5126,
      "count": 55,
      "bufferView": 57,
      "byteOffset": 24
    },
    {
      "type": "VEC3",
      "componentType": 5126,
      "count": 9,
      "max": [
        0.47681108117103577,
        0.8846516609191895,
        -0.5210593938827515
      ],
      "min": [
        0.38754338026046753,
        0.8539389967918396,
        -0.5473242998123169
      ],
      "bufferView": 58,
      "byteOffset": 0
    },
    {
      "type": "VEC3",
      "componentType": 5126,
      "count": 9,
      "bufferView": 58,
      "byteOffset": 12
    },
    {
      "type": "VEC2",
      "componentType": 5126,
      "count": 9,
      "bufferView": 58,
      "byteOffset": 24
    },
    {
      "type": "VEC3",
      "componentType": 5126,
      "count": 280,
      "max": [
        -0.01946309208869934,
        0.15988850593566895,
        0.1318240463733673
      ],
      "min": [
        -0.18071308732032776,
        -0.1093173623085022,
        -0.10560151189565659
      ],
      "bufferView": 59,
      "byteOffset": 0
    },
    {
      "type": "VEC3",
      "componentType": 5126,
      "count": 280,
      "bufferView": 59,
      "byteOffset": 12
    },
    {
      "type": "VEC2",
      "componentType": 5126,
      "count": 280,
      "bufferView": 59,
      "byteOffset": 24
    },
    {
      "type": "VEC3",
      "componentType": 5126,
      "count": 382,
      "max": [
        0.10324713587760925,
        0.2967521846294403,
        0.2967522442340851
      ],
      "min": [
        -0.10324713587760925,
        -0.2967522144317627,
        -0.29675230383872986
      ],
      "bufferView": 60,
      "byteOffset": 0
    },
    {
      "type": "VEC3",
      "componentType": 5126,
      "count": 382,
      "bufferView": 60,
      "byteOffset": 12
    },
    {
      "type": "VEC2",
      "componentType": 5126,
      "count": 382,
      "bufferView": 60,
      "byteOffset": 24
    },
    {
      "type": "VEC3",
      "componentType": 5126,
      "count": 1470,
      "max": [
        0.10324713587760925,
        0.24043290317058563,
        0.23994198441505432
      ],
      "min": [
        -0.1093389093875885,
        -0.2411138266324997,
        -0.2392636239528656
      ],
      "bufferView": 61,
      "byteOffset": 0
    },
    {
      "type": "VEC3",
      "componentType": 5126,
      "count": 1470,
      "bufferView": 61,
      "byteOffset": 12
    },
    {
      "type": "VEC2",
      "componentType": 5126,
      "count": 1470,
      "bufferView": 61,
      "byteOffset": 24
    },
    {
      "type": "VEC3",
      "componentType": 5126,
      "count": 223,
      "max": [
        0.5227101445198059,
        0.35531964898109436,
        1.696539044380188
      ],
      "min": [
        -0.5227101445198059,
        0.213224396109581,
        1.359028697013855
      ],
      "bufferView": 62,
      "byteOffset": 0
    },
    {
      "type": "VEC3",
      "componentType": 5126,
      "count": 223,
      "bufferView": 62,
      "byteOffset": 12
    },
    {
      "type": "VEC2",
      "componentType": 5126,
      "count": 223,
      "bufferView": 62,
      "byteOffset": 24
    },
    {
      "type": "VEC3",
      "componentType": 5126,
      "count": 78,
      "max": [
        0.04133006930351257,
        0.12718114256858826,
        -0.08285387605428696
      ],
      "min": [
        -0.08807060122489929,
        -0.1248021125793457,
        -0.16372188925743103
      ],
      "bufferView": 63,
      "byteOffset": 0
    },
    {
      "type": "VEC3",
      "componentType": 5126,
      "count": 382,
      "max": [
        0.10324713587760925,
        0.2967527210712433,
        0.2967526614665985
      ],
      "min": [
        -0.10324713587760925,
        -0.2967527210712433,
        -0.2967526614665985
      ],
      "bufferView": 64,
      "byteOffset": 0
    },
    {
      "type": "VEC3",
      "componentType": 5126,
      "count": 382,
      "bufferView": 64,
      "byteOffset": 12
    },
    {
      "type": "VEC2",
      "componentType": 5126,
      "count": 382,
      "bufferView": 64,
      "byteOffset": 24
    },
    {
      "type": "VEC3",
      "componentType": 5126,
      "count": 1470,
      "max": [
        0.10324713587760925,
        0.24046994745731354,
        0.24000033736228943
      ],
      "min": [
        -0.1093389093875885,
        -0.24107681214809418,
        -0.23920509219169617
      ],
      "bufferView": 65,
      "byteOffset": 0
    },
    {
      "type": "VEC3",
      "componentType": 5126,
      "count": 64,
      "max": [
        0.22340618073940277,
        0.8268750905990601,
        1.6041905879974365
      ],
      "min": [
        -0.2233523577451706,
        0.7233920097351074,
        1.5444899797439575
      ],
      "bufferView": 66,
      "byteOffset": 0
    },
    {
      "type": "VEC3",
      "componentType": 5126,
      "count": 64,
      "bufferView": 66,
      "byteOffset": 12
    },
    {
      "type": "VEC2",
      "componentType": 5126,
      "count": 64,
      "bufferView": 66,
      "byteOffset": 24
    },
    {
      "type": "VEC3",
      "componentType": 5126,
      "count": 138,
      "max": [
        -0.008580893278121948,
        0.15655434131622314,
        0.15540841221809387
      ],
      "min": [
        -0.0174618661403656,
        -0.15569190680980682,
        -0.15552839636802673
      ],
      "bufferView": 67,
      "byteOffset": 0
    },
    {
      "type": "VEC3",
      "componentType": 5126,
      "count": 138,
      "bufferView": 67,
      "byteOffset": 12
    },
    {
      "type": "VEC2",
      "componentType": 5126,
      "count": 138,
      "bufferView": 67,
      "byteOffset": 24
    },
    {
      "type": "VEC3",
      "componentType": 5126,
      "count": 138,
      "max": [
        0.0174618661403656,
        0.15659137070178986,
        0.15546640753746033
      ],
      "min": [
        0.008580893278121948,
        -0.1556548774242401,
        -0.1554703414440155
      ],
      "bufferView": 68,
      "byteOffset": 0
    },
    {
      "type": "VEC3",
      "componentType": 5126,
      "count": 180,
      "max": [
        0.6650145053863525,
        0.9076271653175354,
        1.5863020420074463
      ],
      "min": [
        -0.6650145053863525,
        0.6821197867393494,
        1.3540571928024292
      ],
      "bufferView": 69,
      "byteOffset": 0
    },
    {
      "type": "VEC3",
      "componentType": 5126,
      "count": 180,
      "bufferView": 69,
      "byteOffset": 12
    },
    {
      "type": "VEC2",
      "componentType": 5126,
      "count": 180,
      "bufferView": 69,
      "byteOffset": 24
    },
    {
      "type": "VEC3",
      "componentType": 5126,
      "count": 223,
      "max": [
        0.6983910799026489,
        1.4081931114196777,
        1.3820174932479858
      ],
      "min": [
        -0.6983910799026489,
        0.9716043472290039,
        -1.098349928855896
      ],
      "bufferView": 70,
      "byteOffset": 0
    },
    {
      "type": "VEC3",
      "componentType": 5126,
      "count": 223,
      "bufferView": 70,
      "byteOffset": 12
    },
    {
      "type": "VEC2",
      "componentType": 5126,
      "count": 223,
      "bufferView": 70,
      "byteOffset": 24
    },
    {
      "type": "VEC3",
      "componentType": 5126,
      "count": 50,
      "max": [
        0.7798758745193481,
        0.7918043732643127,
        -0.9062647223472595
      ],
      "min": [
        -0.7798758745193481,
        0.7601210474967957,
        -0.9519104957580566
      ],
      "bufferView": 71,
      "byteOffset": 0
    },
    {
      "type": "VEC3",
      "componentType": 5126,
      "count": 50,
      "bufferView": 71,
      "byteOffset": 12
    },
    {
      "type": "VEC2",
      "componentType": 5126,
      "count": 50,
      "bufferView": 71,
      "byteOffset": 24
    }
  ],
  "bufferViews": [
    {
      "buffer": 0,
      "byteOffset": 0,
      "byteLength": 24320,
      "byteStride": 32,
      "target": 34962
    },
    {
      "buffer": 0,
      "byteOffset": 24320,
      "byteLength": 367000,
      "target": 34963
    },
    {
      "buffer": 0,
      "byteOffset": 391320,
      "byteLength": 12224,
      "byteStride": 32,
      "target": 34962
    },
    {
      "buffer": 0,
      "byteOffset": 403544,
      "byteLength": 47040,
      "byteStride": 32,
      "target": 34962
    },
    {
      "buffer": 0,
      "byteOffset": 450584,
      "byteLength": 133472,
      "byteStride": 32,
      "target": 34962
    },
    {
      "buffer": 0,
      "byteOffset": 584056,
      "byteLength": 2496,
      "byteStride": 32,
      "target": 34962
    },
    {
      "buffer": 0,
      "byteOffset": 586552,
      "byteLength": 8960,
      "byteStride": 32,
      "target": 34962
    },
    {
      "buffer": 0,
      "byteOffset": 595512,
      "byteLength": 1656,
      "byteStride": 12,
      "target": 34962
    },
    {
      "buffer": 0,
      "byteOffset": 597168,
      "byteLength": 278464,
      "byteStride": 32,
      "target": 34962
    },
    {
      "buffer": 0,
      "byteOffset": 875632,
      "byteLength": 55040,
      "byteStride": 32,
      "target": 34962
    },
    {
      "buffer": 0,
      "byteOffset": 930672,
      "byteLength": 8608,
      "byteStride": 32,
      "target": 34962
    },
    {
      "buffer": 0,
      "byteOffset": 939280,
      "byteLength": 36224,
      "byteStride": 32,
      "target": 34962
    },
    {
      "buffer": 0,
      "byteOffset": 975504,
      "byteLength": 12032,
      "byteStride": 32,
      "target": 34962
    },
    {
      "buffer": 0,
      "byteOffset": 987536,
      "byteLength": 20800,
      "byteStride": 32,
      "target": 34962
    },
    {
      "buffer": 0,
      "byteOffset": 1008336,
      "byteLength": 800,
      "byteStride": 32,
      "target": 34962
    },
    {
      "buffer": 0,
      "byteOffset": 1009136,
      "byteLength": 800,
      "byteStride": 32,
      "target": 34962
    },
    {
      "buffer": 0,
      "byteOffset": 1009936,
      "byteLength": 936,
      "byteStride": 12,
      "target": 34962
    },
    {
      "buffer": 0,
      "byteOffset": 1010872,
      "byteLength": 12224,
      "byteStride": 32,
      "target": 34962
    },
    {
      "buffer": 0,
      "byteOffset": 1023096,
      "byteLength": 17640,
      "byteStride": 12,
      "target": 34962
    },
    {
      "buffer": 0,
      "byteOffset": 1040736,
      "byteLength": 4416,
      "byteStride": 32,
      "target": 34962
    },
    {
      "buffer": 0,
      "byteOffset": 1045152,
      "byteLength": 2496,
      "byteStride": 32,
      "target": 34962
    },
    {
      "buffer": 0,
      "byteOffset": 1047648,
      "byteLength": 235840,
      "byteStride": 32,
      "target": 34962
    },
    {
      "buffer": 0,
      "byteOffset": 1283488,
      "byteLength": 1856,
      "byteStride": 32,
      "target": 34962
    },
    {
      "buffer": 0,
      "byteOffset": 1285344,
      "byteLength": 3456,
      "byteStride": 32,
      "target": 34962
    },
    {
      "buffer": 0,
      "byteOffset": 1288800,
      "byteLength": 28440,
      "byteStride": 24,
      "target": 34962
    },
    {
      "buffer": 0,
      "byteOffset": 1317240,
      "byteLength": 3816,
      "byteStride": 24,
      "target": 34962
    },
    {
      "buffer": 0,
      "byteOffset": 1321056,
      "byteLength": 928,
      "byteStride": 32,
      "target": 34962
    },
    {
      "buffer": 0,
      "byteOffset": 1321984,
      "byteLength": 146688,
      "byteStride": 32,
      "target": 34962
    },
    {
      "buffer": 0,
      "byteOffset": 1468672,
      "byteLength": 8512,
      "byteStride": 32,
      "target": 34962
    },
    {
      "buffer": 0,
      "byteOffset": 1477184,
      "byteLength": 1216,
      "byteStride": 32,
      "target": 34962
    },
    {
      "buffer": 0,
      "byteOffset": 1478400,
      "byteLength": 17792,
      "byteStride": 32,
      "target": 34962
    },
    {
      "buffer": 0,
      "byteOffset": 1496192,
      "byteLength": 1920,
      "byteStride": 32,
      "target": 34962
    },
    {
      "buffer": 0,
      "byteOffset": 1498112,
      "byteLength": 3200,
      "byteStride": 32,
      "target": 34962
    },
    {
      "buffer": 0,
      "byteOffset": 1501312,
      "byteLength": 40896,
      "byteStride": 32,
      "target": 34962
    },
    {
      "buffer": 0,
      "byteOffset": 1542208,
      "byteLength": 5600,
      "byteStride": 32,
      "target": 34962
    },
    {
      "buffer": 0,
      "byteOffset": 1547808,
      "byteLength": 46912,
      "byteStride": 32,
      "target": 34962
    },
    {
      "buffer": 0,
      "byteOffset": 1594720,
      "byteLength": 7104,
      "byteStride": 32,
      "target": 34962
    },
    {
      "buffer": 0,
      "byteOffset": 1601824,
      "byteLength": 800,
      "byteStride": 32,
      "target": 34962
    },
    {
      "buffer": 0,
      "byteOffset": 1602624,
      "byteLength": 2432,
      "byteStride": 32,
      "target": 34962
    },
    {
      "buffer": 0,
      "byteOffset": 1605056,
      "byteLength": 2240,
      "byteStride": 32,
      "target": 34962
    },
    {
      "buffer": 0,
      "byteOffset": 1607296,
      "byteLength": 8544,
      "byteStride": 32,
      "target": 34962
    },
    {
      "buffer": 0,
      "byteOffset": 1615840,
      "byteLength": 8064,
      "byteStride": 24,
      "target": 34962
    },
    {
      "buffer": 0,
      "byteOffset": 1623904,
      "byteLength": 768,
      "byteStride": 32,
      "target": 34962
    },
    {
      "buffer": 0,
      "byteOffset": 1624672,
      "byteLength": 704,
      "byteStride": 32,
      "target": 34962
    },
    {
      "buffer": 0,
      "byteOffset": 1625376,
      "byteLength": 4256,
      "byteStride": 32,
      "target": 34962
    },
    {
      "buffer": 0,
      "byteOffset": 1629632,
      "byteLength": 2688,
      "byteStride": 32,
      "target": 34962
    },
    {
      "buffer": 0,
      "byteOffset": 1632320,
      "byteLength": 640,
      "byteStride": 32,
      "target": 34962
    },
    {
      "buffer": 0,
      "byteOffset": 1632960,
      "byteLength": 2496,
      "byteStride": 32,
      "target": 34962
    },
    {
      "buffer": 0,
      "byteOffset": 1635456,
      "byteLength": 5056,
      "byteStride": 32,
      "target": 34962
    },
    {
      "buffer": 0,
      "byteOffset": 1640512,
      "byteLength": 2112,
      "byteStride": 32,
      "target": 34962
    },
    {
      "buffer": 0,
      "byteOffset": 1642624,
      "byteLength": 11328,
      "byteStride": 32,
      "target": 34962
    },
    {
      "buffer": 0,
      "byteOffset": 1653952,
      "byteLength": 5504,
      "byteStride": 32,
      "target": 34962
    },
    {
      "buffer": 0,
      "byteOffset": 1659456,
      "byteLength": 1632,
      "byteStride": 32,
      "target": 34962
    },
    {
      "buffer": 0,
      "byteOffset": 1661088,
      "byteLength": 9184,
      "byteStride": 32,
      "target": 34962
    },
    {
      "buffer": 0,
      "byteOffset": 1670272,
      "byteLength": 5088,
      "byteStride": 32,
      "target": 34962
    },
    {
      "buffer": 0,
      "byteOffset": 1675360,
      "byteLength": 4064,
      "byteStride": 32,
      "target": 34962
    },
    {
      "buffer": 0,
      "byteOffset": 1679424,
      "byteLength": 3200,
      "byteStride": 32,
      "target": 34962
    },
    {
      "buffer": 0,
      "byteOffset": 1682624,
      "byteLength": 1760,
      "byteStride": 32,
      "target": 34962
    },
    {
      "buffer": 0,
      "byteOffset": 1684384,
      "byteLength": 288,
      "byteStride": 32,
      "target": 34962
    },
    {
      "buffer": 0,
      "byteOffset": 1684672,
      "byteLength": 8960,
      "byteStride": 32,
      "target": 34962
    },
    {
      "buffer": 0,
      "byteOffset": 1693632,
      "byteLength": 12224,
      "byteStride": 32,
      "target": 34962
    },
    {
      "buffer": 0,
      "byteOffset": 1705856,
      "byteLength": 47040,
      "byteStride": 32,
      "target": 34962
    },
    {
      "buffer": 0,
      "byteOffset": 1752896,
      "byteLength": 7136,
      "byteStride": 32,
      "target": 34962
    },
    {
      "buffer": 0,
      "byteOffset": 1760032,
      "byteLength": 936,
      "byteStride": 12,
      "target": 34962
    },
    {
      "buffer": 0,
      "byteOffset": 1760968,
      "byteLength": 12224,
      "byteStride": 32,
      "target": 34962
    },
    {
      "buffer": 0,
      "byteOffset": 1773192,
      "byteLength": 17640,
      "byteStride": 12,
      "target": 34962
    },
    {
      "buffer": 0,
      "byteOffset": 1790832,
      "byteLength": 2048,
      "byteStride": 32,
      "target": 34962
    },
    {
      "buffer": 0,
      "byteOffset": 1792880,
      "byteLength": 4416,
      "byteStride": 32,
      "target": 34962
    },
    {
      "buffer": 0,
      "byteOffset": 1797296,
      "byteLength": 1656,
      "byteStride": 12,
      "target": 34962
    },
    {
      "buffer": 0,
      "byteOffset": 1798952,
      "byteLength": 5760,
      "byteStride": 32,
      "target": 34962
    },
    {
      "buffer": 0,
      "byteOffset": 1804712,
      "byteLength": 7136,
      "byteStride": 32,
      "target": 34962
    },
    {
      "buffer": 0,
      "byteOffset": 1811848,
      "byteLength": 1600,
      "byteStride": 32,
      "target": 34962
    }
  ],
  "samplers": [
    {
      "magFilter": 9729,
      "minFilter": 9987,
      "wrapS": 10497,
      "wrapT": 10497
    }
  ],
  "textures": [
    {
      "source": 0,
      "sampler": 0
    },
    {
      "source": 1,
      "sampler": 0
    },
    {
      "source": 2,
      "sampler": 0
    },
    {
      "source": 3,
      "sampler": 0
    },
    {
      "source": 4,
      "sampler": 0
    },
    {
      "source": 5,
      "sampler": 0
    },
    {
      "source": 6,
      "sampler": 0
    },
    {
      "source": 7,
      "sampler": 0
    },
    {
      "source": 8,
      "sampler": 0
    },
    {
      "source": 9,
      "sampler": 0
    },
    {
      "source": 10,
      "sampler": 0
    },
    {
      "source": 11,
      "sampler": 0
    },
    {
      "source": 12,
      "sampler": 0
    },
    {
      "source": 13,
      "sampler": 0
    },
    {
      "source": 14,
      "sampler": 0
    },
    {
      "source": 15,
      "sampler": 0
    },
    {
      "source": 16,
      "sampler": 0
    },
    {
      "source": 17,
      "sampler": 0
    },
    {
      "source": 18,
      "sampler": 0
    },
    {
      "source": 19,
      "sampler": 0
    },
    {
      "source": 20,
      "sampler": 0
    },
    {
      "source": 21,
      "sampler": 0
    },
    {
      "source": 22,
      "sampler": 0
    },
    {
      "source": 23,
      "sampler": 0
    },
    {
      "source": 24,
      "sampler": 0
    },
    {
      "source": 25,
      "sampler": 0
    },
    {
      "source": 26,
      "sampler": 0
    },
    {
      "source": 27,
      "sampler": 0
    },
    {
      "source": 28,
      "sampler": 0
    },
    {
      "source": 29,
      "sampler": 0
    },
    {
      "source": 30,
      "sampler": 0
    }
  ],
  "images": [
    {
      "mimeType": "image/jpeg",
      "uri": "abarth_500_0.jpg"
    },
    {
      "mimeType": "image/jpeg",
      "uri": "abarth_500_1.jpg"
    },
    {
      "mimeType": "image/jpeg",
      "uri": "abarth_500_2.jpg"
    },
    {
      "mimeType": "image/jpeg",
      "uri": "abarth_500_3.jpg"
    },
    {
      "mimeType": "image/jpeg",
      "uri": "abarth_500_4.jpg"
    },
    {
      "mimeType": "image/jpeg",
      "uri": "abarth_500_5.jpg"
    },
    {
      "mimeType": "image/png",
      "uri": "abarth_500_6.png"
    },
    {
      "mimeType": "image/jpeg",
      "uri": "abarth_500_7.jpg"
    },
    {
      "mimeType": "image/png",
      "uri": "abarth_500_8.png"
    },
    {
      "mimeType": "image/jpeg",
      "uri": "abarth_500_9.jpg"
    },
    {
      "mimeType": "image/jpeg",
      "uri": "abarth_500_10.jpg"
    },
    {
      "mimeType": "image/jpeg",
      "uri": "abarth_500_11.jpg"
    },
    {
      "mimeType": "image/jpeg",
      "uri": "abarth_500_12.jpg"
    },
    {
      "mimeType": "image/png",
      "uri": "abarth_500_13.png"
    },
    {
      "mimeType": "image/jpeg",
      "uri": "abarth_500_14.jpg"
    },
    {
      "mimeType": "image/jpeg",
      "uri": "abarth_500_15.jpg"
    },
    {
      "mimeType": "image/jpeg",
      "uri": "abarth_500_16.jpg"
    },
    {
      "mimeType": "image/png",
      "uri": "abarth_500_17.png"
    },
    {
      "mimeType": "image/jpeg",
      "uri": "abarth_500_18.jpg"
    },
    {
      "mimeType": "image/jpeg",
      "uri": "abarth_500_19.jpg"
    },
    {
      "mimeType": "image/jpeg",
      "uri": "abarth_500_20.jpg"
    },
    {
      "mimeType": "image/jpeg",
      "uri": "abarth_500_21.jpg"
    },
    {
      "mimeType": "image/jpeg",
      "uri": "abarth_500_22.jpg"
    },
    {
      "mimeType": "image/jpeg",
      "uri": "abarth_500_23.jpg"
    },
    {
      "mimeType": "image/jpeg",
      "uri": "abarth_500_24.jpg"
    },
    {
      "mimeType": "image/jpeg",
      "uri": "abarth_500_25.jpg"
    },
    {
      "mimeType": "image/jpeg",
      "uri": "abarth_500_26.jpg"
    },
    {
      "mimeType": "image/jpeg",
      "uri": "abarth_500_27.jpg"
    },
    {
      "mimeType": "image/jpeg",
      "uri": "abarth_500_28.jpg"
    },
    {
      "mimeType": "image/png",
      "uri": "abarth_500_29.png"
    },
    {
      "mimeType": "image/jpeg",
      "uri": "abarth_500_30.jpg"
    }
  ],
  "buffers": [
    {
      "uri": "abarth_500.bin",
      "byteLength": 1813448
    }
  ],
  "materials": [
    {
      "name": "light_tail:CAR_LuciPosteriori",
      "doubleSided": true,
      "pbrMetallicRoughness": {
        "roughnessFactor": 0.3808566772848656,
        "baseColorTexture": {
          "index": 0
        }
      }
    },
    {
      "name": "tyre:CAR_GommaBattistrada",
      "doubleSided": true,
      "pbrMetallicRoughness": {
        "roughnessFactor": 0.9850465121877878,
        "metallicFactor": 0,
        "baseColorTexture": {
          "index": 1
        }
      }
    },
    {
      "name": "rim:CAR_Cerchione",
      "doubleSided": true,
      "pbrMetallicRoughness": {
        "roughnessFactor": 0.8742566570317065,
        "metallicFactor": 0,
        "baseColorTexture": {
          "index": 2
        }
      }
    },
    {
      "name": "other:CAR_PLASTICA",
      "doubleSided": true,
      "pbrMetallicRoughness": {
        "roughnessFactor": 0.47802483285108266,
        "metallicFactor": 0.6555813810524658,
        "baseColorTexture": {
          "index": 3
        }
      }
    },
    {
      "name": "caliper:CAR_PinzaFreni",
      "doubleSided": true,
      "pbrMetallicRoughness": {
        "baseColorFactor": [
          0.260835749064709,
          0.260835749064709,
          0.260835749064709,
          1
        ],
        "roughnessFactor": 0.9717157287525381,
        "metallicFactor": 0,
        "baseColorTexture": {
          "index": 4
        }
      }
    },
    {
      "name": "other:CAR_Sottoscocca",
      "doubleSided": true,
      "pbrMetallicRoughness": {
        "baseColorFactor": [
          0.2547627393418205,
          0.2547627393418205,
          0.2547627393418205,
          1
        ],
        "metallicFactor": 0,
        "baseColorTexture": {
          "index": 3
        }
      }
    },
    {
      "name": "disc:CAR_DiscoFreni",
      "doubleSided": true,
      "pbrMetallicRoughness": {
        "roughnessFactor": 0.8484784259472852,
        "metallicFactor": 0.4976831282573631,
        "baseColorTexture": {
          "index": 5
        }
      }
    },
    {
      "name": "paint:CAR_Livrea",
      "doubleSided": true,
      "pbrMetallicRoughness": {
        "baseColorFactor": [
          0.3762229337995918,
          0.3762229337995918,
          0.3762229337995918,
          1
        ],
        "roughnessFactor": 0,
        "metallicFactor": 0,
        "baseColorTexture": {
          "index": 3
        }
      }
    },
    {
      "name": "other:CAR_Griglia",
      "alphaMode": "BLEND",
      "doubleSided": true,
      "pbrMetallicRoughness": {
        "baseColorFactor": [
          0.5037561379802517,
          0.5037561379802517,
          0.5037561379802517,
          1
        ],
        "roughnessFactor": 0.9831820716949257,
        "metallicFactor": 0,
        "baseColorTexture": {
          "index": 6
        }
      }
    },
    {
      "name": "light_head:CAR_FariAnteriori",
      "doubleSided": true,
      "pbrMetallicRoughness": {
        "metallicFactor": 0,
        "baseColorTexture": {
          "index": 7
        }
      }
    },
    {
      "name": "light_head:CAR_Vetro_Fanali_ANTERIORI",
      "alphaMode": "BLEND",
      "doubleSided": true,
      "pbrMetallicRoughness": {
        "roughnessFactor": 0,
        "metallicFactor": 0,
        "baseColorTexture": {
          "index": 8
        }
      }
    },
    {
      "name": "other:CAR_Loghi",
      "doubleSided": true,
      "pbrMetallicRoughness": {
        "baseColorFactor": [
          0.5644862352091373,
          0.5644862352091373,
          0.5644862352091373,
          1
        ],
        "roughnessFactor": 0.19259337587532,
        "baseColorTexture": {
          "index": 9
        }
      },
      "normalTexture": {
        "index": 10,
        "scale": 0.33371186573937184
      }
    },
    {
      "name": "interior:INT_Plastica_Plancia",
      "doubleSided": true,
      "pbrMetallicRoughness": {
        "roughnessFactor": 0.9873865537711943,
        "metallicFactor": 0,
        "baseColorTexture": {
          "index": 11
        }
      }
    },
    {
      "name": "interior:INT_Pedali",
      "doubleSided": true,
      "pbrMetallicRoughness": {
        "baseColorFactor": [
          0.030061379594943535,
          0.030061379594943535,
          0.030061379594943535,
          1
        ],
        "roughnessFactor": 0.9152815328990593,
        "metallicFactor": 0,
        "baseColorTexture": {
          "index": 12
        }
      }
    },
    {
      "name": "interior:INT_Volante_METALLO",
      "doubleSided": true,
      "pbrMetallicRoughness": {
        "baseColorFactor": [
          0.5972017883558645,
          0.6038273388475408,
          0.5972017883558645,
          1
        ],
        "roughnessFactor": 0
      }
    },
    {
      "name": "interior:INT_Metallo_Bianco",
      "doubleSided": true,
      "pbrMetallicRoughness": {
        "baseColorFactor": [
          0.2851277879562633,
          0.2851277879562633,
          0.2851277879562633,
          1
        ],
        "roughnessFactor": 0
      }
    },
    {
      "name": "interior:INT_Metallo_Satinato",
      "doubleSided": true,
      "pbrMetallicRoughness": {
        "baseColorFactor": [
          0.3276388560164833,
          0.3276388560164833,
          0.3276388560164833,
          1
        ],
        "roughnessFactor": 0.30190755088731425
      }
    },
    {
      "name": "interior:INT_Logo_Airbag",
      "alphaMode": "BLEND",
      "doubleSided": true,
      "pbrMetallicRoughness": {
        "roughnessFactor": 0.9407841882636396,
        "metallicFactor": 0,
        "baseColorTexture": {
          "index": 13
        }
      }
    },
    {
      "name": "interior:INT_Skin",
      "doubleSided": true,
      "pbrMetallicRoughness": {
        "metallicFactor": 0,
        "baseColorTexture": {
          "index": 14
        }
      }
    },
    {
      "name": "interior:INT_Skin_Spugna",
      "doubleSided": true,
      "pbrMetallicRoughness": {
        "roughnessFactor": 0.997367851974095,
        "metallicFactor": 0,
        "baseColorTexture": {
          "index": 15
        }
      }
    },
    {
      "name": "interior:INT_Volante",
      "doubleSided": true,
      "pbrMetallicRoughness": {
        "roughnessFactor": 0,
        "metallicFactor": 0.24261671989604333,
        "baseColorTexture": {
          "index": 16
        }
      }
    },
    {
      "name": "interior:INT_cuciture_NM",
      "alphaMode": "BLEND",
      "doubleSided": true,
      "pbrMetallicRoughness": {
        "roughnessFactor": 0.8909894940075052,
        "metallicFactor": 0,
        "baseColorTexture": {
          "index": 17
        }
      }
    },
    {
      "name": "glass:INT_Vetro_Laterale",
      "alphaMode": "BLEND",
      "pbrMetallicRoughness": {
        "roughnessFactor": 0,
        "metallicFactor": 0,
        "baseColorTexture": {
          "index": 8
        }
      }
    },
    {
      "name": "interior:INT_Altoparlanti",
      "doubleSided": true,
      "pbrMetallicRoughness": {
        "baseColorFactor": [
          0.12115652543827202,
          0.12115652543827202,
          0.12115652543827202,
          1
        ],
        "roughnessFactor": 0.6239396906913606,
        "metallicFactor": 0,
        "baseColorTexture": {
          "index": 18
        }
      }
    },
    {
      "name": "tyre:INT_Gomma_Guarnizioni",
      "doubleSided": true,
      "pbrMetallicRoughness": {
        "baseColorFactor": [
          0.02285197781859857,
          0.02223386628888362,
          0.02285197781859857,
          1
        ],
        "metallicFactor": 0.4308800213055889
      }
    },
    {
      "name": "interior:INT_Plastica_Rossa",
      "doubleSided": true,
      "pbrMetallicRoughness": {
        "baseColorFactor": [
          0.4452011945063733,
          0.0006070539670588235,
          0.0015176349176470587,
          1
        ],
        "roughnessFactor": 0,
        "metallicFactor": 0
      }
    },
    {
      "name": "interior:INT_Zona1_tessuto",
      "doubleSided": true,
      "pbrMetallicRoughness": {
        "metallicFactor": 0,
        "baseColorTexture": {
          "index": 19
        }
      }
    },
    {
      "name": "interior:INT_Display",
      "doubleSided": true,
      "pbrMetallicRoughness": {
        "metallicFactor": 0,
        "baseColorTexture": {
          "index": 20
        }
      }
    },
    {
      "name": "interior:INT_Guaina_Cambio",
      "doubleSided": true,
      "pbrMetallicRoughness": {
        "baseColorFactor": [
          0.06042642820938637,
          0.06042642820938637,
          0.06042642820938637,
          1
        ],
        "roughnessFactor": 0.9787867965644036,
        "metallicFactor": 0,
        "baseColorTexture": {
          "index": 21
        }
      }
    },
    {
      "name": "interior:INT_cuciture_NM_skin",
      "alphaMode": "BLEND",
      "doubleSided": true,
      "pbrMetallicRoughness": {
        "metallicFactor": 0,
        "baseColorTexture": {
          "index": 17
        }
      }
    },
    {
      "name": "interior:INT_Logo_Cambio",
      "doubleSided": true,
      "pbrMetallicRoughness": {
        "roughnessFactor": 0.9110860294980538,
        "metallicFactor": 0,
        "baseColorTexture": {
          "index": 22
        }
      }
    },
    {
      "name": "interior:INT_Cintura",
      "pbrMetallicRoughness": {
        "roughnessFactor": 0.995,
        "metallicFactor": 0,
        "baseColorTexture": {
          "index": 23
        }
      }
    },
    {
      "name": "glass:INT_Vetro",
      "pbrMetallicRoughness": {
        "baseColorFactor": [
          0.8,
          0.8,
          0.8,
          1
        ],
        "roughnessFactor": 0,
        "metallicFactor": 0
      }
    },
    {
      "name": "interior:INT_LCD",
      "doubleSided": true,
      "pbrMetallicRoughness": {
        "roughnessFactor": 0,
        "metallicFactor": 0,
        "baseColorTexture": {
          "index": 24
        }
      }
    },
    {
      "name": "glass:INT_Vetro_Display",
      "alphaMode": "BLEND",
      "doubleSided": true,
      "pbrMetallicRoughness": {
        "baseColorFactor": [
          0,
          0,
          0,
          0
        ],
        "roughnessFactor": 0,
        "metallicFactor": 0
      }
    },
    {
      "name": "interior:INT_Bianco_REF",
      "doubleSided": true,
      "pbrMetallicRoughness": {
        "baseColorFactor": [
          0.5972017883558645,
          0.6038273388475408,
          0.5972017883558645,
          1
        ],
        "roughnessFactor": 0.6500364488419417,
        "metallicFactor": 0
      }
    },
    {
      "name": "other:GLOBAL_Specchio",
      "doubleSided": true,
      "pbrMetallicRoughness": {
        "roughnessFactor": 0,
        "baseColorTexture": {
          "index": 25
        }
      }
    },
    {
      "name": "interior:INT_Pedana",
      "doubleSided": true,
      "pbrMetallicRoughness": {
        "baseColorFactor": [
          0.0006869619797001213,
          0.000668380694373349,
          0.0006869619797001213,
          1
        ],
        "roughnessFactor": 0.1865203661524315,
        "metallicFactor": 0.5462672060404716
      }
    },
    {
      "name": "interior:INT_Exstrusione_Leva_NM",
      "doubleSided": true,
      "pbrMetallicRoughness": {
        "baseColorFactor": [
          0.02217388478862707,
          0.02121901037134225,
          0.02217388478862707,
          1
        ],
        "roughnessFactor": 0.4112217258993084,
        "metallicFactor": 0
      }
    },
    {
      "name": "interior:INT_Zona2_Strip",
      "doubleSided": true,
      "pbrMetallicRoughness": {
        "baseColorFactor": [
          0.2702359244776652,
          0.0003684801209436711,
          0.0009212003023591778,
          1
        ],
        "roughnessFactor": 0.9858578643762691,
        "metallicFactor": 0
      }
    },
    {
      "name": "tyre:INT_Tappeto_Gomma",
      "doubleSided": true,
      "pbrMetallicRoughness": {
        "baseColorFactor": [
          0.04220739904072067,
          0.04220739904072067,
          0.04220739904072067,
          1
        ],
        "metallicFactor": 0,
        "baseColorTexture": {
          "index": 26
        }
      }
    },
    {
      "name": "interior:INT_Plancia",
      "doubleSided": true,
      "pbrMetallicRoughness": {
        "baseColorFactor": [
          0.6172065624120635,
          0.5972017883558645,
          0.6172065624120635,
          1
        ],
        "roughnessFactor": 0,
        "metallicFactor": 0
      }
    },
    {
      "name": "interior:INT_Metallo_Nero",
      "doubleSided": true,
      "pbrMetallicRoughness": {
        "baseColorFactor": [
          0,
          0,
          0,
          1
        ],
        "roughnessFactor": 0.9643237865499183,
        "metallicFactor": 0
      }
    },
    {
      "name": "interior:INT_Display_REF",
      "doubleSided": true,
      "pbrMetallicRoughness": {
        "roughnessFactor": 0,
        "metallicFactor": 0,
        "baseColorTexture": {
          "index": 20
        }
      }
    },
    {
      "name": "interior:INT_Telaio",
      "doubleSided": true,
      "pbrMetallicRoughness": {
        "baseColorFactor": [
          0.02398836987205497,
          0.02398836987205497,
          0.02398836987205497,
          1
        ],
        "metallicFactor": 0,
        "baseColorTexture": {
          "index": 27
        }
      }
    },
    {
      "name": "interior:INT_Plastica_Nera_REF",
      "doubleSided": true,
      "pbrMetallicRoughness": {
        "baseColorFactor": [
          0.02217388478862707,
          0.02121901037134225,
          0.02217388478862707,
          1
        ],
        "roughnessFactor": 0,
        "metallicFactor": 0
      }
    },
    {
      "name": "interior:INT_COLORE_Nero",
      "doubleSided": true,
      "pbrMetallicRoughness": {
        "baseColorFactor": [
          0,
          0,
          0,
          1
        ],
        "metallicFactor": 0
      }
    },
    {
      "name": "interior:INT_Tappeto",
      "doubleSided": true,
      "pbrMetallicRoughness": {
        "baseColorFactor": [
          0.303346817124929,
          0.303346817124929,
          0.303346817124929,
          1
        ],
        "metallicFactor": 0,
        "baseColorTexture": {
          "index": 28
        }
      }
    },
    {
      "name": "interior:INT_Logo_500",
      "alphaMode": "BLEND",
      "doubleSided": true,
      "pbrMetallicRoughness": {
        "roughnessFactor": 0.8504651218778779,
        "metallicFactor": 0,
        "baseColorTexture": {
          "index": 29
        }
      }
    },
    {
      "name": "other:CAR_Scarico",
      "doubleSided": true,
      "pbrMetallicRoughness": {
        "baseColorFactor": [
          0.29120079767915186,
          0.29120079767915186,
          0.29120079767915186,
          1
        ],
        "roughnessFactor": 0.1743743467066543,
        "baseColorTexture": {
          "index": 3
        }
      }
    },
    {
      "name": "other:EXT_PLATE_plastic",
      "doubleSided": true,
      "pbrMetallicRoughness": {
        "roughnessFactor": 0.5266089106341911,
        "metallicFactor": 0,
        "baseColorTexture": {
          "index": 30
        }
      }
    },
    {
      "name": "glass:CAR_Vetro",
      "alphaMode": "BLEND",
      "pbrMetallicRoughness": {
        "roughnessFactor": 0,
        "baseColorTexture": {
          "index": 8
        }
      }
    },
    {
      "name": "light_misc:EXT_side_lights",
      "doubleSided": true,
      "pbrMetallicRoughness": {
        "roughnessFactor": 0,
        "metallicFactor": 0.5462672060404716,
        "baseColorTexture": {
          "index": 7
        }
      }
    }
  ],
  "meshes": [
    {
      "name": "Body",
      "primitives": [
        {
          "attributes": {
            "POSITION": 0,
            "NORMAL": 1,
            "TEXCOORD_0": 2
          },
          "mode": 4,
          "material": 0,
          "indices": 3
        },
        {
          "attributes": {
            "POSITION": 74,
            "NORMAL": 75,
            "TEXCOORD_0": 76
          },
          "mode": 4,
          "material": 3,
          "indices": 6
        },
        {
          "attributes": {
            "POSITION": 84,
            "NORMAL": 85,
            "TEXCOORD_0": 86
          },
          "mode": 4,
          "material": 7,
          "indices": 9
        },
        {
          "attributes": {
            "POSITION": 87,
            "NORMAL": 88,
            "TEXCOORD_0": 89
          },
          "mode": 4,
          "material": 5,
          "indices": 10
        },
        {
          "attributes": {
            "POSITION": 90,
            "NORMAL": 91,
            "TEXCOORD_0": 92
          },
          "mode": 4,
          "material": 8,
          "indices": 11
        },
        {
          "attributes": {
            "POSITION": 93,
            "NORMAL": 94,
            "TEXCOORD_0": 95
          },
          "mode": 4,
          "material": 9,
          "indices": 12
        },
        {
          "attributes": {
            "POSITION": 96,
            "NORMAL": 97,
            "TEXCOORD_0": 98
          },
          "mode": 4,
          "material": 10,
          "indices": 13
        },
        {
          "attributes": {
            "POSITION": 99,
            "NORMAL": 100,
            "TEXCOORD_0": 101
          },
          "mode": 4,
          "material": 11,
          "indices": 14
        },
        {
          "attributes": {
            "POSITION": 119,
            "NORMAL": 120,
            "TEXCOORD_0": 121
          },
          "mode": 4,
          "material": 12,
          "indices": 20
        },
        {
          "attributes": {
            "POSITION": 122,
            "NORMAL": 123,
            "TEXCOORD_0": 124
          },
          "mode": 4,
          "material": 13,
          "indices": 21
        },
        {
          "attributes": {
            "POSITION": 125,
            "NORMAL": 126,
            "TEXCOORD_0": 127
          },
          "mode": 4,
          "material": 14,
          "indices": 22
        },
        {
          "attributes": {
            "POSITION": 128,
            "NORMAL": 129
          },
          "mode": 4,
          "material": 15,
          "indices": 23
        },
        {
          "attributes": {
            "POSITION": 130,
            "NORMAL": 131
          },
          "mode": 4,
          "material": 16,
          "indices": 24
        },
        {
          "attributes": {
            "POSITION": 132,
            "NORMAL": 133,
            "TEXCOORD_0": 134
          },
          "mode": 4,
          "material": 17,
          "indices": 25
        },
        {
          "attributes": {
            "POSITION": 135,
            "NORMAL": 136,
            "TEXCOORD_0": 137
          },
          "mode": 4,
          "material": 18,
          "indices": 26
        },
        {
          "attributes": {
            "POSITION": 138,
            "NORMAL": 139,
            "TEXCOORD_0": 140
          },
          "mode": 4,
          "material": 19,
          "indices": 27
        },
        {
          "attributes": {
            "POSITION": 141,
            "NORMAL": 142,
            "TEXCOORD_0": 143
          },
          "mode": 4,
          "material": 20,
          "indices": 28
        },
        {
          "attributes": {
            "POSITION": 144,
            "NORMAL": 145,
            "TEXCOORD_0": 146
          },
          "mode": 4,
          "material": 21,
          "indices": 29
        },
        {
          "attributes": {
            "POSITION": 147,
            "NORMAL": 148,
            "TEXCOORD_0": 149
          },
          "mode": 4,
          "material": 22,
          "indices": 30
        },
        {
          "attributes": {
            "POSITION": 150,
            "NORMAL": 151,
            "TEXCOORD_0": 152
          },
          "mode": 4,
          "material": 23,
          "indices": 31
        },
        {
          "attributes": {
            "POSITION": 153,
            "NORMAL": 154,
            "TEXCOORD_0": 155
          },
          "mode": 4,
          "material": 24,
          "indices": 32
        },
        {
          "attributes": {
            "POSITION": 156,
            "NORMAL": 157,
            "TEXCOORD_0": 158
          },
          "mode": 4,
          "material": 25,
          "indices": 33
        },
        {
          "attributes": {
            "POSITION": 159,
            "NORMAL": 160,
            "TEXCOORD_0": 161
          },
          "mode": 4,
          "material": 26,
          "indices": 34
        },
        {
          "attributes": {
            "POSITION": 162,
            "NORMAL": 163,
            "TEXCOORD_0": 164
          },
          "mode": 4,
          "material": 27,
          "indices": 35
        },
        {
          "attributes": {
            "POSITION": 165,
            "NORMAL": 166,
            "TEXCOORD_0": 167
          },
          "mode": 4,
          "material": 30,
          "indices": 36
        },
        {
          "attributes": {
            "POSITION": 168,
            "NORMAL": 169,
            "TEXCOORD_0": 170
          },
          "mode": 4,
          "material": 28,
          "indices": 37
        },
        {
          "attributes": {
            "POSITION": 171,
            "NORMAL": 172,
            "TEXCOORD_0": 173
          },
          "mode": 4,
          "material": 29,
          "indices": 38
        },
        {
          "attributes": {
            "POSITION": 174,
            "NORMAL": 175,
            "TEXCOORD_0": 176
          },
          "mode": 4,
          "material": 31,
          "indices": 39
        },
        {
          "attributes": {
            "POSITION": 177,
            "NORMAL": 178
          },
          "mode": 4,
          "material": 32,
          "indices": 40
        },
        {
          "attributes": {
            "POSITION": 179,
            "NORMAL": 180,
            "TEXCOORD_0": 181
          },
          "mode": 4,
          "material": 33,
          "indices": 41
        },
        {
          "attributes": {
            "POSITION": 182,
            "NORMAL": 183,
            "TEXCOORD_0": 184
          },
          "mode": 4,
          "material": 34,
          "indices": 42
        },
        {
          "attributes": {
            "POSITION": 185,
            "NORMAL": 186,
            "TEXCOORD_0": 187
          },
          "mode": 4,
          "material": 35,
          "indices": 43
        },
        {
          "attributes": {
            "POSITION": 188,
            "NORMAL": 189,
            "TEXCOORD_0": 190
          },
          "mode": 4,
          "material": 36,
          "indices": 44
        },
        {
          "attributes": {
            "POSITION": 191,
            "NORMAL": 192,
            "TEXCOORD_0": 193
          },
          "mode": 4,
          "material": 37,
          "indices": 45
        },
        {
          "attributes": {
            "POSITION": 194,
            "NORMAL": 195,
            "TEXCOORD_0": 196
          },
          "mode": 4,
          "material": 38,
          "indices": 46
        },
        {
          "attributes": {
            "POSITION": 197,
            "NORMAL": 198,
            "TEXCOORD_0": 199
          },
          "mode": 4,
          "material": 39,
          "indices": 47
        },
        {
          "attributes": {
            "POSITION": 200,
            "NORMAL": 201,
            "TEXCOORD_0": 202
          },
          "mode": 4,
          "material": 40,
          "indices": 48
        },
        {
          "attributes": {
            "POSITION": 203,
            "NORMAL": 204,
            "TEXCOORD_0": 205
          },
          "mode": 4,
          "material": 41,
          "indices": 49
        },
        {
          "attributes": {
            "POSITION": 206,
            "NORMAL": 207,
            "TEXCOORD_0": 208
          },
          "mode": 4,
          "material": 42,
          "indices": 50
        },
        {
          "attributes": {
            "POSITION": 209,
            "NORMAL": 210,
            "TEXCOORD_0": 211
          },
          "mode": 4,
          "material": 43,
          "indices": 51
        },
        {
          "attributes": {
            "POSITION": 212,
            "NORMAL": 213,
            "TEXCOORD_0": 214
          },
          "mode": 4,
          "material": 26,
          "indices": 52
        },
        {
          "attributes": {
            "POSITION": 215,
            "NORMAL": 216,
            "TEXCOORD_0": 217
          },
          "mode": 4,
          "material": 44,
          "indices": 53
        },
        {
          "attributes": {
            "POSITION": 218,
            "NORMAL": 219,
            "TEXCOORD_0": 220
          },
          "mode": 4,
          "material": 45,
          "indices": 54
        },
        {
          "attributes": {
            "POSITION": 221,
            "NORMAL": 222,
            "TEXCOORD_0": 223
          },
          "mode": 4,
          "material": 46,
          "indices": 55
        },
        {
          "attributes": {
            "POSITION": 224,
            "NORMAL": 225,
            "TEXCOORD_0": 226
          },
          "mode": 4,
          "material": 47,
          "indices": 56
        },
        {
          "attributes": {
            "POSITION": 227,
            "NORMAL": 228,
            "TEXCOORD_0": 229
          },
          "mode": 4,
          "material": 48,
          "indices": 57
        },
        {
          "attributes": {
            "POSITION": 239,
            "NORMAL": 240,
            "TEXCOORD_0": 241
          },
          "mode": 4,
          "material": 49,
          "indices": 61
        },
        {
          "attributes": {
            "POSITION": 247,
            "NORMAL": 248,
            "TEXCOORD_0": 249
          },
          "mode": 4,
          "material": 50,
          "indices": 63
        },
        {
          "attributes": {
            "POSITION": 254,
            "NORMAL": 255,
            "TEXCOORD_0": 256
          },
          "mode": 4,
          "material": 10,
          "indices": 65
        },
        {
          "attributes": {
            "POSITION": 257,
            "NORMAL": 258,
            "TEXCOORD_0": 259
          },
          "mode": 4,
          "material": 51,
          "indices": 66
        },
        {
          "attributes": {
            "POSITION": 260,
            "NORMAL": 261,
            "TEXCOORD_0": 262
          },
          "mode": 4,
          "material": 52,
          "indices": 67
        }
      ]
    },
    {
      "name": "Wheel_FR_Spin",
      "primitives": [
        {
          "attributes": {
            "POSITION": 68,
            "NORMAL": 69,
            "TEXCOORD_0": 70
          },
          "mode": 4,
          "material": 1,
          "indices": 4
        },
        {
          "attributes": {
            "POSITION": 71,
            "NORMAL": 72,
            "TEXCOORD_0": 73
          },
          "mode": 4,
          "material": 2,
          "indices": 5
        },
        {
          "attributes": {
            "POSITION": 230,
            "NORMAL": 231,
            "TEXCOORD_0": 232
          },
          "mode": 4,
          "material": 5,
          "indices": 58
        },
        {
          "attributes": {
            "POSITION": 250,
            "NORMAL": 251,
            "TEXCOORD_0": 252
          },
          "mode": 4,
          "material": 6,
          "indices": 64
        }
      ]
    },
    {
      "name": "Wheel_FL_Caliper",
      "primitives": [
        {
          "attributes": {
            "POSITION": 77,
            "NORMAL": 78,
            "TEXCOORD_0": 79
          },
          "mode": 4,
          "material": 4,
          "indices": 7
        }
      ]
    },
    {
      "name": "Wheel_FL_Spin",
      "primitives": [
        {
          "attributes": {
            "POSITION": 80,
            "NORMAL": 81,
            "TEXCOORD_0": 82
          },
          "mode": 4,
          "material": 5,
          "indices": 8
        },
        {
          "attributes": {
            "POSITION": 113,
            "NORMAL": 114,
            "TEXCOORD_0": 115
          },
          "mode": 4,
          "material": 6,
          "indices": 18
        },
        {
          "attributes": {
            "POSITION": 233,
            "NORMAL": 234,
            "TEXCOORD_0": 235
          },
          "mode": 4,
          "material": 1,
          "indices": 59
        },
        {
          "attributes": {
            "POSITION": 236,
            "NORMAL": 237,
            "TEXCOORD_0": 238
          },
          "mode": 4,
          "material": 2,
          "indices": 60
        }
      ]
    },
    {
      "name": "Wheel_RR_Spin",
      "primitives": [
        {
          "attributes": {
            "POSITION": 83,
            "NORMAL": 251,
            "TEXCOORD_0": 252
          },
          "mode": 4,
          "material": 6,
          "indices": 64
        },
        {
          "attributes": {
            "POSITION": 102,
            "NORMAL": 103,
            "TEXCOORD_0": 104
          },
          "mode": 4,
          "material": 5,
          "indices": 15
        },
        {
          "attributes": {
            "POSITION": 109,
            "NORMAL": 110,
            "TEXCOORD_0": 111
          },
          "mode": 4,
          "material": 1,
          "indices": 17
        },
        {
          "attributes": {
            "POSITION": 112,
            "NORMAL": 72,
            "TEXCOORD_0": 73
          },
          "mode": 4,
          "material": 2,
          "indices": 5
        }
      ]
    },
    {
      "name": "Wheel_RL_Spin",
      "primitives": [
        {
          "attributes": {
            "POSITION": 105,
            "NORMAL": 106,
            "TEXCOORD_0": 107
          },
          "mode": 4,
          "material": 5,
          "indices": 16
        },
        {
          "attributes": {
            "POSITION": 243,
            "NORMAL": 244,
            "TEXCOORD_0": 245
          },
          "mode": 4,
          "material": 1,
          "indices": 62
        },
        {
          "attributes": {
            "POSITION": 246,
            "NORMAL": 237,
            "TEXCOORD_0": 238
          },
          "mode": 4,
          "material": 2,
          "indices": 60
        },
        {
          "attributes": {
            "POSITION": 253,
            "NORMAL": 114,
            "TEXCOORD_0": 115
          },
          "mode": 4,
          "material": 6,
          "indices": 18
        }
      ]
    },
    {
      "name": "Wheel_RL_Caliper",
      "primitives": [
        {
          "attributes": {
            "POSITION": 108,
            "NORMAL": 78,
            "TEXCOORD_0": 79
          },
          "mode": 4,
          "material": 4,
          "indices": 7
        }
      ]
    },
    {
      "name": "Wheel_RR_Caliper",
      "primitives": [
        {
          "attributes": {
            "POSITION": 116,
            "NORMAL": 117,
            "TEXCOORD_0": 118
          },
          "mode": 4,
          "material": 4,
          "indices": 19
        }
      ]
    },
    {
      "name": "Wheel_FR_Caliper",
      "primitives": [
        {
          "attributes": {
            "POSITION": 242,
            "NORMAL": 117,
            "TEXCOORD_0": 118
          },
          "mode": 4,
          "material": 4,
          "indices": 19
        }
      ]
    }
  ],
  "nodes": [
    {
      "name": "Body",
      "mesh": 0
    },
    {
      "name": "Wheel_FR",
      "translation": [
        0.696162074804306,
        0.2967720647866372,
        -1.1492358818650246
      ],
      "children": [
        2,
        12
      ]
    },
    {
      "name": "Wheel_FR_Spin",
      "mesh": 1
    },
    {
      "name": "Wheel_FL",
      "translation": [
        -0.696162074804306,
        0.29676785055198707,
        -1.1492358818650246
      ],
      "children": [
        4,
        5
      ]
    },
    {
      "name": "Wheel_FL_Caliper",
      "mesh": 2
    },
    {
      "name": "Wheel_FL_Spin",
      "mesh": 3
    },
    {
      "name": "Wheel_RR",
      "translation": [
        0.696162074804306,
        0.29673503027879633,
        1.1492358818650246
      ],
      "children": [
        7,
        11
      ]
    },
    {
      "name": "Wheel_RR_Spin",
      "mesh": 4
    },
    {
      "name": "Wheel_RL",
      "translation": [
        -0.696162074804306,
        0.29673503027879633,
        1.1492358818650246
      ],
      "children": [
        9,
        10
      ]
    },
    {
      "name": "Wheel_RL_Spin",
      "mesh": 5
    },
    {
      "name": "Wheel_RL_Caliper",
      "mesh": 6
    },
    {
      "name": "Wheel_RR_Caliper",
      "mesh": 7
    },
    {
      "name": "Wheel_FR_Caliper",
      "mesh": 8
    }
  ],
  "scenes": [
    {
      "name": "Sketchfab_Scene",
      "nodes": [
        0,
        1,
        3,
        6,
        8
      ]
    }
  ],
  "scene": 0
}