{
  "asset": {
    "generator": "glTF-Transform v4.5.0",
    "version": "2.0",
    "extras": {
      "author": "wallon (https://sketchfab.com/realwallon)",
      "license": "CC-BY-4.0 (http://creativecommons.org/licenses/by/4.0/)",
      "source": "https://sketchfab.com/3d-models/audi-r8-e17e438f076f4427a58d93aa779edaed",
      "title": "Audi R8"
    }
  },
  "accessors": [
    {
      "type": "VEC3",
      "componentType": 5126,
      "count": 1077,
      "max": [
        0.18772920966148376,
        0.27341240644454956,
        0.262846440076828
      ],
      "min": [
        -0.19035091996192932,
        -0.2735764980316162,
        -0.2628472149372101
      ],
      "bufferView": 0,
      "byteOffset": 0
    },
    {
      "type": "VEC3",
      "componentType": 5126,
      "count": 1077,
      "bufferView": 0,
      "byteOffset": 12
    },
    {
      "type": "SCALAR",
      "componentType": 5123,
      "count": 6387,
      "bufferView": 1,
      "byteOffset": 0
    },
    {
      "type": "SCALAR",
      "componentType": 5123,
      "count": 6387,
      "bufferView": 1,
      "byteOffset": 12776
    },
    {
      "type": "SCALAR",
      "componentType": 5123,
      "count": 2634,
      "bufferView": 1,
      "byteOffset": 25552
    },
    {
      "type": "SCALAR",
      "componentType": 5123,
      "count": 2637,
      "bufferView": 1,
      "byteOffset": 30820
    },
    {
      "type": "SCALAR",
      "componentType": 5123,
      "count": 771,
      "bufferView": 1,
      "byteOffset": 36096
    },
    {
      "type": "SCALAR",
      "componentType": 5123,
      "count": 807,
      "bufferView": 1,
      "byteOffset": 37640
    },
    {
      "type": "SCALAR",
      "componentType": 5123,
      "count": 2730,
      "bufferView": 1,
      "byteOffset": 39256
    },
    {
      "type": "SCALAR",
      "componentType": 5123,
      "count": 2730,
      "bufferView": 1,
      "byteOffset": 44716
    },
    {
      "type": "SCALAR",
      "componentType": 5123,
      "count": 795,
      "bufferView": 1,
      "byteOffset": 50176
    },
    {
      "type": "SCALAR",
      "componentType": 5123,
      "count": 801,
      "bufferView": 1,
      "byteOffset": 51768
    },
    {
      "type": "SCALAR",
      "componentType": 5123,
      "count": 6387,
      "bufferView": 1,
      "byteOffset": 53372
    },
    {
      "type": "SCALAR",
      "componentType": 5123,
      "count": 6384,
      "bufferView": 1,
      "byteOffset": 66148
    },
    {
      "type": "SCALAR",
      "componentType": 5123,
      "count": 2634,
      "bufferView": 1,
      "byteOffset": 78916
    },
    {
      "type": "SCALAR",
      "componentType": 5123,
      "count": 2637,
      "bufferView": 1,
      "byteOffset": 84184
    },
    {
      "type": "SCALAR",
      "componentType": 5123,
      "count": 2730,
      "bufferView": 1,
      "byteOffset": 89460
    },
    {
      "type": "SCALAR",
      "componentType": 5123,
      "count": 2730,
      "bufferView": 1,
      "byteOffset": 94920
    },
    {
      "type": "SCALAR",
      "componentType": 5123,
      "count": 5589,
      "bufferView": 1,
      "byteOffset": 100380
    },
    {
      "type": "SCALAR",
      "componentType": 5123,
      "count": 84,
      "bufferView": 1,
      "byteOffset": 111560
    },
    {
      "type": "SCALAR",
      "componentType": 5123,
      "count": 114,
      "bufferView": 1,
      "byteOffset": 111728
    },
    {
      "type": "SCALAR",
      "componentType": 5123,
      "count": 303,
      "bufferView": 1,
      "byteOffset": 111956
    },
    {
      "type": "SCALAR",
      "componentType": 5123,
      "count": 1536,
      "bufferView": 1,
      "byteOffset": 112564
    },
    {
      "type": "SCALAR",
      "componentType": 5123,
      "count": 192,
      "bufferView": 1,
      "byteOffset": 115636
    },
    {
      "type": "SCALAR",
      "componentType": 5123,
      "count": 1725,
      "bufferView": 1,
      "byteOffset": 116020
    },
    {
      "type": "SCALAR",
      "componentType": 5123,
      "count": 4473,
      "bufferView": 1,
      "byteOffset": 119472
    },
    {
      "type": "SCALAR",
      "componentType": 5123,
      "count": 85749,
      "bufferView": 1,
      "byteOffset": 128420
    },
    {
      "type": "SCALAR",
      "componentType": 5123,
      "count": 155280,
      "bufferView": 1,
      "byteOffset": 299920
    },
    {
      "type": "SCALAR",
      "componentType": 5123,
      "count": 4398,
      "bufferView": 1,
      "byteOffset": 610480
    },
    {
      "type": "SCALAR",
      "componentType": 5123,
      "count": 1197,
      "bufferView": 1,
      "byteOffset": 619276
    },
    {
      "type": "SCALAR",
      "componentType": 5123,
      "count": 1302,
      "bufferView": 1,
      "byteOffset": 621672
    },
    {
      "type": "SCALAR",
      "componentType": 5123,
      "count": 5166,
      "bufferView": 1,
      "byteOffset": 624276
    },
    {
      "type": "SCALAR",
      "componentType": 5123,
      "count": 2754,
      "bufferView": 1,
      "byteOffset": 634608
    },
    {
      "type": "SCALAR",
      "componentType": 5123,
      "count": 4656,
      "bufferView": 1,
      "byteOffset": 640116
    },
    {
      "type": "SCALAR",
      "componentType": 5123,
      "count": 66,
      "bufferView": 1,
      "byteOffset": 649428
    },
    {
      "type": "VEC3",
      "componentType": 5126,
      "count": 1078,
      "max": [
        0.19035086035728455,
        0.2737473249435425,
        0.262846440076828
      ],
      "min": [
        -0.187729150056839,
        -0.2735764980316162,
        -0.2628472149372101
      ],
      "bufferView": 2,
      "byteOffset": 0
    },
    {
      "type": "VEC3",
      "componentType": 5126,
      "count": 1078,
      "bufferView": 2,
      "byteOffset": 12
    },
    {
      "type": "VEC3",
      "componentType": 5126,
      "count": 547,
      "max": [
        0.1873086392879486,
        0.35766422748565674,
        0.35267695784568787
      ],
      "min": [
        -0.18738916516304016,
        -0.35766422748565674,
        -0.352681428194046
      ],
      "bufferView": 3,
      "byteOffset": 0
    },
    {
      "type": "VEC3",
      "componentType": 5126,
      "count": 547,
      "bufferView": 3,
      "byteOffset": 12
    },
    {
      "type": "VEC2",
      "componentType": 5126,
      "count": 547,
      "bufferView": 3,
      "byteOffset": 24
    },
    {
      "type": "VEC3",
      "componentType": 5126,
      "count": 546,
      "max": [
        0.18738910555839539,
        0.35766422748565674,
        0.35267695784568787
      ],
      "min": [
        -0.18738916516304016,
        -0.35766422748565674,
        -0.352681428194046
      ],
      "bufferView": 4,
      "byteOffset": 0
    },
    {
      "type": "VEC3",
      "componentType": 5126,
      "count": 546,
      "bufferView": 4,
      "byteOffset": 12
    },
    {
      "type": "VEC2",
      "componentType": 5126,
      "count": 546,
      "bufferView": 4,
      "byteOffset": 24
    },
    {
      "type": "VEC3",
      "componentType": 5126,
      "count": 277,
      "max": [
        0.17477664351463318,
        0.14137454330921173,
        0.148505300283432
      ],
      "min": [
        0.11676022410392761,
        -0.15672041475772858,
        -0.14864423871040344
      ],
      "bufferView": 5,
      "byteOffset": 0
    },
    {
      "type": "VEC3",
      "componentType": 5126,
      "count": 277,
      "bufferView": 5,
      "byteOffset": 12
    },
    {
      "type": "VEC2",
      "componentType": 5126,
      "count": 277,
      "bufferView": 5,
      "byteOffset": 24
    },
    {
      "type": "VEC3",
      "componentType": 5126,
      "count": 292,
      "max": [
        -0.11676028370857239,
        0.14137454330921173,
        0.148505300283432
      ],
      "min": [
        -0.1747765839099884,
        -0.15652363002300262,
        -0.14864423871040344
      ],
      "bufferView": 6,
      "byteOffset": 0
    },
    {
      "type": "VEC3",
      "componentType": 5126,
      "count": 292,
      "bufferView": 6,
      "byteOffset": 12
    },
    {
      "type": "VEC2",
      "componentType": 5126,
      "count": 292,
      "bufferView": 6,
      "byteOffset": 24
    },
    {
      "type": "VEC3",
      "componentType": 5126,
      "count": 812,
      "max": [
        0.1929667890071869,
        0.1169220358133316,
        0.15826115012168884
      ],
      "min": [
        0.11566516757011414,
        -0.13072364032268524,
        0.08571013808250427
      ],
      "bufferView": 7,
      "byteOffset": 0
    },
    {
      "type": "VEC3",
      "componentType": 5126,
      "count": 812,
      "bufferView": 7,
      "byteOffset": 12
    },
    {
      "type": "VEC3",
      "componentType": 5126,
      "count": 811,
      "max": [
        -0.11566510796546936,
        0.1169220358133316,
        0.15826115012168884
      ],
      "min": [
        -0.19296684861183167,
        -0.13072364032268524,
        0.08571013808250427
      ],
      "bufferView": 8,
      "byteOffset": 0
    },
    {
      "type": "VEC3",
      "componentType": 5126,
      "count": 811,
      "bufferView": 8,
      "byteOffset": 12
    },
    {
      "type": "VEC3",
      "componentType": 5126,
      "count": 288,
      "max": [
        0.16896891593933105,
        0.13667674362659454,
        0.14359953999519348
      ],
      "min": [
        0.1128612756729126,
        -0.15151266753673553,
        -0.14367887377738953
      ],
      "bufferView": 9,
      "byteOffset": 0
    },
    {
      "type": "VEC3",
      "componentType": 5126,
      "count": 288,
      "bufferView": 9,
      "byteOffset": 12
    },
    {
      "type": "VEC2",
      "componentType": 5126,
      "count": 288,
      "bufferView": 9,
      "byteOffset": 24
    },
    {
      "type": "VEC3",
      "componentType": 5126,
      "count": 290,
      "max": [
        -0.11286121606826782,
        0.13667677342891693,
        0.14359965920448303
      ],
      "min": [
        -0.16896885633468628,
        -0.1513223499059677,
        -0.14367935061454773
      ],
      "bufferView": 10,
      "byteOffset": 0
    },
    {
      "type": "VEC3",
      "componentType": 5126,
      "count": 290,
      "bufferView": 10,
      "byteOffset": 12
    },
    {
      "type": "VEC2",
      "componentType": 5126,
      "count": 290,
      "bufferView": 10,
      "byteOffset": 24
    },
    {
      "type": "VEC3",
      "componentType": 5126,
      "count": 1075,
      "max": [
        0.18149101734161377,
        0.26432710886001587,
        0.2541421949863434
      ],
      "min": [
        -0.18403220176696777,
        -0.26448559761047363,
        -0.2541392743587494
      ],
      "bufferView": 11,
      "byteOffset": 0
    },
    {
      "type": "VEC3",
      "componentType": 5126,
      "count": 1075,
      "bufferView": 11,
      "byteOffset": 12
    },
    {
      "type": "VEC3",
      "componentType": 5126,
      "count": 1078,
      "max": [
        0.184032142162323,
        0.2646509110927582,
        0.2541421949863434
      ],
      "min": [
        -0.18149107694625854,
        -0.26448556780815125,
        -0.2541387975215912
      ],
      "bufferView": 12,
      "byteOffset": 0
    },
    {
      "type": "VEC3",
      "componentType": 5126,
      "count": 1078,
      "bufferView": 12,
      "byteOffset": 12
    },
    {
      "type": "VEC3",
      "componentType": 5126,
      "count": 548,
      "max": [
        0.18107998371124268,
        0.34452927112579346,
        0.3409717381000519
      ],
      "min": [
        -0.18116235733032227,
        -0.34577929973602295,
        -0.3409481942653656
      ],
      "bufferView": 13,
      "byteOffset": 0
    },
    {
      "type": "VEC3",
      "componentType": 5126,
      "count": 548,
      "bufferView": 13,
      "byteOffset": 12
    },
    {
      "type": "VEC2",
      "componentType": 5126,
      "count": 548,
      "bufferView": 13,
      "byteOffset": 24
    },
    {
      "type": "VEC3",
      "componentType": 5126,
      "count": 548,
      "max": [
        0.1811622977256775,
        0.34577926993370056,
        0.3409717381000519
      ],
      "min": [
        -0.1811622977256775,
        -0.34577929973602295,
        -0.3401953876018524
      ],
      "bufferView": 14,
      "byteOffset": 0
    },
    {
      "type": "VEC3",
      "componentType": 5126,
      "count": 548,
      "bufferView": 14,
      "byteOffset": 12
    },
    {
      "type": "VEC2",
      "componentType": 5126,
      "count": 548,
      "bufferView": 14,
      "byteOffset": 24
    },
    {
      "type": "VEC3",
      "componentType": 5126,
      "count": 812,
      "max": [
        0.18653690814971924,
        0.11303678900003433,
        0.1530335247516632
      ],
      "min": [
        0.1118006706237793,
        -0.12637977302074432,
        0.08288386464118958
      ],
      "bufferView": 15,
      "byteOffset": 0
    },
    {
      "type": "VEC3",
      "componentType": 5126,
      "count": 812,
      "bufferView": 15,
      "byteOffset": 12
    },
    {
      "type": "VEC3",
      "componentType": 5126,
      "count": 809,
      "max": [
        -0.11180061101913452,
        0.11303679645061493,
        0.15303364396095276
      ],
      "min": [
        -0.18653684854507446,
        -0.12637974321842194,
        0.08288386464118958
      ],
      "bufferView": 16,
      "byteOffset": 0
    },
    {
      "type": "VEC3",
      "componentType": 5126,
      "count": 809,
      "bufferView": 16,
      "byteOffset": 12
    },
    {
      "type": "VEC3",
      "componentType": 5126,
      "count": 1100,
      "max": [
        0.8102574348449707,
        0.8097304105758667,
        1.895787000656128
      ],
      "min": [
        -0.8279567956924438,
        0.6961767077445984,
        1.5635160207748413
      ],
      "bufferView": 17,
      "byteOffset": 0
    },
    {
      "type": "VEC3",
      "componentType": 5126,
      "count": 1100,
      "bufferView": 17,
      "byteOffset": 12
    },
    {
      "type": "VEC3",
      "componentType": 5126,
      "count": 32,
      "max": [
        0.8010067939758301,
        0.7339872717857361,
        1.884408950805664
      ],
      "min": [
        -0.8187060356140137,
        0.7037330865859985,
        1.741457223892212
      ],
      "bufferView": 18,
      "byteOffset": 0
    },
    {
      "type": "VEC3",
      "componentType": 5126,
      "count": 32,
      "bufferView": 18,
      "byteOffset": 12
    },
    {
      "type": "VEC3",
      "componentType": 5126,
      "count": 29,
      "max": [
        0.7826957702636719,
        0.796758234500885,
        1.880911111831665
      ],
      "min": [
        -0.8003948926925659,
        0.7179750800132751,
        1.6741008758544922
      ],
      "bufferView": 19,
      "byteOffset": 0
    },
    {
      "type": "VEC3",
      "componentType": 5126,
      "count": 29,
      "bufferView": 19,
      "byteOffset": 12
    },
    {
      "type": "VEC3",
      "componentType": 5126,
      "count": 78,
      "max": [
        0.8102575540542603,
        0.8097304105758667,
        1.8465465307235718
      ],
      "min": [
        -0.8279566764831543,
        0.6987365484237671,
        1.659487247467041
      ],
      "bufferView": 20,
      "byteOffset": 0
    },
    {
      "type": "VEC3",
      "componentType": 5126,
      "count": 78,
      "bufferView": 20,
      "byteOffset": 12
    },
    {
      "type": "VEC3",
      "componentType": 5126,
      "count": 281,
      "max": [
        0.8102575540542603,
        0.8097303509712219,
        1.901818037033081
      ],
      "min": [
        -0.8279566764831543,
        0.6962661147117615,
        1.678463339805603
      ],
      "bufferView": 21,
      "byteOffset": 0
    },
    {
      "type": "VEC3",
      "componentType": 5126,
      "count": 281,
      "bufferView": 21,
      "byteOffset": 12
    },
    {
      "type": "VEC3",
      "componentType": 5126,
      "count": 51,
      "max": [
        0.5153909921646118,
        0.9266551733016968,
        1.6026146411895752
      ],
      "min": [
        -0.5330902338027954,
        0.8915685415267944,
        1.374190092086792
      ],
      "bufferView": 22,
      "byteOffset": 0
    },
    {
      "type": "VEC3",
      "componentType": 5126,
      "count": 51,
      "bufferView": 22,
      "byteOffset": 12
    },
    {
      "type": "VEC3",
      "componentType": 5126,
      "count": 306,
      "max": [
        0.8180626630783081,
        0.7278810739517212,
        1.8488160371780396
      ],
      "min": [
        -0.8350663185119629,
        0.5353935956954956,
        1.5510897636413574
      ],
      "bufferView": 23,
      "byteOffset": 0
    },
    {
      "type": "VEC3",
      "componentType": 5126,
      "count": 306,
      "bufferView": 23,
      "byteOffset": 12
    },
    {
      "type": "VEC3",
      "componentType": 5126,
      "count": 1020,
      "max": [
        0.9270135164260864,
        1.0922963619232178,
        0.8967149257659912
      ],
      "min": [
        -0.9446407556533813,
        0.3175010085105896,
        0.21221190690994263
      ],
      "bufferView": 24,
      "byteOffset": 0
    },
    {
      "type": "VEC3",
      "componentType": 5126,
      "count": 1020,
      "bufferView": 24,
      "byteOffset": 12
    },
    {
      "type": "VEC2",
      "componentType": 5126,
      "count": 1020,
      "bufferView": 24,
      "byteOffset": 24
    },
    {
      "type": "VEC3",
      "componentType": 5126,
      "count": 15312,
      "max": [
        1.0622659921646118,
        1.2398709058761597,
        2.016796827316284
      ],
      "min": [
        -1.0799652338027954,
        0.09788036346435547,
        -2.401071071624756
      ],
      "bufferView": 25,
      "byteOffset": 0
    },
    {
      "type": "VEC3",
      "componentType": 5126,
      "count": 15312,
      "bufferView": 25,
      "byteOffset": 12
    },
    {
      "type": "VEC3",
      "componentType": 5126,
      "count": 25757,
      "max": [
        0.9787554740905762,
        1.189391016960144,
        2.024434804916382
      ],
      "min": [
        -0.9964797496795654,
        0.22466981410980225,
        -2.232225179672241
      ],
      "bufferView": 26,
      "byteOffset": 0
    },
    {
      "type": "VEC3",
      "componentType": 5126,
      "count": 25757,
      "bufferView": 26,
      "byteOffset": 12
    },
    {
      "type": "VEC3",
      "componentType": 5126,
      "count": 1310,
      "max": [
        0.9183475971221924,
        1.2165162563323975,
        1.9385323524475098
      ],
      "min": [
        -0.9360467195510864,
        0.12758255004882812,
        -2.235482931137085
      ],
      "bufferView": 27,
      "byteOffset": 0
    },
    {
      "type": "VEC3",
      "componentType": 5126,
      "count": 1310,
      "bufferView": 27,
      "byteOffset": 12
    },
    {
      "type": "VEC3",
      "componentType": 5126,
      "count": 259,
      "max": [
        0.8062846660614014,
        1.177165150642395,
        1.5232212543487549
      ],
      "min": [
        -0.8239837884902954,
        0.4780506491661072,
        -2.1129281520843506
      ],
      "bufferView": 28,
      "byteOffset": 0
    },
    {
      "type": "VEC3",
      "componentType": 5126,
      "count": 259,
      "bufferView": 28,
      "byteOffset": 12
    },
    {
      "type": "VEC3",
      "componentType": 5126,
      "count": 332,
      "max": [
        0.785649299621582,
        0.6045053005218506,
        -1.7462586164474487
      ],
      "min": [
        -0.8033485412597656,
        0.5036535859107971,
        -2.080155849456787
      ],
      "bufferView": 29,
      "byteOffset": 0
    },
    {
      "type": "VEC3",
      "componentType": 5126,
      "count": 332,
      "bufferView": 29,
      "byteOffset": 12
    },
    {
      "type": "VEC3",
      "componentType": 5126,
      "count": 1132,
      "max": [
        0.9741780757904053,
        0.934739887714386,
        1.9526114463806152
      ],
      "min": [
        -0.9918602705001831,
        0.31594207882881165,
        -0.6482429504394531
      ],
      "bufferView": 30,
      "byteOffset": 0
    },
    {
      "type": "VEC3",
      "componentType": 5126,
      "count": 1132,
      "bufferView": 30,
      "byteOffset": 12
    },
    {
      "type": "VEC3",
      "componentType": 5126,
      "count": 812,
      "max": [
        0.8177748918533325,
        1.1733152866363525,
        1.5229748487472534
      ],
      "min": [
        -0.8354741334915161,
        0.3768710792064667,
        -1.3287638425827026
      ],
      "bufferView": 31,
      "byteOffset": 0
    },
    {
      "type": "VEC3",
      "componentType": 5126,
      "count": 812,
      "bufferView": 31,
      "byteOffset": 12
    },
    {
      "type": "VEC3",
      "componentType": 5126,
      "count": 1192,
      "max": [
        0.7615686655044556,
        0.8889827132225037,
        1.809019684791565
      ],
      "min": [
        -0.7789351940155029,
        0.5123447775840759,
        0.5990427732467651
      ],
      "bufferView": 32,
      "byteOffset": 0
    },
    {
      "type": "VEC3",
      "componentType": 5126,
      "count": 1192,
      "bufferView": 32,
      "byteOffset": 12
    },
    {
      "type": "VEC2",
      "componentType": 5126,
      "count": 1192,
      "bufferView": 32,
      "byteOffset": 24
    },
    {
      "type": "VEC3",
      "componentType": 5126,
      "count": 23,
      "max": [
        0.1378803849220276,
        0.7165566086769104,
        1.949510097503662
      ],
      "min": [
        -0.15557950735092163,
        0.5809007883071899,
        1.9021797180175781
      ],
      "bufferView": 33,
      "byteOffset": 0
    },
    {
      "type": "VEC3",
      "componentType": 5126,
      "count": 23,
      "bufferView": 33,
      "byteOffset": 12
    },
    {
      "type": "VEC2",
      "componentType": 5126,
      "count": 23,
      "bufferView": 33,
      "byteOffset": 24
    }
  ],
  "bufferViews": [
    {
      "buffer": 0,
      "byteOffset": 0,
      "byteLength": 25848,
      "byteStride": 24,
      "target": 34962
    },
    {
      "buffer": 0,
      "byteOffset": 25848,
      "byteLength": 649560,
      "target": 34963
    },
    {
      "buffer": 0,
      "byteOffset": 675408,
      "byteLength": 25872,
      "byteStride": 24,
      "target": 34962
    },
    {
      "buffer": 0,
      "byteOffset": 701280,
      "byteLength": 17504,
      "byteStride": 32,
      "target": 34962
    },
    {
      "buffer": 0,
      "byteOffset": 718784,
      "byteLength": 17472,
      "byteStride": 32,
      "target": 34962
    },
    {
      "buffer": 0,
      "byteOffset": 736256,
      "byteLength": 8864,
      "byteStride": 32,
      "target": 34962
    },
    {
      "buffer": 0,
      "byteOffset": 745120,
      "byteLength": 9344,
      "byteStride": 32,
      "target": 34962
    },
    {
      "buffer": 0,
      "byteOffset": 754464,
      "byteLength": 19488,
      "byteStride": 24,
      "target": 34962
    },
    {
      "buffer": 0,
      "byteOffset": 773952,
      "byteLength": 19464,
      "byteStride": 24,
      "target": 34962
    },
    {
      "buffer": 0,
      "byteOffset": 793416,
      "byteLength": 9216,
      "byteStride": 32,
      "target": 34962
    },
    {
      "buffer": 0,
      "byteOffset": 802632,
      "byteLength": 9280,
      "byteStride": 32,
      "target": 34962
    },
    {
      "buffer": 0,
      "byteOffset": 811912,
      "byteLength": 25800,
      "byteStride": 24,
      "target": 34962
    },
    {
      "buffer": 0,
      "byteOffset": 837712,
      "byteLength": 25872,
      "byteStride": 24,
      "target": 34962
    },
    {
      "buffer": 0,
      "byteOffset": 863584,
      "byteLength": 17536,
      "byteStride": 32,
      "target": 34962
    },
    {
      "buffer": 0,
      "byteOffset": 881120,
      "byteLength": 17536,
      "byteStride": 32,
      "target": 34962
    },
    {
      "buffer": 0,
      "byteOffset": 898656,
      "byteLength": 19488,
      "byteStride": 24,
      "target": 34962
    },
    {
      "buffer": 0,
      "byteOffset": 918144,
      "byteLength": 19416,
      "byteStride": 24,
      "target": 34962
    },
    {
      "buffer": 0,
      "byteOffset": 937560,
      "byteLength": 26400,
      "byteStride": 24,
      "target": 34962
    },
    {
      "buffer": 0,
      "byteOffset": 963960,
      "byteLength": 768,
      "byteStride": 24,
      "target": 34962
    },
    {
      "buffer": 0,
      "byteOffset": 964728,
      "byteLength": 696,
      "byteStride": 24,
      "target": 34962
    },
    {
      "buffer": 0,
      "byteOffset": 965424,
      "byteLength": 1872,
      "byteStride": 24,
      "target": 34962
    },
    {
      "buffer": 0,
      "byteOffset": 967296,
      "byteLength": 6744,
      "byteStride": 24,
      "target": 34962
    },
    {
      "buffer": 0,
      "byteOffset": 974040,
      "byteLength": 1224,
      "byteStride": 24,
      "target": 34962
    },
    {
      "buffer": 0,
      "byteOffset": 975264,
      "byteLength": 7344,
      "byteStride": 24,
      "target": 34962
    },
    {
      "buffer": 0,
      "byteOffset": 982608,
      "byteLength": 32640,
      "byteStride": 32,
      "target": 34962
    },
    {
      "buffer": 0,
      "byteOffset": 1015248,
      "byteLength": 367488,
      "byteStride": 24,
      "target": 34962
    },
    {
      "buffer": 0,
      "byteOffset": 1382736,
      "byteLength": 618168,
      "byteStride": 24,
      "target": 34962
    },
    {
      "buffer": 0,
      "byteOffset": 2000904,
      "byteLength": 31440,
      "byteStride": 24,
      "target": 34962
    },
    {
      "buffer": 0,
      "byteOffset": 2032344,
      "byteLength": 6216,
      "byteStride": 24,
      "target": 34962
    },
    {
      "buffer": 0,
      "byteOffset": 2038560,
      "byteLength": 7968,
      "byteStride": 24,
      "target": 34962
    },
    {
      "buffer": 0,
      "byteOffset": 2046528,
      "byteLength": 27168,
      "byteStride": 24,
      "target": 34962
    },
    {
      "buffer": 0,
      "byteOffset": 2073696,
      "byteLength": 19488,
      "byteStride": 24,
      "target": 34962
    },
    {
      "buffer": 0,
      "byteOffset": 2093184,
      "byteLength": 38144,
      "byteStride": 32,
      "target": 34962
    },
    {
      "buffer": 0,
      "byteOffset": 2131328,
      "byteLength": 736,
      "byteStride": 32,
      "target": 34962
    }
  ],
  "samplers": [
    {
      "magFilter": 9729,
      "minFilter": 9987,
      "wrapS": 10497,
      "wrapT": 10497
    }
  ],
  "textures": [
    {
      "source": 0,
      "sampler": 0
    },
    {
      "source": 2,
      "sampler": 0
    },
    {
      "source": 1,
      "sampler": 0
    },
    {
      "source": 3,
      "sampler": 0
    },
    {
      "source": 5,
      "sampler": 0
    },
    {
      "source": 4,
      "sampler": 0
    },
    {
      "source": 6,
      "sampler": 0
    },
    {
      "source": 8,
      "sampler": 0
    },
    {
      "source": 7,
      "sampler": 0
    },
    {
      "source": 9,
      "sampler": 0
    },
    {
      "source": 10,
      "sampler": 0
    }
  ],
  "images": [
    {
      "mimeType": "image/jpeg",
      "uri": "audi_r8_0.jpg"
    },
    {
      "mimeType": "image/jpeg",
      "uri": "audi_r8_1.jpg"
    },
    {
      "mimeType": "image/jpeg",
      "uri": "audi_r8_2.jpg"
    },
    {
      "mimeType": "image/jpeg",
      "uri": "audi_r8_3.jpg"
    },
    {
      "mimeType": "image/jpeg",
      "uri": "audi_r8_4.jpg"
    },
    {
      "mimeType": "image/jpeg",
      "uri": "audi_r8_5.jpg"
    },
    {
      "mimeType": "image/jpeg",
      "uri": "audi_r8_6.jpg"
    },
    {
      "mimeType": "image/jpeg",
      "uri": "audi_r8_7.jpg"
    },
    {
      "mimeType": "image/jpeg",
      "uri": "audi_r8_8.jpg"
    },
    {
      "mimeType": "image/jpeg",
      "uri": "audi_r8_9.jpg"
    },
    {
      "mimeType": "image/jpeg",
      "uri": "audi_r8_10.jpg"
    }
  ],
  "buffers": [
    {
      "uri": "audi_r8.bin",
      "byteLength": 2132064
    }
  ],
  "materials": [
    {
      "name": "rim:material",
      "doubleSided": true,
      "pbrMetallicRoughness": {
        "baseColorFactor": [
          0.006598275912249235,
          0.006598275912249235,
          0.006598275912249235,
          1
        ],
        "roughnessFactor": 0.3032390193951067,
        "metallicFactor": 0
      },
      "extensions": {
        "KHR_materials_clearcoat": {
          "clearcoatFactor": 1,
          "clearcoatRoughnessFactor": 0
        }
      }
    },
    {
      "name": "tyre:tire",
      "doubleSided": true,
      "pbrMetallicRoughness": {
        "baseColorTexture": {
          "index": 0
        },
        "metallicRoughnessTexture": {
          "index": 2
        }
      },
      "normalTexture": {
        "index": 1
      }
    },
    {
      "name": "rim:wheel",
      "doubleSided": true,
      "pbrMetallicRoughness": {
        "baseColorTexture": {
          "index": 0
        },
        "metallicRoughnessTexture": {
          "index": 2
        }
      },
      "normalTexture": {
        "index": 1
      }
    },
    {
      "name": "caliper:calipers",
      "doubleSided": true,
      "pbrMetallicRoughness": {
        "baseColorFactor": [
          0.31545681939380177,
          0.031747588404856926,
          0.031747588404856926,
          1
        ],
        "roughnessFactor": 0.1386670892711292,
        "metallicFactor": 0
      }
    },
    {
      "name": "light_tail:chrome",
      "doubleSided": true,
      "pbrMetallicRoughness": {
        "baseColorFactor": [
          0.8,
          0.8,
          0.8,
          1
        ],
        "roughnessFactor": 0.22400068266874718
      }
    },
    {
      "name": "light_tail:white_lights",
      "doubleSided": true,
      "pbrMetallicRoughness": {
        "baseColorFactor": [
          0.8,
          0.8,
          0.8,
          1
        ],
        "roughnessFactor": 0.8211145618000169,
        "metallicFactor": 0
      },
      "emissiveFactor": [
        1,
        1,
        1
      ]
    },
    {
      "name": "light_tail:red_lights",
      "doubleSided": true,
      "pbrMetallicRoughness": {
        "baseColorFactor": [
          1,
          0,
          0,
          1
        ],
        "roughnessFactor": 0.8211145618000169,
        "metallicFactor": 0
      },
      "emissiveFactor": [
        1,
        0,
        0
      ]
    },
    {
      "name": "light_tail:black",
      "doubleSided": true,
      "pbrMetallicRoughness": {
        "baseColorFactor": [
          0.10829235995947611,
          0.10829235995947611,
          0.10829235995947611,
          1
        ],
        "roughnessFactor": 0.21790542599748874
      },
      "extensions": {
        "KHR_materials_clearcoat": {
          "clearcoatFactor": 1,
          "clearcoatRoughnessFactor": 0.04
        }
      }
    },
    {
      "name": "light_tail:glass",
      "alphaMode": "BLEND",
      "doubleSided": true,
      "pbrMetallicRoughness": {
        "baseColorFactor": [
          0,
          0,
          0,
          0.46171569284782576
        ],
        "roughnessFactor": 0,
        "metallicFactor": 0
      },
      "extensions": {
        "KHR_materials_clearcoat": {
          "clearcoatFactor": 1,
          "clearcoatRoughnessFactor": 0.04
        }
      }
    },
    {
      "name": "glass:pure_black",
      "doubleSided": true,
      "pbrMetallicRoughness": {
        "baseColorFactor": [
          0,
          0,
          0,
          1
        ],
        "roughnessFactor": 0,
        "metallicFactor": 0
      }
    },
    {
      "name": "other:carbon_fiber",
      "doubleSided": true,
      "pbrMetallicRoughness": {
        "baseColorTexture": {
          "index": 3
        },
        "metallicRoughnessTexture": {
          "index": 5
        }
      },
      "normalTexture": {
        "index": 4
      },
      "extensions": {
        "KHR_materials_clearcoat": {
          "clearcoatFactor": 1,
          "clearcoatRoughnessFactor": 0.04
        }
      }
    },
    {
      "name": "paint:body",
      "doubleSided": true,
      "pbrMetallicRoughness": {
        "baseColorFactor": [
          0.33245153634617935,
          0.11953842798834559,
          0.024157632448504756,
          1
        ],
        "roughnessFactor": 0.4739062061903426
      },
      "extensions": {
        "KHR_materials_clearcoat": {
          "clearcoatFactor": 1,
          "clearcoatRoughnessFactor": 0
        }
      }
    },
    {
      "name": "other:matte_black",
      "doubleSided": true,
      "pbrMetallicRoughness": {
        "baseColorFactor": [
          0.007149217809741786,
          0.007149217809741786,
          0.007149217809741786,
          1
        ],
        "roughnessFactor": 0.4739062061903426,
        "metallicFactor": 0
      }
    },
    {
      "name": "other:secondary",
      "doubleSided": true,
      "pbrMetallicRoughness": {
        "baseColorTexture": {
          "index": 6
        },
        "metallicRoughnessTexture": {
          "index": 8
        }
      },
      "normalTexture": {
        "index": 7
      }
    },
    {
      "name": "other:license_plate",
      "doubleSided": true,
      "pbrMetallicRoughness": {
        "roughnessFactor": 0.22745098039215686,
        "metallicFactor": 0,
        "baseColorTexture": {
          "index": 9
        }
      },
      "normalTexture": {
        "index": 10
      }
    },
    {
      "name": "light_tail:pure_black",
      "doubleSided": true,
      "pbrMetallicRoughness": {
        "baseColorFactor": [
          0,
          0,
          0,
          1
        ],
        "roughnessFactor": 0,
        "metallicFactor": 0
      }
    },
    {
      "name": "other:black",
      "doubleSided": true,
      "pbrMetallicRoughness": {
        "baseColorFactor": [
          0.10829235995947611,
          0.10829235995947611,
          0.10829235995947611,
          1
        ],
        "roughnessFactor": 0.21790542599748874
      },
      "extensions": {
        "KHR_materials_clearcoat": {
          "clearcoatFactor": 1,
          "clearcoatRoughnessFactor": 0.04
        }
      }
    },
    {
      "name": "other:pure_black",
      "doubleSided": true,
      "pbrMetallicRoughness": {
        "baseColorFactor": [
          0,
          0,
          0,
          1
        ],
        "roughnessFactor": 0,
        "metallicFactor": 0
      }
    },
    {
      "name": "glass:glass",
      "alphaMode": "BLEND",
      "doubleSided": true,
      "pbrMetallicRoughness": {
        "baseColorFactor": [
          0,
          0,
          0,
          0.46171569284782576
        ],
        "roughnessFactor": 0,
        "metallicFactor": 0
      },
      "extensions": {
        "KHR_materials_clearcoat": {
          "clearcoatFactor": 1,
          "clearcoatRoughnessFactor": 0.04
        }
      }
    },
    {
      "name": "light_head:white_lights",
      "doubleSided": true,
      "pbrMetallicRoughness": {
        "baseColorFactor": [
          0.8,
          0.8,
          0.8,
          1
        ],
        "roughnessFactor": 0.8211145618000169,
        "metallicFactor": 0
      },
      "emissiveFactor": [
        1,
        1,
        1
      ]
    },
    {
      "name": "chrome:chrome",
      "doubleSided": true,
      "pbrMetallicRoughness": {
        "baseColorFactor": [
          0.8,
          0.8,
          0.8,
          1
        ],
        "roughnessFactor": 0.22400068266874718
      }
    }
  ],
  "meshes": [
    {
      "name": "Wheel_RL_Spin",
      "primitives": [
        {
          "attributes": {
            "POSITION": 0,
            "NORMAL": 1
          },
          "mode": 4,
          "material": 0,
          "indices": 2
        },
        {
          "attributes": {
            "POSITION": 37,
            "NORMAL": 38,
            "TEXCOORD_0": 39
          },
          "mode": 4,
          "material": 1,
          "indices": 4
        },
        {
          "attributes": {
            "POSITION": 43,
            "NORMAL": 44,
            "TEXCOORD_0": 45
          },
          "mode": 4,
          "material": 2,
          "indices": 6
        }
      ]
    },
    {
      "name": "Wheel_RR_Spin",
      "primitives": [
        {
          "attributes": {
            "POSITION": 35,
            "NORMAL": 36
          },
          "mode": 4,
          "material": 0,
          "indices": 3
        },
        {
          "attributes": {
            "POSITION": 40,
            "NORMAL": 41,
            "TEXCOORD_0": 42
          },
          "mode": 4,
          "material": 1,
          "indices": 5
        },
        {
          "attributes": {
            "POSITION": 46,
            "NORMAL": 47,
            "TEXCOORD_0": 48
          },
          "mode": 4,
          "material": 2,
          "indices": 7
        }
      ]
    },
    {
      "name": "Wheel_RL_Caliper",
      "primitives": [
        {
          "attributes": {
            "POSITION": 49,
            "NORMAL": 50
          },
          "mode": 4,
          "material": 3,
          "indices": 8
        }
      ]
    },
    {
      "name": "Wheel_RR_Caliper",
      "primitives": [
        {
          "attributes": {
            "POSITION": 51,
            "NORMAL": 52
          },
          "mode": 4,
          "material": 3,
          "indices": 9
        }
      ]
    },
    {
      "name": "Wheel_FL_Spin",
      "primitives": [
        {
          "attributes": {
            "POSITION": 53,
            "NORMAL": 54,
            "TEXCOORD_0": 55
          },
          "mode": 4,
          "material": 2,
          "indices": 10
        },
        {
          "attributes": {
            "POSITION": 59,
            "NORMAL": 60
          },
          "mode": 4,
          "material": 0,
          "indices": 12
        },
        {
          "attributes": {
            "POSITION": 63,
            "NORMAL": 64,
            "TEXCOORD_0": 65
          },
          "mode": 4,
          "material": 1,
          "indices": 14
        }
      ]
    },
    {
      "name": "Wheel_FR_Spin",
      "primitives": [
        {
          "attributes": {
            "POSITION": 56,
            "NORMAL": 57,
            "TEXCOORD_0": 58
          },
          "mode": 4,
          "material": 2,
          "indices": 11
        },
        {
          "attributes": {
            "POSITION": 61,
            "NORMAL": 62
          },
          "mode": 4,
          "material": 0,
          "indices": 13
        },
        {
          "attributes": {
            "POSITION": 66,
            "NORMAL": 67,
            "TEXCOORD_0": 68
          },
          "mode": 4,
          "material": 1,
          "indices": 15
        }
      ]
    },
    {
      "name": "Wheel_FL_Caliper",
      "primitives": [
        {
          "attributes": {
            "POSITION": 69,
            "NORMAL": 70
          },
          "mode": 4,
          "material": 3,
          "indices": 16
        }
      ]
    },
    {
      "name": "Wheel_FR_Caliper",
      "primitives": [
        {
          "attributes": {
            "POSITION": 71,
            "NORMAL": 72
          },
          "mode": 4,
          "material": 3,
          "indices": 17
        }
      ]
    },
    {
      "name": "Body",
      "primitives": [
        {
          "attributes": {
            "POSITION": 73,
            "NORMAL": 74
          },
          "mode": 4,
          "material": 4,
          "indices": 18
        },
        {
          "attributes": {
            "POSITION": 75,
            "NORMAL": 76
          },
          "mode": 4,
          "material": 5,
          "indices": 19
        },
        {
          "attributes": {
            "POSITION": 77,
            "NORMAL": 78
          },
          "mode": 4,
          "material": 6,
          "indices": 20
        },
        {
          "attributes": {
            "POSITION": 79,
            "NORMAL": 80
          },
          "mode": 4,
          "material": 7,
          "indices": 21
        },
        {
          "attributes": {
            "POSITION": 81,
            "NORMAL": 82
          },
          "mode": 4,
          "material": 8,
          "indices": 22
        },
        {
          "attributes": {
            "POSITION": 83,
            "NORMAL": 84
          },
          "mode": 4,
          "material": 9,
          "indices": 23
        },
        {
          "attributes": {
            "POSITION": 85,
            "NORMAL": 86
          },
          "mode": 4,
          "material": 15,
          "indices": 24
        },
        {
          "attributes": {
            "POSITION": 87,
            "NORMAL": 88,
            "TEXCOORD_0": 89
          },
          "mode": 4,
          "material": 10,
          "indices": 25
        },
        {
          "attributes": {
            "POSITION": 90,
            "NORMAL": 91
          },
          "mode": 4,
          "material": 11,
          "indices": 26
        },
        {
          "attributes": {
            "POSITION": 92,
            "NORMAL": 93
          },
          "mode": 4,
          "material": 16,
          "indices": 27
        },
        {
          "attributes": {
            "POSITION": 94,
            "NORMAL": 95
          },
          "mode": 4,
          "material": 17,
          "indices": 28
        },
        {
          "attributes": {
            "POSITION": 96,
            "NORMAL": 97
          },
          "mode": 4,
          "material": 18,
          "indices": 29
        },
        {
          "attributes": {
            "POSITION": 98,
            "NORMAL": 99
          },
          "mode": 4,
          "material": 19,
          "indices": 30
        },
        {
          "attributes": {
            "POSITION": 100,
            "NORMAL": 101
          },
          "mode": 4,
          "material": 20,
          "indices": 31
        },
        {
          "attributes": {
            "POSITION": 102,
            "NORMAL": 103
          },
          "mode": 4,
          "material": 12,
          "indices": 32
        },
        {
          "attributes": {
            "POSITION": 104,
            "NORMAL": 105,
            "TEXCOORD_0": 106
          },
          "mode": 4,
          "material": 13,
          "indices": 33
        },
        {
          "attributes": {
            "POSITION": 107,
            "NORMAL": 108,
            "TEXCOORD_0": 109
          },
          "mode": 4,
          "material": 14,
          "indices": 34
        }
      ]
    }
  ],
  "nodes": [
    {
      "name": "Wheel_RL",
      "translation": [
        -0.9074921309947968,
        0.3603315819054842,
        1.2835513651371002
      ],
      "children": [
        1,
        4
      ]
    },
    {
      "name": "Wheel_RL_Spin",
      "mesh": 0
    },
    {
      "name": "Wheel_RR",
      "translation": [
        0.8897929489612579,
        0.3603315819054842,
        1.2835513651371002
      ],
      "children": [
        3,
        5
      ]
    },
    {
      "name": "Wheel_RR_Spin",
      "mesh": 1
    },
    {
      "name": "Wheel_RL_Caliper",
      "mesh": 2
    },
    {
      "name": "Wheel_RR_Caliper",
      "mesh": 3
    },
    {
      "name": "Wheel_FL",
      "translation": [
        -0.8479642868041992,
        0.34778778813779354,
        -1.2983451187610626
      ],
      "children": [
        7,
        10
      ]
    },
    {
      "name": "Wheel_FL_Spin",
      "mesh": 4
    },
    {
      "name": "Wheel_FR",
      "translation": [
        0.865663468837738,
        0.34778778068721294,
        -1.2687576115131378
      ],
      "children": [
        9,
        11
      ]
    },
    {
      "name": "Wheel_FR_Spin",
      "mesh": 5
    },
    {
      "name": "Wheel_FL_Caliper",
      "mesh": 6
    },
    {
      "name": "Wheel_FR_Caliper",
      "mesh": 7
    },
    {
      "name": "Body",
      "mesh": 8
    }
  ],
  "scenes": [
    {
      "name": "Sketchfab_Scene",
      "nodes": [
        0,
        2,
        6,
        8,
        12
      ]
    }
  ],
  "scene": 0,
  "extensionsUsed": [
    "KHR_materials_clearcoat"
  ]
}