{
  "asset": {
    "generator": "glTF-Transform v4.5.0",
    "version": "2.0"
  },
  "accessors": [
    {
      "type": "VEC3",
      "componentType": 5126,
      "count": 16500,
      "max": [
        1.0107423067092896,
        1.442803978919983,
        2.523963451385498
      ],
      "min": [
        -1.0088127851486206,
        -0.010678991675376892,
        -2.325244188308716
      ],
      "bufferView": 0,
      "byteOffset": 0
    },
    {
      "type": "VEC3",
      "componentType": 5126,
      "count": 16500,
      "bufferView": 0,
      "byteOffset": 12
    },
    {
      "type": "VEC4",
      "componentType": 5126,
      "count": 16500,
      "bufferView": 0,
      "byteOffset": 24
    },
    {
      "type": "VEC2",
      "componentType": 5126,
      "count": 16500,
      "bufferView": 0,
      "byteOffset": 40
    },
    {
      "type": "SCALAR",
      "componentType": 5123,
      "count": 56499,
      "bufferView": 1,
      "byteOffset": 0
    },
    {
      "type": "SCALAR",
      "componentType": 5123,
      "count": 13020,
      "bufferView": 1,
      "byteOffset": 113000
    },
    {
      "type": "SCALAR",
      "componentType": 5123,
      "count": 1023,
      "bufferView": 1,
      "byteOffset": 139040
    },
    {
      "type": "SCALAR",
      "componentType": 5123,
      "count": 1047,
      "bufferView": 1,
      "byteOffset": 141088
    },
    {
      "type": "SCALAR",
      "componentType": 5123,
      "count": 258,
      "bufferView": 1,
      "byteOffset": 143184
    },
    {
      "type": "VEC3",
      "componentType": 5126,
      "count": 2712,
      "max": [
        1.0107423067092896,
        1.4866689443588257,
        2.5353779792785645
      ],
      "min": [
        -1.0088127851486206,
        0.19133062660694122,
        -2.315340280532837
      ],
      "bufferView": 2,
      "byteOffset": 0
    },
    {
      "type": "VEC3",
      "componentType": 5126,
      "count": 2712,
      "bufferView": 2,
      "byteOffset": 12
    },
    {
      "type": "VEC4",
      "componentType": 5126,
      "count": 2712,
      "bufferView": 2,
      "byteOffset": 24
    },
    {
      "type": "VEC2",
      "componentType": 5126,
      "count": 2712,
      "bufferView": 2,
      "byteOffset": 40
    },
    {
      "type": "VEC3",
      "componentType": 5126,
      "count": 284,
      "max": [
        1.0092270374298096,
        1.3895020484924316,
        2.4601943492889404
      ],
      "min": [
        -1.0072975158691406,
        0.32232484221458435,
        -2.2205076217651367
      ],
      "bufferView": 3,
      "byteOffset": 0
    },
    {
      "type": "VEC3",
      "componentType": 5126,
      "count": 284,
      "bufferView": 3,
      "byteOffset": 12
    },
    {
      "type": "VEC4",
      "componentType": 5126,
      "count": 284,
      "bufferView": 3,
      "byteOffset": 24
    },
    {
      "type": "VEC2",
      "componentType": 5126,
      "count": 284,
      "bufferView": 3,
      "byteOffset": 40
    },
    {
      "type": "VEC3",
      "componentType": 5126,
      "count": 284,
      "max": [
        0.845387876033783,
        0.9501253962516785,
        2.4660794734954834
      ],
      "min": [
        -0.8451740145683289,
        0.3519621193408966,
        -2.324679136276245
      ],
      "bufferView": 4,
      "byteOffset": 0
    },
    {
      "type": "VEC3",
      "componentType": 5126,
      "count": 284,
      "bufferView": 4,
      "byteOffset": 12
    },
    {
      "type": "VEC4",
      "componentType": 5126,
      "count": 284,
      "bufferView": 4,
      "byteOffset": 24
    },
    {
      "type": "VEC2",
      "componentType": 5126,
      "count": 284,
      "bufferView": 4,
      "byteOffset": 40
    },
    {
      "type": "VEC3",
      "componentType": 5126,
      "count": 80,
      "max": [
        0.8120794892311096,
        0.9451401829719543,
        2.421416997909546
      ],
      "min": [
        -0.8094198107719421,
        0.6361355781555176,
        -2.188875436782837
      ],
      "bufferView": 5,
      "byteOffset": 0
    },
    {
      "type": "VEC3",
      "componentType": 5126,
      "count": 80,
      "bufferView": 5,
      "byteOffset": 12
    },
    {
      "type": "VEC4",
      "componentType": 5126,
      "count": 80,
      "bufferView": 5,
      "byteOffset": 24
    },
    {
      "type": "VEC2",
      "componentType": 5126,
      "count": 80,
      "bufferView": 5,
      "byteOffset": 40
    }
  ],
  "bufferViews": [
    {
      "buffer": 0,
      "byteOffset": 0,
      "byteLength": 792000,
      "byteStride": 48,
      "target": 34962
    },
    {
      "buffer": 0,
      "byteOffset": 792000,
      "byteLength": 143700,
      "target": 34963
    },
    {
      "buffer": 0,
      "byteOffset": 935700,
      "byteLength": 130176,
      "byteStride": 48,
      "target": 34962
    },
    {
      "buffer": 0,
      "byteOffset": 1065876,
      "byteLength": 13632,
      "byteStride": 48,
      "target": 34962
    },
    {
      "buffer": 0,
      "byteOffset": 1079508,
      "byteLength": 13632,
      "byteStride": 48,
      "target": 34962
    },
    {
      "buffer": 0,
      "byteOffset": 1093140,
      "byteLength": 3840,
      "byteStride": 48,
      "target": 34962
    }
  ],
  "buffers": [
    {
      "uri": "skoda_superb.bin",
      "byteLength": 1096980
    }
  ],
  "materials": [
    {
      "name": "body:lite",
      "pbrMetallicRoughness": {
        "roughnessFactor": 0.5,
        "metallicFactor": 0
      }
    },
    {
      "name": "paint:lite",
      "pbrMetallicRoughness": {
        "roughnessFactor": 0.5,
        "metallicFactor": 0
      }
    },
    {
      "name": "glass:lite",
      "pbrMetallicRoughness": {
        "roughnessFactor": 0.05,
        "metallicFactor": 0
      }
    },
    {
      "name": "light_head:lite",
      "pbrMetallicRoughness": {
        "roughnessFactor": 0.5,
        "metallicFactor": 0
      }
    },
    {
      "name": "light_tail:lite",
      "pbrMetallicRoughness": {
        "roughnessFactor": 0.5,
        "metallicFactor": 0
      }
    }
  ],
  "meshes": [
    {
      "name": "Body",
      "primitives": [
        {
          "attributes": {
            "POSITION": 0,
            "NORMAL": 1,
            "COLOR_0": 2,
            "TEXCOORD_1": 3
          },
          "mode": 4,
          "material": 0,
          "indices": 4
        },
        {
          "attributes": {
            "POSITION": 9,
            "NORMAL": 10,
            "COLOR_0": 11,
            "TEXCOORD_1": 12
          },
          "mode": 4,
          "material": 1,
          "indices": 5
        },
        {
          "attributes": {
            "POSITION": 13,
            "NORMAL": 14,
            "COLOR_0": 15,
            "TEXCOORD_1": 16
          },
          "mode": 4,
          "material": 2,
          "indices": 6
        },
        {
          "attributes": {
            "POSITION": 17,
            "NORMAL": 18,
            "COLOR_0": 19,
            "TEXCOORD_1": 20
          },
          "mode": 4,
          "material": 3,
          "indices": 7
        },
        {
          "attributes": {
            "POSITION": 21,
            "NORMAL": 22,
            "COLOR_0": 23,
            "TEXCOORD_1": 24
          },
          "mode": 4,
          "material": 4,
          "indices": 8
        }
      ]
    }
  ],
  "nodes": [
    {
      "name": "Body",
      "mesh": 0
    }
  ],
  "scenes": [
    {
      "name": "Scene",
      "nodes": [
        0
      ]
    }
  ]
}