{
  "asset": {
    "generator": "glTF-Transform v4.5.0",
    "version": "2.0"
  },
  "accessors": [
    {
      "type": "VEC3",
      "componentType": 5126,
      "count": 52,
      "max": [
        0.7551195621490479,
        9.700933456420898,
        0.41186222434043884
      ],
      "min": [
        -0.28137680888175964,
        2.5054544711151335e-17,
        -0.5323203206062317
      ],
      "bufferView": 0,
      "byteOffset": 0
    },
    {
      "type": "VEC3",
      "componentType": 5126,
      "count": 52,
      "bufferView": 0,
      "byteOffset": 12
    },
    {
      "type": "VEC2",
      "componentType": 5126,
      "count": 52,
      "bufferView": 0,
      "byteOffset": 24
    },
    {
      "type": "SCALAR",
      "componentType": 5123,
      "count": 168,
      "bufferView": 1,
      "byteOffset": 0
    },
    {
      "type": "SCALAR",
      "componentType": 5123,
      "count": 435,
      "bufferView": 1,
      "byteOffset": 336
    },
    {
      "type": "VEC3",
      "componentType": 5126,
      "count": 130,
      "max": [
        0.6851292848587036,
        9.096800804138184,
        1.2831599712371826
      ],
      "min": [
        -1.0983811616897583,
        1.4893500804901123,
        -1.2358146905899048
      ],
      "bufferView": 2,
      "byteOffset": 0
    },
    {
      "type": "VEC3",
      "componentType": 5126,
      "count": 130,
      "bufferView": 2,
      "byteOffset": 12
    },
    {
      "type": "VEC2",
      "componentType": 5126,
      "count": 130,
      "bufferView": 2,
      "byteOffset": 24
    }
  ],
  "bufferViews": [
    {
      "buffer": 0,
      "byteOffset": 0,
      "byteLength": 1664,
      "byteStride": 32,
      "target": 34962
    },
    {
      "buffer": 0,
      "byteOffset": 1664,
      "byteLength": 1208,
      "target": 34963
    },
    {
      "buffer": 0,
      "byteOffset": 2872,
      "byteLength": 4160,
      "byteStride": 32,
      "target": 34962
    }
  ],
  "samplers": [
    {
      "wrapS": 10497,
      "wrapT": 10497
    }
  ],
  "textures": [
    {
      "source": 0,
      "sampler": 0
    },
    {
      "source": 1,
      "sampler": 0
    },
    {
      "source": 2,
      "sampler": 0
    },
    {
      "source": 3,
      "sampler": 0
    }
  ],
  "images": [
    {
      "name": "tree_cypress_far_0",
      "mimeType": "image/jpeg",
      "uri": "tree_cypress_far_0.jpg"
    },
    {
      "name": "tree_cypress_far_1",
      "mimeType": "image/jpeg",
      "uri": "tree_cypress_far_1.jpg"
    },
    {
      "name": "tree_cypress_far_2",
      "mimeType": "image/png",
      "uri": "tree_cypress_far_2.png"
    },
    {
      "name": "tree_cypress_far_3",
      "mimeType": "image/jpeg",
      "uri": "tree_cypress_far_3.jpg"
    }
  ],
  "buffers": [
    {
      "name": "tree_cypress_far.bin",
      "uri": "tree_cypress_far.bin",
      "byteLength": 7032
    }
  ],
  "materials": [
    {
      "name": "Cypress_bark",
      "doubleSided": true,
      "pbrMetallicRoughness": {
        "roughnessFactor": 0.6,
        "metallicFactor": 0,
        "baseColorTexture": {
          "index": 0
        }
      },
      "normalTexture": {
        "index": 1
      }
    },
    {
      "name": "Cypress_2_sided",
      "alphaMode": "MASK",
      "alphaCutoff": 0.4,
      "doubleSided": true,
      "pbrMetallicRoughness": {
        "roughnessFactor": 0.6,
        "metallicFactor": 0,
        "baseColorTexture": {
          "index": 2
        }
      },
      "normalTexture": {
        "index": 3
      }
    }
  ],
  "meshes": [
    {
      "name": "tree_cypress_far",
      "primitives": [
        {
          "attributes": {
            "POSITION": 0,
            "NORMAL": 1,
            "TEXCOORD_0": 2
          },
          "mode": 4,
          "material": 0,
          "indices": 3
        },
        {
          "attributes": {
            "POSITION": 5,
            "NORMAL": 6,
            "TEXCOORD_0": 7
          },
          "mode": 4,
          "material": 1,
          "indices": 4
        }
      ]
    }
  ],
  "nodes": [
    {
      "name": "tree_cypress_far",
      "mesh": 0
    }
  ],
  "scenes": [
    {
      "name": "Scene",
      "nodes": [
        0
      ]
    }
  ]
}