{
  "asset": {
    "generator": "glTF-Transform v4.5.0",
    "version": "2.0"
  },
  "accessors": [
    {
      "type": "VEC3",
      "componentType": 5126,
      "count": 523,
      "max": [
        0.9793772101402283,
        2.1125497817993164,
        1.1969002485275269
      ],
      "min": [
        -1.139948844909668,
        0.010115711018443108,
        -0.9998399019241333
      ],
      "bufferView": 0,
      "byteOffset": 0
    },
    {
      "type": "VEC3",
      "componentType": 5126,
      "count": 523,
      "bufferView": 0,
      "byteOffset": 12
    },
    {
      "type": "VEC2",
      "componentType": 5126,
      "count": 523,
      "bufferView": 0,
      "byteOffset": 24
    },
    {
      "type": "SCALAR",
      "componentType": 5123,
      "count": 1395,
      "bufferView": 1,
      "byteOffset": 0
    },
    {
      "type": "SCALAR",
      "componentType": 5123,
      "count": 1641,
      "bufferView": 1,
      "byteOffset": 2792
    },
    {
      "type": "VEC3",
      "componentType": 5126,
      "count": 723,
      "max": [
        1.1927300691604614,
        2.109375238418579,
        1.3812443017959595
      ],
      "min": [
        -1.2415519952774048,
        0.3622325360774994,
        -1.4534813165664673
      ],
      "bufferView": 2,
      "byteOffset": 0
    },
    {
      "type": "VEC3",
      "componentType": 5126,
      "count": 723,
      "bufferView": 2,
      "byteOffset": 12
    },
    {
      "type": "VEC2",
      "componentType": 5126,
      "count": 723,
      "bufferView": 2,
      "byteOffset": 24
    }
  ],
  "bufferViews": [
    {
      "buffer": 0,
      "byteOffset": 0,
      "byteLength": 16736,
      "byteStride": 32,
      "target": 34962
    },
    {
      "buffer": 0,
      "byteOffset": 16736,
      "byteLength": 6076,
      "target": 34963
    },
    {
      "buffer": 0,
      "byteOffset": 22812,
      "byteLength": 23136,
      "byteStride": 32,
      "target": 34962
    }
  ],
  "samplers": [
    {
      "wrapS": 10497,
      "wrapT": 10497
    }
  ],
  "textures": [
    {
      "source": 0,
      "sampler": 0
    },
    {
      "source": 1,
      "sampler": 0
    },
    {
      "source": 2,
      "sampler": 0
    }
  ],
  "images": [
    {
      "name": "bush_0",
      "mimeType": "image/jpeg",
      "uri": "bush_0.jpg"
    },
    {
      "name": "bush_1",
      "mimeType": "image/jpeg",
      "uri": "bush_1.jpg"
    },
    {
      "name": "bush_atlas2",
      "mimeType": "image/png",
      "uri": "bush_atlas2.png"
    }
  ],
  "buffers": [
    {
      "name": "bush.bin",
      "uri": "bush.bin",
      "byteLength": 45948
    }
  ],
  "materials": [
    {
      "name": "BS09_Bark01_su",
      "doubleSided": true,
      "pbrMetallicRoughness": {
        "metallicFactor": 0,
        "baseColorTexture": {
          "index": 0
        }
      },
      "normalTexture": {
        "index": 1
      }
    },
    {
      "name": "BS09_Leaf01_su",
      "alphaMode": "MASK",
      "alphaCutoff": 0.4,
      "doubleSided": true,
      "pbrMetallicRoughness": {
        "metallicFactor": 0,
        "baseColorTexture": {
          "index": 2
        }
      }
    }
  ],
  "meshes": [
    {
      "name": "bush",
      "primitives": [
        {
          "attributes": {
            "POSITION": 0,
            "NORMAL": 1,
            "TEXCOORD_0": 2
          },
          "mode": 4,
          "material": 0,
          "indices": 3
        },
        {
          "attributes": {
            "POSITION": 5,
            "NORMAL": 6,
            "TEXCOORD_0": 7
          },
          "mode": 4,
          "material": 1,
          "indices": 4
        }
      ]
    }
  ],
  "nodes": [
    {
      "name": "bush",
      "mesh": 0
    }
  ],
  "scenes": [
    {
      "name": "Scene",
      "nodes": [
        0
      ]
    }
  ]
}